<?xml version="1.0" encoding="UTF-8" standalone="no"?>
<!-- Created with Inkscape (http://www.inkscape.org/) -->

<svg
   xmlns:ns="http://wanglongqi.github.io/WriteTeX"
   xmlns:osb="http://www.openswatchbook.org/uri/2009/osb"
   xmlns:dc="http://purl.org/dc/elements/1.1/"
   xmlns:cc="http://creativecommons.org/ns#"
   xmlns:rdf="http://www.w3.org/1999/02/22-rdf-syntax-ns#"
   xmlns:svg="http://www.w3.org/2000/svg"
   xmlns="http://www.w3.org/2000/svg"
   xmlns:sodipodi="http://sodipodi.sourceforge.net/DTD/sodipodi-0.dtd"
   xmlns:inkscape="http://www.inkscape.org/namespaces/inkscape"
   inkscape:version="0.92.4 (unknown)"
   version="1.1"
   id="svg2"
   height="29.101839mm"
   width="38.393169mm"
   sodipodi:docname="cincorpomovgeralFundamental.svg">
  <sodipodi:namedview
     id="base"
     pagecolor="#ffffff"
     bordercolor="#666666"
     borderopacity="1.0"
     inkscape:pageopacity="0.0"
     inkscape:pageshadow="2"
     inkscape:zoom="2.8284273"
     inkscape:cx="84.993248"
     inkscape:cy="62.538662"
     inkscape:document-units="px"
     inkscape:current-layer="layer4"
     showgrid="false"
     units="mm"
     inkscape:window-width="1366"
     inkscape:window-height="713"
     inkscape:window-x="0"
     inkscape:window-y="27"
     inkscape:window-maximized="1"
     fit-margin-top="0"
     fit-margin-left="0"
     fit-margin-right="0"
     fit-margin-bottom="0" />
  <defs
     id="defs4">
    <marker
       style="overflow:visible"
       id="Arrow1Mend"
       refX="0"
       refY="0"
       orient="auto"
       inkscape:stockid="Arrow1Mend">
      <path
         inkscape:connector-curvature="0"
         transform="matrix(-0.4,0,0,-0.4,-4,0)"
         style="fill-rule:evenodd;stroke:#000000;stroke-width:1.00000003pt"
         d="M 0,0 5,-5 -12.5,0 5,5 Z"
         id="path5252" />
    </marker>
    <marker
       style="overflow:visible"
       id="Arrow2Send"
       refX="0"
       refY="0"
       orient="auto"
       inkscape:stockid="Arrow2Send">
      <path
         inkscape:connector-curvature="0"
         transform="matrix(-0.3,0,0,-0.3,0.69,0)"
         d="M 8.7185878,4.0337352 -2.2072895,0.01601326 8.7185884,-4.0017078 c -1.7454984,2.3720609 -1.7354408,5.6174519 -6e-7,8.035443 z"
         style="fill-rule:evenodd;stroke-width:0.625;stroke-linejoin:round"
         id="path5276" />
    </marker>
    <marker
       style="overflow:visible"
       id="Arrow2Lend"
       refX="0"
       refY="0"
       orient="auto"
       inkscape:stockid="Arrow2Lend">
      <path
         inkscape:connector-curvature="0"
         transform="matrix(-1.1,0,0,-1.1,-1.1,0)"
         d="M 8.7185878,4.0337352 -2.2072895,0.01601326 8.7185884,-4.0017078 c -1.7454984,2.3720609 -1.7354408,5.6174519 -6e-7,8.035443 z"
         style="fill-rule:evenodd;stroke-width:0.625;stroke-linejoin:round"
         id="path5264" />
    </marker>
    <linearGradient
       osb:paint="solid"
       id="linearGradient3775">
      <stop
         id="stop3777"
         offset="0"
         style="stop-color:#ff420e;stop-opacity:1;" />
    </linearGradient>
    <marker
       style="overflow:visible"
       id="Arrow1Mend-9"
       refX="0"
       refY="0"
       orient="auto"
       inkscape:stockid="Arrow1Mend">
      <path
         inkscape:connector-curvature="0"
         transform="matrix(-0.4,0,0,-0.4,-4,0)"
         style="fill-rule:evenodd;stroke:#000000;stroke-width:1.00000003pt"
         d="M 0,0 5,-5 -12.5,0 5,5 Z"
         id="path5252-1" />
    </marker>
    <marker
       style="overflow:visible"
       id="Arrow1Mend-8"
       refX="0"
       refY="0"
       orient="auto"
       inkscape:stockid="Arrow1Mend">
      <path
         inkscape:connector-curvature="0"
         transform="matrix(-0.4,0,0,-0.4,-4,0)"
         style="fill-rule:evenodd;stroke:#000000;stroke-width:1.00000003pt"
         d="M 0,0 5,-5 -12.5,0 5,5 Z"
         id="path5252-9" />
    </marker>
    <marker
       style="overflow:visible"
       id="Arrow1Mend-6"
       refX="0"
       refY="0"
       orient="auto"
       inkscape:stockid="Arrow1Mend">
      <path
         transform="matrix(-0.4,0,0,-0.4,-4,0)"
         style="fill-rule:evenodd;stroke:#000000;stroke-width:1.00000003pt"
         d="M 0,0 5,-5 -12.5,0 5,5 Z"
         id="path5252-3"
         inkscape:connector-curvature="0" />
    </marker>
    <marker
       style="overflow:visible"
       id="Arrow1Mend-3"
       refX="0"
       refY="0"
       orient="auto"
       inkscape:stockid="Arrow1Mend">
      <path
         transform="matrix(-0.4,0,0,-0.4,-4,0)"
         style="fill-rule:evenodd;stroke:#000000;stroke-width:1.00000003pt"
         d="M 0,0 5,-5 -12.5,0 5,5 Z"
         id="path5252-0"
         inkscape:connector-curvature="0" />
    </marker>
    <marker
       style="overflow:visible"
       id="Arrow1Mend-3-3"
       refX="0"
       refY="0"
       orient="auto"
       inkscape:stockid="Arrow1Mend">
      <path
         transform="matrix(-0.4,0,0,-0.4,-4,0)"
         style="fill-rule:evenodd;stroke:#000000;stroke-width:1.00000003pt"
         d="M 0,0 5,-5 -12.5,0 5,5 Z"
         id="path5252-0-6"
         inkscape:connector-curvature="0" />
    </marker>
    <marker
       style="overflow:visible"
       id="Arrow1Mend-3-3-5"
       refX="0"
       refY="0"
       orient="auto"
       inkscape:stockid="Arrow1Mend">
      <path
         transform="matrix(-0.4,0,0,-0.4,-4,0)"
         style="fill-rule:evenodd;stroke:#000000;stroke-width:1.00000003pt"
         d="M 0,0 5,-5 -12.5,0 5,5 Z"
         id="path5252-0-6-3"
         inkscape:connector-curvature="0" />
    </marker>
  </defs>
  <metadata
     id="metadata7">
    <rdf:RDF>
      <cc:Work
         rdf:about="">
        <dc:format>image/svg+xml</dc:format>
        <dc:type
           rdf:resource="http://purl.org/dc/dcmitype/StillImage" />
        <dc:title></dc:title>
      </cc:Work>
    </rdf:RDF>
  </metadata>
  <g
     inkscape:groupmode="layer"
     id="layer4"
     inkscape:label="Layer 2"
     transform="translate(-12.43058,-17.154475)">
    <path
       inkscape:connector-curvature="0"
       style="display:inline;fill:#ffd15c;stroke-width:0.25091279"
       d="m 151.3552,100.64198 c 0,0 2.31598,20.95452 -27.00683,26.38644 0,0 -6.18911,2.17328 -38.021378,-12.19289 0,0 -43.555543,-9.67202 -56.441253,-22.17283 0,0 -15.3922,-11.731752 -17.229421,-28.445136 C 9.918779,40.101412 32.9838,25.894143 32.9838,25.894143 c 0,0 22.970823,-17.1950768 57.386462,-3.347295 34.338708,13.5971 48.987458,38.994833 48.987458,38.994833 0,0 12.14799,19.034306 11.99748,39.100299 z"
       id="path2213" />
    <g
       style="display:inline"
       transform="matrix(-0.07360121,-0.23987512,0.23987512,-0.07360121,39.044185,154.02522)"
       id="g2229">
      <path
         inkscape:connector-curvature="0"
         style="fill:#f8b64c"
         d="m 242.416,122.524 c -10.449,0 -20.898,-7.314 -24.033,-17.763 -1.045,-3.135 1.045,-5.224 3.135,-6.269 3.135,-1.045 5.224,1.045 6.269,3.135 2.09,6.269 7.314,10.449 13.584,10.449 6.269,0 11.494,-4.18 13.584,-10.449 1.045,-3.135 4.18,-4.18 6.269,-3.135 3.135,1.045 4.18,4.18 3.135,6.269 -2.09,10.448 -11.494,17.763 -21.943,17.763 z"
         id="path2215" />
      <path
         inkscape:connector-curvature="0"
         style="fill:#f8b64c"
         d="m 419.004,118.344 c -10.449,0 -20.898,-7.314 -24.033,-17.763 -1.045,-3.135 1.045,-5.224 3.135,-6.269 3.135,-1.045 5.224,1.045 6.269,3.135 2.09,6.269 7.314,10.449 13.584,10.449 6.27,0 11.494,-4.18 13.584,-10.449 1.045,-3.135 4.18,-4.18 6.269,-3.135 3.135,1.045 4.18,4.18 3.135,6.269 -2.09,10.449 -11.494,17.763 -21.943,17.763 z"
         id="path2217" />
      <path
         inkscape:connector-curvature="0"
         style="fill:#f8b64c"
         d="m 385.567,261.495 c -10.449,0 -20.898,-7.314 -24.033,-17.763 -1.045,-3.135 1.045,-5.224 3.135,-6.269 3.135,-1.045 5.225,1.045 6.269,3.135 2.09,6.269 7.314,10.449 13.584,10.449 6.27,0 11.494,-4.18 13.584,-10.449 1.045,-3.135 4.18,-4.18 6.269,-3.135 3.135,1.045 4.18,4.18 3.135,6.269 -1.045,10.449 -11.494,17.763 -21.943,17.763 z"
         id="path2219" />
      <path
         inkscape:connector-curvature="0"
         style="fill:#f8b64c"
         d="m 310.335,215.519 c -10.449,0 -20.898,-7.314 -24.033,-17.763 -1.045,-3.135 1.045,-5.224 3.135,-6.269 3.135,-1.045 5.224,1.045 6.269,3.135 2.09,6.269 7.314,10.449 13.584,10.449 6.269,0 11.494,-4.18 13.584,-10.449 1.045,-3.135 4.18,-4.18 6.269,-3.135 3.135,1.045 4.18,4.18 3.135,6.269 -1.045,10.449 -10.449,17.763 -21.943,17.763 z"
         id="path2221" />
      <path
         inkscape:connector-curvature="0"
         style="fill:#f8b64c"
         d="m 310.335,377.479 c -10.449,0 -20.898,-7.314 -24.033,-17.763 -1.045,-3.135 1.045,-5.224 3.135,-6.269 3.135,-1.045 5.224,1.045 6.269,3.135 2.09,6.269 7.314,10.449 13.584,10.449 6.269,0 11.494,-4.18 13.584,-10.449 1.045,-3.135 4.18,-4.18 6.269,-3.135 3.135,1.045 4.18,4.18 3.135,6.269 -1.045,10.448 -10.449,17.763 -21.943,17.763 z"
         id="path2223" />
      <path
         inkscape:connector-curvature="0"
         style="fill:#f8b64c"
         d="m 169.273,299.111 c -10.449,0 -20.898,-7.314 -24.033,-17.763 -1.045,-3.135 1.045,-5.224 3.135,-6.269 3.135,-1.045 5.225,1.045 6.269,3.135 2.09,6.269 7.314,10.449 13.584,10.449 6.269,0 11.494,-4.18 13.584,-10.449 1.045,-3.135 4.18,-4.18 6.269,-3.135 3.135,1.045 4.18,4.18 3.135,6.269 -2.089,10.449 -11.494,17.763 -21.943,17.763 z"
         id="path2225" />
      <path
         inkscape:connector-curvature="0"
         style="fill:#f8b64c"
         d="m 86.727,422.409 c -10.449,0 -20.898,-7.314 -24.033,-17.763 -1.045,-3.135 1.045,-5.224 3.135,-6.269 3.135,-1.045 5.224,1.045 6.269,3.135 2.09,6.269 7.314,10.449 13.584,10.449 6.27,0 11.494,-4.18 13.584,-10.449 1.045,-3.135 4.18,-4.18 6.269,-3.135 3.135,1.045 4.18,4.18 3.135,6.269 -2.09,10.449 -11.494,17.763 -21.943,17.763 z"
         id="path2227" />
    </g>
    <path
       inkscape:connector-curvature="0"
       style="display:inline;fill:#fcc956;stroke-width:0.25091279"
       d="m 32.809978,26.221484 c 0,0 -0.675101,0.481405 -2.025039,1.444146 9.795064,-3.828234 26.702135,-6.821964 47.648273,1.560311 34.338718,13.597098 48.987468,38.994832 48.987468,38.994832 0,0 12.14813,19.03479 11.99729,39.100617 0,0 1.24487,10.31348 -8.32242,18.45959 21.90293,-7.26904 20.08565,-24.81135 20.08565,-24.81135 0.15075,-20.066055 -11.9973,-39.100608 -11.9973,-39.100608 0,0 -14.64877,-25.39773 -48.987478,-38.994833 C 55.781039,9.0263432 32.809978,26.221484 32.809978,26.221484 Z"
       id="path2231" />
    <g
       id="g1810"
       style="display:inline;stroke-width:2.73232889"
       transform="matrix(1.3832624,0,0,1.3832624,-98.145504,-112.63326)"
       ns:text="\\( \\vec{\\omega} \\)">
      <g
         id="surface1">
        <g
           id="g1803"
           style="fill:#000000;fill-opacity:1">
          <path
             id="path1801"
             transform="translate(178.607,110.99)"
             d="m 5.359375,-5.9375 c -0.140625,0.140625 -0.46875,0.421875 -0.46875,0.59375 0,0.09375 0.09375,0.203125 0.1875,0.203125 0.09375,0 0.140625,-0.078125 0.203125,-0.140625 C 5.390625,-5.421875 5.625,-5.703125 6.0625,-5.921875 6.125,-5.96875 6.234375,-6.015625 6.234375,-6.125 6.234375,-6.234375 6.15625,-6.28125 6.09375,-6.328125 5.875,-6.484375 5.765625,-6.65625 5.6875,-6.890625 5.65625,-6.984375 5.625,-7.125 5.484375,-7.125 c -0.140625,0 -0.203125,0.140625 -0.203125,0.21875 0,0.046875 0.078125,0.359375 0.234375,0.578125 H 2.15625 c -0.15625,0 -0.34375,0 -0.34375,0.203125 0,0.1875 0.1875,0.1875 0.34375,0.1875 z m 0,0"
             style="stroke:none"
             inkscape:connector-curvature="0" />
        </g>
        <g
           id="g1807"
           style="fill:#000000;fill-opacity:1">
          <path
             id="path1805"
             transform="translate(178.58707,110.99)"
             d="m 6.03125,-3.703125 c 0,-0.453125 -0.171875,-0.703125 -0.40625,-0.703125 -0.25,0 -0.515625,0.234375 -0.515625,0.46875 0,0.09375 0.046875,0.203125 0.140625,0.296875 0.171875,0.15625 0.359375,0.421875 0.359375,0.84375 0,0.390625 -0.203125,0.96875 -0.5,1.421875 C 4.8125,-0.953125 4.4375,-0.609375 3.96875,-0.609375 3.40625,-0.609375 3.09375,-0.96875 3,-1.5 c 0.109375,-0.265625 0.34375,-0.90625 0.34375,-1.1875 0,-0.109375 -0.046875,-0.21875 -0.1875,-0.21875 -0.078125,0 -0.1875,0.03125 -0.265625,0.171875 C 2.78125,-2.53125 2.65625,-1.890625 2.65625,-1.53125 2.328125,-1.0625 1.9375,-0.609375 1.3125,-0.609375 c -0.671875,0 -0.875,-0.59375 -0.875,-1.140625 0,-1.25 1.015625,-2.296875 1.015625,-2.421875 0,-0.109375 -0.078125,-0.1875 -0.1875,-0.1875 -0.125,0 -0.203125,0.125 -0.265625,0.21875 -0.5,0.734375 -0.875,1.921875 -0.875,2.828125 0,0.6875 0.21875,1.421875 1.046875,1.421875 0.703125,0 1.171875,-0.5 1.53125,-1.046875 0.09375,0.578125 0.484375,1.046875 1.09375,1.046875 0.78125,0 1.25,-0.609375 1.609375,-1.359375 0.25,-0.484375 0.625,-1.84375 0.625,-2.453125 z m 0,0"
             style="stroke:none"
             inkscape:connector-curvature="0" />
        </g>
      </g>
    </g>
    <g
       id="g2188"
       style="display:inline;stroke-width:2.73232889"
       transform="matrix(1.3832624,0,0,1.3832624,-119.8392,-62.897806)"
       ns:text="\\( \\vec{v}_P \\)">
      <g
         id="g2186">
        <g
           id="g2176"
           style="fill:#000000;fill-opacity:1">
          <path
             id="path2174"
             transform="translate(178.198,110.99)"
             d="m 5.359375,-5.9375 c -0.140625,0.140625 -0.46875,0.421875 -0.46875,0.59375 0,0.09375 0.09375,0.203125 0.1875,0.203125 0.09375,0 0.140625,-0.078125 0.203125,-0.140625 C 5.390625,-5.421875 5.625,-5.703125 6.0625,-5.921875 6.125,-5.96875 6.234375,-6.015625 6.234375,-6.125 6.234375,-6.234375 6.15625,-6.28125 6.09375,-6.328125 5.875,-6.484375 5.765625,-6.65625 5.6875,-6.890625 5.65625,-6.984375 5.625,-7.125 5.484375,-7.125 c -0.140625,0 -0.203125,0.140625 -0.203125,0.21875 0,0.046875 0.078125,0.359375 0.234375,0.578125 H 2.15625 c -0.15625,0 -0.34375,0 -0.34375,0.203125 0,0.1875 0.1875,0.1875 0.34375,0.1875 z m 0,0"
             style="stroke:none"
             inkscape:connector-curvature="0" />
        </g>
        <g
           id="g2180"
           style="fill:#000000;fill-opacity:1">
          <path
             id="path2178"
             transform="translate(178.58654,110.99)"
             d="m 4.671875,-3.703125 c 0,-0.546875 -0.265625,-0.703125 -0.4375,-0.703125 -0.25,0 -0.5,0.265625 -0.5,0.484375 0,0.125 0.046875,0.1875 0.15625,0.296875 0.21875,0.203125 0.34375,0.453125 0.34375,0.8125 0,0.421875 -0.609375,2.703125 -1.765625,2.703125 -0.515625,0 -0.75,-0.34375 -0.75,-0.875 0,-0.546875 0.28125,-1.28125 0.578125,-2.109375 0.078125,-0.171875 0.125,-0.3125 0.125,-0.5 0,-0.4375 -0.3125,-0.8125 -0.8125,-0.8125 -0.9375,0 -1.3125,1.453125 -1.3125,1.53125 0,0.109375 0.09375,0.109375 0.109375,0.109375 0.109375,0 0.109375,-0.03125 0.15625,-0.1875 0.296875,-1 0.71875,-1.234375 1.015625,-1.234375 0.078125,0 0.25,0 0.25,0.3125 0,0.25 -0.109375,0.53125 -0.171875,0.703125 -0.4375,1.15625 -0.5625,1.609375 -0.5625,2.046875 0,1.078125 0.875,1.234375 1.328125,1.234375 1.671875,0 2.25,-3.296875 2.25,-3.8125 z m 0,0"
             style="stroke:none"
             inkscape:connector-curvature="0" />
        </g>
        <g
           id="g2184"
           style="fill:#000000;fill-opacity:1">
          <path
             id="path2182"
             transform="translate(183.414,112.485)"
             d="m 2.375,-2.15625 h 1.265625 c 1.171875,0 2.171875,-0.75 2.171875,-1.515625 0,-0.59375 -0.578125,-1.09375 -1.53125,-1.09375 h -2.4375 c -0.140625,0 -0.21875,0 -0.21875,0.15625 0,0.09375 0.078125,0.09375 0.234375,0.09375 0.109375,0 0.140625,0 0.265625,0.015625 0.140625,0.015625 0.140625,0.03125 0.140625,0.109375 0,0 0,0.046875 -0.015625,0.140625 L 1.328125,-0.578125 C 1.25,-0.296875 1.25,-0.25 0.703125,-0.25 0.578125,-0.25 0.5,-0.25 0.5,-0.09375 0.5,-0.09375 0.5,0 0.609375,0 0.8125,0 1.3125,-0.03125 1.515625,-0.03125 1.625,-0.03125 1.875,-0.03125 2,-0.015625 2.125,-0.015625 2.3125,0 2.4375,0 2.484375,0 2.578125,0 2.578125,-0.15625 2.578125,-0.25 2.5,-0.25 2.359375,-0.25 c 0,0 -0.140625,0 -0.265625,-0.015625 C 1.9375,-0.28125 1.9375,-0.296875 1.9375,-0.375 c 0,0 0,-0.046875 0.03125,-0.140625 z m 0.5,-2.109375 c 0.0625,-0.21875 0.0625,-0.25 0.359375,-0.25 h 0.8125 c 0.65625,0 1.046875,0.203125 1.046875,0.703125 0,0.203125 -0.078125,0.765625 -0.421875,1.078125 -0.25,0.21875 -0.65625,0.34375 -1.15625,0.34375 H 2.40625 Z m 0,0"
             style="stroke:none"
             inkscape:connector-curvature="0" />
        </g>
      </g>
    </g>
    <g
       id="g2286"
       style="display:inline;stroke-width:2.73232889"
       transform="matrix(1.3832624,0,0,1.3832624,-215.85176,-77.251358)"
       ns:text="\\( \\vec{v}_O \\)">
      <g
         id="g2284">
        <g
           id="g2274"
           style="fill:#000000;fill-opacity:1">
          <path
             id="path2272"
             transform="translate(178.198,110.99)"
             d="m 5.359375,-5.9375 c -0.140625,0.140625 -0.46875,0.421875 -0.46875,0.59375 0,0.09375 0.09375,0.203125 0.1875,0.203125 0.09375,0 0.140625,-0.078125 0.203125,-0.140625 C 5.390625,-5.421875 5.625,-5.703125 6.0625,-5.921875 6.125,-5.96875 6.234375,-6.015625 6.234375,-6.125 6.234375,-6.234375 6.15625,-6.28125 6.09375,-6.328125 5.875,-6.484375 5.765625,-6.65625 5.6875,-6.890625 5.65625,-6.984375 5.625,-7.125 5.484375,-7.125 c -0.140625,0 -0.203125,0.140625 -0.203125,0.21875 0,0.046875 0.078125,0.359375 0.234375,0.578125 H 2.15625 c -0.15625,0 -0.34375,0 -0.34375,0.203125 0,0.1875 0.1875,0.1875 0.34375,0.1875 z m 0,0"
             style="stroke:none"
             inkscape:connector-curvature="0" />
        </g>
        <g
           id="g2278"
           style="fill:#000000;fill-opacity:1">
          <path
             id="path2276"
             transform="translate(178.58654,110.99)"
             d="m 4.671875,-3.703125 c 0,-0.546875 -0.265625,-0.703125 -0.4375,-0.703125 -0.25,0 -0.5,0.265625 -0.5,0.484375 0,0.125 0.046875,0.1875 0.15625,0.296875 0.21875,0.203125 0.34375,0.453125 0.34375,0.8125 0,0.421875 -0.609375,2.703125 -1.765625,2.703125 -0.515625,0 -0.75,-0.34375 -0.75,-0.875 0,-0.546875 0.28125,-1.28125 0.578125,-2.109375 0.078125,-0.171875 0.125,-0.3125 0.125,-0.5 0,-0.4375 -0.3125,-0.8125 -0.8125,-0.8125 -0.9375,0 -1.3125,1.453125 -1.3125,1.53125 0,0.109375 0.09375,0.109375 0.109375,0.109375 0.109375,0 0.109375,-0.03125 0.15625,-0.1875 0.296875,-1 0.71875,-1.234375 1.015625,-1.234375 0.078125,0 0.25,0 0.25,0.3125 0,0.25 -0.109375,0.53125 -0.171875,0.703125 -0.4375,1.15625 -0.5625,1.609375 -0.5625,2.046875 0,1.078125 0.875,1.234375 1.328125,1.234375 1.671875,0 2.25,-3.296875 2.25,-3.8125 z m 0,0"
             style="stroke:none"
             inkscape:connector-curvature="0" />
        </g>
        <g
           id="g2282"
           style="fill:#000000;fill-opacity:1">
          <path
             id="path2280"
             transform="translate(183.414,112.485)"
             d="m 5.78125,-2.96875 c 0,-1.09375 -0.796875,-1.9375 -2.03125,-1.9375 -1.65625,0 -3.265625,1.5625 -3.265625,3.140625 0,1.125 0.828125,1.90625 2.03125,1.90625 1.65625,0 3.265625,-1.515625 3.265625,-3.109375 z m -3.21875,2.875 c -0.734375,0 -1.359375,-0.5 -1.359375,-1.53125 0,-0.359375 0.09375,-1.34375 0.734375,-2.140625 0.46875,-0.5625 1.140625,-0.90625 1.765625,-0.90625 0.71875,0 1.390625,0.453125 1.390625,1.46875 0,0.5 -0.21875,1.53125 -0.859375,2.265625 C 3.75,-0.375 3.109375,-0.09375 2.5625,-0.09375 Z m 0,0"
             style="stroke:none"
             inkscape:connector-curvature="0" />
        </g>
      </g>
    </g>
    <g
       id="g2382"
       style="display:inline;stroke-width:2.73232889"
       transform="matrix(1.3832624,0,0,1.3832624,-170.99516,-88.478387)"
       ns:text="\\( \\vec{r} \\)">
      <g
         id="g2380">
        <g
           id="g2374"
           style="fill:#000000;fill-opacity:1">
          <path
             id="path2372"
             transform="translate(178.267,110.99)"
             d="m 5.359375,-5.9375 c -0.140625,0.140625 -0.46875,0.421875 -0.46875,0.59375 0,0.09375 0.09375,0.203125 0.1875,0.203125 0.09375,0 0.140625,-0.078125 0.203125,-0.140625 C 5.390625,-5.421875 5.625,-5.703125 6.0625,-5.921875 6.125,-5.96875 6.234375,-6.015625 6.234375,-6.125 6.234375,-6.234375 6.15625,-6.28125 6.09375,-6.328125 5.875,-6.484375 5.765625,-6.65625 5.6875,-6.890625 5.65625,-6.984375 5.625,-7.125 5.484375,-7.125 c -0.140625,0 -0.203125,0.140625 -0.203125,0.21875 0,0.046875 0.078125,0.359375 0.234375,0.578125 H 2.15625 c -0.15625,0 -0.34375,0 -0.34375,0.203125 0,0.1875 0.1875,0.1875 0.34375,0.1875 z m 0,0"
             style="stroke:none"
             inkscape:connector-curvature="0" />
        </g>
        <g
           id="g2378"
           style="fill:#000000;fill-opacity:1">
          <path
             id="path2376"
             transform="translate(178.5858,110.99)"
             d="m 0.875,-0.59375 c -0.03125,0.15625 -0.09375,0.390625 -0.09375,0.4375 0,0.171875 0.140625,0.265625 0.296875,0.265625 0.125,0 0.296875,-0.078125 0.375,-0.28125 C 1.46875,-0.203125 1.796875,-1.5625 1.84375,-1.75 c 0.078125,-0.328125 0.265625,-1.015625 0.3125,-1.296875 0.046875,-0.125 0.328125,-0.59375 0.5625,-0.8125 0.078125,-0.0625 0.375,-0.328125 0.796875,-0.328125 0.265625,0 0.40625,0.125 0.421875,0.125 -0.296875,0.046875 -0.515625,0.28125 -0.515625,0.546875 0,0.15625 0.109375,0.34375 0.375,0.34375 0.265625,0 0.546875,-0.234375 0.546875,-0.59375 0,-0.34375 -0.3125,-0.640625 -0.828125,-0.640625 C 2.875,-4.40625 2.4375,-3.921875 2.25,-3.640625 2.15625,-4.09375 1.796875,-4.40625 1.328125,-4.40625 0.875,-4.40625 0.6875,-4.015625 0.59375,-3.84375 0.421875,-3.5 0.296875,-2.90625 0.296875,-2.875 c 0,0.109375 0.09375,0.109375 0.109375,0.109375 0.109375,0 0.109375,-0.015625 0.171875,-0.234375 0.171875,-0.703125 0.375,-1.1875 0.734375,-1.1875 0.15625,0 0.296875,0.078125 0.296875,0.453125 0,0.21875 -0.03125,0.328125 -0.15625,0.84375 z m 0,0"
             style="stroke:none"
             inkscape:connector-curvature="0" />
        </g>
      </g>
    </g>
    <g
       id="g2472"
       style="display:inline;stroke-width:2.73232889"
       transform="matrix(1.3832624,0,0,1.3832624,-156.8025,-52.709287)"
       ns:text="\\( P \\)">
      <g
         id="g2470">
        <g
           id="g2468"
           style="fill:#000000;fill-opacity:1">
          <path
             id="path2466"
             transform="translate(178.585,110.99)"
             d="M 3.015625,-3.15625 H 4.71875 c 1.40625,0 2.796875,-1.03125 2.796875,-2.140625 0,-0.78125 -0.65625,-1.515625 -1.96875,-1.515625 h -3.21875 c -0.1875,0 -0.296875,0 -0.296875,0.1875 0,0.125 0.078125,0.125 0.28125,0.125 0.125,0 0.3125,0.015625 0.421875,0.015625 0.171875,0.03125 0.21875,0.046875 0.21875,0.171875 0,0.03125 0,0.0625 -0.03125,0.1875 l -1.34375,5.34375 c -0.09375,0.390625 -0.109375,0.46875 -0.90625,0.46875 -0.15625,0 -0.265625,0 -0.265625,0.1875 C 0.40625,0 0.515625,0 0.546875,0 0.828125,0 1.53125,-0.03125 1.8125,-0.03125 c 0.21875,0 0.4375,0.015625 0.640625,0.015625 0.21875,0 0.4375,0.015625 0.640625,0.015625 0.078125,0 0.203125,0 0.203125,-0.203125 0,-0.109375 -0.09375,-0.109375 -0.28125,-0.109375 -0.359375,0 -0.640625,0 -0.640625,-0.171875 0,-0.0625 0.015625,-0.109375 0.03125,-0.171875 z M 3.734375,-6.125 C 3.828125,-6.46875 3.84375,-6.5 4.28125,-6.5 h 0.953125 c 0.828125,0 1.359375,0.265625 1.359375,0.953125 0,0.390625 -0.203125,1.25 -0.59375,1.609375 -0.5,0.453125 -1.09375,0.53125 -1.53125,0.53125 H 3.0625 Z m 0,0"
             style="stroke:none"
             inkscape:connector-curvature="0" />
        </g>
      </g>
    </g>
    <g
       id="g2558"
       style="display:inline;stroke-width:2.73232889"
       transform="matrix(1.3832624,0,0,1.3832624,-205.06318,-108.24615)"
       ns:text="\\( O \\)">
      <g
         id="g2556">
        <g
           id="g2554"
           style="fill:#000000;fill-opacity:1">
          <path
             id="path2552"
             transform="translate(178.585,110.99)"
             d="m 7.375,-4.34375 c 0,-1.609375 -1.0625,-2.6875 -2.546875,-2.6875 -2.140625,0 -4.34375,2.265625 -4.34375,4.59375 0,1.65625 1.125,2.65625 2.5625,2.65625 2.109375,0 4.328125,-2.1875 4.328125,-4.5625 z m -4.28125,4.296875 c -0.984375,0 -1.671875,-0.796875 -1.671875,-2.109375 0,-0.453125 0.140625,-1.90625 0.90625,-3.0625 0.6875,-1.046875 1.65625,-1.5625 2.453125,-1.5625 0.8125,0 1.703125,0.5625 1.703125,2.046875 0,0.71875 -0.265625,2.265625 -1.25,3.5 C 4.75,-0.625 3.9375,-0.046875 3.09375,-0.046875 Z m 0,0"
             style="stroke:none"
             inkscape:connector-curvature="0" />
        </g>
      </g>
    </g>
  </g>
  <g
     transform="translate(-124.41452,-906.30104)"
     id="layer1"
     inkscape:groupmode="layer"
     inkscape:label="Layer 1"
     style="display:inline">
    <path
       inkscape:connector-curvature="0"
       id="path3831"
       d="m 49.537321,51.889468 c 44.92152,29.560233 44.92152,29.560233 44.92152,29.560233"
       style="fill:none;stroke:#000000;stroke-width:1.20000005;stroke-linecap:butt;stroke-linejoin:miter;stroke-miterlimit:4;stroke-dasharray:none;stroke-opacity:1;marker-end:url(#Arrow1Mend-3)"
       transform="translate(111.98394,889.14656)" />
    <path
       inkscape:connector-curvature="0"
       id="path3833"
       d="m 245.45543,930.44397 21.44948,-20.69925"
       style="fill:none;stroke:#000000;stroke-width:1.20000005;stroke-linecap:butt;stroke-linejoin:miter;stroke-miterlimit:4;stroke-dasharray:none;stroke-opacity:1;marker-start:none;marker-end:url(#Arrow1Mend-3)" />
    <circle
       id="path4417"
       style="fill:#000000;fill-opacity:1;stroke:none;stroke-width:0.578767"
       cx="47.960842"
       cy="50.698841"
       r="2.3150678"
       transform="translate(111.98394,889.14656)" />
    <circle
       id="path4417-3"
       style="fill:#000000;fill-opacity:1;stroke:none;stroke-width:0.578767"
       cx="97.863426"
       cy="83.881485"
       r="2.3150678"
       transform="translate(111.98394,889.14656)" />
    <path
       inkscape:connector-curvature="0"
       id="path3831-7"
       d="M 210.14286,972.79617 C 262.80942,961.9341 262.80942,961.9341 262.80942,961.9341"
       style="display:inline;fill:none;stroke:#000000;stroke-width:0.80000001;stroke-linecap:butt;stroke-linejoin:miter;stroke-miterlimit:4;stroke-dasharray:none;stroke-opacity:1;marker-end:url(#Arrow1Mend-3-3)" />
    <path
       inkscape:connector-curvature="0"
       id="path3831-7-5"
       d="m 159.92161,941.03603 c 6.54478,33.7067 6.54478,33.7067 6.54478,33.7067"
       style="display:inline;fill:none;stroke:#000000;stroke-width:0.80000001;stroke-linecap:butt;stroke-linejoin:miter;stroke-miterlimit:4;stroke-dasharray:none;stroke-opacity:1;marker-end:url(#Arrow1Mend-3-3-5)" />
  </g>
</svg>
