<?xml version="1.0" encoding="UTF-8" standalone="no"?>
<!-- Created with Inkscape (http://www.inkscape.org/) -->

<svg
   xmlns:ns="http://wanglongqi.github.io/WriteTeX"
   xmlns:dc="http://purl.org/dc/elements/1.1/"
   xmlns:cc="http://creativecommons.org/ns#"
   xmlns:rdf="http://www.w3.org/1999/02/22-rdf-syntax-ns#"
   xmlns:svg="http://www.w3.org/2000/svg"
   xmlns="http://www.w3.org/2000/svg"
   xmlns:sodipodi="http://sodipodi.sourceforge.net/DTD/sodipodi-0.dtd"
   xmlns:inkscape="http://www.inkscape.org/namespaces/inkscape"
   width="54.903889mm"
   height="45.835442mm"
   viewBox="0 0 54.903888 45.835442"
   version="1.1"
   id="svg1013"
   inkscape:version="0.92.4 (unknown)"
   sodipodi:docname="cincorpomovplanoPlanoParalelo.svg">
  <defs
     id="defs1007">
    <marker
       inkscape:isstock="true"
       style="overflow:visible"
       id="marker5658-2-9"
       refX="0"
       refY="0"
       orient="auto"
       inkscape:stockid="Arrow1Lend">
      <path
         transform="matrix(-0.8,0,0,-0.8,-10,0)"
         style="fill:#000000;fill-opacity:1;fill-rule:evenodd;stroke:#000000;stroke-width:1.00000003pt;stroke-opacity:1"
         d="M 0,0 5,-5 -12.5,0 5,5 Z"
         id="path5656-9-3"
         inkscape:connector-curvature="0" />
    </marker>
  </defs>
  <sodipodi:namedview
     id="base"
     pagecolor="#ffffff"
     bordercolor="#666666"
     borderopacity="1.0"
     inkscape:pageopacity="0.0"
     inkscape:pageshadow="2"
     inkscape:zoom="1.4"
     inkscape:cx="34.893881"
     inkscape:cy="47.565315"
     inkscape:document-units="mm"
     inkscape:current-layer="layer5"
     showgrid="false"
     fit-margin-top="0"
     fit-margin-left="0"
     fit-margin-right="0"
     fit-margin-bottom="0"
     inkscape:window-width="1366"
     inkscape:window-height="713"
     inkscape:window-x="0"
     inkscape:window-y="27"
     inkscape:window-maximized="1" />
  <metadata
     id="metadata1010">
    <rdf:RDF>
      <cc:Work
         rdf:about="">
        <dc:format>image/svg+xml</dc:format>
        <dc:type
           rdf:resource="http://purl.org/dc/dcmitype/StillImage" />
        <dc:title></dc:title>
      </cc:Work>
    </rdf:RDF>
  </metadata>
  <g
     inkscape:label="Layer 1"
     inkscape:groupmode="layer"
     id="layer1"
     style="display:inline"
     transform="translate(-70.261887,-114.94556)">
    <path
       style="display:inline;fill:none;stroke:#000000;stroke-width:0.26458332;stroke-linecap:butt;stroke-linejoin:miter;stroke-miterlimit:4;stroke-dasharray:none;stroke-opacity:1"
       d="M 125.15626,130.93283 H 111.57147"
       id="path1003"
       inkscape:connector-curvature="0" />
    <path
       style="display:inline;fill:none;stroke:#000000;stroke-width:0.26458332;stroke-linecap:butt;stroke-linejoin:miter;stroke-miterlimit:4;stroke-dasharray:none;stroke-opacity:1"
       d="M 83.436859,130.93283 H 82.49988"
       id="path1003-6"
       inkscape:connector-curvature="0" />
  </g>
  <g
     inkscape:groupmode="layer"
     id="layer4"
     inkscape:label="Layer 2"
     style="display:inline"
     transform="translate(-70.261887,-114.94556)">
    <path
       style="fill:none;stroke:#000000;stroke-width:0.26458332;stroke-linecap:butt;stroke-linejoin:miter;stroke-miterlimit:4;stroke-dasharray:none;stroke-opacity:1"
       d="m 82.587725,130.91642 -12.232294,12.2323"
       id="path997"
       inkscape:connector-curvature="0" />
    <path
       style="fill:none;stroke:#000000;stroke-width:0.26458332;stroke-linecap:butt;stroke-linejoin:miter;stroke-miterlimit:4;stroke-dasharray:none;stroke-opacity:1"
       d="m 112.92482,143.15174 12.14741,-12.14742"
       id="path1001"
       inkscape:connector-curvature="0" />
    <path
       inkscape:connector-curvature="0"
       style="display:inline;fill:#ffd15c;stroke-width:0.0776432"
       d="m 102.30776,159.44232 c 0,0 -4.97812,4.21634 -11.44063,-2.3711 0,0 -1.62755,-1.21294 -3.44222,-11.86643 0,0 -5.04581,-12.85118 -4.06444,-18.31927 0,0 0.35073,-5.97849 4.32301,-9.33886 5.71674,-4.87099 13.35,-1.40654 13.35,-1.40654 0,0 8.38386,2.92388 10.7781,14.15087 2.44527,11.16392 -1.54162,19.31368 -1.54162,19.31368 0,0 -2.78584,6.408 -7.9622,9.83765 z"
       id="path5214" />
    <g
       style="display:inline"
       transform="matrix(0.04884732,-0.06035235,0.06035235,0.04884732,69.19349,139.84241)"
       id="g5230">
      <path
         inkscape:connector-curvature="0"
         style="fill:#f8b64c"
         d="m 242.416,122.524 c -10.449,0 -20.898,-7.314 -24.033,-17.763 -1.045,-3.135 1.045,-5.224 3.135,-6.269 3.135,-1.045 5.224,1.045 6.269,3.135 2.09,6.269 7.314,10.449 13.584,10.449 6.269,0 11.494,-4.18 13.584,-10.449 1.045,-3.135 4.18,-4.18 6.269,-3.135 3.135,1.045 4.18,4.18 3.135,6.269 -2.09,10.448 -11.494,17.763 -21.943,17.763 z"
         id="path5216" />
      <path
         inkscape:connector-curvature="0"
         style="fill:#f8b64c"
         d="m 419.004,118.344 c -10.449,0 -20.898,-7.314 -24.033,-17.763 -1.045,-3.135 1.045,-5.224 3.135,-6.269 3.135,-1.045 5.224,1.045 6.269,3.135 2.09,6.269 7.314,10.449 13.584,10.449 6.27,0 11.494,-4.18 13.584,-10.449 1.045,-3.135 4.18,-4.18 6.269,-3.135 3.135,1.045 4.18,4.18 3.135,6.269 -2.09,10.449 -11.494,17.763 -21.943,17.763 z"
         id="path5218" />
      <path
         inkscape:connector-curvature="0"
         style="fill:#f8b64c"
         d="m 385.567,261.495 c -10.449,0 -20.898,-7.314 -24.033,-17.763 -1.045,-3.135 1.045,-5.224 3.135,-6.269 3.135,-1.045 5.225,1.045 6.269,3.135 2.09,6.269 7.314,10.449 13.584,10.449 6.27,0 11.494,-4.18 13.584,-10.449 1.045,-3.135 4.18,-4.18 6.269,-3.135 3.135,1.045 4.18,4.18 3.135,6.269 -1.045,10.449 -11.494,17.763 -21.943,17.763 z"
         id="path5220" />
      <path
         inkscape:connector-curvature="0"
         style="fill:#f8b64c"
         d="m 310.335,215.519 c -10.449,0 -20.898,-7.314 -24.033,-17.763 -1.045,-3.135 1.045,-5.224 3.135,-6.269 3.135,-1.045 5.224,1.045 6.269,3.135 2.09,6.269 7.314,10.449 13.584,10.449 6.269,0 11.494,-4.18 13.584,-10.449 1.045,-3.135 4.18,-4.18 6.269,-3.135 3.135,1.045 4.18,4.18 3.135,6.269 -1.045,10.449 -10.449,17.763 -21.943,17.763 z"
         id="path5222" />
      <path
         inkscape:connector-curvature="0"
         style="fill:#f8b64c"
         d="m 310.335,377.479 c -10.449,0 -20.898,-7.314 -24.033,-17.763 -1.045,-3.135 1.045,-5.224 3.135,-6.269 3.135,-1.045 5.224,1.045 6.269,3.135 2.09,6.269 7.314,10.449 13.584,10.449 6.269,0 11.494,-4.18 13.584,-10.449 1.045,-3.135 4.18,-4.18 6.269,-3.135 3.135,1.045 4.18,4.18 3.135,6.269 -1.045,10.448 -10.449,17.763 -21.943,17.763 z"
         id="path5224" />
      <path
         inkscape:connector-curvature="0"
         style="fill:#f8b64c"
         d="m 169.273,299.111 c -10.449,0 -20.898,-7.314 -24.033,-17.763 -1.045,-3.135 1.045,-5.224 3.135,-6.269 3.135,-1.045 5.225,1.045 6.269,3.135 2.09,6.269 7.314,10.449 13.584,10.449 6.269,0 11.494,-4.18 13.584,-10.449 1.045,-3.135 4.18,-4.18 6.269,-3.135 3.135,1.045 4.18,4.18 3.135,6.269 -2.089,10.449 -11.494,17.763 -21.943,17.763 z"
         id="path5226" />
      <path
         inkscape:connector-curvature="0"
         style="fill:#f8b64c"
         d="m 86.727,422.409 c -10.449,0 -20.898,-7.314 -24.033,-17.763 -1.045,-3.135 1.045,-5.224 3.135,-6.269 3.135,-1.045 5.224,1.045 6.269,3.135 2.09,6.269 7.314,10.449 13.584,10.449 6.27,0 11.494,-4.18 13.584,-10.449 1.045,-3.135 4.18,-4.18 6.269,-3.135 3.135,1.045 4.18,4.18 3.135,6.269 -2.09,10.449 -11.494,17.763 -21.943,17.763 z"
         id="path5228" />
    </g>
    <path
       inkscape:connector-curvature="0"
       style="display:inline;fill:#fcc956;stroke-width:0.0776432"
       d="m 100.91941,116.15209 c 0,0 -0.24022,-0.0901 -0.72069,-0.27015 2.67563,1.85241 6.36635,5.67451 7.83527,12.4996 2.44528,11.16391 -1.54161,19.31368 -1.54161,19.31368 0,0 -2.78593,6.40813 -7.96233,9.83767 0,0 -2.432,2.10215 -6.17652,1.05453 5.65155,4.36542 9.84005,0.86689 9.84005,0.86689 5.17643,-3.42962 7.96232,-9.83768 7.96232,-9.83768 0,0 3.9869,-8.14976 1.54161,-19.31368 -2.39418,-11.22695 -10.7781,-14.15086 -10.7781,-14.15086 z"
       id="path5232" />
    <g
       style="display:inline"
       transform="matrix(0.04884732,-0.06035235,0.06035235,0.04884732,119.72648,135.31912)"
       id="g5234" />
    <g
       style="display:inline"
       transform="matrix(0.04884732,-0.06035235,0.06035235,0.04884732,119.72648,135.31912)"
       id="g5236" />
    <g
       style="display:inline"
       transform="matrix(0.04884732,-0.06035235,0.06035235,0.04884732,119.72648,135.31912)"
       id="g5238" />
    <g
       style="display:inline"
       transform="matrix(0.04884732,-0.06035235,0.06035235,0.04884732,119.72648,135.31912)"
       id="g5240" />
    <g
       style="display:inline"
       transform="matrix(0.04884732,-0.06035235,0.06035235,0.04884732,119.72648,135.31912)"
       id="g5242" />
    <g
       style="display:inline"
       transform="matrix(0.04884732,-0.06035235,0.06035235,0.04884732,119.72648,135.31912)"
       id="g5244" />
    <g
       style="display:inline"
       transform="matrix(0.04884732,-0.06035235,0.06035235,0.04884732,119.72648,135.31912)"
       id="g5246" />
    <g
       style="display:inline"
       transform="matrix(0.04884732,-0.06035235,0.06035235,0.04884732,119.72648,135.31912)"
       id="g5248" />
    <g
       style="display:inline"
       transform="matrix(0.04884732,-0.06035235,0.06035235,0.04884732,119.72648,135.31912)"
       id="g5250" />
    <g
       style="display:inline"
       transform="matrix(0.04884732,-0.06035235,0.06035235,0.04884732,119.72648,135.31912)"
       id="g5252" />
    <g
       style="display:inline"
       transform="matrix(0.04884732,-0.06035235,0.06035235,0.04884732,119.72648,135.31912)"
       id="g5254" />
    <g
       style="display:inline"
       transform="matrix(0.04884732,-0.06035235,0.06035235,0.04884732,119.72648,135.31912)"
       id="g5256" />
    <g
       style="display:inline"
       transform="matrix(0.04884732,-0.06035235,0.06035235,0.04884732,119.72648,135.31912)"
       id="g5258" />
    <g
       style="display:inline"
       transform="matrix(0.04884732,-0.06035235,0.06035235,0.04884732,119.72648,135.31912)"
       id="g5260" />
    <g
       style="display:inline"
       transform="matrix(0.04884732,-0.06035235,0.06035235,0.04884732,119.72648,135.31912)"
       id="g5262" />
    <path
       style="display:inline;fill:none;stroke:#000000;stroke-width:0.26458332;stroke-linecap:butt;stroke-linejoin:miter;stroke-miterlimit:4;stroke-dasharray:0.79375, 0.26458333;stroke-dashoffset:0;stroke-opacity:1"
       d="M 111.57147,130.93283 H 83.436859"
       id="path1003-3"
       inkscape:connector-curvature="0" />
    <path
       style="display:inline;fill:none;stroke:#000000;stroke-width:0.26458332;stroke-linecap:butt;stroke-linejoin:miter;stroke-miterlimit:4;stroke-dasharray:none;stroke-opacity:1"
       d="m 98.417935,136.79297 -2.009234,2.00924"
       id="path997-2"
       inkscape:connector-curvature="0" />
    <path
       style="display:inline;fill:none;stroke:#000000;stroke-width:0.26458332;stroke-linecap:butt;stroke-linejoin:miter;stroke-miterlimit:4;stroke-dasharray:none;stroke-opacity:1"
       d="M 98.417935,133.75717 96.4087,135.76641"
       id="path997-2-4"
       inkscape:connector-curvature="0" />
  </g>
  <g
     inkscape:groupmode="layer"
     id="layer5"
     inkscape:label="Layer 3"
     style="display:inline"
     transform="translate(-70.261887,-114.94556)">
    <path
       style="display:inline;fill:none;stroke:#000000;stroke-width:0.26458332;stroke-linecap:butt;stroke-linejoin:miter;stroke-miterlimit:4;stroke-dasharray:none;stroke-opacity:1"
       d="M 70.298194,143.14926 H 113.00058"
       id="path999"
       inkscape:connector-curvature="0" />
    <path
       style="display:inline;fill:none;stroke:#000000;stroke-width:0.25911376;stroke-linecap:butt;stroke-linejoin:miter;stroke-miterlimit:4;stroke-dasharray:0.25911378, 0.77734136;stroke-dashoffset:0;stroke-opacity:1"
       d="m 112.43442,135.4498 c -0.37821,-4.44308 -16.965365,-2.68887 -16.965365,-2.68887 0,0 -10.859764,0.76884 -10.510205,4.87525 0.349564,4.10647 5.621062,3.22681 13.699587,2.55406 8.078513,-0.67275 14.523743,-0.73492 13.775983,-4.74044 z"
       id="path1678"
       inkscape:connector-curvature="0" />
    <g
       id="g1873"
       style="display:inline;stroke-width:2.73232889"
       transform="matrix(0.36598818,0,0,0.36598818,19.284231,85.999101)"
       ns:text="\\( \\vec{\\omega} = \\omega \\vec{k} \\)">
      <g
         id="surface1">
        <g
           id="g1850"
           style="fill:#000000;fill-opacity:1">
          <path
             id="path1848"
             transform="translate(178.607,110.99)"
             d="m 5.359375,-5.9375 c -0.140625,0.140625 -0.46875,0.421875 -0.46875,0.59375 0,0.09375 0.09375,0.203125 0.1875,0.203125 0.09375,0 0.140625,-0.078125 0.203125,-0.140625 C 5.390625,-5.421875 5.625,-5.703125 6.0625,-5.921875 6.125,-5.96875 6.234375,-6.015625 6.234375,-6.125 6.234375,-6.234375 6.15625,-6.28125 6.09375,-6.328125 5.875,-6.484375 5.765625,-6.65625 5.6875,-6.890625 5.65625,-6.984375 5.625,-7.125 5.484375,-7.125 c -0.140625,0 -0.203125,0.140625 -0.203125,0.21875 0,0.046875 0.078125,0.359375 0.234375,0.578125 H 2.15625 c -0.15625,0 -0.34375,0 -0.34375,0.203125 0,0.1875 0.1875,0.1875 0.34375,0.1875 z m 0,0"
             style="stroke:none"
             inkscape:connector-curvature="0" />
        </g>
        <g
           id="g1854"
           style="fill:#000000;fill-opacity:1">
          <path
             id="path1852"
             transform="translate(178.58707,110.99)"
             d="m 6.03125,-3.703125 c 0,-0.453125 -0.171875,-0.703125 -0.40625,-0.703125 -0.25,0 -0.515625,0.234375 -0.515625,0.46875 0,0.09375 0.046875,0.203125 0.140625,0.296875 0.171875,0.15625 0.359375,0.421875 0.359375,0.84375 0,0.390625 -0.203125,0.96875 -0.5,1.421875 C 4.8125,-0.953125 4.4375,-0.609375 3.96875,-0.609375 3.40625,-0.609375 3.09375,-0.96875 3,-1.5 c 0.109375,-0.265625 0.34375,-0.90625 0.34375,-1.1875 0,-0.109375 -0.046875,-0.21875 -0.1875,-0.21875 -0.078125,0 -0.1875,0.03125 -0.265625,0.171875 C 2.78125,-2.53125 2.65625,-1.890625 2.65625,-1.53125 2.328125,-1.0625 1.9375,-0.609375 1.3125,-0.609375 c -0.671875,0 -0.875,-0.59375 -0.875,-1.140625 0,-1.25 1.015625,-2.296875 1.015625,-2.421875 0,-0.109375 -0.078125,-0.1875 -0.1875,-0.1875 -0.125,0 -0.203125,0.125 -0.265625,0.21875 -0.5,0.734375 -0.875,1.921875 -0.875,2.828125 0,0.6875 0.21875,1.421875 1.046875,1.421875 0.703125,0 1.171875,-0.5 1.53125,-1.046875 0.09375,0.578125 0.484375,1.046875 1.09375,1.046875 0.78125,0 1.25,-0.609375 1.609375,-1.359375 0.25,-0.484375 0.625,-1.84375 0.625,-2.453125 z m 0,0"
             style="stroke:none"
             inkscape:connector-curvature="0" />
        </g>
        <g
           id="g1858"
           style="fill:#000000;fill-opacity:1">
          <path
             id="path1856"
             transform="translate(187.911,110.99)"
             d="m 6.84375,-3.265625 c 0.15625,0 0.34375,0 0.34375,-0.1875 C 7.1875,-3.65625 7,-3.65625 6.859375,-3.65625 h -5.96875 c -0.140625,0 -0.328125,0 -0.328125,0.203125 0,0.1875 0.1875,0.1875 0.328125,0.1875 z m 0.015625,1.9375 c 0.140625,0 0.328125,0 0.328125,-0.203125 0,-0.1875 -0.1875,-0.1875 -0.34375,-0.1875 H 0.890625 c -0.140625,0 -0.328125,0 -0.328125,0.1875 0,0.203125 0.1875,0.203125 0.328125,0.203125 z m 0,0"
             style="stroke:none"
             inkscape:connector-curvature="0" />
        </g>
        <g
           id="g1862"
           style="fill:#000000;fill-opacity:1">
          <path
             id="path1860"
             transform="translate(198.427,110.99)"
             d="m 6.03125,-3.703125 c 0,-0.453125 -0.171875,-0.703125 -0.40625,-0.703125 -0.25,0 -0.515625,0.234375 -0.515625,0.46875 0,0.09375 0.046875,0.203125 0.140625,0.296875 0.171875,0.15625 0.359375,0.421875 0.359375,0.84375 0,0.390625 -0.203125,0.96875 -0.5,1.421875 C 4.8125,-0.953125 4.4375,-0.609375 3.96875,-0.609375 3.40625,-0.609375 3.09375,-0.96875 3,-1.5 c 0.109375,-0.265625 0.34375,-0.90625 0.34375,-1.1875 0,-0.109375 -0.046875,-0.21875 -0.1875,-0.21875 -0.078125,0 -0.1875,0.03125 -0.265625,0.171875 C 2.78125,-2.53125 2.65625,-1.890625 2.65625,-1.53125 2.328125,-1.0625 1.9375,-0.609375 1.3125,-0.609375 c -0.671875,0 -0.875,-0.59375 -0.875,-1.140625 0,-1.25 1.015625,-2.296875 1.015625,-2.421875 0,-0.109375 -0.078125,-0.1875 -0.1875,-0.1875 -0.125,0 -0.203125,0.125 -0.265625,0.21875 -0.5,0.734375 -0.875,1.921875 -0.875,2.828125 0,0.6875 0.21875,1.421875 1.046875,1.421875 0.703125,0 1.171875,-0.5 1.53125,-1.046875 0.09375,0.578125 0.484375,1.046875 1.09375,1.046875 0.78125,0 1.25,-0.609375 1.609375,-1.359375 0.25,-0.484375 0.625,-1.84375 0.625,-2.453125 z m 0,0"
             style="stroke:none"
             inkscape:connector-curvature="0" />
        </g>
        <g
           id="g1866"
           style="fill:#000000;fill-opacity:1">
          <path
             id="path1864"
             transform="translate(204.479,108.361)"
             d="m 5.359375,-5.9375 c -0.140625,0.140625 -0.46875,0.421875 -0.46875,0.59375 0,0.09375 0.09375,0.203125 0.1875,0.203125 0.09375,0 0.140625,-0.078125 0.203125,-0.140625 C 5.390625,-5.421875 5.625,-5.703125 6.0625,-5.921875 6.125,-5.96875 6.234375,-6.015625 6.234375,-6.125 6.234375,-6.234375 6.15625,-6.28125 6.09375,-6.328125 5.875,-6.484375 5.765625,-6.65625 5.6875,-6.890625 5.65625,-6.984375 5.625,-7.125 5.484375,-7.125 c -0.140625,0 -0.203125,0.140625 -0.203125,0.21875 0,0.046875 0.078125,0.359375 0.234375,0.578125 H 2.15625 c -0.15625,0 -0.34375,0 -0.34375,0.203125 0,0.1875 0.1875,0.1875 0.34375,0.1875 z m 0,0"
             style="stroke:none"
             inkscape:connector-curvature="0" />
        </g>
        <g
           id="g1870"
           style="fill:#000000;fill-opacity:1">
          <path
             id="path1868"
             transform="translate(204.985,110.99)"
             d="m 2.859375,-6.8125 c 0,0 0,-0.109375 -0.125,-0.109375 -0.234375,0 -0.953125,0.078125 -1.21875,0.109375 -0.078125,0 -0.1875,0.015625 -0.1875,0.1875 0,0.125 0.09375,0.125 0.234375,0.125 0.484375,0 0.5,0.0625 0.5,0.171875 L 2.03125,-6.125 0.59375,-0.390625 c -0.046875,0.140625 -0.046875,0.15625 -0.046875,0.21875 0,0.234375 0.203125,0.28125 0.296875,0.28125 0.125,0 0.265625,-0.09375 0.328125,-0.203125 0.046875,-0.09375 0.5,-1.9375 0.5625,-2.1875 0.34375,0.03125 1.15625,0.1875 1.15625,0.84375 0,0.078125 0,0.109375 -0.03125,0.21875 -0.015625,0.109375 -0.03125,0.234375 -0.03125,0.34375 0,0.578125 0.390625,0.984375 0.90625,0.984375 0.296875,0 0.578125,-0.15625 0.796875,-0.53125 0.25,-0.4375 0.359375,-0.984375 0.359375,-1 0,-0.109375 -0.09375,-0.109375 -0.125,-0.109375 -0.09375,0 -0.109375,0.046875 -0.140625,0.1875 -0.203125,0.71875 -0.421875,1.234375 -0.859375,1.234375 -0.203125,0 -0.328125,-0.109375 -0.328125,-0.46875 0,-0.171875 0.046875,-0.40625 0.078125,-0.5625 C 3.5625,-1.3125 3.5625,-1.34375 3.5625,-1.453125 3.5625,-2.09375 2.9375,-2.375 2.078125,-2.5 2.390625,-2.671875 2.71875,-2.984375 2.9375,-3.234375 3.421875,-3.765625 3.875,-4.1875 4.359375,-4.1875 c 0.0625,0 0.078125,0 0.09375,0.015625 0.125,0.015625 0.125,0.015625 0.21875,0.078125 0.015625,0 0.015625,0.015625 0.03125,0.03125 -0.46875,0.03125 -0.5625,0.421875 -0.5625,0.546875 0,0.15625 0.109375,0.34375 0.375,0.34375 0.265625,0 0.546875,-0.21875 0.546875,-0.609375 0,-0.296875 -0.234375,-0.625 -0.671875,-0.625 -0.28125,0 -0.734375,0.078125 -1.453125,0.875 -0.34375,0.375 -0.734375,0.78125 -1.109375,0.921875 z m 0,0"
             style="stroke:none"
             inkscape:connector-curvature="0" />
        </g>
      </g>
    </g>
    <g
       id="g1972"
       style="display:inline;stroke-width:2.73232889"
       transform="matrix(0.36598818,0,0,0.36598818,52.541607,93.293741)"
       ns:text="\\( \\alpha \\)">
      <g
         id="g1970">
        <g
           id="g1968"
           style="fill:#000000;fill-opacity:1">
          <path
             id="path1966"
             transform="translate(178.585,110.99)"
             d="m 4.75,-2.359375 c 0,-1.5625 -0.921875,-2.046875 -1.65625,-2.046875 -1.375,0 -2.6875,1.421875 -2.6875,2.828125 0,0.9375 0.59375,1.6875 1.625,1.6875 0.625,0 1.34375,-0.234375 2.09375,-0.84375 0.125,0.53125 0.453125,0.84375 0.90625,0.84375 0.53125,0 0.84375,-0.546875 0.84375,-0.703125 0,-0.078125 -0.0625,-0.109375 -0.125,-0.109375 -0.0625,0 -0.09375,0.03125 -0.125,0.109375 -0.1875,0.484375 -0.546875,0.484375 -0.5625,0.484375 -0.3125,0 -0.3125,-0.78125 -0.3125,-1.015625 0,-0.203125 0,-0.234375 0.109375,-0.34375 C 5.796875,-2.65625 6,-3.8125 6,-3.8125 6,-3.84375 5.984375,-3.921875 5.875,-3.921875 c -0.09375,0 -0.09375,0.03125 -0.140625,0.21875 -0.1875,0.625 -0.515625,1.375 -0.984375,1.96875 z m -0.65625,1.375 c -0.890625,0.765625 -1.65625,0.875 -2.046875,0.875 -0.59375,0 -0.90625,-0.453125 -0.90625,-1.09375 0,-0.484375 0.265625,-1.5625 0.578125,-2.0625 C 2.1875,-4 2.734375,-4.1875 3.078125,-4.1875 c 0.984375,0 0.984375,1.3125 0.984375,2.078125 0,0.375 0,0.953125 0.03125,1.125 z m 0,0"
             style="stroke:none"
             inkscape:connector-curvature="0" />
        </g>
      </g>
    </g>
    <g
       id="g2053"
       style="display:inline;stroke-width:2.73232889"
       transform="matrix(0.36598818,0,0,0.36598818,41.190793,97.024715)"
       ns:text="\\( B \\)">
      <g
         id="g2051">
        <g
           id="g2049"
           style="fill:#000000;fill-opacity:1">
          <path
             id="path2047"
             transform="translate(178.585,110.99)"
             d="M 1.59375,-0.78125 C 1.5,-0.390625 1.46875,-0.3125 0.6875,-0.3125 c -0.171875,0 -0.265625,0 -0.265625,0.203125 C 0.421875,0 0.515625,0 0.6875,0 H 4.25 C 5.828125,0 7,-1.171875 7,-2.15625 7,-2.875 6.421875,-3.453125 5.453125,-3.5625 6.484375,-3.75 7.53125,-4.484375 7.53125,-5.4375 c 0,-0.734375 -0.65625,-1.375 -1.84375,-1.375 H 2.328125 c -0.1875,0 -0.28125,0 -0.28125,0.203125 0,0.109375 0.09375,0.109375 0.28125,0.109375 0.015625,0 0.203125,0 0.375,0.015625 0.171875,0.03125 0.265625,0.03125 0.265625,0.171875 0,0.03125 -0.015625,0.0625 -0.03125,0.1875 z m 1.5,-2.875 0.625,-2.46875 C 3.8125,-6.46875 3.828125,-6.5 4.25,-6.5 h 1.296875 c 0.875,0 1.078125,0.59375 1.078125,1.03125 0,0.875 -0.859375,1.8125 -2.0625,1.8125 z m -0.4375,3.34375 c -0.140625,0 -0.15625,0 -0.21875,0 -0.109375,-0.015625 -0.140625,-0.03125 -0.140625,-0.109375 0,-0.03125 0,-0.046875 0.0625,-0.21875 l 0.6875,-2.78125 h 1.875 c 0.953125,0 1.15625,0.734375 1.15625,1.15625 C 6.078125,-1.28125 5.1875,-0.3125 4,-0.3125 Z m 0,0"
             style="stroke:none"
             inkscape:connector-curvature="0" />
        </g>
      </g>
    </g>
    <g
       id="g2126"
       style="display:inline;stroke-width:2.73232889"
       transform="matrix(0.36598818,0,0,0.36598818,20.771066,97.873686)"
       ns:text="\\( A \\)">
      <g
         id="g2124">
        <g
           id="g2122"
           style="fill:#000000;fill-opacity:1">
          <path
             id="path2120"
             transform="translate(178.585,110.99)"
             d="M 1.78125,-1.140625 C 1.390625,-0.484375 1,-0.34375 0.5625,-0.3125 0.4375,-0.296875 0.34375,-0.296875 0.34375,-0.109375 0.34375,-0.046875 0.40625,0 0.484375,0 0.75,0 1.0625,-0.03125 1.328125,-0.03125 c 0.34375,0 0.6875,0.03125 1,0.03125 0.0625,0 0.1875,0 0.1875,-0.1875 0,-0.109375 -0.078125,-0.125 -0.15625,-0.125 -0.21875,-0.015625 -0.46875,-0.09375 -0.46875,-0.34375 0,-0.125 0.0625,-0.234375 0.140625,-0.375 l 0.765625,-1.265625 h 2.5 c 0.015625,0.203125 0.15625,1.5625 0.15625,1.65625 0,0.296875 -0.515625,0.328125 -0.71875,0.328125 C 4.59375,-0.3125 4.5,-0.3125 4.5,-0.109375 4.5,0 4.609375,0 4.640625,0 5.046875,0 5.46875,-0.03125 5.875,-0.03125 6.125,-0.03125 6.765625,0 7.015625,0 7.0625,0 7.1875,0 7.1875,-0.203125 7.1875,-0.3125 7.09375,-0.3125 6.953125,-0.3125 6.34375,-0.3125 6.34375,-0.375 6.3125,-0.671875 l -0.609375,-6.21875 c -0.015625,-0.203125 -0.015625,-0.25 -0.1875,-0.25 -0.15625,0 -0.203125,0.078125 -0.265625,0.171875 z M 2.984375,-2.609375 4.9375,-5.90625 5.265625,-2.609375 Z m 0,0"
             style="stroke:none"
             inkscape:connector-curvature="0" />
        </g>
      </g>
    </g>
    <circle
       style="opacity:1;fill:#000000;fill-opacity:0.9898477;stroke:none;stroke-width:0.317;stroke-miterlimit:4;stroke-dasharray:none;stroke-dashoffset:0;stroke-opacity:0.99465176"
       id="path2134"
       cx="90.497856"
       cy="138.67264"
       r="1.1358955" />
    <path
       style="display:inline;fill:#000000;fill-opacity:1;stroke:#000000;stroke-width:0.26458332px;stroke-linecap:butt;stroke-linejoin:miter;stroke-opacity:1;marker-end:url(#marker5658-2-9)"
       d="m 98.417935,136.79297 -0.09537,-13.28084"
       id="path281-8-1-6"
       inkscape:connector-curvature="0" />
    <path
       style="display:inline;fill:none;stroke:#000000;stroke-width:0.26458332;stroke-linecap:butt;stroke-linejoin:miter;stroke-miterlimit:4;stroke-dasharray:none;stroke-opacity:1"
       d="m 98.417935,136.79297 h 3.035805"
       id="path999-9"
       inkscape:connector-curvature="0" />
    <path
       style="display:inline;fill:none;stroke:#000000;stroke-width:0.26458332;stroke-linecap:butt;stroke-linejoin:miter;stroke-miterlimit:4;stroke-dasharray:none;stroke-opacity:1"
       d="m 98.417935,133.75717 h 3.035805"
       id="path999-9-3"
       inkscape:connector-curvature="0" />
    <path
       style="display:inline;fill:none;stroke:#000000;stroke-width:0.26458332;stroke-linecap:butt;stroke-linejoin:miter;stroke-miterlimit:4;stroke-dasharray:none;stroke-opacity:1"
       d="m 101.45374,133.75717 v 3.0358"
       id="path999-9-3-1"
       inkscape:connector-curvature="0" />
    <path
       style="display:inline;fill:none;stroke:#000000;stroke-width:0.26458332;stroke-linecap:butt;stroke-linejoin:miter;stroke-miterlimit:4;stroke-dasharray:none;stroke-opacity:1"
       d="m 96.408701,135.76641 v 3.0358"
       id="path999-9-3-1-9"
       inkscape:connector-curvature="0" />
    <circle
       style="display:inline;opacity:1;fill:#000000;fill-opacity:0.9898477;stroke:none;stroke-width:0.31699997;stroke-miterlimit:4;stroke-dasharray:none;stroke-dashoffset:0;stroke-opacity:0.99465176"
       id="path2134-7"
       cx="99.922852"
       cy="135.34177"
       r="0.70158249" />
    <ellipse
       style="display:inline;opacity:1;fill:#000000;fill-opacity:0.9898477;stroke:none;stroke-width:0.31700003;stroke-miterlimit:4;stroke-dasharray:none;stroke-dashoffset:0;stroke-opacity:0.99465176"
       id="path2134-8"
       cx="97.450424"
       cy="136.21086"
       rx="0.46772173"
       ry="0.868626" />
    <circle
       style="display:inline;opacity:1;fill:#000000;fill-opacity:0.9898477;stroke:none;stroke-width:0.317;stroke-miterlimit:4;stroke-dasharray:none;stroke-dashoffset:0;stroke-opacity:0.99465176"
       id="path2134-4"
       cx="105.45147"
       cy="134.6669"
       r="1.1358955" />
  </g>
</svg>
