<?xml version="1.0" encoding="UTF-8" standalone="no"?>
<!-- Created with Inkscape (http://www.inkscape.org/) -->

<svg
   xmlns:ns="http://wanglongqi.github.io/WriteTeX"
   xmlns:osb="http://www.openswatchbook.org/uri/2009/osb"
   xmlns:dc="http://purl.org/dc/elements/1.1/"
   xmlns:cc="http://creativecommons.org/ns#"
   xmlns:rdf="http://www.w3.org/1999/02/22-rdf-syntax-ns#"
   xmlns:svg="http://www.w3.org/2000/svg"
   xmlns="http://www.w3.org/2000/svg"
   xmlns:sodipodi="http://sodipodi.sourceforge.net/DTD/sodipodi-0.dtd"
   xmlns:inkscape="http://www.inkscape.org/namespaces/inkscape"
   inkscape:version="0.92.4 (unknown)"
   version="1.1"
   id="svg2"
   height="37.933907mm"
   width="52.399597mm"
   sodipodi:docname="cinpontomovgeralSistCoordCart.svg">
  <sodipodi:namedview
     id="base"
     pagecolor="#ffffff"
     bordercolor="#666666"
     borderopacity="1.0"
     inkscape:pageopacity="0.0"
     inkscape:pageshadow="2"
     inkscape:zoom="2.8284272"
     inkscape:cx="93.451075"
     inkscape:cy="62.447086"
     inkscape:document-units="px"
     inkscape:current-layer="layer3"
     showgrid="false"
     units="mm"
     inkscape:window-width="1920"
     inkscape:window-height="1025"
     inkscape:window-x="0"
     inkscape:window-y="27"
     inkscape:window-maximized="1"
     fit-margin-top="0"
     fit-margin-left="0"
     fit-margin-right="0"
     fit-margin-bottom="0" />
  <defs
     id="defs4">
    <marker
       style="overflow:visible"
       id="Arrow1Mend"
       refX="0"
       refY="0"
       orient="auto"
       inkscape:stockid="Arrow1Mend">
      <path
         inkscape:connector-curvature="0"
         transform="matrix(-0.4,0,0,-0.4,-4,0)"
         style="fill-rule:evenodd;stroke:#000000;stroke-width:1.00000003pt"
         d="M 0,0 5,-5 -12.5,0 5,5 Z"
         id="path5252" />
    </marker>
    <marker
       style="overflow:visible"
       id="Arrow2Send"
       refX="0"
       refY="0"
       orient="auto"
       inkscape:stockid="Arrow2Send">
      <path
         inkscape:connector-curvature="0"
         transform="matrix(-0.3,0,0,-0.3,0.69,0)"
         d="M 8.7185878,4.0337352 -2.2072895,0.01601326 8.7185884,-4.0017078 c -1.7454984,2.3720609 -1.7354408,5.6174519 -6e-7,8.035443 z"
         style="fill-rule:evenodd;stroke-width:0.625;stroke-linejoin:round"
         id="path5276" />
    </marker>
    <marker
       style="overflow:visible"
       id="Arrow2Lend"
       refX="0"
       refY="0"
       orient="auto"
       inkscape:stockid="Arrow2Lend">
      <path
         inkscape:connector-curvature="0"
         transform="matrix(-1.1,0,0,-1.1,-1.1,0)"
         d="M 8.7185878,4.0337352 -2.2072895,0.01601326 8.7185884,-4.0017078 c -1.7454984,2.3720609 -1.7354408,5.6174519 -6e-7,8.035443 z"
         style="fill-rule:evenodd;stroke-width:0.625;stroke-linejoin:round"
         id="path5264" />
    </marker>
    <linearGradient
       osb:paint="solid"
       id="linearGradient3775">
      <stop
         id="stop3777"
         offset="0"
         style="stop-color:#ff420e;stop-opacity:1;" />
    </linearGradient>
    <marker
       style="overflow:visible"
       id="Arrow1Mend-9"
       refX="0"
       refY="0"
       orient="auto"
       inkscape:stockid="Arrow1Mend">
      <path
         inkscape:connector-curvature="0"
         transform="matrix(-0.4,0,0,-0.4,-4,0)"
         style="fill-rule:evenodd;stroke:#000000;stroke-width:1.00000003pt"
         d="M 0,0 5,-5 -12.5,0 5,5 Z"
         id="path5252-1" />
    </marker>
    <marker
       style="overflow:visible"
       id="Arrow1Mend-8"
       refX="0"
       refY="0"
       orient="auto"
       inkscape:stockid="Arrow1Mend">
      <path
         inkscape:connector-curvature="0"
         transform="matrix(-0.4,0,0,-0.4,-4,0)"
         style="fill-rule:evenodd;stroke:#000000;stroke-width:1.00000003pt"
         d="M 0,0 5,-5 -12.5,0 5,5 Z"
         id="path5252-9" />
    </marker>
    <marker
       style="overflow:visible"
       id="Arrow1Mend-6"
       refX="0"
       refY="0"
       orient="auto"
       inkscape:stockid="Arrow1Mend">
      <path
         transform="matrix(-0.4,0,0,-0.4,-4,0)"
         style="fill-rule:evenodd;stroke:#000000;stroke-width:1.00000003pt"
         d="M 0,0 5,-5 -12.5,0 5,5 Z"
         id="path5252-3"
         inkscape:connector-curvature="0" />
    </marker>
    <marker
       style="overflow:visible"
       id="Arrow1Mend-3"
       refX="0"
       refY="0"
       orient="auto"
       inkscape:stockid="Arrow1Mend">
      <path
         transform="matrix(-0.4,0,0,-0.4,-4,0)"
         style="fill-rule:evenodd;stroke:#000000;stroke-width:1.00000003pt"
         d="M 0,0 5,-5 -12.5,0 5,5 Z"
         id="path5252-0"
         inkscape:connector-curvature="0" />
    </marker>
    <marker
       style="overflow:visible"
       id="Arrow1Mend-36"
       refX="0"
       refY="0"
       orient="auto"
       inkscape:stockid="Arrow1Mend">
      <path
         inkscape:connector-curvature="0"
         transform="matrix(-0.4,0,0,-0.4,-4,0)"
         style="fill-rule:evenodd;stroke:#000000;stroke-width:1.00000003pt"
         d="M 0,0 5,-5 -12.5,0 5,5 Z"
         id="path5252-7" />
    </marker>
    <marker
       style="overflow:visible"
       id="Arrow1Mend-367"
       refX="0"
       refY="0"
       orient="auto"
       inkscape:stockid="Arrow1Mend">
      <path
         inkscape:connector-curvature="0"
         transform="matrix(-0.4,0,0,-0.4,-4,0)"
         style="fill-rule:evenodd;stroke:#000000;stroke-width:1.00000003pt"
         d="M 0,0 5,-5 -12.5,0 5,5 Z"
         id="path5252-5" />
    </marker>
  </defs>
  <metadata
     id="metadata7">
    <rdf:RDF>
      <cc:Work
         rdf:about="">
        <dc:format>image/svg+xml</dc:format>
        <dc:type
           rdf:resource="http://purl.org/dc/dcmitype/StillImage" />
        <dc:title />
      </cc:Work>
    </rdf:RDF>
  </metadata>
  <g
     transform="translate(-120.25704,-865.00908)"
     id="layer1"
     inkscape:groupmode="layer"
     inkscape:label="Layer 1"
     style="display:inline"
     sodipodi:insensitive="true">
    <path
       inkscape:connector-curvature="0"
       id="path2989"
       d="m 173.46321,865.00908 v 90.40863"
       style="fill:none;stroke:#000000;stroke-width:0.66447759;stroke-linecap:butt;stroke-linejoin:miter;stroke-miterlimit:4;stroke-dasharray:none;stroke-opacity:1" />
    <path
       inkscape:connector-curvature="0"
       id="path2991"
       d="M 173.18605,955.2037 H 318.30277"
       style="fill:none;stroke:#000000;stroke-width:0.66447759;stroke-linecap:butt;stroke-linejoin:miter;stroke-miterlimit:4;stroke-dasharray:none;stroke-opacity:1" />
    <path
       inkscape:connector-curvature="0"
       id="path3761"
       d="M 126.59359,1002.0738 H 264.14368"
       style="fill:none;stroke:#000000;stroke-width:0.66447759;stroke-linecap:butt;stroke-linejoin:miter;stroke-miterlimit:4;stroke-dasharray:0.66447759, 1.99343277;stroke-dashoffset:0;stroke-opacity:1" />
    <path
       inkscape:connector-curvature="0"
       id="path3763"
       d="m 310.86881,955.17325 -46.98023,46.98025"
       style="fill:none;stroke:#000000;stroke-width:0.66447759;stroke-linecap:butt;stroke-linejoin:miter;stroke-miterlimit:4;stroke-dasharray:0.66447759, 1.99343277;stroke-dashoffset:0;stroke-opacity:1" />
    <path
       inkscape:connector-curvature="0"
       id="path3765"
       d="m 173.43922,955.19913 -52.94725,52.94727"
       style="fill:none;stroke:#000000;stroke-width:0.66447759;stroke-linecap:butt;stroke-linejoin:miter;stroke-miterlimit:4;stroke-dasharray:none;stroke-opacity:1" />
    <path
       inkscape:connector-curvature="0"
       id="path3767"
       d="m 263.78896,924.05179 v 77.98481"
       style="fill:none;stroke:#000000;stroke-width:0.66447759;stroke-linecap:butt;stroke-linejoin:miter;stroke-miterlimit:4;stroke-dasharray:0.66447759, 1.99343277;stroke-dashoffset:0;stroke-opacity:1" />
    <circle
       id="path3773"
       style="fill:#000000;fill-opacity:1;stroke:#000000;stroke-width:0.52656716;stroke-linecap:butt;stroke-linejoin:miter;stroke-miterlimit:4;stroke-dasharray:none;stroke-dashoffset:0;stroke-opacity:1"
       cx="263.85916"
       cy="918.98755"
       r="4.9694772" />
    <path
       inkscape:connector-curvature="0"
       id="path5237"
       d="m 173.56275,954.967 83.07478,-33.02855"
       style="fill:none;stroke:#000000;stroke-width:1.3401686;stroke-linecap:butt;stroke-linejoin:miter;stroke-miterlimit:4;stroke-dasharray:none;stroke-opacity:1;marker-end:url(#Arrow1Mend)" />
    <path
       inkscape:connector-curvature="0"
       id="path6621"
       d="m 173.59427,955.20484 90.27249,46.85846"
       style="fill:none;stroke:#000000;stroke-width:0.66447759;stroke-linecap:butt;stroke-linejoin:miter;stroke-miterlimit:4;stroke-dasharray:0.66447759, 1.99343277;stroke-dashoffset:0;stroke-opacity:1" />
    <path
       inkscape:connector-curvature="0"
       id="path6621-1"
       d="m 173.39493,871.64715 90.27249,46.85843"
       style="fill:none;stroke:#000000;stroke-width:0.66447759;stroke-linecap:butt;stroke-linejoin:miter;stroke-miterlimit:4;stroke-dasharray:0.66447759, 1.99343277;stroke-dashoffset:0;stroke-opacity:1" />
    <g
       id="g412"
       style="display:inline;fill:#ff0000;stroke-width:2.88675332"
       transform="matrix(1.3092659,0,0,1.3092659,56.286241,765.01127)"
       ns:text="\\( P \\)">
      <g
         id="surface1">
        <g
           id="g409"
           style="fill:#000000;fill-opacity:1" />
      </g>
    </g>
  </g>
  <g
     inkscape:groupmode="layer"
     id="layer2"
     inkscape:label="itens"
     style="display:inline"
     sodipodi:insensitive="true">
    <path
       id="path407"
       d="m 154.20812,38.557879 h 2.73476 c 2.25808,0 4.49105,-1.655916 4.49105,-3.437281 0,-1.254483 -1.05376,-2.433696 -3.16129,-2.433696 h -5.16846 c -0.30109,0 -0.47671,0 -0.47671,0.301076 0,0.200717 0.12544,0.200717 0.45161,0.200717 0.20072,0 0.50179,0.02509 0.67743,0.02509 0.27599,0.05018 0.35125,0.07526 0.35125,0.275986 0,0.05018 0,0.100359 -0.0502,0.301075 l -2.15769,8.580659 c -0.15055,0.62724 -0.17563,0.752689 -1.45521,0.752689 -0.25089,0 -0.42653,0 -0.42653,0.301075 0,0.200717 0.17564,0.200717 0.22582,0.200717 0.45161,0 1.58065,-0.05018 2.03226,-0.05018 0.35126,0 0.70251,0.02509 1.02867,0.02509 0.35126,0 0.70252,0.0251 1.02867,0.0251 0.12546,0 0.32617,0 0.32617,-0.326166 0,-0.175628 -0.15054,-0.175628 -0.45161,-0.175628 -0.57706,0 -1.02867,0 -1.02867,-0.275985 0,-0.10036 0.0251,-0.175628 0.0502,-0.275986 z m 1.15411,-4.767032 c 0.15055,-0.551972 0.17564,-0.602152 0.87815,-0.602152 h 1.53046 c 1.32976,0 2.18279,0.426524 2.18279,1.530468 0,0.627241 -0.32615,2.007172 -0.95339,2.584233 -0.80287,0.7276 -1.75628,0.853048 -2.45879,0.853048 h -2.25807 z m 0,0"
       style="display:inline;fill:#000000;fill-opacity:1;stroke:none;stroke-width:3.77952766"
       inkscape:connector-curvature="0" />
    <g
       id="g631"
       style="display:inline;fill:#ff0000;stroke-width:2.35376477"
       transform="matrix(1.6057371,0,0,1.6057371,-250.70289,-89.311855)"
       ns:text="\\( O \\)">
      <g
         id="g629"
         style="stroke-width:2.35376477">
        <g
           id="g627"
           style="fill:#000000;fill-opacity:1;stroke-width:2.35376477">
          <path
             id="path625"
             transform="translate(178.585,110.99)"
             d="m 7.375,-4.34375 c 0,-1.609375 -1.0625,-2.6875 -2.546875,-2.6875 -2.140625,0 -4.34375,2.265625 -4.34375,4.59375 0,1.65625 1.125,2.65625 2.5625,2.65625 2.109375,0 4.328125,-2.1875 4.328125,-4.5625 z m -4.28125,4.296875 c -0.984375,0 -1.671875,-0.796875 -1.671875,-2.109375 0,-0.453125 0.140625,-1.90625 0.90625,-3.0625 0.6875,-1.046875 1.65625,-1.5625 2.453125,-1.5625 0.8125,0 1.703125,0.5625 1.703125,2.046875 0,0.71875 -0.265625,2.265625 -1.25,3.5 C 4.75,-0.625 3.9375,-0.046875 3.09375,-0.046875 Z m 0,0"
             style="stroke:none;stroke-width:2.35376477"
             inkscape:connector-curvature="0" />
        </g>
      </g>
    </g>
  </g>
  <g
     inkscape:groupmode="layer"
     id="layer3"
     inkscape:label="coord"
     style="display:inline">
    <g
       id="g700"
       style="display:inline;fill:#0000ff;stroke-width:2.35376477"
       transform="matrix(1.6057371,0,0,1.6057371,-249.19519,-131.85954)"
       ns:text="\\( z \\)">
      <g
         id="g698"
         style="fill:#0000ff;stroke-width:2.35376477">
        <g
           id="g696"
           style="fill:#0000ff;fill-opacity:1;stroke-width:2.35376477">
          <path
             id="path694"
             transform="translate(178.585,110.99)"
             d="m 1.328125,-0.828125 c 0.53125,-0.578125 0.828125,-0.828125 1.1875,-1.140625 0,0 0.609375,-0.53125 0.96875,-0.890625 C 4.4375,-3.78125 4.65625,-4.265625 4.65625,-4.3125 c 0,-0.09375 -0.09375,-0.09375 -0.109375,-0.09375 -0.078125,0 -0.09375,0.015625 -0.15625,0.109375 -0.296875,0.484375 -0.5,0.640625 -0.734375,0.640625 -0.25,0 -0.359375,-0.15625 -0.515625,-0.328125 -0.1875,-0.21875 -0.359375,-0.421875 -0.6875,-0.421875 -0.75,0 -1.203125,0.921875 -1.203125,1.140625 0,0.046875 0.03125,0.109375 0.109375,0.109375 0.09375,0 0.109375,-0.046875 0.140625,-0.109375 0.1875,-0.46875 0.765625,-0.46875 0.84375,-0.46875 0.203125,0 0.390625,0.0625 0.625,0.140625 0.40625,0.15625 0.515625,0.15625 0.765625,0.15625 -0.359375,0.421875 -1.1875,1.140625 -1.375,1.296875 l -0.90625,0.84375 C 0.78125,-0.625 0.421875,-0.0625 0.421875,0.015625 c 0,0.09375 0.109375,0.09375 0.125,0.09375 0.078125,0 0.09375,-0.015625 0.15625,-0.125 0.234375,-0.359375 0.53125,-0.625 0.859375,-0.625 0.21875,0 0.328125,0.09375 0.578125,0.375 0.15625,0.21875 0.34375,0.375 0.625,0.375 1,0 1.578125,-1.265625 1.578125,-1.53125 0,-0.046875 -0.046875,-0.109375 -0.125,-0.109375 -0.09375,0 -0.109375,0.0625 -0.140625,0.140625 C 3.84375,-0.75 3.203125,-0.5625 2.875,-0.5625 c -0.1875,0 -0.375,-0.0625 -0.578125,-0.125 -0.34375,-0.125 -0.5,-0.171875 -0.703125,-0.171875 -0.015625,0 -0.171875,0 -0.265625,0.03125 z m 0,0"
             style="fill:#0000ff;stroke:none;stroke-width:2.35376477"
             inkscape:connector-curvature="0" />
        </g>
      </g>
    </g>
    <g
       id="g1195"
       style="display:inline;fill:#0000ff;stroke-width:2.35376477"
       transform="matrix(1.6057371,0,0,1.6057371,-271.92903,-62.267766)"
       ns:text="\\( x \\)">
      <g
         id="g1193"
         style="fill:#0000ff">
        <g
           id="g1191"
           style="fill:#0000ff;fill-opacity:1">
          <path
             id="path1189"
             transform="translate(178.585,110.99)"
             d="M 3.328125,-3.015625 C 3.390625,-3.265625 3.625,-4.1875 4.3125,-4.1875 c 0.046875,0 0.296875,0 0.5,0.125 C 4.53125,-4 4.34375,-3.765625 4.34375,-3.515625 c 0,0.15625 0.109375,0.34375 0.375,0.34375 0.21875,0 0.53125,-0.171875 0.53125,-0.578125 0,-0.515625 -0.578125,-0.65625 -0.921875,-0.65625 -0.578125,0 -0.921875,0.53125 -1.046875,0.75 -0.25,-0.65625 -0.78125,-0.75 -1.078125,-0.75 -1.03125,0 -1.609375,1.28125 -1.609375,1.53125 0,0.109375 0.109375,0.109375 0.125,0.109375 0.078125,0 0.109375,-0.03125 0.125,-0.109375 0.34375,-1.0625 1,-1.3125 1.34375,-1.3125 0.1875,0 0.53125,0.09375 0.53125,0.671875 0,0.3125 -0.171875,0.96875 -0.53125,2.375 -0.15625,0.609375 -0.515625,1.03125 -0.953125,1.03125 -0.0625,0 -0.28125,0 -0.5,-0.125 0.25,-0.0625 0.46875,-0.265625 0.46875,-0.546875 0,-0.265625 -0.21875,-0.34375 -0.359375,-0.34375 -0.3125,0 -0.546875,0.25 -0.546875,0.578125 0,0.453125 0.484375,0.65625 0.921875,0.65625 0.671875,0 1.03125,-0.703125 1.046875,-0.75 0.125,0.359375 0.484375,0.75 1.078125,0.75 1.03125,0 1.59375,-1.28125 1.59375,-1.53125 0,-0.109375 -0.078125,-0.109375 -0.109375,-0.109375 -0.09375,0 -0.109375,0.046875 -0.140625,0.109375 -0.328125,1.078125 -1,1.3125 -1.3125,1.3125 -0.390625,0 -0.546875,-0.3125 -0.546875,-0.65625 0,-0.21875 0.046875,-0.4375 0.15625,-0.875 z m 0,0"
             style="fill:#0000ff;stroke:none"
             inkscape:connector-curvature="0" />
        </g>
      </g>
    </g>
    <g
       id="g1259"
       style="display:inline;fill:#0000ff;stroke-width:2.35376477"
       transform="matrix(1.6057371,0,0,1.6057371,-126.50376,-95.775283)"
       ns:text="\\( y \\)">
      <g
         id="g1257"
         style="fill:#0000ff">
        <g
           id="g1255"
           style="fill:#0000ff;fill-opacity:1">
          <path
             id="path1253"
             transform="translate(178.585,110.99)"
             d="m 4.84375,-3.796875 c 0.046875,-0.140625 0.046875,-0.15625 0.046875,-0.234375 0,-0.171875 -0.140625,-0.265625 -0.296875,-0.265625 -0.09375,0 -0.25,0.0625 -0.34375,0.203125 -0.015625,0.0625 -0.109375,0.359375 -0.140625,0.546875 -0.078125,0.25 -0.140625,0.53125 -0.203125,0.796875 l -0.453125,1.796875 c -0.03125,0.140625 -0.46875,0.84375 -1.125,0.84375 -0.5,0 -0.609375,-0.4375 -0.609375,-0.8125 C 1.71875,-1.375 1.890625,-2 2.21875,-2.875 2.375,-3.28125 2.421875,-3.390625 2.421875,-3.59375 c 0,-0.4375 -0.3125,-0.8125 -0.8125,-0.8125 -0.953125,0 -1.3125,1.453125 -1.3125,1.53125 0,0.109375 0.09375,0.109375 0.109375,0.109375 0.109375,0 0.109375,-0.03125 0.15625,-0.1875 0.28125,-0.9375 0.671875,-1.234375 1.015625,-1.234375 0.078125,0 0.25,0 0.25,0.3125 0,0.25 -0.109375,0.515625 -0.171875,0.703125 -0.40625,1.0625 -0.578125,1.625 -0.578125,2.09375 0,0.890625 0.625,1.1875 1.21875,1.1875 0.390625,0 0.71875,-0.171875 1,-0.453125 -0.125,0.515625 -0.25,1.015625 -0.640625,1.546875 -0.265625,0.328125 -0.640625,0.625 -1.09375,0.625 -0.140625,0 -0.59375,-0.03125 -0.765625,-0.421875 0.15625,0 0.296875,0 0.421875,-0.125 C 1.328125,1.203125 1.421875,1.0625 1.421875,0.875 1.421875,0.5625 1.15625,0.53125 1.0625,0.53125 0.828125,0.53125 0.5,0.6875 0.5,1.171875 c 0,0.5 0.4375,0.875 1.0625,0.875 1.015625,0 2.046875,-0.90625 2.328125,-2.03125 z m 0,0"
             style="fill:#0000ff;stroke:none"
             inkscape:connector-curvature="0" />
        </g>
      </g>
    </g>
    <g
       id="g1373"
       style="display:inline;fill:#0000ff;stroke-width:2.35376477"
       transform="matrix(1.6057371,0,0,1.6057371,-167.34121,-159.86286)"
       ns:text="\\( ( x , \\, y, \\, z ) \\)">
      <g
         id="g1371"
         style="fill:#0000ff">
        <g
           id="g1347"
           style="fill:#0000ff;fill-opacity:1">
          <path
             id="path1345"
             transform="translate(178.585,110.99)"
             d="m 3.296875,2.390625 c 0,-0.03125 0,-0.046875 -0.171875,-0.21875 C 1.890625,0.921875 1.5625,-0.96875 1.5625,-2.5 c 0,-1.734375 0.375,-3.46875 1.609375,-4.703125 0.125,-0.125 0.125,-0.140625 0.125,-0.171875 0,-0.078125 -0.03125,-0.109375 -0.09375,-0.109375 -0.109375,0 -1,0.6875 -1.59375,1.953125 -0.5,1.09375 -0.625,2.203125 -0.625,3.03125 0,0.78125 0.109375,1.984375 0.65625,3.125 C 2.25,1.84375 3.09375,2.5 3.203125,2.5 c 0.0625,0 0.09375,-0.03125 0.09375,-0.109375 z m 0,0"
             style="fill:#0000ff;stroke:none"
             inkscape:connector-curvature="0" />
        </g>
        <g
           id="g1353"
           style="fill:#0000ff;fill-opacity:1">
          <path
             id="path1349"
             transform="translate(182.459,110.99)"
             d="M 3.328125,-3.015625 C 3.390625,-3.265625 3.625,-4.1875 4.3125,-4.1875 c 0.046875,0 0.296875,0 0.5,0.125 C 4.53125,-4 4.34375,-3.765625 4.34375,-3.515625 c 0,0.15625 0.109375,0.34375 0.375,0.34375 0.21875,0 0.53125,-0.171875 0.53125,-0.578125 0,-0.515625 -0.578125,-0.65625 -0.921875,-0.65625 -0.578125,0 -0.921875,0.53125 -1.046875,0.75 -0.25,-0.65625 -0.78125,-0.75 -1.078125,-0.75 -1.03125,0 -1.609375,1.28125 -1.609375,1.53125 0,0.109375 0.109375,0.109375 0.125,0.109375 0.078125,0 0.109375,-0.03125 0.125,-0.109375 0.34375,-1.0625 1,-1.3125 1.34375,-1.3125 0.1875,0 0.53125,0.09375 0.53125,0.671875 0,0.3125 -0.171875,0.96875 -0.53125,2.375 -0.15625,0.609375 -0.515625,1.03125 -0.953125,1.03125 -0.0625,0 -0.28125,0 -0.5,-0.125 0.25,-0.0625 0.46875,-0.265625 0.46875,-0.546875 0,-0.265625 -0.21875,-0.34375 -0.359375,-0.34375 -0.3125,0 -0.546875,0.25 -0.546875,0.578125 0,0.453125 0.484375,0.65625 0.921875,0.65625 0.671875,0 1.03125,-0.703125 1.046875,-0.75 0.125,0.359375 0.484375,0.75 1.078125,0.75 1.03125,0 1.59375,-1.28125 1.59375,-1.53125 0,-0.109375 -0.078125,-0.109375 -0.109375,-0.109375 -0.09375,0 -0.109375,0.046875 -0.140625,0.109375 -0.328125,1.078125 -1,1.3125 -1.3125,1.3125 -0.390625,0 -0.546875,-0.3125 -0.546875,-0.65625 0,-0.21875 0.046875,-0.4375 0.15625,-0.875 z m 0,0"
             style="fill:#0000ff;stroke:none"
             inkscape:connector-curvature="0" />
          <path
             id="path1351"
             transform="translate(188.15263,110.99)"
             d="m 2.03125,-0.015625 c 0,-0.65625 -0.25,-1.046875 -0.640625,-1.046875 -0.328125,0 -0.53125,0.25 -0.53125,0.53125 C 0.859375,-0.265625 1.0625,0 1.390625,0 1.5,0 1.640625,-0.046875 1.734375,-0.125 1.765625,-0.15625 1.78125,-0.15625 1.78125,-0.15625 c 0.015625,0 0.015625,0 0.015625,0.140625 0,0.75 -0.34375,1.34375 -0.671875,1.671875 -0.109375,0.109375 -0.109375,0.125 -0.109375,0.15625 0,0.078125 0.046875,0.109375 0.09375,0.109375 0.109375,0 0.921875,-0.765625 0.921875,-1.9375 z m 0,0"
             style="fill:#0000ff;stroke:none"
             inkscape:connector-curvature="0" />
        </g>
        <g
           id="g1357"
           style="fill:#0000ff;fill-opacity:1">
          <path
             id="path1355"
             transform="translate(194.23778,110.99)"
             d="m 4.84375,-3.796875 c 0.046875,-0.140625 0.046875,-0.15625 0.046875,-0.234375 0,-0.171875 -0.140625,-0.265625 -0.296875,-0.265625 -0.09375,0 -0.25,0.0625 -0.34375,0.203125 -0.015625,0.0625 -0.109375,0.359375 -0.140625,0.546875 -0.078125,0.25 -0.140625,0.53125 -0.203125,0.796875 l -0.453125,1.796875 c -0.03125,0.140625 -0.46875,0.84375 -1.125,0.84375 -0.5,0 -0.609375,-0.4375 -0.609375,-0.8125 C 1.71875,-1.375 1.890625,-2 2.21875,-2.875 2.375,-3.28125 2.421875,-3.390625 2.421875,-3.59375 c 0,-0.4375 -0.3125,-0.8125 -0.8125,-0.8125 -0.953125,0 -1.3125,1.453125 -1.3125,1.53125 0,0.109375 0.09375,0.109375 0.109375,0.109375 0.109375,0 0.109375,-0.03125 0.15625,-0.1875 0.28125,-0.9375 0.671875,-1.234375 1.015625,-1.234375 0.078125,0 0.25,0 0.25,0.3125 0,0.25 -0.109375,0.515625 -0.171875,0.703125 -0.40625,1.0625 -0.578125,1.625 -0.578125,2.09375 0,0.890625 0.625,1.1875 1.21875,1.1875 0.390625,0 0.71875,-0.171875 1,-0.453125 -0.125,0.515625 -0.25,1.015625 -0.640625,1.546875 -0.265625,0.328125 -0.640625,0.625 -1.09375,0.625 -0.140625,0 -0.59375,-0.03125 -0.765625,-0.421875 0.15625,0 0.296875,0 0.421875,-0.125 C 1.328125,1.203125 1.421875,1.0625 1.421875,0.875 1.421875,0.5625 1.15625,0.53125 1.0625,0.53125 0.828125,0.53125 0.5,0.6875 0.5,1.171875 c 0,0.5 0.4375,0.875 1.0625,0.875 1.015625,0 2.046875,-0.90625 2.328125,-2.03125 z m 0,0"
             style="fill:#0000ff;stroke:none"
             inkscape:connector-curvature="0" />
        </g>
        <g
           id="g1361"
           style="fill:#0000ff;fill-opacity:1">
          <path
             id="path1359"
             transform="translate(199.4811,110.99)"
             d="m 2.03125,-0.015625 c 0,-0.65625 -0.25,-1.046875 -0.640625,-1.046875 -0.328125,0 -0.53125,0.25 -0.53125,0.53125 C 0.859375,-0.265625 1.0625,0 1.390625,0 1.5,0 1.640625,-0.046875 1.734375,-0.125 1.765625,-0.15625 1.78125,-0.15625 1.78125,-0.15625 c 0.015625,0 0.015625,0 0.015625,0.140625 0,0.75 -0.34375,1.34375 -0.671875,1.671875 -0.109375,0.109375 -0.109375,0.125 -0.109375,0.15625 0,0.078125 0.046875,0.109375 0.09375,0.109375 0.109375,0 0.921875,-0.765625 0.921875,-1.9375 z m 0,0"
             style="fill:#0000ff;stroke:none"
             inkscape:connector-curvature="0" />
        </g>
        <g
           id="g1365"
           style="fill:#0000ff;fill-opacity:1">
          <path
             id="path1363"
             transform="translate(205.56625,110.99)"
             d="m 1.328125,-0.828125 c 0.53125,-0.578125 0.828125,-0.828125 1.1875,-1.140625 0,0 0.609375,-0.53125 0.96875,-0.890625 C 4.4375,-3.78125 4.65625,-4.265625 4.65625,-4.3125 c 0,-0.09375 -0.09375,-0.09375 -0.109375,-0.09375 -0.078125,0 -0.09375,0.015625 -0.15625,0.109375 -0.296875,0.484375 -0.5,0.640625 -0.734375,0.640625 -0.25,0 -0.359375,-0.15625 -0.515625,-0.328125 -0.1875,-0.21875 -0.359375,-0.421875 -0.6875,-0.421875 -0.75,0 -1.203125,0.921875 -1.203125,1.140625 0,0.046875 0.03125,0.109375 0.109375,0.109375 0.09375,0 0.109375,-0.046875 0.140625,-0.109375 0.1875,-0.46875 0.765625,-0.46875 0.84375,-0.46875 0.203125,0 0.390625,0.0625 0.625,0.140625 0.40625,0.15625 0.515625,0.15625 0.765625,0.15625 -0.359375,0.421875 -1.1875,1.140625 -1.375,1.296875 l -0.90625,0.84375 C 0.78125,-0.625 0.421875,-0.0625 0.421875,0.015625 c 0,0.09375 0.109375,0.09375 0.125,0.09375 0.078125,0 0.09375,-0.015625 0.15625,-0.125 0.234375,-0.359375 0.53125,-0.625 0.859375,-0.625 0.21875,0 0.328125,0.09375 0.578125,0.375 0.15625,0.21875 0.34375,0.375 0.625,0.375 1,0 1.578125,-1.265625 1.578125,-1.53125 0,-0.046875 -0.046875,-0.109375 -0.125,-0.109375 -0.09375,0 -0.109375,0.0625 -0.140625,0.140625 C 3.84375,-0.75 3.203125,-0.5625 2.875,-0.5625 c -0.1875,0 -0.375,-0.0625 -0.578125,-0.125 -0.34375,-0.125 -0.5,-0.171875 -0.703125,-0.171875 -0.015625,0 -0.171875,0 -0.265625,0.03125 z m 0,0"
             style="fill:#0000ff;stroke:none"
             inkscape:connector-curvature="0" />
        </g>
        <g
           id="g1369"
           style="fill:#0000ff;fill-opacity:1">
          <path
             id="path1367"
             transform="translate(210.642,110.99)"
             d="m 2.875,-2.5 c 0,-0.765625 -0.109375,-1.96875 -0.65625,-3.109375 -0.59375,-1.21875 -1.453125,-1.875 -1.546875,-1.875 -0.0625,0 -0.109375,0.046875 -0.109375,0.109375 0,0.03125 0,0.046875 0.1875,0.234375 0.984375,0.984375 1.546875,2.5625 1.546875,4.640625 0,1.71875 -0.359375,3.46875 -1.59375,4.71875 C 0.5625,2.34375 0.5625,2.359375 0.5625,2.390625 0.5625,2.453125 0.609375,2.5 0.671875,2.5 0.765625,2.5 1.671875,1.8125 2.25,0.546875 2.765625,-0.546875 2.875,-1.65625 2.875,-2.5 Z m 0,0"
             style="fill:#0000ff;stroke:none"
             inkscape:connector-curvature="0" />
        </g>
      </g>
    </g>
  </g>
</svg>
