<?xml version="1.0" encoding="UTF-8" standalone="no"?>
<!-- Created with Inkscape (http://www.inkscape.org/) -->

<svg
   xmlns:ns="http://wanglongqi.github.io/WriteTeX"
   xmlns:dc="http://purl.org/dc/elements/1.1/"
   xmlns:cc="http://creativecommons.org/ns#"
   xmlns:rdf="http://www.w3.org/1999/02/22-rdf-syntax-ns#"
   xmlns:svg="http://www.w3.org/2000/svg"
   xmlns="http://www.w3.org/2000/svg"
   xmlns:sodipodi="http://sodipodi.sourceforge.net/DTD/sodipodi-0.dtd"
   xmlns:inkscape="http://www.inkscape.org/namespaces/inkscape"
   width="108.72247mm"
   height="47.70108mm"
   viewBox="0 0 108.72247 47.70108"
   version="1.1"
   id="svg795"
   inkscape:version="0.92.4 (unknown)"
   sodipodi:docname="cinpontomovretGraficoVelocidade.svg">
  <defs
     id="defs789" />
  <sodipodi:namedview
     id="base"
     pagecolor="#ffffff"
     bordercolor="#666666"
     borderopacity="1.0"
     inkscape:pageopacity="0.0"
     inkscape:pageshadow="2"
     inkscape:zoom="0.98994949"
     inkscape:cx="245.96355"
     inkscape:cy="260.14152"
     inkscape:document-units="mm"
     inkscape:current-layer="layer2"
     showgrid="false"
     inkscape:window-width="960"
     inkscape:window-height="1025"
     inkscape:window-x="960"
     inkscape:window-y="27"
     inkscape:window-maximized="0"
     fit-margin-top="0"
     fit-margin-left="0"
     fit-margin-right="0"
     fit-margin-bottom="0" />
  <metadata
     id="metadata792">
    <rdf:RDF>
      <cc:Work
         rdf:about="">
        <dc:format>image/svg+xml</dc:format>
        <dc:type
           rdf:resource="http://purl.org/dc/dcmitype/StillImage" />
        <dc:title />
      </cc:Work>
    </rdf:RDF>
  </metadata>
  <g
     inkscape:label="Layer 1"
     inkscape:groupmode="layer"
     id="layer1"
     transform="translate(-29.54948,-124.22684)"
     sodipodi:insensitive="true">
    <g
       transform="matrix(0.04409722,0,0,0.04409722,29.54948,121.83348)"
       id="g2012">
      <g
         transform="scale(5.9939648,5.9992501)"
         id="g2032">
        <path
           inkscape:connector-curvature="0"
           id="path2034"
           style="fill:none;stroke:#262626;stroke-width:0.66666698;stroke-linecap:butt;stroke-linejoin:round;stroke-miterlimit:10;stroke-dasharray:none;stroke-opacity:0.14901961"
           d="M 68,147 V 14" />
      </g>
      <g
         transform="scale(5.9939648,5.9992501)"
         id="g2036">
        <path
           inkscape:connector-curvature="0"
           id="path2038"
           style="fill:none;stroke:#262626;stroke-width:0.66666698;stroke-linecap:butt;stroke-linejoin:round;stroke-miterlimit:10;stroke-dasharray:none;stroke-opacity:0.14901961"
           d="M 131.55556,147 V 14" />
      </g>
      <g
         transform="scale(5.9939648,5.9992501)"
         id="g2040">
        <path
           inkscape:connector-curvature="0"
           id="path2042"
           style="fill:none;stroke:#262626;stroke-width:0.66666698;stroke-linecap:butt;stroke-linejoin:round;stroke-miterlimit:10;stroke-dasharray:none;stroke-opacity:0.14901961"
           d="M 195.11111,147 V 14" />
      </g>
      <g
         transform="scale(5.9939648,5.9992501)"
         id="g2044">
        <path
           inkscape:connector-curvature="0"
           id="path2046"
           style="fill:none;stroke:#262626;stroke-width:0.66666698;stroke-linecap:butt;stroke-linejoin:round;stroke-miterlimit:10;stroke-dasharray:none;stroke-opacity:0.14901961"
           d="M 211,147 H 68" />
      </g>
      <g
         transform="scale(5.9939648,5.9992501)"
         id="g2048">
        <path
           inkscape:connector-curvature="0"
           id="path2050"
           style="fill:none;stroke:#262626;stroke-width:0.66666698;stroke-linecap:butt;stroke-linejoin:round;stroke-miterlimit:10;stroke-dasharray:none;stroke-opacity:0.14901961"
           d="M 211,102.66666 H 68" />
      </g>
      <g
         transform="scale(5.9939648,5.9992501)"
         id="g2052">
        <path
           inkscape:connector-curvature="0"
           id="path2054"
           style="fill:none;stroke:#262626;stroke-width:0.66666698;stroke-linecap:butt;stroke-linejoin:round;stroke-miterlimit:10;stroke-dasharray:none;stroke-opacity:0.14901961"
           d="M 211,58.333332 H 68" />
      </g>
      <g
         transform="scale(5.9939648,5.9992501)"
         id="g2056">
        <path
           inkscape:connector-curvature="0"
           id="path2058"
           style="fill:none;stroke:#262626;stroke-width:0.66666698;stroke-linecap:butt;stroke-linejoin:round;stroke-miterlimit:10;stroke-dasharray:none;stroke-opacity:0.14901961"
           d="M 211,14 H 68" />
      </g>
      <g
         transform="scale(5.9939648,5.9992501)"
         id="g2060">
        <path
           inkscape:connector-curvature="0"
           id="path2062"
           style="fill:none;stroke:#262626;stroke-width:0.66666698;stroke-linecap:square;stroke-linejoin:round;stroke-miterlimit:10;stroke-dasharray:none;stroke-opacity:1"
           d="M 68,147 H 211" />
      </g>
      <g
         transform="scale(5.9939648,5.9992501)"
         id="g2064">
        <path
           inkscape:connector-curvature="0"
           id="path2066"
           style="fill:none;stroke:#262626;stroke-width:0.66666698;stroke-linecap:square;stroke-linejoin:round;stroke-miterlimit:10;stroke-dasharray:none;stroke-opacity:1"
           d="M 68,14 H 211" />
      </g>
      <g
         transform="scale(5.9939648,5.9992501)"
         id="g2068">
        <path
           inkscape:connector-curvature="0"
           id="path2070"
           style="fill:none;stroke:#262626;stroke-width:0.66666698;stroke-linecap:square;stroke-linejoin:round;stroke-miterlimit:10;stroke-dasharray:none;stroke-opacity:1"
           d="m 68,147 v -1.43001" />
      </g>
      <g
         transform="scale(5.9939648,5.9992501)"
         id="g2072">
        <path
           inkscape:connector-curvature="0"
           id="path2074"
           style="fill:none;stroke:#262626;stroke-width:0.66666698;stroke-linecap:square;stroke-linejoin:round;stroke-miterlimit:10;stroke-dasharray:none;stroke-opacity:1"
           d="m 131.55556,147 v -1.43001" />
      </g>
      <g
         transform="scale(5.9939648,5.9992501)"
         id="g2076">
        <path
           inkscape:connector-curvature="0"
           id="path2078"
           style="fill:none;stroke:#262626;stroke-width:0.66666698;stroke-linecap:square;stroke-linejoin:round;stroke-miterlimit:10;stroke-dasharray:none;stroke-opacity:1"
           d="m 195.11111,147 v -1.43001" />
      </g>
      <g
         transform="scale(5.9939648,5.9992501)"
         id="g2080">
        <path
           inkscape:connector-curvature="0"
           id="path2082"
           style="fill:none;stroke:#262626;stroke-width:0.66666698;stroke-linecap:square;stroke-linejoin:round;stroke-miterlimit:10;stroke-dasharray:none;stroke-opacity:1"
           d="m 68,14 v 1.429996" />
      </g>
      <g
         transform="scale(5.9939648,5.9992501)"
         id="g2084">
        <path
           inkscape:connector-curvature="0"
           id="path2086"
           style="fill:none;stroke:#262626;stroke-width:0.66666698;stroke-linecap:square;stroke-linejoin:round;stroke-miterlimit:10;stroke-dasharray:none;stroke-opacity:1"
           d="m 131.55556,14 v 1.429996" />
      </g>
      <g
         transform="scale(5.9939648,5.9992501)"
         id="g2088">
        <path
           inkscape:connector-curvature="0"
           id="path2090"
           style="fill:none;stroke:#262626;stroke-width:0.66666698;stroke-linecap:square;stroke-linejoin:round;stroke-miterlimit:10;stroke-dasharray:none;stroke-opacity:1"
           d="m 195.11111,14 v 1.429996" />
      </g>
      <g
         id="g2092">
        <g
           transform="matrix(5.9939648,0,0,5.9992501,407.5896,913.88574)"
           id="g2094">
          <text
             id="text2098"
             style="font-variant:normal;font-weight:normal;font-size:13.33300018px;font-family:Helvetica;-inkscape-font-specification:Helvetica;writing-mode:lr-tb;fill:#262626;fill-opacity:1;fill-rule:nonzero;stroke:none"
             transform="translate(-4.5,13)">
            <tspan
               id="tspan2096"
               y="0"
               x="0">0</tspan>
          </text>
        </g>
      </g>
      <g
         id="g2100">
        <g
           transform="matrix(5.9939648,0,0,5.9992501,788.53938,913.88574)"
           id="g2102">
          <text
             id="text2106"
             style="font-variant:normal;font-weight:normal;font-size:13.33300018px;font-family:Helvetica;-inkscape-font-specification:Helvetica;writing-mode:lr-tb;fill:#262626;fill-opacity:1;fill-rule:nonzero;stroke:none"
             transform="translate(-4.5,13)">
            <tspan
               id="tspan2104"
               y="0"
               x="0">2</tspan>
          </text>
        </g>
      </g>
      <g
         id="g2108">
        <g
           transform="matrix(5.9939648,0,0,5.9992501,1169.4891,913.88574)"
           id="g2110">
          <text
             id="text2114"
             style="font-variant:normal;font-weight:normal;font-size:13.33300018px;font-family:Helvetica;-inkscape-font-specification:Helvetica;writing-mode:lr-tb;fill:#262626;fill-opacity:1;fill-rule:nonzero;stroke:none"
             transform="translate(-4.5,13)">
            <tspan
               id="tspan2112"
               y="0"
               x="0">4</tspan>
          </text>
        </g>
      </g>
      <g
         transform="scale(5.9939648,5.9992501)"
         id="g2124">
        <path
           inkscape:connector-curvature="0"
           id="path2126"
           style="fill:none;stroke:#262626;stroke-width:0.66666698;stroke-linecap:square;stroke-linejoin:round;stroke-miterlimit:10;stroke-dasharray:none;stroke-opacity:1"
           d="M 68,147 V 14" />
      </g>
      <g
         transform="scale(5.9939648,5.9992501)"
         id="g2128">
        <path
           inkscape:connector-curvature="0"
           id="path2130"
           style="fill:none;stroke:#262626;stroke-width:0.66666698;stroke-linecap:square;stroke-linejoin:round;stroke-miterlimit:10;stroke-dasharray:none;stroke-opacity:1"
           d="M 211,147 V 14" />
      </g>
      <g
         transform="scale(5.9939648,5.9992501)"
         id="g2132">
        <path
           inkscape:connector-curvature="0"
           id="path2134"
           style="fill:none;stroke:#262626;stroke-width:0.66666698;stroke-linecap:square;stroke-linejoin:round;stroke-miterlimit:10;stroke-dasharray:none;stroke-opacity:1"
           d="m 68,147 h 1.43" />
      </g>
      <g
         transform="scale(5.9939648,5.9992501)"
         id="g2136">
        <path
           inkscape:connector-curvature="0"
           id="path2138"
           style="fill:none;stroke:#262626;stroke-width:0.66666698;stroke-linecap:square;stroke-linejoin:round;stroke-miterlimit:10;stroke-dasharray:none;stroke-opacity:1"
           d="m 68,102.66666 h 1.43" />
      </g>
      <g
         transform="scale(5.9939648,5.9992501)"
         id="g2140">
        <path
           inkscape:connector-curvature="0"
           id="path2142"
           style="fill:none;stroke:#262626;stroke-width:0.66666698;stroke-linecap:square;stroke-linejoin:round;stroke-miterlimit:10;stroke-dasharray:none;stroke-opacity:1"
           d="m 68,58.333332 h 1.43" />
      </g>
      <g
         transform="scale(5.9939648,5.9992501)"
         id="g2144">
        <path
           inkscape:connector-curvature="0"
           id="path2146"
           style="fill:none;stroke:#262626;stroke-width:0.66666698;stroke-linecap:square;stroke-linejoin:round;stroke-miterlimit:10;stroke-dasharray:none;stroke-opacity:1"
           d="m 68,14 h 1.43" />
      </g>
      <g
         transform="scale(5.9939648,5.9992501)"
         id="g2148">
        <path
           inkscape:connector-curvature="0"
           id="path2150"
           style="fill:none;stroke:#262626;stroke-width:0.66666698;stroke-linecap:square;stroke-linejoin:round;stroke-miterlimit:10;stroke-dasharray:none;stroke-opacity:1"
           d="m 211,147 h -1.43001" />
      </g>
      <g
         transform="scale(5.9939648,5.9992501)"
         id="g2152">
        <path
           inkscape:connector-curvature="0"
           id="path2154"
           style="fill:none;stroke:#262626;stroke-width:0.66666698;stroke-linecap:square;stroke-linejoin:round;stroke-miterlimit:10;stroke-dasharray:none;stroke-opacity:1"
           d="m 211,102.66666 h -1.43001" />
      </g>
      <g
         transform="scale(5.9939648,5.9992501)"
         id="g2156">
        <path
           inkscape:connector-curvature="0"
           id="path2158"
           style="fill:none;stroke:#262626;stroke-width:0.66666698;stroke-linecap:square;stroke-linejoin:round;stroke-miterlimit:10;stroke-dasharray:none;stroke-opacity:1"
           d="m 211,58.333332 h -1.43001" />
      </g>
      <g
         transform="scale(5.9939648,5.9992501)"
         id="g2160">
        <path
           inkscape:connector-curvature="0"
           id="path2162"
           style="fill:none;stroke:#262626;stroke-width:0.66666698;stroke-linecap:square;stroke-linejoin:round;stroke-miterlimit:10;stroke-dasharray:none;stroke-opacity:1"
           d="m 211,14 h -1.43001" />
      </g>
      <g
         id="g2164">
        <g
           transform="matrix(5.9939648,0,0,5.9992501,375.6218,881.88977)"
           id="g2166">
          <text
             id="text2170"
             style="font-variant:normal;font-weight:normal;font-size:13.33300018px;font-family:Helvetica;-inkscape-font-specification:Helvetica;writing-mode:lr-tb;fill:#262626;fill-opacity:1;fill-rule:nonzero;stroke:none"
             transform="translate(-22,4.5)">
            <tspan
               id="tspan2168"
               sodipodi:role="line"
               y="0"
               x="0 4.439889 11.853037">-10</tspan>
          </text>
        </g>
      </g>
      <g
         id="g2172">
        <g
           transform="matrix(5.9939648,0,0,5.9992501,375.6218,615.923)"
           id="g2174">
          <text
             id="text2178"
             style="font-variant:normal;font-weight:normal;font-size:13.33300018px;font-family:Helvetica;-inkscape-font-specification:Helvetica;writing-mode:lr-tb;fill:#262626;fill-opacity:1;fill-rule:nonzero;stroke:none"
             transform="translate(-9,4.5)">
            <tspan
               id="tspan2176"
               y="0"
               x="0">0</tspan>
          </text>
        </g>
      </g>
      <g
         id="g2180">
        <g
           transform="matrix(5.9939648,0,0,5.9992501,375.6218,349.95625)"
           id="g2182">
          <text
             id="text2186"
             style="font-variant:normal;font-weight:normal;font-size:13.33300018px;font-family:Helvetica;-inkscape-font-specification:Helvetica;writing-mode:lr-tb;fill:#262626;fill-opacity:1;fill-rule:nonzero;stroke:none"
             transform="translate(-17,4.5)">
            <tspan
               id="tspan2184"
               sodipodi:role="line"
               y="0"
               x="0 7.4131479">10</tspan>
          </text>
        </g>
      </g>
      <g
         id="g2188">
        <g
           transform="matrix(5.9939648,0,0,5.9992501,375.6218,83.989502)"
           id="g2190">
          <text
             id="text2194"
             style="font-variant:normal;font-weight:normal;font-size:13.33300018px;font-family:Helvetica;-inkscape-font-specification:Helvetica;writing-mode:lr-tb;fill:#262626;fill-opacity:1;fill-rule:nonzero;stroke:none"
             transform="translate(-17,4.5)">
            <tspan
               id="tspan2192"
               sodipodi:role="line"
               y="0"
               x="0 7.4131479">20</tspan>
          </text>
        </g>
      </g>
      <g
         transform="scale(5.9939648,5.9992501)"
         id="g2204">
        <path
           inkscape:connector-curvature="0"
           id="path2206"
           style="fill:none;stroke:#000000;stroke-width:0.66666698;stroke-linecap:butt;stroke-linejoin:round;stroke-miterlimit:10;stroke-dasharray:none;stroke-opacity:1"
           d="m 68,102.66666 3.17778,-5.186992 3.177773,-4.920998 3.17778,-4.655006 3.17778,-4.389 3.177772,-4.122994 3.177781,-3.857002 3.17778,-3.591003 3.17778,-3.324997 3.177772,-3.058999 3.177781,-2.793003 3.177781,-2.526996 3.17777,-2.261002 3.17778,-1.994999 3.17778,-1.729004 3.17777,-1.462997 3.17778,-1.197002 3.17778,-0.930996 3.17778,-0.665005 3.17778,-0.398998 3.17778,-0.133 3.17778,0.133 3.17778,0.398998 3.17776,0.665005 3.17778,0.930996 3.17778,1.197002 3.17778,1.462997 3.17778,1.729004 3.17778,1.994999 3.17778,2.261002 3.17777,2.526996 3.17778,2.793003 3.17778,3.058999 3.17778,3.324997 3.17778,3.591003 3.17778,3.857002 3.17776,4.122994 3.17778,4.389 3.17778,4.655006 3.17778,4.920998 3.17778,5.186992 3.17777,5.45301 3.17778,5.719 3.17779,5.985 3.17777,6.251 3.17778,6.51699 0.017,0.0364" />
      </g>
      <g
         transform="scale(5.9939648,5.9992501)"
         id="g2212">
        <path
           inkscape:connector-curvature="0"
           id="path2214"
           style="fill:none;stroke:#262626;stroke-width:0.66666698;stroke-linecap:butt;stroke-linejoin:round;stroke-miterlimit:10;stroke-dasharray:none;stroke-opacity:0.14901961"
           d="M 268,147 V 14" />
      </g>
      <g
         transform="scale(5.9939648,5.9992501)"
         id="g2216">
        <path
           inkscape:connector-curvature="0"
           id="path2218"
           style="fill:none;stroke:#262626;stroke-width:0.66666698;stroke-linecap:butt;stroke-linejoin:round;stroke-miterlimit:10;stroke-dasharray:none;stroke-opacity:0.14901961"
           d="M 331.55554,147 V 14" />
      </g>
      <g
         transform="scale(5.9939648,5.9992501)"
         id="g2220">
        <path
           inkscape:connector-curvature="0"
           id="path2222"
           style="fill:none;stroke:#262626;stroke-width:0.66666698;stroke-linecap:butt;stroke-linejoin:round;stroke-miterlimit:10;stroke-dasharray:none;stroke-opacity:0.14901961"
           d="M 395.11111,147 V 14" />
      </g>
      <g
         transform="scale(5.9939648,5.9992501)"
         id="g2224">
        <path
           inkscape:connector-curvature="0"
           id="path2226"
           style="fill:none;stroke:#262626;stroke-width:0.66666698;stroke-linecap:butt;stroke-linejoin:round;stroke-miterlimit:10;stroke-dasharray:none;stroke-opacity:0.14901961"
           d="M 411,147 H 268" />
      </g>
      <g
         transform="scale(5.9939648,5.9992501)"
         id="g2228">
        <path
           inkscape:connector-curvature="0"
           id="path2230"
           style="fill:none;stroke:#262626;stroke-width:0.66666698;stroke-linecap:butt;stroke-linejoin:round;stroke-miterlimit:10;stroke-dasharray:none;stroke-opacity:0.14901961"
           d="M 411,102.66666 H 268" />
      </g>
      <g
         transform="scale(5.9939648,5.9992501)"
         id="g2232">
        <path
           inkscape:connector-curvature="0"
           id="path2234"
           style="fill:none;stroke:#262626;stroke-width:0.66666698;stroke-linecap:butt;stroke-linejoin:round;stroke-miterlimit:10;stroke-dasharray:none;stroke-opacity:0.14901961"
           d="M 411,58.333332 H 268" />
      </g>
      <g
         transform="scale(5.9939648,5.9992501)"
         id="g2236">
        <path
           inkscape:connector-curvature="0"
           id="path2238"
           style="fill:none;stroke:#262626;stroke-width:0.66666698;stroke-linecap:butt;stroke-linejoin:round;stroke-miterlimit:10;stroke-dasharray:none;stroke-opacity:0.14901961"
           d="M 411,14 H 268" />
      </g>
      <g
         transform="scale(5.9939648,5.9992501)"
         id="g2240">
        <path
           inkscape:connector-curvature="0"
           id="path2242"
           style="fill:none;stroke:#262626;stroke-width:0.66666698;stroke-linecap:square;stroke-linejoin:round;stroke-miterlimit:10;stroke-dasharray:none;stroke-opacity:1"
           d="M 268,147 H 411" />
      </g>
      <g
         transform="scale(5.9939648,5.9992501)"
         id="g2244">
        <path
           inkscape:connector-curvature="0"
           id="path2246"
           style="fill:none;stroke:#262626;stroke-width:0.66666698;stroke-linecap:square;stroke-linejoin:round;stroke-miterlimit:10;stroke-dasharray:none;stroke-opacity:1"
           d="M 268,14 H 411" />
      </g>
      <g
         transform="scale(5.9939648,5.9992501)"
         id="g2248">
        <path
           inkscape:connector-curvature="0"
           id="path2250"
           style="fill:none;stroke:#262626;stroke-width:0.66666698;stroke-linecap:square;stroke-linejoin:round;stroke-miterlimit:10;stroke-dasharray:none;stroke-opacity:1"
           d="m 268,147 v -1.43001" />
      </g>
      <g
         transform="scale(5.9939648,5.9992501)"
         id="g2252">
        <path
           inkscape:connector-curvature="0"
           id="path2254"
           style="fill:none;stroke:#262626;stroke-width:0.66666698;stroke-linecap:square;stroke-linejoin:round;stroke-miterlimit:10;stroke-dasharray:none;stroke-opacity:1"
           d="m 331.55554,147 v -1.43001" />
      </g>
      <g
         transform="scale(5.9939648,5.9992501)"
         id="g2256">
        <path
           inkscape:connector-curvature="0"
           id="path2258"
           style="fill:none;stroke:#262626;stroke-width:0.66666698;stroke-linecap:square;stroke-linejoin:round;stroke-miterlimit:10;stroke-dasharray:none;stroke-opacity:1"
           d="m 395.11111,147 v -1.43001" />
      </g>
      <g
         transform="scale(5.9939648,5.9992501)"
         id="g2260">
        <path
           inkscape:connector-curvature="0"
           id="path2262"
           style="fill:none;stroke:#262626;stroke-width:0.66666698;stroke-linecap:square;stroke-linejoin:round;stroke-miterlimit:10;stroke-dasharray:none;stroke-opacity:1"
           d="m 268,14 v 1.429996" />
      </g>
      <g
         transform="scale(5.9939648,5.9992501)"
         id="g2264">
        <path
           inkscape:connector-curvature="0"
           id="path2266"
           style="fill:none;stroke:#262626;stroke-width:0.66666698;stroke-linecap:square;stroke-linejoin:round;stroke-miterlimit:10;stroke-dasharray:none;stroke-opacity:1"
           d="m 331.55554,14 v 1.429996" />
      </g>
      <g
         transform="scale(5.9939648,5.9992501)"
         id="g2268">
        <path
           inkscape:connector-curvature="0"
           id="path2270"
           style="fill:none;stroke:#262626;stroke-width:0.66666698;stroke-linecap:square;stroke-linejoin:round;stroke-miterlimit:10;stroke-dasharray:none;stroke-opacity:1"
           d="m 395.11111,14 v 1.429996" />
      </g>
      <g
         id="g2272">
        <g
           transform="matrix(5.9939648,0,0,5.9992501,1606.3826,913.88574)"
           id="g2274">
          <text
             id="text2278"
             style="font-variant:normal;font-weight:normal;font-size:13.33300018px;font-family:Helvetica;-inkscape-font-specification:Helvetica;writing-mode:lr-tb;fill:#262626;fill-opacity:1;fill-rule:nonzero;stroke:none"
             transform="translate(-4.5,13)">
            <tspan
               id="tspan2276"
               y="0"
               x="0">0</tspan>
          </text>
        </g>
      </g>
      <g
         id="g2280">
        <g
           transform="matrix(5.9939648,0,0,5.9992501,1987.3322,913.88574)"
           id="g2282">
          <text
             id="text2286"
             style="font-variant:normal;font-weight:normal;font-size:13.33300018px;font-family:Helvetica;-inkscape-font-specification:Helvetica;writing-mode:lr-tb;fill:#262626;fill-opacity:1;fill-rule:nonzero;stroke:none"
             transform="translate(-4.5,13)">
            <tspan
               id="tspan2284"
               y="0"
               x="0">2</tspan>
          </text>
        </g>
      </g>
      <g
         id="g2288">
        <g
           transform="matrix(5.9939648,0,0,5.9992501,2368.2821,913.88574)"
           id="g2290">
          <text
             id="text2294"
             style="font-variant:normal;font-weight:normal;font-size:13.33300018px;font-family:Helvetica;-inkscape-font-specification:Helvetica;writing-mode:lr-tb;fill:#262626;fill-opacity:1;fill-rule:nonzero;stroke:none"
             transform="translate(-4.5,13)">
            <tspan
               id="tspan2292"
               y="0"
               x="0">4</tspan>
          </text>
        </g>
      </g>
      <g
         transform="scale(5.9939648,5.9992501)"
         id="g2304">
        <path
           inkscape:connector-curvature="0"
           id="path2306"
           style="fill:none;stroke:#262626;stroke-width:0.66666698;stroke-linecap:square;stroke-linejoin:round;stroke-miterlimit:10;stroke-dasharray:none;stroke-opacity:1"
           d="M 268,147 V 14" />
      </g>
      <g
         transform="scale(5.9939648,5.9992501)"
         id="g2308">
        <path
           inkscape:connector-curvature="0"
           id="path2310"
           style="fill:none;stroke:#262626;stroke-width:0.66666698;stroke-linecap:square;stroke-linejoin:round;stroke-miterlimit:10;stroke-dasharray:none;stroke-opacity:1"
           d="M 411,147 V 14" />
      </g>
      <g
         transform="scale(5.9939648,5.9992501)"
         id="g2312">
        <path
           inkscape:connector-curvature="0"
           id="path2314"
           style="fill:none;stroke:#262626;stroke-width:0.66666698;stroke-linecap:square;stroke-linejoin:round;stroke-miterlimit:10;stroke-dasharray:none;stroke-opacity:1"
           d="m 268,147 h 1.42999" />
      </g>
      <g
         transform="scale(5.9939648,5.9992501)"
         id="g2316">
        <path
           inkscape:connector-curvature="0"
           id="path2318"
           style="fill:none;stroke:#262626;stroke-width:0.66666698;stroke-linecap:square;stroke-linejoin:round;stroke-miterlimit:10;stroke-dasharray:none;stroke-opacity:1"
           d="m 268,102.66666 h 1.42999" />
      </g>
      <g
         transform="scale(5.9939648,5.9992501)"
         id="g2320">
        <path
           inkscape:connector-curvature="0"
           id="path2322"
           style="fill:none;stroke:#262626;stroke-width:0.66666698;stroke-linecap:square;stroke-linejoin:round;stroke-miterlimit:10;stroke-dasharray:none;stroke-opacity:1"
           d="m 268,58.333332 h 1.42999" />
      </g>
      <g
         transform="scale(5.9939648,5.9992501)"
         id="g2324">
        <path
           inkscape:connector-curvature="0"
           id="path2326"
           style="fill:none;stroke:#262626;stroke-width:0.66666698;stroke-linecap:square;stroke-linejoin:round;stroke-miterlimit:10;stroke-dasharray:none;stroke-opacity:1"
           d="m 268,14 h 1.42999" />
      </g>
      <g
         transform="scale(5.9939648,5.9992501)"
         id="g2328">
        <path
           inkscape:connector-curvature="0"
           id="path2330"
           style="fill:none;stroke:#262626;stroke-width:0.66666698;stroke-linecap:square;stroke-linejoin:round;stroke-miterlimit:10;stroke-dasharray:none;stroke-opacity:1"
           d="m 411,147 h -1.42999" />
      </g>
      <g
         transform="scale(5.9939648,5.9992501)"
         id="g2332">
        <path
           inkscape:connector-curvature="0"
           id="path2334"
           style="fill:none;stroke:#262626;stroke-width:0.66666698;stroke-linecap:square;stroke-linejoin:round;stroke-miterlimit:10;stroke-dasharray:none;stroke-opacity:1"
           d="m 411,102.66666 h -1.42999" />
      </g>
      <g
         transform="scale(5.9939648,5.9992501)"
         id="g2336">
        <path
           inkscape:connector-curvature="0"
           id="path2338"
           style="fill:none;stroke:#262626;stroke-width:0.66666698;stroke-linecap:square;stroke-linejoin:round;stroke-miterlimit:10;stroke-dasharray:none;stroke-opacity:1"
           d="m 411,58.333332 h -1.42999" />
      </g>
      <g
         transform="scale(5.9939648,5.9992501)"
         id="g2340">
        <path
           inkscape:connector-curvature="0"
           id="path2342"
           style="fill:none;stroke:#262626;stroke-width:0.66666698;stroke-linecap:square;stroke-linejoin:round;stroke-miterlimit:10;stroke-dasharray:none;stroke-opacity:1"
           d="m 411,14 h -1.42999" />
      </g>
      <g
         id="g2344">
        <g
           transform="matrix(5.9939648,0,0,5.9992501,1574.4147,881.88977)"
           id="g2346">
          <text
             id="text2350"
             style="font-variant:normal;font-weight:normal;font-size:13.33300018px;font-family:Helvetica;-inkscape-font-specification:Helvetica;writing-mode:lr-tb;fill:#262626;fill-opacity:1;fill-rule:nonzero;stroke:none"
             transform="translate(-22,4.5)">
            <tspan
               id="tspan2348"
               sodipodi:role="line"
               y="0"
               x="0 4.439889 11.853037">-10</tspan>
          </text>
        </g>
      </g>
      <g
         id="g2352">
        <g
           transform="matrix(5.9939648,0,0,5.9992501,1574.4147,615.923)"
           id="g2354">
          <text
             id="text2358"
             style="font-variant:normal;font-weight:normal;font-size:13.33300018px;font-family:Helvetica;-inkscape-font-specification:Helvetica;writing-mode:lr-tb;fill:#262626;fill-opacity:1;fill-rule:nonzero;stroke:none"
             transform="translate(-9,4.5)">
            <tspan
               id="tspan2356"
               y="0"
               x="0">0</tspan>
          </text>
        </g>
      </g>
      <g
         id="g2360">
        <g
           transform="matrix(5.9939648,0,0,5.9992501,1574.4147,349.95625)"
           id="g2362">
          <text
             id="text2366"
             style="font-variant:normal;font-weight:normal;font-size:13.33300018px;font-family:Helvetica;-inkscape-font-specification:Helvetica;writing-mode:lr-tb;fill:#262626;fill-opacity:1;fill-rule:nonzero;stroke:none"
             transform="translate(-17,4.5)">
            <tspan
               id="tspan2364"
               sodipodi:role="line"
               y="0"
               x="0 7.4131479">10</tspan>
          </text>
        </g>
      </g>
      <g
         id="g2368">
        <g
           transform="matrix(5.9939648,0,0,5.9992501,1574.4147,83.989502)"
           id="g2370">
          <text
             id="text2374"
             style="font-variant:normal;font-weight:normal;font-size:13.33300018px;font-family:Helvetica;-inkscape-font-specification:Helvetica;writing-mode:lr-tb;fill:#262626;fill-opacity:1;fill-rule:nonzero;stroke:none"
             transform="translate(-17,4.5)">
            <tspan
               id="tspan2372"
               sodipodi:role="line"
               y="0"
               x="0 7.4131479">20</tspan>
          </text>
        </g>
      </g>
      <g
         transform="scale(5.9939648,5.9992501)"
         id="g2384">
        <path
           inkscape:connector-curvature="0"
           id="path2386"
           style="fill:none;stroke:#000000;stroke-width:0.66666698;stroke-linecap:butt;stroke-linejoin:round;stroke-miterlimit:10;stroke-dasharray:none;stroke-opacity:1"
           d="m 268,102.66666 3.17776,-5.186992 3.1778,-4.920998 3.17777,-4.655006 3.17779,-4.389 3.17777,-4.122994 3.17779,-3.857002 3.17777,-3.591003 3.17776,-3.324997 3.1778,-3.058999 3.17776,-2.793003 3.1778,-2.526996 3.17776,-2.261002 3.17777,-1.994999 3.17779,-1.729004 3.17777,-1.462997 3.17779,-1.197002 3.17777,-0.930996 3.17779,-0.665005 3.17777,-0.398998 3.17776,-0.133 3.1778,0.133 3.17776,0.398998 3.1778,0.665005 3.17776,0.930996 3.1778,1.197002 3.17776,1.462997 3.17777,1.729004 3.17779,1.994999 3.17777,2.261002 3.17779,2.526996 3.17777,2.793003 3.17779,3.058999 3.17777,3.324997 3.17776,3.591003 3.1778,3.857002 3.17776,4.122994 3.1778,4.389 3.17776,4.655006 3.1778,4.920998 3.17776,5.186992 3.17777,5.45301 3.17779,5.719 3.17777,5.985 3.1778,6.251 3.17776,6.51699 0.0171,0.0364" />
      </g>
      <text
         xml:space="preserve"
         style="font-style:normal;font-weight:normal;font-size:71.99999237px;line-height:1.25;font-family:sans-serif;letter-spacing:0px;word-spacing:0px;fill:#000000;fill-opacity:1;stroke:none;stroke-width:6"
         x="671.52582"
         y="1121.0234"
         id="text2395"><tspan
           sodipodi:role="line"
           id="tspan2393"
           x="671.52582"
           y="1121.0234"
           style="stroke-width:6">Tempo</tspan></text>
      <text
         xml:space="preserve"
         style="font-style:normal;font-weight:normal;font-size:71.99999237px;line-height:1.25;font-family:sans-serif;letter-spacing:0px;word-spacing:0px;fill:#000000;fill-opacity:1;stroke:none;stroke-width:6"
         x="1886.9138"
         y="1121.0234"
         id="text2395-7"><tspan
           sodipodi:role="line"
           id="tspan2393-5"
           x="1886.9138"
           y="1121.0234"
           style="stroke-width:6">Tempo</tspan></text>
      <text
         xml:space="preserve"
         style="font-style:normal;font-weight:normal;font-size:71.99999237px;line-height:1.25;font-family:sans-serif;letter-spacing:0px;word-spacing:0px;fill:#000000;fill-opacity:1;stroke:none;stroke-width:6"
         x="-742.2868"
         y="54.703117"
         id="text2395-3"
         transform="rotate(-90)"><tspan
           sodipodi:role="line"
           id="tspan2393-56"
           x="-742.2868"
           y="54.703117"
           style="stroke-width:6">Velocidade</tspan></text>
    </g>
  </g>
  <g
     inkscape:groupmode="layer"
     id="layer2"
     inkscape:label="analise"
     transform="translate(-29.54948,-124.22684)"
     style="display:inline">
    <path
       style="fill:none;stroke:#ff0000;stroke-width:0.26458332px;stroke-linecap:butt;stroke-linejoin:miter;stroke-opacity:1"
       d="M 55.460553,160.72237 V 138.87309"
       id="path1144"
       inkscape:connector-curvature="0" />
    <path
       style="fill:none;stroke:#ff0000;stroke-width:0.26458332px;stroke-linecap:butt;stroke-linejoin:miter;stroke-opacity:1"
       d="m 49.657638,143.85634 14.19833,-12.31458"
       id="path1144-3"
       inkscape:connector-curvature="0" />
    <path
       style="fill:none;stroke:#ff0000;stroke-width:0.26458332px;stroke-linecap:butt;stroke-linejoin:miter;stroke-opacity:1"
       d="M 55.460553,138.87309 H 64.4809"
       id="path9171"
       inkscape:connector-curvature="0" />
    <g
       id="g9392"
       style="fill:#ff0000;stroke-width:2.88675332"
       transform="matrix(0.34640994,0,0,0.34640994,-0.29789306,99.666479)"
       ns:text="\\( \\alpha \\)">
      <g
         id="surface1"
         style="fill:#ff0000">
        <g
           id="g9389"
           style="fill:#ff0000;fill-opacity:1">
          <path
             id="path9387"
             transform="translate(178.585,110.99)"
             d="m 4.75,-2.359375 c 0,-1.5625 -0.921875,-2.046875 -1.65625,-2.046875 -1.375,0 -2.6875,1.421875 -2.6875,2.828125 0,0.9375 0.59375,1.6875 1.625,1.6875 0.625,0 1.34375,-0.234375 2.09375,-0.84375 0.125,0.53125 0.453125,0.84375 0.90625,0.84375 0.53125,0 0.84375,-0.546875 0.84375,-0.703125 0,-0.078125 -0.0625,-0.109375 -0.125,-0.109375 -0.0625,0 -0.09375,0.03125 -0.125,0.109375 -0.1875,0.484375 -0.546875,0.484375 -0.5625,0.484375 -0.3125,0 -0.3125,-0.78125 -0.3125,-1.015625 0,-0.203125 0,-0.234375 0.109375,-0.34375 C 5.796875,-2.65625 6,-3.8125 6,-3.8125 6,-3.84375 5.984375,-3.921875 5.875,-3.921875 c -0.09375,0 -0.09375,0.03125 -0.140625,0.21875 -0.1875,0.625 -0.515625,1.375 -0.984375,1.96875 z m -0.65625,1.375 c -0.890625,0.765625 -1.65625,0.875 -2.046875,0.875 -0.59375,0 -0.90625,-0.453125 -0.90625,-1.09375 0,-0.484375 0.265625,-1.5625 0.578125,-2.0625 C 2.1875,-4 2.734375,-4.1875 3.078125,-4.1875 c 0.984375,0 0.984375,1.3125 0.984375,2.078125 0,0.375 0,0.953125 0.03125,1.125 z m 0,0"
             style="stroke:none;fill:#ff0000"
             inkscape:connector-curvature="0" />
        </g>
      </g>
    </g>
    <g
       id="g7620"
       style="fill:#ff0000;stroke-width:2.88675332"
       transform="matrix(0.34640994,0,0,0.34640994,-7.4139592,125.77124)"
       ns:text="\\( t \\)">
      <g
         id="g7618"
         style="fill:#ff0000">
        <g
           id="g7616"
           style="fill:#ff0000;fill-opacity:1">
          <path
             id="path7614"
             transform="translate(178.585,110.99)"
             d="m 2.046875,-3.984375 h 0.9375 c 0.203125,0 0.3125,0 0.3125,-0.203125 0,-0.109375 -0.109375,-0.109375 -0.28125,-0.109375 h -0.875 C 2.5,-5.71875 2.546875,-5.90625 2.546875,-5.96875 c 0,-0.171875 -0.125,-0.265625 -0.296875,-0.265625 -0.03125,0 -0.3125,0 -0.390625,0.359375 L 1.46875,-4.296875 h -0.9375 c -0.203125,0 -0.296875,0 -0.296875,0.1875 0,0.125 0.078125,0.125 0.28125,0.125 h 0.875 C 0.671875,-1.15625 0.625,-0.984375 0.625,-0.8125 0.625,-0.265625 1,0.109375 1.546875,0.109375 2.5625,0.109375 3.125,-1.34375 3.125,-1.421875 3.125,-1.53125 3.046875,-1.53125 3.015625,-1.53125 2.921875,-1.53125 2.90625,-1.5 2.859375,-1.390625 2.4375,-0.34375 1.90625,-0.109375 1.5625,-0.109375 c -0.203125,0 -0.3125,-0.125 -0.3125,-0.453125 0,-0.25 0.03125,-0.3125 0.0625,-0.484375 z m 0,0"
             style="fill:#ff0000;stroke:none"
             inkscape:connector-curvature="0" />
        </g>
      </g>
    </g>
    <path
       style="fill:none;stroke:#ff0000;stroke-width:0.26458332px;stroke-linecap:butt;stroke-linejoin:miter;stroke-opacity:1"
       d="M 109.58594,160.64644 V 137.85796"
       id="path1144-4"
       inkscape:connector-curvature="0" />
    <path
       style="fill:none;stroke:#ff0000;stroke-width:0.26458329px;stroke-linecap:butt;stroke-linejoin:miter;stroke-opacity:1"
       d="M 124.93129,160.78382 V 137.87841"
       id="path1144-4-4"
       inkscape:connector-curvature="0" />
    <path
       style="fill:none;stroke:#ff0000;stroke-width:0.26458332px;stroke-linecap:butt;stroke-linejoin:miter;stroke-opacity:1"
       d="m 122.10422,160.69773 2.81379,-2.81379"
       id="path9478"
       inkscape:connector-curvature="0" />
    <path
       style="fill:none;stroke:#ff0000;stroke-width:0.26458332px;stroke-linecap:butt;stroke-linejoin:miter;stroke-opacity:1"
       d="m 116.19834,160.65382 8.86141,-8.86142"
       id="path9478-0"
       inkscape:connector-curvature="0" />
    <path
       style="fill:none;stroke:#ff0000;stroke-width:0.26458329px;stroke-linecap:butt;stroke-linejoin:miter;stroke-opacity:1"
       d="m 110.15073,160.75165 14.90901,-14.90902"
       id="path9478-8"
       inkscape:connector-curvature="0" />
    <path
       style="fill:none;stroke:#ff0000;stroke-width:0.26458332px;stroke-linecap:butt;stroke-linejoin:miter;stroke-opacity:1"
       d="m 109.67826,155.27435 15.14526,-15.14527"
       id="path9478-88"
       inkscape:connector-curvature="0" />
    <path
       style="fill:none;stroke:#ff0000;stroke-width:0.26458335px;stroke-linecap:butt;stroke-linejoin:miter;stroke-opacity:1"
       d="m 109.63101,149.37182 12.92466,-12.92466"
       id="path9478-31"
       inkscape:connector-curvature="0" />
    <path
       style="fill:none;stroke:#ff0000;stroke-width:0.26458332px;stroke-linecap:butt;stroke-linejoin:miter;stroke-opacity:1"
       d="m 109.58376,143.46926 8.43618,-8.43618"
       id="path9478-2"
       inkscape:connector-curvature="0" />
    <g
       id="g1129"
       style="fill:#ff0000;stroke-width:2.88675332"
       transform="matrix(0.34640994,0,0,0.34640994,46.449231,127.17023)"
       ns:text="\\( t_i \\)">
      <g
         id="g1127"
         style="fill:#ff0000">
        <g
           id="g1121"
           style="fill:#ff0000;fill-opacity:1">
          <path
             id="path1119"
             transform="translate(178.585,110.99)"
             d="m 2.046875,-3.984375 h 0.9375 c 0.203125,0 0.3125,0 0.3125,-0.203125 0,-0.109375 -0.109375,-0.109375 -0.28125,-0.109375 h -0.875 C 2.5,-5.71875 2.546875,-5.90625 2.546875,-5.96875 c 0,-0.171875 -0.125,-0.265625 -0.296875,-0.265625 -0.03125,0 -0.3125,0 -0.390625,0.359375 L 1.46875,-4.296875 h -0.9375 c -0.203125,0 -0.296875,0 -0.296875,0.1875 0,0.125 0.078125,0.125 0.28125,0.125 h 0.875 C 0.671875,-1.15625 0.625,-0.984375 0.625,-0.8125 0.625,-0.265625 1,0.109375 1.546875,0.109375 2.5625,0.109375 3.125,-1.34375 3.125,-1.421875 3.125,-1.53125 3.046875,-1.53125 3.015625,-1.53125 2.921875,-1.53125 2.90625,-1.5 2.859375,-1.390625 2.4375,-0.34375 1.90625,-0.109375 1.5625,-0.109375 c -0.203125,0 -0.3125,-0.125 -0.3125,-0.453125 0,-0.25 0.03125,-0.3125 0.0625,-0.484375 z m 0,0"
             style="stroke:none;fill:#ff0000"
             inkscape:connector-curvature="0" />
        </g>
        <g
           id="g1125"
           style="fill:#ff0000;fill-opacity:1">
          <path
             id="path1123"
             transform="translate(182.182,112.485)"
             d="m 2.265625,-4.359375 c 0,-0.109375 -0.09375,-0.265625 -0.28125,-0.265625 -0.1875,0 -0.390625,0.1875 -0.390625,0.390625 0,0.109375 0.078125,0.265625 0.28125,0.265625 0.1875,0 0.390625,-0.203125 0.390625,-0.390625 z M 0.84375,-0.8125 c -0.03125,0.09375 -0.0625,0.171875 -0.0625,0.296875 0,0.328125 0.265625,0.578125 0.65625,0.578125 0.6875,0 1,-0.953125 1,-1.0625 0,-0.09375 -0.09375,-0.09375 -0.109375,-0.09375 -0.09375,0 -0.109375,0.046875 -0.140625,0.125 -0.15625,0.5625 -0.453125,0.84375 -0.734375,0.84375 -0.140625,0 -0.171875,-0.09375 -0.171875,-0.25 0,-0.15625 0.046875,-0.28125 0.109375,-0.4375 C 1.46875,-1 1.546875,-1.1875 1.609375,-1.375 1.671875,-1.546875 1.9375,-2.171875 1.953125,-2.265625 1.984375,-2.328125 2,-2.40625 2,-2.484375 2,-2.8125 1.71875,-3.078125 1.34375,-3.078125 0.640625,-3.078125 0.328125,-2.125 0.328125,-2 c 0,0.078125 0.09375,0.078125 0.125,0.078125 0.09375,0 0.09375,-0.03125 0.125,-0.109375 C 0.75,-2.625 1.0625,-2.875 1.3125,-2.875 c 0.109375,0 0.171875,0.046875 0.171875,0.234375 0,0.171875 -0.03125,0.265625 -0.203125,0.703125 z m 0,0"
             style="stroke:none;fill:#ff0000"
             inkscape:connector-curvature="0" />
        </g>
      </g>
    </g>
    <g
       id="g1345"
       style="fill:#ff0000;stroke-width:2.88675332"
       transform="matrix(0.34640994,0,0,0.34640994,62.702207,126.41427)"
       ns:text="\\( t_f \\)">
      <g
         id="g1343"
         style="fill:#ff0000">
        <g
           id="g1337"
           style="fill:#ff0000;fill-opacity:1">
          <path
             id="path1335"
             transform="translate(178.585,110.99)"
             d="m 2.046875,-3.984375 h 0.9375 c 0.203125,0 0.3125,0 0.3125,-0.203125 0,-0.109375 -0.109375,-0.109375 -0.28125,-0.109375 h -0.875 C 2.5,-5.71875 2.546875,-5.90625 2.546875,-5.96875 c 0,-0.171875 -0.125,-0.265625 -0.296875,-0.265625 -0.03125,0 -0.3125,0 -0.390625,0.359375 L 1.46875,-4.296875 h -0.9375 c -0.203125,0 -0.296875,0 -0.296875,0.1875 0,0.125 0.078125,0.125 0.28125,0.125 h 0.875 C 0.671875,-1.15625 0.625,-0.984375 0.625,-0.8125 0.625,-0.265625 1,0.109375 1.546875,0.109375 2.5625,0.109375 3.125,-1.34375 3.125,-1.421875 3.125,-1.53125 3.046875,-1.53125 3.015625,-1.53125 2.921875,-1.53125 2.90625,-1.5 2.859375,-1.390625 2.4375,-0.34375 1.90625,-0.109375 1.5625,-0.109375 c -0.203125,0 -0.3125,-0.125 -0.3125,-0.453125 0,-0.25 0.03125,-0.3125 0.0625,-0.484375 z m 0,0"
             style="stroke:none;fill:#ff0000"
             inkscape:connector-curvature="0" />
        </g>
        <g
           id="g1341"
           style="fill:#ff0000;fill-opacity:1">
          <path
             id="path1339"
             transform="translate(182.182,112.485)"
             d="M 2.84375,-2.75 H 3.515625 C 3.65625,-2.75 3.75,-2.75 3.75,-2.90625 3.75,-3 3.65625,-3 3.53125,-3 H 2.890625 c 0.15625,-0.890625 0.203125,-1.203125 0.265625,-1.40625 0.03125,-0.15625 0.1875,-0.296875 0.359375,-0.296875 0,0 0.1875,0 0.328125,0.078125 -0.296875,0.09375 -0.3125,0.34375 -0.3125,0.375 0,0.15625 0.125,0.265625 0.28125,0.265625 0.1875,0 0.390625,-0.15625 0.390625,-0.421875 0,-0.328125 -0.328125,-0.5 -0.6875,-0.5 -0.3125,0 -0.65625,0.171875 -0.84375,0.515625 C 2.53125,-4.125 2.484375,-3.8125 2.328125,-3 H 1.78125 c -0.140625,0 -0.234375,0 -0.234375,0.15625 0,0.09375 0.09375,0.09375 0.21875,0.09375 H 2.28125 c 0,0.046875 -0.4375,2.546875 -0.609375,3.296875 -0.03125,0.15625 -0.15625,0.671875 -0.484375,0.671875 -0.015625,0 -0.171875,0 -0.3125,-0.078125 0.28125,-0.09375 0.3125,-0.34375 0.3125,-0.375 C 1.1875,0.609375 1.0625,0.5 0.90625,0.5 c -0.1875,0 -0.390625,0.15625 -0.390625,0.421875 0,0.3125 0.328125,0.5 0.671875,0.5 0.4375,0 0.75,-0.453125 0.828125,-0.609375 0.25,-0.46875 0.421875,-1.328125 0.4375,-1.40625 z m 0,0"
             style="stroke:none;fill:#ff0000"
             inkscape:connector-curvature="0" />
        </g>
      </g>
    </g>
    <rect
       style="opacity:1;fill:#ffffff;fill-opacity:1;stroke:#ff0000;stroke-width:0.26458332;stroke-miterlimit:4;stroke-dasharray:none;stroke-dashoffset:0;stroke-opacity:0.99465194"
       id="rect1601"
       width="9.4494047"
       height="10.016369"
       x="112.22958"
       y="143.46925" />
    <g
       id="g1593"
       style="fill:#ff0000;stroke-width:1.2153492"
       transform="matrix(0.82280881,0,0,0.82280881,-33.297805,60.012309)"
       ns:text="\\( A \\)">
      <g
         id="g1591"
         style="stroke-width:1.2153492;fill:#ff0000">
        <g
           id="g1589"
           style="fill:#ff0000;fill-opacity:1;stroke-width:1.2153492">
          <path
             id="path1587"
             transform="translate(178.585,110.99)"
             d="M 1.78125,-1.140625 C 1.390625,-0.484375 1,-0.34375 0.5625,-0.3125 0.4375,-0.296875 0.34375,-0.296875 0.34375,-0.109375 0.34375,-0.046875 0.40625,0 0.484375,0 0.75,0 1.0625,-0.03125 1.328125,-0.03125 c 0.34375,0 0.6875,0.03125 1,0.03125 0.0625,0 0.1875,0 0.1875,-0.1875 0,-0.109375 -0.078125,-0.125 -0.15625,-0.125 -0.21875,-0.015625 -0.46875,-0.09375 -0.46875,-0.34375 0,-0.125 0.0625,-0.234375 0.140625,-0.375 l 0.765625,-1.265625 h 2.5 c 0.015625,0.203125 0.15625,1.5625 0.15625,1.65625 0,0.296875 -0.515625,0.328125 -0.71875,0.328125 C 4.59375,-0.3125 4.5,-0.3125 4.5,-0.109375 4.5,0 4.609375,0 4.640625,0 5.046875,0 5.46875,-0.03125 5.875,-0.03125 6.125,-0.03125 6.765625,0 7.015625,0 7.0625,0 7.1875,0 7.1875,-0.203125 7.1875,-0.3125 7.09375,-0.3125 6.953125,-0.3125 6.34375,-0.3125 6.34375,-0.375 6.3125,-0.671875 l -0.609375,-6.21875 c -0.015625,-0.203125 -0.015625,-0.25 -0.1875,-0.25 -0.15625,0 -0.203125,0.078125 -0.265625,0.171875 z M 2.984375,-2.609375 4.9375,-5.90625 5.265625,-2.609375 Z m 0,0"
             style="stroke:none;stroke-width:1.2153492;fill:#ff0000"
             inkscape:connector-curvature="0" />
        </g>
      </g>
    </g>
  </g>
</svg>
