<?xml version="1.0" encoding="UTF-8" standalone="no"?>
<!-- Created with Inkscape (http://www.inkscape.org/) -->

<svg
   xmlns:ns="http://wanglongqi.github.io/WriteTeX"
   xmlns:dc="http://purl.org/dc/elements/1.1/"
   xmlns:cc="http://creativecommons.org/ns#"
   xmlns:rdf="http://www.w3.org/1999/02/22-rdf-syntax-ns#"
   xmlns:svg="http://www.w3.org/2000/svg"
   xmlns="http://www.w3.org/2000/svg"
   xmlns:sodipodi="http://sodipodi.sourceforge.net/DTD/sodipodi-0.dtd"
   xmlns:inkscape="http://www.inkscape.org/namespaces/inkscape"
   width="54.778809mm"
   height="47.701084mm"
   viewBox="0 0 54.778809 47.701084"
   version="1.1"
   id="svg1859"
   inkscape:version="0.92.4 (unknown)"
   sodipodi:docname="cinpontomovretGraficoAceleracao.svg">
  <defs
     id="defs1853" />
  <sodipodi:namedview
     id="base"
     pagecolor="#ffffff"
     bordercolor="#666666"
     borderopacity="1.0"
     inkscape:pageopacity="0.0"
     inkscape:pageshadow="2"
     inkscape:zoom="2.8"
     inkscape:cx="121.1989"
     inkscape:cy="119.80955"
     inkscape:document-units="mm"
     inkscape:current-layer="layer2"
     showgrid="false"
     fit-margin-top="0"
     fit-margin-left="0"
     fit-margin-right="0"
     fit-margin-bottom="0"
     inkscape:window-width="1920"
     inkscape:window-height="1025"
     inkscape:window-x="0"
     inkscape:window-y="27"
     inkscape:window-maximized="1" />
  <metadata
     id="metadata1856">
    <rdf:RDF>
      <cc:Work
         rdf:about="">
        <dc:format>image/svg+xml</dc:format>
        <dc:type
           rdf:resource="http://purl.org/dc/dcmitype/StillImage" />
        <dc:title />
      </cc:Work>
    </rdf:RDF>
  </metadata>
  <g
     inkscape:label="Layer 1"
     inkscape:groupmode="layer"
     id="layer1"
     transform="translate(-66.348693,-84.917316)"
     sodipodi:insensitive="true">
    <g
       style="display:inline"
       id="g28"
       transform="matrix(0.26431719,0,0,0.26455026,66.34869,82.523956)">
      <path
         d="M 49,148 H 205 V 14 H 49 Z"
         style="fill:#ffffff;fill-opacity:1;fill-rule:nonzero;stroke:none"
         id="path30"
         inkscape:connector-curvature="0" />
    </g>
    <g
       style="display:inline"
       id="g32"
       transform="matrix(0.26431719,0,0,0.26455026,66.34869,82.523956)">
      <path
         d="M 49,148 V 14"
         style="fill:none;stroke:#262626;stroke-width:0.66666698;stroke-linecap:butt;stroke-linejoin:round;stroke-miterlimit:10;stroke-dasharray:none;stroke-opacity:0.14901961"
         id="path34"
         inkscape:connector-curvature="0" />
    </g>
    <g
       style="display:inline"
       id="g36"
       transform="matrix(0.26431719,0,0,0.26455026,66.34869,82.523956)">
      <path
         d="M 101,148 V 14"
         style="fill:none;stroke:#262626;stroke-width:0.66666698;stroke-linecap:butt;stroke-linejoin:round;stroke-miterlimit:10;stroke-dasharray:none;stroke-opacity:0.14901961"
         id="path38"
         inkscape:connector-curvature="0" />
    </g>
    <g
       style="display:inline"
       id="g40"
       transform="matrix(0.26431719,0,0,0.26455026,66.34869,82.523956)">
      <path
         d="M 153,148 V 14"
         style="fill:none;stroke:#262626;stroke-width:0.66666698;stroke-linecap:butt;stroke-linejoin:round;stroke-miterlimit:10;stroke-dasharray:none;stroke-opacity:0.14901961"
         id="path42"
         inkscape:connector-curvature="0" />
    </g>
    <g
       style="display:inline"
       id="g44"
       transform="matrix(0.26431719,0,0,0.26455026,66.34869,82.523956)">
      <path
         d="M 205,148 V 14"
         style="fill:none;stroke:#262626;stroke-width:0.66666698;stroke-linecap:butt;stroke-linejoin:round;stroke-miterlimit:10;stroke-dasharray:none;stroke-opacity:0.14901961"
         id="path46"
         inkscape:connector-curvature="0" />
    </g>
    <g
       style="display:inline"
       id="g48"
       transform="matrix(0.26431719,0,0,0.26455026,66.34869,82.523956)">
      <path
         d="M 205,148 H 49"
         style="fill:none;stroke:#262626;stroke-width:0.66666698;stroke-linecap:butt;stroke-linejoin:round;stroke-miterlimit:10;stroke-dasharray:none;stroke-opacity:0.14901961"
         id="path50"
         inkscape:connector-curvature="0" />
    </g>
    <g
       style="display:inline"
       id="g52"
       transform="matrix(0.26431719,0,0,0.26455026,66.34869,82.523956)">
      <path
         d="M 205,121.2 H 49"
         style="fill:none;stroke:#262626;stroke-width:0.66666698;stroke-linecap:butt;stroke-linejoin:round;stroke-miterlimit:10;stroke-dasharray:none;stroke-opacity:0.14901961"
         id="path54"
         inkscape:connector-curvature="0" />
    </g>
    <g
       style="display:inline"
       id="g56"
       transform="matrix(0.26431719,0,0,0.26455026,66.34869,82.523956)">
      <path
         d="M 205,94.400002 H 49"
         style="fill:none;stroke:#262626;stroke-width:0.66666698;stroke-linecap:butt;stroke-linejoin:round;stroke-miterlimit:10;stroke-dasharray:none;stroke-opacity:0.14901961"
         id="path58"
         inkscape:connector-curvature="0" />
    </g>
    <g
       style="display:inline"
       id="g60"
       transform="matrix(0.26431719,0,0,0.26455026,66.34869,82.523956)">
      <path
         d="M 205,67.599998 H 49"
         style="fill:none;stroke:#262626;stroke-width:0.66666698;stroke-linecap:butt;stroke-linejoin:round;stroke-miterlimit:10;stroke-dasharray:none;stroke-opacity:0.14901961"
         id="path62"
         inkscape:connector-curvature="0" />
    </g>
    <g
       style="display:inline"
       id="g64"
       transform="matrix(0.26431719,0,0,0.26455026,66.34869,82.523956)">
      <path
         d="M 205,40.799999 H 49"
         style="fill:none;stroke:#262626;stroke-width:0.66666698;stroke-linecap:butt;stroke-linejoin:round;stroke-miterlimit:10;stroke-dasharray:none;stroke-opacity:0.14901961"
         id="path66"
         inkscape:connector-curvature="0" />
    </g>
    <g
       style="display:inline"
       id="g68"
       transform="matrix(0.26431719,0,0,0.26455026,66.34869,82.523956)">
      <path
         d="M 205,14 H 49"
         style="fill:none;stroke:#262626;stroke-width:0.66666698;stroke-linecap:butt;stroke-linejoin:round;stroke-miterlimit:10;stroke-dasharray:none;stroke-opacity:0.14901961"
         id="path70"
         inkscape:connector-curvature="0" />
    </g>
    <g
       style="display:inline"
       id="g72"
       transform="matrix(0.26431719,0,0,0.26455026,66.34869,82.523956)">
      <path
         d="M 49,148 H 205"
         style="fill:none;stroke:#262626;stroke-width:0.66666698;stroke-linecap:square;stroke-linejoin:round;stroke-miterlimit:10;stroke-dasharray:none;stroke-opacity:1"
         id="path74"
         inkscape:connector-curvature="0" />
    </g>
    <g
       style="display:inline"
       id="g76"
       transform="matrix(0.26431719,0,0,0.26455026,66.34869,82.523956)">
      <path
         d="M 49,14 H 205"
         style="fill:none;stroke:#262626;stroke-width:0.66666698;stroke-linecap:square;stroke-linejoin:round;stroke-miterlimit:10;stroke-dasharray:none;stroke-opacity:1"
         id="path78"
         inkscape:connector-curvature="0" />
    </g>
    <g
       style="display:inline"
       id="g80"
       transform="matrix(0.26431719,0,0,0.26455026,66.34869,82.523956)">
      <path
         d="m 49,148 v -1.55667"
         style="fill:none;stroke:#262626;stroke-width:0.66666698;stroke-linecap:square;stroke-linejoin:round;stroke-miterlimit:10;stroke-dasharray:none;stroke-opacity:1"
         id="path82"
         inkscape:connector-curvature="0" />
    </g>
    <g
       style="display:inline"
       id="g84"
       transform="matrix(0.26431719,0,0,0.26455026,66.34869,82.523956)">
      <path
         d="m 101,148 v -1.55667"
         style="fill:none;stroke:#262626;stroke-width:0.66666698;stroke-linecap:square;stroke-linejoin:round;stroke-miterlimit:10;stroke-dasharray:none;stroke-opacity:1"
         id="path86"
         inkscape:connector-curvature="0" />
    </g>
    <g
       style="display:inline"
       id="g88"
       transform="matrix(0.26431719,0,0,0.26455026,66.34869,82.523956)">
      <path
         d="m 153,148 v -1.55667"
         style="fill:none;stroke:#262626;stroke-width:0.66666698;stroke-linecap:square;stroke-linejoin:round;stroke-miterlimit:10;stroke-dasharray:none;stroke-opacity:1"
         id="path90"
         inkscape:connector-curvature="0" />
    </g>
    <g
       style="display:inline"
       id="g92"
       transform="matrix(0.26431719,0,0,0.26455026,66.34869,82.523956)">
      <path
         d="m 205,148 v -1.55667"
         style="fill:none;stroke:#262626;stroke-width:0.66666698;stroke-linecap:square;stroke-linejoin:round;stroke-miterlimit:10;stroke-dasharray:none;stroke-opacity:1"
         id="path94"
         inkscape:connector-curvature="0" />
    </g>
    <g
       style="display:inline"
       id="g96"
       transform="matrix(0.26431719,0,0,0.26455026,66.34869,82.523956)">
      <path
         d="m 49,14 v 1.556664"
         style="fill:none;stroke:#262626;stroke-width:0.66666698;stroke-linecap:square;stroke-linejoin:round;stroke-miterlimit:10;stroke-dasharray:none;stroke-opacity:1"
         id="path98"
         inkscape:connector-curvature="0" />
    </g>
    <g
       style="display:inline"
       id="g100"
       transform="matrix(0.26431719,0,0,0.26455026,66.34869,82.523956)">
      <path
         d="m 101,14 v 1.556664"
         style="fill:none;stroke:#262626;stroke-width:0.66666698;stroke-linecap:square;stroke-linejoin:round;stroke-miterlimit:10;stroke-dasharray:none;stroke-opacity:1"
         id="path102"
         inkscape:connector-curvature="0" />
    </g>
    <g
       style="display:inline"
       id="g104"
       transform="matrix(0.26431719,0,0,0.26455026,66.34869,82.523956)">
      <path
         d="m 153,14 v 1.556664"
         style="fill:none;stroke:#262626;stroke-width:0.66666698;stroke-linecap:square;stroke-linejoin:round;stroke-miterlimit:10;stroke-dasharray:none;stroke-opacity:1"
         id="path106"
         inkscape:connector-curvature="0" />
    </g>
    <g
       style="display:inline"
       id="g108"
       transform="matrix(0.26431719,0,0,0.26455026,66.34869,82.523956)">
      <path
         d="m 205,14 v 1.556664"
         style="fill:none;stroke:#262626;stroke-width:0.66666698;stroke-linecap:square;stroke-linejoin:round;stroke-miterlimit:10;stroke-dasharray:none;stroke-opacity:1"
         id="path110"
         inkscape:connector-curvature="0" />
    </g>
    <g
       style="display:inline"
       transform="matrix(0.04409722,0,0,0.04409722,66.34869,82.523956)"
       id="g112">
      <g
         id="g114"
         transform="matrix(5.9939648,0,0,5.9992501,293.70427,919.88499)">
        <text
           transform="translate(-4.5,13)"
           style="font-variant:normal;font-weight:normal;font-size:13.33300018px;font-family:Helvetica;-inkscape-font-specification:Helvetica;writing-mode:lr-tb;fill:#262626;fill-opacity:1;fill-rule:nonzero;stroke:none"
           id="text118">
          <tspan
             x="0"
             y="0"
             id="tspan116">0</tspan>
        </text>
      </g>
    </g>
    <g
       style="display:inline"
       transform="matrix(0.04409722,0,0,0.04409722,66.34869,82.523956)"
       id="g120">
      <g
         id="g122"
         transform="matrix(5.9939648,0,0,5.9992501,605.39044,919.88499)">
        <text
           transform="translate(-4.5,13)"
           style="font-variant:normal;font-weight:normal;font-size:13.33300018px;font-family:Helvetica;-inkscape-font-specification:Helvetica;writing-mode:lr-tb;fill:#262626;fill-opacity:1;fill-rule:nonzero;stroke:none"
           id="text126">
          <tspan
             x="0"
             y="0"
             id="tspan124">1</tspan>
        </text>
      </g>
    </g>
    <g
       style="display:inline"
       transform="matrix(0.04409722,0,0,0.04409722,66.34869,82.523956)"
       id="g128">
      <g
         id="g130"
         transform="matrix(5.9939648,0,0,5.9992501,917.07661,919.88499)">
        <text
           transform="translate(-4.5,13)"
           style="font-variant:normal;font-weight:normal;font-size:13.33300018px;font-family:Helvetica;-inkscape-font-specification:Helvetica;writing-mode:lr-tb;fill:#262626;fill-opacity:1;fill-rule:nonzero;stroke:none"
           id="text134">
          <tspan
             x="0"
             y="0"
             id="tspan132">2</tspan>
        </text>
      </g>
    </g>
    <g
       style="display:inline"
       transform="matrix(0.04409722,0,0,0.04409722,66.34869,82.523956)"
       id="g136">
      <g
         id="g138"
         transform="matrix(5.9939648,0,0,5.9992501,1228.7628,919.88499)">
        <text
           transform="translate(-4.5,13)"
           style="font-variant:normal;font-weight:normal;font-size:13.33300018px;font-family:Helvetica;-inkscape-font-specification:Helvetica;writing-mode:lr-tb;fill:#262626;fill-opacity:1;fill-rule:nonzero;stroke:none"
           id="text142">
          <tspan
             x="0"
             y="0"
             id="tspan140">3</tspan>
        </text>
      </g>
    </g>
    <g
       style="display:inline"
       id="g152"
       transform="matrix(0.26431719,0,0,0.26455026,66.34869,82.523956)">
      <path
         d="M 49,148 V 14"
         style="fill:none;stroke:#262626;stroke-width:0.66666698;stroke-linecap:square;stroke-linejoin:round;stroke-miterlimit:10;stroke-dasharray:none;stroke-opacity:1"
         id="path154"
         inkscape:connector-curvature="0" />
    </g>
    <g
       style="display:inline"
       id="g156"
       transform="matrix(0.26431719,0,0,0.26455026,66.34869,82.523956)">
      <path
         d="M 205,148 V 14"
         style="fill:none;stroke:#262626;stroke-width:0.66666698;stroke-linecap:square;stroke-linejoin:round;stroke-miterlimit:10;stroke-dasharray:none;stroke-opacity:1"
         id="path158"
         inkscape:connector-curvature="0" />
    </g>
    <g
       style="display:inline"
       id="g160"
       transform="matrix(0.26431719,0,0,0.26455026,66.34869,82.523956)">
      <path
         d="m 49,148 h 1.556667"
         style="fill:none;stroke:#262626;stroke-width:0.66666698;stroke-linecap:square;stroke-linejoin:round;stroke-miterlimit:10;stroke-dasharray:none;stroke-opacity:1"
         id="path162"
         inkscape:connector-curvature="0" />
    </g>
    <g
       style="display:inline"
       id="g164"
       transform="matrix(0.26431719,0,0,0.26455026,66.34869,82.523956)">
      <path
         d="m 49,121.2 h 1.556667"
         style="fill:none;stroke:#262626;stroke-width:0.66666698;stroke-linecap:square;stroke-linejoin:round;stroke-miterlimit:10;stroke-dasharray:none;stroke-opacity:1"
         id="path166"
         inkscape:connector-curvature="0" />
    </g>
    <g
       style="display:inline"
       id="g168"
       transform="matrix(0.26431719,0,0,0.26455026,66.34869,82.523956)">
      <path
         d="m 49,94.400002 h 1.556667"
         style="fill:none;stroke:#262626;stroke-width:0.66666698;stroke-linecap:square;stroke-linejoin:round;stroke-miterlimit:10;stroke-dasharray:none;stroke-opacity:1"
         id="path170"
         inkscape:connector-curvature="0" />
    </g>
    <g
       style="display:inline"
       id="g172"
       transform="matrix(0.26431719,0,0,0.26455026,66.34869,82.523956)">
      <path
         d="m 49,67.599998 h 1.556667"
         style="fill:none;stroke:#262626;stroke-width:0.66666698;stroke-linecap:square;stroke-linejoin:round;stroke-miterlimit:10;stroke-dasharray:none;stroke-opacity:1"
         id="path174"
         inkscape:connector-curvature="0" />
    </g>
    <g
       style="display:inline"
       id="g176"
       transform="matrix(0.26431719,0,0,0.26455026,66.34869,82.523956)">
      <path
         d="m 49,40.799999 h 1.556667"
         style="fill:none;stroke:#262626;stroke-width:0.66666698;stroke-linecap:square;stroke-linejoin:round;stroke-miterlimit:10;stroke-dasharray:none;stroke-opacity:1"
         id="path178"
         inkscape:connector-curvature="0" />
    </g>
    <g
       style="display:inline"
       id="g180"
       transform="matrix(0.26431719,0,0,0.26455026,66.34869,82.523956)">
      <path
         d="m 49,14 h 1.556667"
         style="fill:none;stroke:#262626;stroke-width:0.66666698;stroke-linecap:square;stroke-linejoin:round;stroke-miterlimit:10;stroke-dasharray:none;stroke-opacity:1"
         id="path182"
         inkscape:connector-curvature="0" />
    </g>
    <g
       style="display:inline"
       id="g184"
       transform="matrix(0.26431719,0,0,0.26455026,66.34869,82.523956)">
      <path
         d="m 205,148 h -1.55667"
         style="fill:none;stroke:#262626;stroke-width:0.66666698;stroke-linecap:square;stroke-linejoin:round;stroke-miterlimit:10;stroke-dasharray:none;stroke-opacity:1"
         id="path186"
         inkscape:connector-curvature="0" />
    </g>
    <g
       style="display:inline"
       id="g188"
       transform="matrix(0.26431719,0,0,0.26455026,66.34869,82.523956)">
      <path
         d="m 205,121.2 h -1.55667"
         style="fill:none;stroke:#262626;stroke-width:0.66666698;stroke-linecap:square;stroke-linejoin:round;stroke-miterlimit:10;stroke-dasharray:none;stroke-opacity:1"
         id="path190"
         inkscape:connector-curvature="0" />
    </g>
    <g
       style="display:inline"
       id="g192"
       transform="matrix(0.26431719,0,0,0.26455026,66.34869,82.523956)">
      <path
         d="m 205,94.400002 h -1.55667"
         style="fill:none;stroke:#262626;stroke-width:0.66666698;stroke-linecap:square;stroke-linejoin:round;stroke-miterlimit:10;stroke-dasharray:none;stroke-opacity:1"
         id="path194"
         inkscape:connector-curvature="0" />
    </g>
    <g
       style="display:inline"
       id="g196"
       transform="matrix(0.26431719,0,0,0.26455026,66.34869,82.523956)">
      <path
         d="m 205,67.599998 h -1.55667"
         style="fill:none;stroke:#262626;stroke-width:0.66666698;stroke-linecap:square;stroke-linejoin:round;stroke-miterlimit:10;stroke-dasharray:none;stroke-opacity:1"
         id="path198"
         inkscape:connector-curvature="0" />
    </g>
    <g
       style="display:inline"
       id="g200"
       transform="matrix(0.26431719,0,0,0.26455026,66.34869,82.523956)">
      <path
         d="m 205,40.799999 h -1.55667"
         style="fill:none;stroke:#262626;stroke-width:0.66666698;stroke-linecap:square;stroke-linejoin:round;stroke-miterlimit:10;stroke-dasharray:none;stroke-opacity:1"
         id="path202"
         inkscape:connector-curvature="0" />
    </g>
    <g
       style="display:inline"
       id="g204"
       transform="matrix(0.26431719,0,0,0.26455026,66.34869,82.523956)">
      <path
         d="m 205,14 h -1.55667"
         style="fill:none;stroke:#262626;stroke-width:0.66666698;stroke-linecap:square;stroke-linejoin:round;stroke-miterlimit:10;stroke-dasharray:none;stroke-opacity:1"
         id="path206"
         inkscape:connector-curvature="0" />
    </g>
    <g
       style="display:inline"
       transform="matrix(0.04409722,0,0,0.04409722,66.34869,82.523956)"
       id="g208">
      <g
         id="g210"
         transform="matrix(5.9939648,0,0,5.9992501,261.73647,887.88902)">
        <text
           transform="translate(-22,4.5)"
           style="font-variant:normal;font-weight:normal;font-size:13.33300018px;font-family:Helvetica;-inkscape-font-specification:Helvetica;writing-mode:lr-tb;fill:#262626;fill-opacity:1;fill-rule:nonzero;stroke:none"
           id="text214">
          <tspan
             x="0 4.439889 11.853037"
             y="0"
             sodipodi:role="line"
             id="tspan212">-10</tspan>
        </text>
      </g>
    </g>
    <g
       style="display:inline"
       transform="matrix(0.04409722,0,0,0.04409722,66.34869,82.523956)"
       id="g216">
      <g
         id="g218"
         transform="matrix(5.9939648,0,0,5.9992501,261.73647,727.1091)">
        <text
           transform="translate(-13,4.5)"
           style="font-variant:normal;font-weight:normal;font-size:13.33300018px;font-family:Helvetica;-inkscape-font-specification:Helvetica;writing-mode:lr-tb;fill:#262626;fill-opacity:1;fill-rule:nonzero;stroke:none"
           id="text222">
          <tspan
             x="0 4.439889"
             y="0"
             sodipodi:role="line"
             id="tspan220">-5</tspan>
        </text>
      </g>
    </g>
    <g
       style="display:inline"
       transform="matrix(0.04409722,0,0,0.04409722,66.34869,82.523956)"
       id="g224">
      <g
         id="g226"
         transform="matrix(5.9939648,0,0,5.9992501,261.73647,566.32922)">
        <text
           transform="translate(-9,4.5)"
           style="font-variant:normal;font-weight:normal;font-size:13.33300018px;font-family:Helvetica;-inkscape-font-specification:Helvetica;writing-mode:lr-tb;fill:#262626;fill-opacity:1;fill-rule:nonzero;stroke:none"
           id="text230">
          <tspan
             x="0"
             y="0"
             id="tspan228">0</tspan>
        </text>
      </g>
    </g>
    <g
       style="display:inline"
       transform="matrix(0.04409722,0,0,0.04409722,66.34869,82.523956)"
       id="g232">
      <g
         id="g234"
         transform="matrix(5.9939648,0,0,5.9992501,261.73647,405.5493)">
        <text
           transform="translate(-9,4.5)"
           style="font-variant:normal;font-weight:normal;font-size:13.33300018px;font-family:Helvetica;-inkscape-font-specification:Helvetica;writing-mode:lr-tb;fill:#262626;fill-opacity:1;fill-rule:nonzero;stroke:none"
           id="text238">
          <tspan
             x="0"
             y="0"
             id="tspan236">5</tspan>
        </text>
      </g>
    </g>
    <g
       style="display:inline"
       transform="matrix(0.04409722,0,0,0.04409722,66.34869,82.523956)"
       id="g240">
      <g
         id="g242"
         transform="matrix(5.9939648,0,0,5.9992501,261.73647,244.7694)">
        <text
           transform="translate(-17,4.5)"
           style="font-variant:normal;font-weight:normal;font-size:13.33300018px;font-family:Helvetica;-inkscape-font-specification:Helvetica;writing-mode:lr-tb;fill:#262626;fill-opacity:1;fill-rule:nonzero;stroke:none"
           id="text246">
          <tspan
             x="0 7.4131479"
             y="0"
             sodipodi:role="line"
             id="tspan244">10</tspan>
        </text>
      </g>
    </g>
    <g
       style="display:inline"
       transform="matrix(0.04409722,0,0,0.04409722,66.34869,82.523956)"
       id="g248">
      <g
         id="g250"
         transform="matrix(5.9939648,0,0,5.9992501,261.73647,83.989502)">
        <text
           transform="translate(-17,4.5)"
           style="font-variant:normal;font-weight:normal;font-size:13.33300018px;font-family:Helvetica;-inkscape-font-specification:Helvetica;writing-mode:lr-tb;fill:#262626;fill-opacity:1;fill-rule:nonzero;stroke:none"
           id="text254">
          <tspan
             x="0 7.4131479"
             y="0"
             sodipodi:role="line"
             id="tspan252">15</tspan>
        </text>
      </g>
    </g>
    <g
       style="display:inline"
       id="g264"
       transform="matrix(0.26431719,0,0,0.26455026,66.34869,82.523956)">
      <path
         d="m 49,30.08 5.200001,3.216001 5.200001,3.215996 5.199996,3.216004 5.200005,3.215995 L 75,46.16 l 5.200005,3.216003 5.199997,3.215996 5.199996,3.216003 5.199997,3.216 5.200005,3.216 5.2,3.215999 5.2,3.215996 5.2,3.216003 5.2,3.216004 5.2,3.215996 5.2,3.216003 5.20001,3.215996 5.19998,3.216003 5.20001,3.215996 5.2,3.216004 5.2,3.215995 5.20001,3.216003 5.19998,3.216 5.20001,3.216 5.2,3.216 5.2,3.216 5.20001,3.216 5.19998,3.216 5.20001,3.216 5.2,3.216 0.0186,0.0115"
         style="fill:none;stroke:#000000;stroke-width:0.66666698;stroke-linecap:butt;stroke-linejoin:round;stroke-miterlimit:10;stroke-dasharray:none;stroke-opacity:1"
         id="path266"
         inkscape:connector-curvature="0" />
    </g>
    <text
       xml:space="preserve"
       style="font-style:normal;font-weight:normal;font-size:3.17499971px;line-height:1.25;font-family:sans-serif;letter-spacing:0px;word-spacing:0px;display:inline;fill:#000000;fill-opacity:1;stroke:none;stroke-width:0.26458332"
       x="94.266121"
       y="131.95798"
       id="text2395-83"><tspan
         sodipodi:role="line"
         id="tspan2393-8"
         x="94.266121"
         y="131.95798"
         style="stroke-width:0.26458332">Tempo</tspan></text>
    <text
       xml:space="preserve"
       style="font-style:normal;font-weight:normal;font-size:3.17499948px;line-height:1.25;font-family:sans-serif;letter-spacing:0px;word-spacing:0px;display:inline;fill:#000000;fill-opacity:1;stroke:none;stroke-width:0.26458332"
       x="-112.84861"
       y="68.815208"
       id="text2395-3-3"
       transform="rotate(-90)"><tspan
         sodipodi:role="line"
         id="tspan2393-6-3"
         x="-112.84861"
         y="68.815208"
         style="stroke-width:0.26458332">Aceleração</tspan></text>
  </g>
  <g
     inkscape:groupmode="layer"
     id="layer2"
     inkscape:label="analise">
    <path
       style="display:inline;fill:none;stroke:#ff0000;stroke-width:0.26458332px;stroke-linecap:butt;stroke-linejoin:miter;stroke-opacity:1"
       d="M 21.793124,36.719927 V 11.02489"
       id="path1144-4"
       inkscape:connector-curvature="0" />
    <path
       style="display:inline;fill:none;stroke:#ff0000;stroke-width:0.26458326px;stroke-linecap:butt;stroke-linejoin:miter;stroke-opacity:1"
       d="M 49.551788,36.822258 V 22.5697"
       id="path1144-4-4"
       inkscape:connector-curvature="0" />
    <g
       id="g1129"
       style="display:inline;fill:#ff0000;stroke-width:2.88675332"
       transform="matrix(0.34640994,0,0,0.34640994,-41.191789,2.5464203)"
       ns:text="\\( t_i \\)">
      <g
         id="g1127"
         style="fill:#ff0000">
        <g
           id="g1121"
           style="fill:#ff0000;fill-opacity:1">
          <path
             id="path1119"
             transform="translate(178.585,110.99)"
             d="m 2.046875,-3.984375 h 0.9375 c 0.203125,0 0.3125,0 0.3125,-0.203125 0,-0.109375 -0.109375,-0.109375 -0.28125,-0.109375 h -0.875 C 2.5,-5.71875 2.546875,-5.90625 2.546875,-5.96875 c 0,-0.171875 -0.125,-0.265625 -0.296875,-0.265625 -0.03125,0 -0.3125,0 -0.390625,0.359375 L 1.46875,-4.296875 h -0.9375 c -0.203125,0 -0.296875,0 -0.296875,0.1875 0,0.125 0.078125,0.125 0.28125,0.125 h 0.875 C 0.671875,-1.15625 0.625,-0.984375 0.625,-0.8125 0.625,-0.265625 1,0.109375 1.546875,0.109375 2.5625,0.109375 3.125,-1.34375 3.125,-1.421875 3.125,-1.53125 3.046875,-1.53125 3.015625,-1.53125 2.921875,-1.53125 2.90625,-1.5 2.859375,-1.390625 2.4375,-0.34375 1.90625,-0.109375 1.5625,-0.109375 c -0.203125,0 -0.3125,-0.125 -0.3125,-0.453125 0,-0.25 0.03125,-0.3125 0.0625,-0.484375 z m 0,0"
             style="fill:#ff0000;stroke:none"
             inkscape:connector-curvature="0" />
        </g>
        <g
           id="g1125"
           style="fill:#ff0000;fill-opacity:1">
          <path
             id="path1123"
             transform="translate(182.182,112.485)"
             d="m 2.265625,-4.359375 c 0,-0.109375 -0.09375,-0.265625 -0.28125,-0.265625 -0.1875,0 -0.390625,0.1875 -0.390625,0.390625 0,0.109375 0.078125,0.265625 0.28125,0.265625 0.1875,0 0.390625,-0.203125 0.390625,-0.390625 z M 0.84375,-0.8125 c -0.03125,0.09375 -0.0625,0.171875 -0.0625,0.296875 0,0.328125 0.265625,0.578125 0.65625,0.578125 0.6875,0 1,-0.953125 1,-1.0625 0,-0.09375 -0.09375,-0.09375 -0.109375,-0.09375 -0.09375,0 -0.109375,0.046875 -0.140625,0.125 -0.15625,0.5625 -0.453125,0.84375 -0.734375,0.84375 -0.140625,0 -0.171875,-0.09375 -0.171875,-0.25 0,-0.15625 0.046875,-0.28125 0.109375,-0.4375 C 1.46875,-1 1.546875,-1.1875 1.609375,-1.375 1.671875,-1.546875 1.9375,-2.171875 1.953125,-2.265625 1.984375,-2.328125 2,-2.40625 2,-2.484375 2,-2.8125 1.71875,-3.078125 1.34375,-3.078125 0.640625,-3.078125 0.328125,-2.125 0.328125,-2 c 0,0.078125 0.09375,0.078125 0.125,0.078125 0.09375,0 0.09375,-0.03125 0.125,-0.109375 C 0.75,-2.625 1.0625,-2.875 1.3125,-2.875 c 0.109375,0 0.171875,0.046875 0.171875,0.234375 0,0.171875 -0.03125,0.265625 -0.203125,0.703125 z m 0,0"
             style="fill:#ff0000;stroke:none"
             inkscape:connector-curvature="0" />
        </g>
      </g>
    </g>
    <g
       id="g1345"
       style="display:inline;fill:#ff0000;stroke-width:2.88675332"
       transform="matrix(0.34640994,0,0,0.34640994,-13.7876,2.3109698)"
       ns:text="\\( t_f \\)">
      <g
         id="g1343"
         style="fill:#ff0000">
        <g
           id="g1337"
           style="fill:#ff0000;fill-opacity:1">
          <path
             id="path1335"
             transform="translate(178.585,110.99)"
             d="m 2.046875,-3.984375 h 0.9375 c 0.203125,0 0.3125,0 0.3125,-0.203125 0,-0.109375 -0.109375,-0.109375 -0.28125,-0.109375 h -0.875 C 2.5,-5.71875 2.546875,-5.90625 2.546875,-5.96875 c 0,-0.171875 -0.125,-0.265625 -0.296875,-0.265625 -0.03125,0 -0.3125,0 -0.390625,0.359375 L 1.46875,-4.296875 h -0.9375 c -0.203125,0 -0.296875,0 -0.296875,0.1875 0,0.125 0.078125,0.125 0.28125,0.125 h 0.875 C 0.671875,-1.15625 0.625,-0.984375 0.625,-0.8125 0.625,-0.265625 1,0.109375 1.546875,0.109375 2.5625,0.109375 3.125,-1.34375 3.125,-1.421875 3.125,-1.53125 3.046875,-1.53125 3.015625,-1.53125 2.921875,-1.53125 2.90625,-1.5 2.859375,-1.390625 2.4375,-0.34375 1.90625,-0.109375 1.5625,-0.109375 c -0.203125,0 -0.3125,-0.125 -0.3125,-0.453125 0,-0.25 0.03125,-0.3125 0.0625,-0.484375 z m 0,0"
             style="fill:#ff0000;stroke:none"
             inkscape:connector-curvature="0" />
        </g>
        <g
           id="g1341"
           style="fill:#ff0000;fill-opacity:1">
          <path
             id="path1339"
             transform="translate(182.182,112.485)"
             d="M 2.84375,-2.75 H 3.515625 C 3.65625,-2.75 3.75,-2.75 3.75,-2.90625 3.75,-3 3.65625,-3 3.53125,-3 H 2.890625 c 0.15625,-0.890625 0.203125,-1.203125 0.265625,-1.40625 0.03125,-0.15625 0.1875,-0.296875 0.359375,-0.296875 0,0 0.1875,0 0.328125,0.078125 -0.296875,0.09375 -0.3125,0.34375 -0.3125,0.375 0,0.15625 0.125,0.265625 0.28125,0.265625 0.1875,0 0.390625,-0.15625 0.390625,-0.421875 0,-0.328125 -0.328125,-0.5 -0.6875,-0.5 -0.3125,0 -0.65625,0.171875 -0.84375,0.515625 C 2.53125,-4.125 2.484375,-3.8125 2.328125,-3 H 1.78125 c -0.140625,0 -0.234375,0 -0.234375,0.15625 0,0.09375 0.09375,0.09375 0.21875,0.09375 H 2.28125 c 0,0.046875 -0.4375,2.546875 -0.609375,3.296875 -0.03125,0.15625 -0.15625,0.671875 -0.484375,0.671875 -0.015625,0 -0.171875,0 -0.3125,-0.078125 0.28125,-0.09375 0.3125,-0.34375 0.3125,-0.375 C 1.1875,0.609375 1.0625,0.5 0.90625,0.5 c -0.1875,0 -0.390625,0.15625 -0.390625,0.421875 0,0.3125 0.328125,0.5 0.671875,0.5 0.4375,0 0.75,-0.453125 0.828125,-0.609375 0.25,-0.46875 0.421875,-1.328125 0.4375,-1.40625 z m 0,0"
             style="fill:#ff0000;stroke:none"
             inkscape:connector-curvature="0" />
        </g>
      </g>
    </g>
    <path
       style="display:inline;fill:none;stroke:#ff0000;stroke-width:0.26458329px;stroke-linecap:butt;stroke-linejoin:miter;stroke-opacity:1"
       d="m 41.776874,23.436392 0.944179,-0.94418"
       id="path9478-8-61"
       inkscape:connector-curvature="0" />
    <path
       style="display:inline;fill:none;stroke:#ff0000;stroke-width:0.26458329px;stroke-linecap:butt;stroke-linejoin:miter;stroke-opacity:1"
       d="m 43.464336,24.642809 2.152316,-2.152316"
       id="path9478-8-8"
       inkscape:connector-curvature="0" />
    <path
       style="display:inline;fill:none;stroke:#ff0000;stroke-width:0.26458329px;stroke-linecap:butt;stroke-linejoin:miter;stroke-opacity:1"
       d="m 45.354214,25.64681 3.050012,-3.050014"
       id="path9478-8-7"
       inkscape:connector-curvature="0" />
    <path
       style="display:inline;fill:none;stroke:#ff0000;stroke-width:0.26458329px;stroke-linecap:butt;stroke-linejoin:miter;stroke-opacity:1"
       d="m 47.149604,26.745298 2.341304,-2.341306"
       id="path9478-8-9"
       inkscape:connector-curvature="0" />
    <path
       style="display:inline;fill:none;stroke:#ff0000;stroke-width:0.26458329px;stroke-linecap:butt;stroke-linejoin:miter;stroke-opacity:1"
       d="m 48.944985,27.843796 0.451433,-0.451432"
       id="path9478-8-20"
       inkscape:connector-curvature="0" />
    <path
       style="display:inline;fill:none;stroke:#ff0000;stroke-width:0.26458329px;stroke-linecap:butt;stroke-linejoin:miter;stroke-opacity:1"
       d="m 21.832925,17.485946 3.917542,-3.917545"
       id="path9478-8-75"
       inkscape:connector-curvature="0" />
    <path
       style="display:inline;fill:none;stroke:#ff0000;stroke-width:0.26458329px;stroke-linecap:butt;stroke-linejoin:miter;stroke-opacity:1"
       d="M 21.832926,14.592066 23.9464,12.478591"
       id="path9478-8-0-9"
       inkscape:connector-curvature="0" />
    <path
       style="display:inline;fill:none;stroke:#ff0000;stroke-width:0.26458329px;stroke-linecap:butt;stroke-linejoin:miter;stroke-opacity:1"
       d="m 21.832925,20.379828 5.721628,-5.721631"
       id="path9478-8-6-2"
       inkscape:connector-curvature="0" />
    <path
       style="display:inline;fill:none;stroke:#ff0000;stroke-width:0.26458329px;stroke-linecap:butt;stroke-linejoin:miter;stroke-opacity:1"
       d="M 22.567916,22.538718 29.425438,15.68119"
       id="path9478-8-2-2"
       inkscape:connector-curvature="0" />
    <path
       style="display:inline;fill:none;stroke:#ff0000;stroke-width:0.26458329px;stroke-linecap:butt;stroke-linejoin:miter;stroke-opacity:1"
       d="m 25.374245,22.626268 5.855251,-5.855256"
       id="path9478-8-61-8"
       inkscape:connector-curvature="0" />
    <path
       style="display:inline;fill:none;stroke:#ff0000;stroke-width:0.26458329px;stroke-linecap:butt;stroke-linejoin:miter;stroke-opacity:1"
       d="m 28.247388,22.646999 4.719368,-4.719371"
       id="path9478-8-8-9"
       inkscape:connector-curvature="0" />
    <path
       style="display:inline;fill:none;stroke:#ff0000;stroke-width:0.26458329px;stroke-linecap:butt;stroke-linejoin:miter;stroke-opacity:1"
       d="M 31.254168,22.534095 34.80423,18.984031"
       id="path9478-8-7-7"
       inkscape:connector-curvature="0" />
    <path
       style="display:inline;fill:none;stroke:#ff0000;stroke-width:0.26458329px;stroke-linecap:butt;stroke-linejoin:miter;stroke-opacity:1"
       d="m 34.127316,22.554827 2.380752,-2.380754"
       id="path9478-8-9-3"
       inkscape:connector-curvature="0" />
    <path
       style="display:inline;fill:none;stroke:#ff0000;stroke-width:0.26458329px;stroke-linecap:butt;stroke-linejoin:miter;stroke-opacity:1"
       d="m 37.000463,22.575562 1.311675,-1.311676"
       id="path9478-8-20-6"
       inkscape:connector-curvature="0" />
    <g
       id="g3377"
       style="display:inline;fill:#ff0000;stroke-width:1.2153492"
       transform="matrix(0.82280882,0,0,0.82280882,-103.89671,-71.042284)"
       ns:text="\\( A_2 \\)">
      <g
         id="surface1"
         style="fill:#ff0000">
        <g
           id="g3370"
           style="fill:#ff0000;fill-opacity:1">
          <path
             id="path3368"
             transform="translate(178.585,110.99)"
             d="M 1.78125,-1.140625 C 1.390625,-0.484375 1,-0.34375 0.5625,-0.3125 0.4375,-0.296875 0.34375,-0.296875 0.34375,-0.109375 0.34375,-0.046875 0.40625,0 0.484375,0 0.75,0 1.0625,-0.03125 1.328125,-0.03125 c 0.34375,0 0.6875,0.03125 1,0.03125 0.0625,0 0.1875,0 0.1875,-0.1875 0,-0.109375 -0.078125,-0.125 -0.15625,-0.125 -0.21875,-0.015625 -0.46875,-0.09375 -0.46875,-0.34375 0,-0.125 0.0625,-0.234375 0.140625,-0.375 l 0.765625,-1.265625 h 2.5 c 0.015625,0.203125 0.15625,1.5625 0.15625,1.65625 0,0.296875 -0.515625,0.328125 -0.71875,0.328125 C 4.59375,-0.3125 4.5,-0.3125 4.5,-0.109375 4.5,0 4.609375,0 4.640625,0 5.046875,0 5.46875,-0.03125 5.875,-0.03125 6.125,-0.03125 6.765625,0 7.015625,0 7.0625,0 7.1875,0 7.1875,-0.203125 7.1875,-0.3125 7.09375,-0.3125 6.953125,-0.3125 6.34375,-0.3125 6.34375,-0.375 6.3125,-0.671875 l -0.609375,-6.21875 c -0.015625,-0.203125 -0.015625,-0.25 -0.1875,-0.25 -0.15625,0 -0.203125,0.078125 -0.265625,0.171875 z M 2.984375,-2.609375 4.9375,-5.90625 5.265625,-2.609375 Z m 0,0"
             style="fill:#ff0000;stroke:none"
             inkscape:connector-curvature="0" />
        </g>
        <g
           id="g3374"
           style="fill:#ff0000;fill-opacity:1">
          <path
             id="path3372"
             transform="translate(186.056,112.485)"
             d="M 3.515625,-1.265625 H 3.28125 c -0.015625,0.15625 -0.09375,0.5625 -0.1875,0.625 C 3.046875,-0.59375 2.515625,-0.59375 2.40625,-0.59375 H 1.125 c 0.734375,-0.640625 0.984375,-0.84375 1.390625,-1.171875 0.515625,-0.40625 1,-0.84375 1,-1.5 0,-0.84375 -0.734375,-1.359375 -1.625,-1.359375 -0.859375,0 -1.453125,0.609375 -1.453125,1.25 0,0.34375 0.296875,0.390625 0.375,0.390625 0.15625,0 0.359375,-0.125 0.359375,-0.375 0,-0.125 -0.046875,-0.375 -0.40625,-0.375 C 0.984375,-4.21875 1.453125,-4.375 1.78125,-4.375 c 0.703125,0 1.0625,0.546875 1.0625,1.109375 0,0.609375 -0.4375,1.078125 -0.65625,1.328125 L 0.515625,-0.265625 C 0.4375,-0.203125 0.4375,-0.1875 0.4375,0 h 2.875 z m 0,0"
             style="fill:#ff0000;stroke:none"
             inkscape:connector-curvature="0" />
        </g>
      </g>
    </g>
    <g
       id="g3551"
       style="display:inline;fill:#ff0000;stroke-width:1.2153492"
       transform="matrix(0.82280882,0,0,0.82280882,-118.95116,-77.631955)"
       ns:text="\\( A_1 \\)">
      <g
         id="g3549"
         style="fill:#ff0000">
        <g
           id="g3543"
           style="fill:#ff0000;fill-opacity:1">
          <path
             id="path3541"
             transform="translate(178.585,110.99)"
             d="M 1.78125,-1.140625 C 1.390625,-0.484375 1,-0.34375 0.5625,-0.3125 0.4375,-0.296875 0.34375,-0.296875 0.34375,-0.109375 0.34375,-0.046875 0.40625,0 0.484375,0 0.75,0 1.0625,-0.03125 1.328125,-0.03125 c 0.34375,0 0.6875,0.03125 1,0.03125 0.0625,0 0.1875,0 0.1875,-0.1875 0,-0.109375 -0.078125,-0.125 -0.15625,-0.125 -0.21875,-0.015625 -0.46875,-0.09375 -0.46875,-0.34375 0,-0.125 0.0625,-0.234375 0.140625,-0.375 l 0.765625,-1.265625 h 2.5 c 0.015625,0.203125 0.15625,1.5625 0.15625,1.65625 0,0.296875 -0.515625,0.328125 -0.71875,0.328125 C 4.59375,-0.3125 4.5,-0.3125 4.5,-0.109375 4.5,0 4.609375,0 4.640625,0 5.046875,0 5.46875,-0.03125 5.875,-0.03125 6.125,-0.03125 6.765625,0 7.015625,0 7.0625,0 7.1875,0 7.1875,-0.203125 7.1875,-0.3125 7.09375,-0.3125 6.953125,-0.3125 6.34375,-0.3125 6.34375,-0.375 6.3125,-0.671875 l -0.609375,-6.21875 c -0.015625,-0.203125 -0.015625,-0.25 -0.1875,-0.25 -0.15625,0 -0.203125,0.078125 -0.265625,0.171875 z M 2.984375,-2.609375 4.9375,-5.90625 5.265625,-2.609375 Z m 0,0"
             style="fill:#ff0000;stroke:none"
             inkscape:connector-curvature="0" />
        </g>
        <g
           id="g3547"
           style="fill:#ff0000;fill-opacity:1">
          <path
             id="path3545"
             transform="translate(186.056,112.485)"
             d="m 2.328125,-4.4375 c 0,-0.1875 0,-0.1875 -0.203125,-0.1875 -0.453125,0.4375 -1.078125,0.4375 -1.359375,0.4375 v 0.25 c 0.15625,0 0.625,0 1,-0.1875 v 3.546875 c 0,0.234375 0,0.328125 -0.6875,0.328125 H 0.8125 V 0 c 0.125,0 0.984375,-0.03125 1.234375,-0.03125 0.21875,0 1.09375,0.03125 1.25,0.03125 V -0.25 H 3.03125 c -0.703125,0 -0.703125,-0.09375 -0.703125,-0.328125 z m 0,0"
             style="fill:#ff0000;stroke:none"
             inkscape:connector-curvature="0" />
        </g>
      </g>
    </g>
  </g>
</svg>
