<?xml version="1.0" encoding="UTF-8" standalone="no"?>
<!-- Created with Inkscape (http://www.inkscape.org/) -->

<svg
   xmlns:ns0="http://www.iki.fi/pav/software/textext/"
   xmlns:dc="http://purl.org/dc/elements/1.1/"
   xmlns:cc="http://creativecommons.org/ns#"
   xmlns:rdf="http://www.w3.org/1999/02/22-rdf-syntax-ns#"
   xmlns:svg="http://www.w3.org/2000/svg"
   xmlns="http://www.w3.org/2000/svg"
   xmlns:sodipodi="http://sodipodi.sourceforge.net/DTD/sodipodi-0.dtd"
   xmlns:inkscape="http://www.inkscape.org/namespaces/inkscape"
   width="217.44954"
   height="237.33128"
   id="svg2"
   version="1.1"
   inkscape:version="0.48.4 r9939"
   sodipodi:docname="l1ex3c.pdf">
  <sodipodi:namedview
     id="base"
     pagecolor="#ffffff"
     bordercolor="#666666"
     borderopacity="1.0"
     inkscape:pageopacity="0.0"
     inkscape:pageshadow="2"
     inkscape:zoom="1.979899"
     inkscape:cx="79.078406"
     inkscape:cy="91.969741"
     inkscape:document-units="px"
     inkscape:current-layer="layer1"
     showgrid="false"
     inkscape:window-width="1366"
     inkscape:window-height="744"
     inkscape:window-x="0"
     inkscape:window-y="24"
     inkscape:window-maximized="1"
     fit-margin-top="0"
     fit-margin-left="0"
     fit-margin-right="0"
     fit-margin-bottom="0" />
  <defs
     id="defs4">
    <marker
       style="overflow:visible"
       id="Arrow2Lend"
       refX="0"
       refY="0"
       orient="auto"
       inkscape:stockid="Arrow2Lend">
      <path
         inkscape:connector-curvature="0"
         transform="matrix(-1.1,0,0,-1.1,-1.1,0)"
         d="M 8.7185878,4.0337352 -2.2072895,0.01601326 8.7185884,-4.0017078 c -1.7454984,2.3720609 -1.7354408,5.6174519 -6e-7,8.035443 z"
         style="fill-rule:evenodd;stroke-width:0.625;stroke-linejoin:round"
         id="path3901" />
    </marker>
    <marker
       style="overflow:visible"
       id="Arrow1Lstart"
       refX="0"
       refY="0"
       orient="auto"
       inkscape:stockid="Arrow1Lstart">
      <path
         inkscape:connector-curvature="0"
         transform="matrix(0.8,0,0,0.8,10,0)"
         style="fill-rule:evenodd;stroke:#000000;stroke-width:1pt"
         d="M 0,0 5,-5 -12.5,0 5,5 0,0 z"
         id="path3880" />
    </marker>
  </defs>
  <metadata
     id="metadata7">
    <rdf:RDF>
      <cc:Work
         rdf:about="">
        <dc:format>image/svg+xml</dc:format>
        <dc:type
           rdf:resource="http://purl.org/dc/dcmitype/StillImage" />
        <dc:title></dc:title>
      </cc:Work>
    </rdf:RDF>
  </metadata>
  <g
     transform="translate(-228.77684,-369.73714)"
     id="layer1"
     inkscape:groupmode="layer"
     inkscape:label="Layer 1">
    <path
       inkscape:connector-curvature="0"
       id="path3773"
       d="m 348.3485,387.50127 c 0,112.0933 0,112.0933 0,112.0933"
       style="fill:none;stroke:#000000;stroke-width:1;stroke-linecap:butt;stroke-linejoin:miter;stroke-miterlimit:4;stroke-opacity:0.39215686000000000;stroke-dasharray:none;stroke-dashoffset:0" />
    <path
       transform="matrix(1.090156,0,0,1.090156,201.89028,132.94332)"
       d="m 172.85715,342.00504 c 0,4.14213 -3.35787,7.5 -7.5,7.5 -4.14214,0 -7.5,-3.35787 -7.5,-7.5 0,-4.14214 3.35786,-7.5 7.5,-7.5 4.14213,0 7.5,3.35786 7.5,7.5 z"
       sodipodi:ry="7.5"
       sodipodi:rx="7.5"
       sodipodi:cy="342.00504"
       sodipodi:cx="165.35715"
       id="path3769-5-8"
       style="fill:#000000;fill-opacity:1;stroke:#000000;stroke-width:1;stroke-linecap:butt;stroke-linejoin:miter;stroke-miterlimit:0;stroke-opacity:1;stroke-dasharray:none;stroke-dashoffset:0"
       sodipodi:type="arc" />
    <path
       inkscape:connector-curvature="0"
       id="path3773-7-3"
       d="m 348.48301,389.07738 c 33.37106,114.28089 33.37106,114.28089 33.37106,114.28089"
       style="fill:none;stroke:#000000;stroke-width:1.5;stroke-linecap:butt;stroke-linejoin:miter;stroke-miterlimit:4;stroke-opacity:1;stroke-dasharray:none" />
    <path
       inkscape:connector-curvature="0"
       id="path3874"
       d="m 232.5,420.9336 c 38.57143,0 38.57143,0 38.57143,0"
       style="fill:none;stroke:#000000;stroke-width:1px;stroke-linecap:butt;stroke-linejoin:miter;stroke-opacity:1;marker-end:url(#Arrow2Lend)" />
    <g
       style="font-style:normal;font-variant:normal;font-weight:normal;font-stretch:normal;letter-spacing:normal;word-spacing:normal;text-anchor:start;fill:none;stroke:#000000;stroke-linecap:butt;stroke-linejoin:miter;stroke-miterlimit:10.43299961;stroke-opacity:1;stroke-dasharray:none;stroke-dashoffset:0"
       ns0:preamble=""
       ns0:text="\\[\\mathsf{O}\\]"
       word-spacing="normal"
       letter-spacing="normal"
       font-size-adjust="none"
       font-stretch="normal"
       font-weight="normal"
       font-variant="normal"
       font-style="normal"
       stroke-miterlimit="10.433"
       xml:space="preserve"
       transform="matrix(1.9502955,0,0,-1.9502955,-424.9908,1762.7162)"
       id="g4718"><path
         style="fill:#000000;stroke-width:0"
         inkscape:connector-curvature="0"
         id="path4720"
         d="m 398.38,710.55 -0.01,0.2 -0.01,0.19 -0.02,0.18 -0.03,0.19 -0.03,0.18 -0.05,0.18 -0.05,0.17 -0.05,0.17 -0.07,0.16 -0.07,0.16 -0.07,0.16 -0.09,0.14 -0.08,0.15 -0.1,0.14 -0.1,0.13 -0.1,0.13 -0.11,0.12 -0.11,0.11 -0.12,0.11 -0.12,0.1 -0.13,0.1 -0.13,0.08 -0.13,0.08 -0.14,0.08 -0.14,0.06 -0.14,0.06 -0.14,0.05 -0.15,0.04 -0.15,0.03 -0.15,0.02 -0.15,0.01 -0.16,0.01 -0.01,-0.64 c 1.16,0 2.22,-1.12 2.22,-2.9 0,-1.94 -1.07,-3.15 -2.21,-3.15 h 0 c -1.17,0 -2.22,1.24 -2.22,3.15 0,1.82 1.1,2.9 2.21,2.9 l 0.01,0.64 c -1.69,0 -3.1,-1.62 -3.1,-3.69 0,-2.1 1.47,-3.64 3.09,-3.64 1.66,0 3.11,1.56 3.11,3.64 z" /></g>    <path
       style="fill:none;stroke:#000000;stroke-width:1;stroke-linecap:butt;stroke-linejoin:miter;stroke-miterlimit:4;stroke-opacity:1;stroke-dasharray:none;marker-end:url(#Arrow2Lend)"
       d="m 233.21395,420.5025 c 0,-38.85369 0,-38.85369 0,-38.85369"
       id="path4951"
       inkscape:connector-curvature="0" />
    <g
       style="font-style:normal;font-variant:normal;font-weight:normal;font-stretch:normal;letter-spacing:normal;word-spacing:normal;text-anchor:start;fill:none;stroke:#000000;stroke-linecap:butt;stroke-linejoin:miter;stroke-miterlimit:10.43299961;stroke-opacity:1;stroke-dasharray:none;stroke-dashoffset:0"
       ns0:preamble=""
       ns0:text="\\[\\mathbf{j}\\]"
       word-spacing="normal"
       letter-spacing="normal"
       font-size-adjust="none"
       font-stretch="normal"
       font-weight="normal"
       font-variant="normal"
       font-style="normal"
       stroke-miterlimit="10.433"
       xml:space="preserve"
       transform="matrix(1.7032349,0,0,-1.7032349,-417.41452,1644.0923)"
       id="g5285"><path
         style="fill:#000000;stroke-width:0"
         inkscape:connector-curvature="0"
         id="path5287"
         d="m 394.36,711.52 v -0.47 c 0.17,0 0.39,0 0.54,-0.02 0.22,-0.04 0.22,-0.17 0.22,-0.38 v -3.94 c 0,-0.5 -0.15,-1.21 -0.75,-1.21 -0.16,0 -0.24,0.02 -0.39,0.05 0.19,0.14 0.24,0.35 0.24,0.5 0,0.35 -0.26,0.62 -0.61,0.62 -0.38,0 -0.63,-0.27 -0.63,-0.63 0,-0.56 0.6,-0.9 1.41,-0.9 0.86,0 1.8,0.52 1.8,1.57 v 4.88 z" /><path
         style="fill:#000000;stroke-width:0"
         inkscape:connector-curvature="0"
         id="path5289"
         d="m 396.19,713.25 0,0.04 0,0.04 -0.01,0.04 0,0.04 -0.01,0.04 -0.01,0.03 -0.01,0.04 -0.02,0.04 -0.01,0.03 -0.02,0.03 -0.02,0.04 -0.02,0.03 -0.02,0.03 -0.02,0.03 -0.03,0.02 -0.02,0.03 -0.03,0.03 -0.03,0.02 -0.03,0.02 -0.03,0.03 -0.03,0.02 -0.03,0.02 -0.04,0.01 -0.03,0.02 -0.04,0.01 -0.03,0.01 -0.04,0.01 -0.04,0.01 -0.03,0.01 -0.04,0 -0.04,0.01 -0.04,0 c -0.43,0 -0.78,-0.35 -0.78,-0.78 0,-0.42 0.35,-0.77 0.78,-0.77 0.43,0 0.77,0.35 0.77,0.77 z" /></g>    <g
       id="g5374"
       transform="matrix(1.7032349,0,0,-1.7032349,-428.37392,1597.6384)"
       xml:space="preserve"
       stroke-miterlimit="10.433"
       font-style="normal"
       font-variant="normal"
       font-weight="normal"
       font-stretch="normal"
       font-size-adjust="none"
       letter-spacing="normal"
       word-spacing="normal"
       ns0:text="\\[\\mathbf{k}\\]"
       ns0:preamble=""
       style="font-style:normal;font-variant:normal;font-weight:normal;font-stretch:normal;letter-spacing:normal;word-spacing:normal;text-anchor:start;fill:none;stroke:#000000;stroke-linecap:butt;stroke-linejoin:miter;stroke-miterlimit:10.43299961;stroke-opacity:1;stroke-dasharray:none;stroke-dashoffset:0"><path
         style="fill:#000000;stroke-width:0"
         inkscape:connector-curvature="0"
         d="m 394.39,709.48 v 4.54 l -1.76,-0.08 v -0.47 c 0.62,0 0.69,0 0.69,-0.38 v -5.5 h -0.69 v -0.47 c 0.37,0.02 0.84,0.04 1.2,0.04 0.36,0 0.84,-0.02 1.2,-0.04 v 0.47 h -0.69 v 1.26 c 0.29,0.23 0.37,0.29 0.57,0.43 l 1.01,-1.25 c 0.09,-0.12 0.24,-0.32 0.24,-0.35 0,-0.09 -0.18,-0.09 -0.3,-0.09 v -0.47 c 0.29,0.03 1.16,0.04 1.21,0.04 0.36,0 0.7,-0.01 1.03,-0.04 v 0.47 h -0.17 c -0.42,0 -0.45,0.04 -0.58,0.2 l -1.68,2.1 1.29,1 c 0.14,0.11 0.23,0.18 0.9,0.18 v 0.47 c -0.27,-0.03 -0.52,-0.03 -0.78,-0.03 -0.27,0 -0.92,0.02 -1.15,0.03 v -0.47 c 0.23,0 0.26,-0.03 0.34,-0.11 z"
         id="path5376" /></g>    <path
       transform="matrix(0.3589538,0,0,0.3589538,289.23225,266.57831)"
       d="m 172.85715,342.00504 c 0,4.14213 -3.35787,7.5 -7.5,7.5 -4.14214,0 -7.5,-3.35787 -7.5,-7.5 0,-4.14214 3.35786,-7.5 7.5,-7.5 4.14213,0 7.5,3.35786 7.5,7.5 z"
       sodipodi:ry="7.5"
       sodipodi:rx="7.5"
       sodipodi:cy="342.00504"
       sodipodi:cx="165.35715"
       id="path3769-5-8-3"
       style="fill:#000000;fill-opacity:1;stroke:#000000;stroke-width:1;stroke-linecap:butt;stroke-linejoin:miter;stroke-miterlimit:0;stroke-opacity:1;stroke-dasharray:none;stroke-dashoffset:0"
       sodipodi:type="arc" />
    <path
       sodipodi:open="true"
       sodipodi:end="2.8429453"
       sodipodi:start="0.716436"
       transform="matrix(1.397479,-0.51395925,0.51395925,1.397479,174.03102,430.46441)"
       d="m 116.04175,55.183417 c -2.28298,0.780949 -6.25905,0.862755 -8.88081,0.182719 -0.88504,-0.229565 -1.53702,-0.528258 -1.88231,-0.862356"
       sodipodi:ry="1.875"
       sodipodi:rx="6.2946429"
       sodipodi:cy="53.952103"
       sodipodi:cx="111.29464"
       id="path4340"
       style="fill:none;stroke:#000000;stroke-width:0.67159462;stroke-linecap:butt;stroke-linejoin:miter;stroke-miterlimit:4;stroke-opacity:1;stroke-dasharray:0.6715946, 0.6715946;stroke-dashoffset:0"
       sodipodi:type="arc" />
    <path
       inkscape:connector-curvature="0"
       id="path3773-7-3-6"
       d="m 382.2329,507.12132 c 41.01635,90.69007 41.01635,90.69007 41.01635,90.69007"
       style="fill:none;stroke:#000000;stroke-width:1.5;stroke-linecap:butt;stroke-linejoin:miter;stroke-miterlimit:4;stroke-opacity:1;stroke-dasharray:none" />
    <path
       inkscape:connector-curvature="0"
       id="path3773-0"
       d="m 382.62514,513.42311 c 0,80.31711 0,80.31711 0,80.31711"
       style="fill:none;stroke:#000000;stroke-width:1;stroke-linecap:butt;stroke-linejoin:miter;stroke-miterlimit:4;stroke-opacity:0.39215686000000000;stroke-dasharray:none;stroke-dashoffset:0" />
    <path
       sodipodi:open="true"
       sodipodi:end="2.8429453"
       sodipodi:start="0.716436"
       transform="matrix(2.3631247,-0.8703081,0.86910057,2.366408,87.022657,540.61933)"
       d="m 116.04175,55.183417 c -2.28298,0.780949 -6.25905,0.862755 -8.88081,0.182719 -0.88504,-0.229565 -1.53702,-0.528258 -1.88231,-0.862356"
       sodipodi:ry="1.875"
       sodipodi:rx="6.2946429"
       sodipodi:cy="53.952103"
       sodipodi:cx="111.29464"
       id="path4340-9"
       style="fill:none;stroke:#000000;stroke-width:0.39688471;stroke-linecap:butt;stroke-linejoin:miter;stroke-miterlimit:4;stroke-opacity:1;stroke-dasharray:0.3968847, 0.3968847;stroke-dashoffset:0"
       sodipodi:type="arc" />
    <g
       id="g3119"
       transform="matrix(1.9502955,0,0,-1.9502955,-371.51835,1889.6483)"
       xml:space="preserve"
       stroke-miterlimit="10.433"
       font-style="normal"
       font-variant="normal"
       font-weight="normal"
       font-stretch="normal"
       font-size-adjust="none"
       letter-spacing="normal"
       word-spacing="normal"
       ns0:text="\\[\\mathsf{A}\\]"
       ns0:preamble=""
       style="font-style:normal;font-variant:normal;font-weight:normal;font-stretch:normal;letter-spacing:normal;word-spacing:normal;text-anchor:start;fill:none;stroke:#000000;stroke-linecap:butt;stroke-linejoin:miter;stroke-miterlimit:10.43299961;stroke-opacity:1;stroke-dasharray:none;stroke-dashoffset:0"><path
         d="m 395.72,714.02 h -0.88 l -2.59,-6.9 h 0.73 l 0.77,2.03 0.21,0.56 0.64,1.8 c 0.21,0.58 0.52,1.43 0.59,1.79 h 0.01 c 0.02,-0.14 0.09,-0.38 0.32,-1.04 l 0.9,-2.55 h -2.46 l -0.21,-0.56 h 2.89 l 0.76,-2.03 h 0.92 z"
         id="path3121"
         inkscape:connector-curvature="0"
         style="fill:#000000;stroke-width:0" /></g>    <g
       style="font-style:normal;font-variant:normal;font-weight:normal;font-stretch:normal;letter-spacing:normal;word-spacing:normal;text-anchor:start;fill:none;stroke:#000000;stroke-linecap:butt;stroke-linejoin:miter;stroke-miterlimit:10.43299961;stroke-opacity:1;stroke-dasharray:none;stroke-dashoffset:0"
       ns0:preamble=""
       ns0:text="\\[\\mathsf{B}\\]"
       word-spacing="normal"
       letter-spacing="normal"
       font-size-adjust="none"
       font-stretch="normal"
       font-weight="normal"
       font-variant="normal"
       font-style="normal"
       stroke-miterlimit="10.433"
       xml:space="preserve"
       transform="matrix(1.9502955,0,0,-1.9502955,-330.06924,1972.1658)"
       id="g3242"><path
         id="path3244"
         d="m 392.93,714.02 v -6.9 h 2.63 c 1.43,0 2.48,0.9 2.48,1.87 0,0.87 -0.87,1.57 -1.92,1.74 0.9,0.23 1.65,0.81 1.65,1.56 0,0.92 -1.07,1.73 -2.48,1.73 l -0.28,-0.56 c 1.11,0 1.98,-0.52 1.98,-1.18 0,-0.6 -0.7,-1.27 -2.08,-1.27 h -1.15 v -0.61 h 1.44 c 1.06,0 2.03,-0.6 2.03,-1.4 0,-0.74 -0.87,-1.32 -1.95,-1.32 h -1.52 v 2.72 0.61 2.45 h 1.25 l 0.28,0.56 z"
         inkscape:connector-curvature="0"
         style="fill:#000000;stroke-width:0" /></g>    <path
       transform="matrix(1.090156,0,0,1.090156,242.74096,225.50833)"
       d="m 172.85715,342.00504 c 0,4.14213 -3.35787,7.5 -7.5,7.5 -4.14214,0 -7.5,-3.35787 -7.5,-7.5 0,-4.14214 3.35786,-7.5 7.5,-7.5 4.14213,0 7.5,3.35786 7.5,7.5 z"
       sodipodi:ry="7.5"
       sodipodi:rx="7.5"
       sodipodi:cy="342.00504"
       sodipodi:cx="165.35715"
       id="path3769-5-8-2"
       style="fill:#000000;fill-opacity:1;stroke:#000000;stroke-width:1;stroke-linecap:butt;stroke-linejoin:miter;stroke-miterlimit:0;stroke-opacity:1;stroke-dasharray:none;stroke-dashoffset:0"
       sodipodi:type="arc" />
    <g
       id="content"
       transform="matrix(1.9502955,0,0,-1.9502955,-387.25089,1834.2178)"
       xml:space="preserve"
       stroke-miterlimit="10.433"
       font-style="normal"
       font-variant="normal"
       font-weight="normal"
       font-stretch="normal"
       font-size-adjust="none"
       letter-spacing="normal"
       word-spacing="normal"
       ns0:text="\\[l_A\\]"
       ns0:preamble=""
       style="font-style:normal;font-variant:normal;font-weight:normal;font-stretch:normal;letter-spacing:normal;word-spacing:normal;text-anchor:start;fill:none;stroke:#000000;stroke-linecap:butt;stroke-linejoin:miter;stroke-miterlimit:10.43299961;stroke-opacity:1;stroke-dasharray:none;stroke-dashoffset:0"><path
         style="fill:#000000;stroke-width:0"
         inkscape:connector-curvature="0"
         d="m 393.12,713.91 0,0 0,0 0,0 0,0 0,0.01 0,0 0,0 0,0.01 0,0 0,0.01 0,0 0,0 0,0.01 0,0 -0.01,0.01 0,0 0,0.01 -0.01,0 0,0.01 0,0 -0.01,0.01 0,0 0,0 -0.01,0 0,0.01 0,0 0,0 -0.01,0 0,0 0,0.01 -0.01,0 0,0 -0.01,0 0,0 0,0 -0.01,0 0,0 -0.01,0.01 0,0 -0.01,0 0,0 -0.01,0 0,0 -0.01,0 -0.01,0 c -0.22,0 -0.95,-0.08 -1.21,-0.1 -0.08,-0.01 -0.19,-0.02 -0.19,-0.21 0,-0.11 0.1,-0.11 0.25,-0.11 0.48,0 0.49,-0.09 0.49,-0.17 l -0.03,-0.2 -1.26,-4.96 c -0.02,-0.11 -0.05,-0.18 -0.05,-0.34 0,-0.57 0.44,-0.91 0.91,-0.91 0.33,0 0.58,0.19 0.75,0.55 0.18,0.38 0.3,0.96 0.3,0.98 0,0.1 -0.09,0.1 -0.12,0.1 -0.1,0 -0.11,-0.05 -0.14,-0.18 -0.17,-0.65 -0.36,-1.24 -0.76,-1.24 -0.3,0 -0.3,0.32 -0.3,0.46 0,0.24 0.01,0.29 0.06,0.48 z"
         id="path4138" /><path
         style="fill:#000000;stroke-width:0"
         inkscape:connector-curvature="0"
         d="m 394.96,706.47 -0.02,-0.04 -0.02,-0.03 -0.02,-0.04 -0.03,-0.03 -0.02,-0.03 -0.02,-0.03 -0.03,-0.02 -0.02,-0.03 -0.02,-0.03 -0.02,-0.02 -0.03,-0.02 -0.02,-0.03 -0.03,-0.02 -0.02,-0.02 -0.03,-0.02 -0.02,-0.02 -0.03,-0.01 -0.03,-0.02 -0.02,-0.02 -0.03,-0.01 -0.03,-0.01 -0.03,-0.02 -0.03,-0.01 -0.03,-0.01 -0.03,-0.01 -0.03,-0.01 -0.03,0 -0.04,-0.01 -0.03,-0.01 -0.04,0 -0.04,-0.01 -0.03,0 c -0.07,-0.01 -0.16,-0.01 -0.16,-0.15 0,-0.07 0.06,-0.1 0.09,-0.1 0.18,0 0.41,0.03 0.6,0.03 0.23,0 0.51,-0.03 0.72,-0.03 0.04,0 0.14,0 0.14,0.15 0,0.09 -0.09,0.1 -0.12,0.1 -0.06,0.01 -0.31,0.02 -0.31,0.21 0,0.08 0.07,0.2 0.11,0.26 l 0.56,0.87 h 1.99 l -0.04,0.25 h -1.79 l 1.47,2.27 0.32,-2.27 0.04,-0.25 0.17,-1.16 c -0.03,-0.07 -0.08,-0.18 -0.49,-0.18 -0.08,0 -0.18,0 -0.18,-0.15 0,-0.03 0.02,-0.1 0.12,-0.1 0.2,0 0.69,0.03 0.89,0.03 0.13,0 0.29,-0.01 0.41,-0.01 0.13,0 0.28,-0.02 0.4,-0.02 0.09,0 0.14,0.06 0.14,0.15 0,0.1 -0.08,0.1 -0.19,0.1 -0.41,0 -0.42,0.06 -0.44,0.22 l -0.62,4.29 c -0.02,0.15 -0.03,0.2 -0.16,0.2 -0.14,0 -0.18,-0.06 -0.24,-0.16 z"
         id="path4140" /></g>    <g
       style="font-style:normal;font-variant:normal;font-weight:normal;font-stretch:normal;letter-spacing:normal;word-spacing:normal;text-anchor:start;fill:none;stroke:#000000;stroke-linecap:butt;stroke-linejoin:miter;stroke-miterlimit:10.43299961;stroke-opacity:1;stroke-dasharray:none;stroke-dashoffset:0"
       ns0:preamble=""
       ns0:text="\\[l_B\\]"
       word-spacing="normal"
       letter-spacing="normal"
       font-size-adjust="none"
       font-stretch="normal"
       font-weight="normal"
       font-variant="normal"
       font-style="normal"
       stroke-miterlimit="10.433"
       xml:space="preserve"
       transform="matrix(1.9502955,0,0,-1.9502955,-355.15603,1928.2243)"
       id="g4256"><path
         id="path4258"
         d="m 392.94,713.91 0,0 0,0 0,0 0,0 0,0.01 0,0 0,0 0,0.01 0,0 0,0.01 0,0 -0.01,0 0,0.01 0,0 0,0.01 0,0 -0.01,0.01 0,0 0,0.01 -0.01,0 0,0.01 0,0 -0.01,0 0,0 0,0.01 -0.01,0 0,0 0,0 0,0 -0.01,0.01 0,0 -0.01,0 0,0 0,0 -0.01,0 0,0 -0.01,0 0,0.01 -0.01,0 0,0 -0.01,0 0,0 -0.01,0 0,0 -0.01,0 c -0.23,0 -0.95,-0.08 -1.21,-0.1 -0.08,-0.01 -0.19,-0.02 -0.19,-0.21 0,-0.11 0.1,-0.11 0.25,-0.11 0.47,0 0.48,-0.09 0.48,-0.17 l -0.03,-0.2 -1.25,-4.96 c -0.03,-0.11 -0.05,-0.18 -0.05,-0.34 0,-0.57 0.44,-0.91 0.91,-0.91 0.32,0 0.57,0.19 0.74,0.55 0.18,0.38 0.3,0.96 0.3,0.98 0,0.1 -0.09,0.1 -0.12,0.1 -0.1,0 -0.11,-0.05 -0.14,-0.18 -0.17,-0.65 -0.36,-1.24 -0.75,-1.24 -0.3,0 -0.3,0.32 -0.3,0.46 0,0.24 0.01,0.29 0.06,0.48 z"
         inkscape:connector-curvature="0"
         style="fill:#000000;stroke-width:0" /><path
         id="path4260"
         d="m 394.67,706.17 -0.01,-0.02 0,-0.02 -0.01,-0.02 0,-0.02 -0.01,-0.01 -0.01,-0.02 0,-0.02 -0.01,-0.01 -0.01,-0.02 0,-0.01 -0.01,-0.01 -0.01,-0.01 -0.01,-0.01 -0.01,-0.01 -0.02,-0.01 -0.01,-0.01 -0.02,-0.01 -0.01,-0.01 -0.02,0 -0.02,-0.01 -0.02,0 -0.02,-0.01 -0.01,0 -0.01,0 -0.01,0 -0.02,0 -0.01,-0.01 -0.02,0 -0.01,0 -0.02,0 -0.01,0 -0.02,0 -0.02,0 -0.02,-0.01 -0.02,0 -0.02,0 -0.02,0 -0.02,0 -0.02,0 -0.02,0 -0.03,0 -0.02,0 -0.03,0 c -0.11,0 -0.2,0 -0.2,-0.15 0,-0.1 0.08,-0.1 0.2,-0.1 h 2.7 c 1.17,0 2.07,0.8 2.07,1.49 0,0.49 -0.45,0.92 -1.19,0.99 0.84,0.16 1.54,0.68 1.54,1.28 0,0.53 -0.53,0.99 -1.44,0.99 l -0.11,-0.25 c 0.71,0 0.87,-0.47 0.87,-0.73 0,-0.56 -0.63,-1.2 -1.57,-1.2 h -1.14 l -0.05,-0.2 h 1.48 c 0.65,0 0.91,-0.43 0.91,-0.83 0,-0.69 -0.71,-1.29 -1.55,-1.29 h -1.12 c -0.22,0 -0.22,0.01 -0.22,0.07 0,0.01 0,0.04 0.02,0.15 l 0.48,1.9 0.05,0.2 0.43,1.69 c 0.05,0.22 0.06,0.24 0.35,0.24 h 1.06 l 0.11,0.25 h -2.53 c -0.13,0 -0.22,0 -0.22,-0.15 0,-0.1 0.08,-0.1 0.22,-0.1 0,0 0.14,0 0.26,-0.01 0.15,-0.02 0.16,-0.03 0.16,-0.1 0,-0.01 0,-0.05 -0.03,-0.15 z"
         inkscape:connector-curvature="0"
         style="fill:#000000;stroke-width:0" /></g>  </g>
  <g
     inkscape:label="Block"
     id="layer2"
     inkscape:groupmode="layer"
     transform="translate(-27.946481,10.583649)" />
  <g
     inkscape:label="Text"
     id="layer3"
     inkscape:groupmode="layer"
     transform="translate(-27.946481,10.583649)">
    <g
       id="g4269"
       transform="matrix(1.9502955,0,0,-1.9502955,-570.17568,1599.08)"
       xml:space="preserve"
       stroke-miterlimit="10.433"
       font-style="normal"
       font-variant="normal"
       font-weight="normal"
       font-stretch="normal"
       font-size-adjust="none"
       letter-spacing="normal"
       word-spacing="normal"
       ns0:text="\\[\\theta_2\\]"
       ns0:preamble=""
       style="font-style:normal;font-variant:normal;font-weight:normal;font-stretch:normal;letter-spacing:normal;word-spacing:normal;text-anchor:start;fill:none;stroke:#000000;stroke-linecap:butt;stroke-linejoin:miter;stroke-miterlimit:10.43299961;stroke-opacity:1;stroke-dasharray:none;stroke-dashoffset:0"><path
         style="fill:#000000;stroke-width:0"
         inkscape:connector-curvature="0"
         d="m 395.24,712.09 0,0.07 0,0.06 0,0.07 -0.01,0.08 0,0.07 -0.01,0.08 -0.01,0.08 -0.01,0.09 -0.02,0.08 -0.01,0.08 -0.02,0.09 -0.02,0.08 -0.02,0.09 -0.03,0.08 -0.02,0.08 -0.03,0.09 -0.04,0.07 -0.03,0.08 -0.04,0.08 -0.05,0.07 -0.04,0.06 -0.06,0.07 -0.05,0.06 -0.06,0.05 -0.06,0.05 -0.03,0.02 -0.03,0.03 -0.04,0.02 -0.03,0.01 -0.04,0.02 -0.04,0.02 -0.04,0.01 -0.04,0.01 -0.04,0.01 -0.04,0.01 -0.04,0.01 -0.05,0 -0.05,0.01 -0.04,0 -0.01,-0.22 c 0.49,0 0.54,-0.64 0.54,-1.2 0,-0.49 -0.07,-1 -0.31,-1.98 h -2.08 c 0.17,0.64 0.37,1.43 0.76,2.14 0.27,0.48 0.64,1.04 1.09,1.04 l 0.01,0.22 c -1.38,0 -2.92,-2.8 -2.92,-5.08 0,-0.93 0.29,-2.03 1.2,-2.03 v 0.21 c -0.33,0 -0.54,0.29 -0.54,1.22 0,0.41 0.06,0.99 0.32,1.96 h 2.07 c -0.11,-0.45 -0.32,-1.3 -0.7,-2.01 -0.35,-0.68 -0.72,-1.17 -1.15,-1.17 v -0.21 c 1.4,0 2.91,2.85 2.91,5.07 z"
         id="path4271" /><path
         style="fill:#000000;stroke-width:0"
         inkscape:connector-curvature="0"
         d="m 398.91,706.9 h -0.24 c -0.02,-0.16 -0.09,-0.57 -0.18,-0.64 -0.06,-0.04 -0.59,-0.04 -0.69,-0.04 h -1.28 c 0.73,0.65 0.97,0.84 1.39,1.17 0.52,0.41 1,0.84 1,1.5 0,0.84 -0.74,1.36 -1.63,1.36 -0.86,0 -1.45,-0.61 -1.45,-1.25 0,-0.35 0.3,-0.39 0.37,-0.39 0.17,0 0.37,0.12 0.37,0.37 0,0.13 -0.05,0.37 -0.41,0.37 0.21,0.49 0.69,0.65 1.01,0.65 0.7,0 1.06,-0.54 1.06,-1.11 0,-0.6 -0.43,-1.08 -0.65,-1.33 l -1.68,-1.66 c -0.07,-0.06 -0.07,-0.07 -0.07,-0.27 h 2.87 z"
         id="path4273" /></g>    <g
       id="g4777"
       transform="matrix(1.9502955,0,0,-1.9502955,-610.41762,1482.8559)"
       xml:space="preserve"
       stroke-miterlimit="10.433"
       font-style="normal"
       font-variant="normal"
       font-weight="normal"
       font-stretch="normal"
       font-size-adjust="none"
       letter-spacing="normal"
       word-spacing="normal"
       ns0:text="\\[\\theta_1\\]"
       ns0:preamble=""
       style="font-style:normal;font-variant:normal;font-weight:normal;font-stretch:normal;letter-spacing:normal;word-spacing:normal;text-anchor:start;fill:none;stroke:#000000;stroke-linecap:butt;stroke-linejoin:miter;stroke-miterlimit:10.43299961;stroke-opacity:1;stroke-dasharray:none;stroke-dashoffset:0"><path
         style="fill:#000000;stroke-width:0"
         inkscape:connector-curvature="0"
         d="m 395.24,712.09 0,0.07 0,0.06 0,0.07 -0.01,0.08 0,0.07 -0.01,0.08 -0.01,0.08 -0.01,0.09 -0.02,0.08 -0.01,0.08 -0.02,0.09 -0.02,0.08 -0.02,0.09 -0.03,0.08 -0.02,0.08 -0.03,0.09 -0.04,0.07 -0.03,0.08 -0.04,0.08 -0.05,0.07 -0.04,0.06 -0.06,0.07 -0.05,0.06 -0.06,0.05 -0.06,0.05 -0.03,0.02 -0.03,0.03 -0.04,0.02 -0.03,0.01 -0.04,0.02 -0.04,0.02 -0.04,0.01 -0.04,0.01 -0.04,0.01 -0.04,0.01 -0.04,0.01 -0.05,0 -0.05,0.01 -0.04,0 -0.01,-0.22 c 0.49,0 0.54,-0.64 0.54,-1.2 0,-0.49 -0.07,-1 -0.31,-1.98 h -2.08 c 0.17,0.64 0.37,1.43 0.76,2.14 0.27,0.48 0.64,1.04 1.09,1.04 l 0.01,0.22 c -1.38,0 -2.92,-2.8 -2.92,-5.08 0,-0.93 0.29,-2.03 1.2,-2.03 v 0.21 c -0.33,0 -0.54,0.29 -0.54,1.22 0,0.41 0.06,0.99 0.32,1.96 h 2.07 c -0.11,-0.45 -0.32,-1.3 -0.7,-2.01 -0.35,-0.68 -0.72,-1.17 -1.15,-1.17 v -0.21 c 1.4,0 2.91,2.85 2.91,5.07 z"
         id="path4642" /><path
         style="fill:#000000;stroke-width:0"
         inkscape:connector-curvature="0"
         d="m 397.72,710.05 0,0.01 0,0.01 0,0.01 0,0.01 0,0 0,0.01 0,0.01 0,0.01 0,0 0,0.01 0,0.01 0,0 0,0.01 0,0 0,0.01 0,0 0,0.01 0,0 -0.01,0.01 0,0.01 0,0.01 0,0 -0.01,0.01 0,0.01 -0.01,0 0,0.01 -0.01,0 -0.01,0 0,0.01 -0.01,0 -0.01,0 -0.01,0 0,0 -0.01,0 -0.01,0 0,0.01 -0.01,0 0,0 -0.01,0 -0.01,0 0,0 -0.01,0 -0.01,0 0,0 -0.01,0 -0.01,0 -0.01,0 -0.01,0 -0.01,0 0,0 c -0.45,-0.44 -1.08,-0.45 -1.37,-0.45 v -0.25 c 0.17,0 0.63,0 1.01,0.2 v -3.55 c 0,-0.23 0,-0.32 -0.7,-0.32 h -0.26 v -0.25 c 0.12,0.01 0.98,0.03 1.24,0.03 0.21,0 1.09,-0.02 1.24,-0.03 v 0.25 h -0.26 c -0.7,0 -0.7,0.09 -0.7,0.32 z"
         id="path4644" /></g>  </g>
</svg>
