<?xml version="1.0" encoding="UTF-8" standalone="no"?>
<!-- Created with Inkscape (http://www.inkscape.org/) -->

<svg
   xmlns:ns1="http://wanglongqi.github.io/WriteTeX"
   xmlns:dc="http://purl.org/dc/elements/1.1/"
   xmlns:cc="http://creativecommons.org/ns#"
   xmlns:rdf="http://www.w3.org/1999/02/22-rdf-syntax-ns#"
   xmlns:svg="http://www.w3.org/2000/svg"
   xmlns="http://www.w3.org/2000/svg"
   xmlns:sodipodi="http://sodipodi.sourceforge.net/DTD/sodipodi-0.dtd"
   xmlns:inkscape="http://www.inkscape.org/namespaces/inkscape"
   width="40.136227mm"
   height="33.432457mm"
   viewBox="0 0 40.136226 33.432457"
   version="1.1"
   id="svg8"
   inkscape:version="0.92.4 (unknown)"
   sodipodi:docname="dpmteoremasMola.svg">
  <defs
     id="defs2" />
  <sodipodi:namedview
     id="base"
     pagecolor="#ffffff"
     bordercolor="#666666"
     borderopacity="1.0"
     inkscape:pageopacity="0.0"
     inkscape:pageshadow="2"
     inkscape:zoom="1.979899"
     inkscape:cx="0.97146878"
     inkscape:cy="46.398508"
     inkscape:document-units="mm"
     inkscape:current-layer="layer1"
     showgrid="false"
     inkscape:window-width="1920"
     inkscape:window-height="1025"
     inkscape:window-x="0"
     inkscape:window-y="27"
     inkscape:window-maximized="1"
     fit-margin-top="0"
     fit-margin-left="0"
     fit-margin-right="0"
     fit-margin-bottom="0" />
  <metadata
     id="metadata5">
    <rdf:RDF>
      <cc:Work
         rdf:about="">
        <dc:format>image/svg+xml</dc:format>
        <dc:type
           rdf:resource="http://purl.org/dc/dcmitype/StillImage" />
        <dc:title />
      </cc:Work>
    </rdf:RDF>
  </metadata>
  <g
     inkscape:label="Layer 1"
     inkscape:groupmode="layer"
     id="layer1"
     transform="translate(-27.403272,-165.10475)">
    <path
       style="fill:none;stroke:#000000;stroke-width:0.34102109;stroke-linecap:butt;stroke-linejoin:miter;stroke-miterlimit:4;stroke-dasharray:none;stroke-opacity:1"
       d="m 27.403272,198.36669 h 19.85027"
       id="path815"
       inkscape:connector-curvature="0" />
    <path
       style="opacity:1;fill:none;fill-opacity:1;stroke:#000000;stroke-width:0.34102109;stroke-miterlimit:4;stroke-dasharray:none;stroke-dashoffset:0;stroke-opacity:1"
       id="path817"
       sodipodi:type="arc"
       sodipodi:cx="37.328407"
       sodipodi:cy="198.5372"
       sodipodi:rx="6.767138"
       sodipodi:ry="6.767138"
       sodipodi:start="3.1415927"
       sodipodi:end="0"
       sodipodi:open="true"
       d="m 30.561269,198.5372 a 6.767138,6.767138 0 0 1 6.767138,-6.76714 6.767138,6.767138 0 0 1 6.767138,6.76714" />
    <g
       id="g4880"
       transform="matrix(-0.03655407,0.03655407,-0.04047694,-0.04047694,75.706869,176.24312)">
      <path
         sodipodi:nodetypes="ccscc"
         inkscape:connector-curvature="0"
         id="path4750"
         d="m 349.51602,190.71267 c -11.29703,7.7595 -19.88876,19.11733 -24.5332,32.43164 -10.20661,29.49199 -3.63649,72.32064 26.14258,79.98437 13.27075,3.41527 19.88629,-19.11393 24.53125,-32.42578 10.20999,-29.49316 -0.66408,-62.76779 -26.14063,-79.99023 z"
         style="fill:none;fill-opacity:1;fill-rule:evenodd;stroke:#000000;stroke-width:7.94886827;stroke-miterlimit:4;stroke-dasharray:none;stroke-opacity:1" />
      <path
         style="fill:none;fill-opacity:1;fill-rule:evenodd;stroke:#000000;stroke-width:7.94995737;stroke-miterlimit:4;stroke-dasharray:none;stroke-opacity:1"
         id="path4859"
         sodipodi:type="arc"
         sodipodi:cx="-211.93996"
         sodipodi:cy="410.92035"
         sodipodi:rx="64.268578"
         sodipodi:ry="67.044281"
         sodipodi:start="4.6695373"
         sodipodi:end="1.4700423"
         sodipodi:open="true"
         d="m -214.69313,343.93761 a 64.268578,67.044281 0 0 1 66.85615,62.1729 64.268578,67.044281 0 0 1 -57.63861,71.51411"
         transform="matrix(0.1024305,-0.99474016,0.99686518,0.07911892,0,0)" />
      <path
         sodipodi:nodetypes="ccacc"
         inkscape:connector-curvature="0"
         style="fill:none;fill-opacity:1;fill-rule:evenodd;stroke:#000000;stroke-width:7.94886827;stroke-miterlimit:4;stroke-dasharray:none;stroke-opacity:1"
         d="m 425.51602,190.71267 c -11.29703,7.7595 -19.88876,19.11733 -24.5332,32.43164 -10.20661,29.49199 -1.5218,75.3527 26.14258,79.98437 13.36719,2.23798 19.88629,-19.11393 24.53125,-32.42578 10.20999,-29.49316 -0.66408,-62.76779 -26.14063,-79.99023 z"
         id="path4864" />
      <path
         transform="matrix(0.1024305,-0.99474016,0.99686518,0.07911892,0,0)"
         d="m -208.67793,419.5584 a 64.268578,67.044281 0 0 1 66.85615,62.1729 64.268578,67.044281 0 0 1 -57.63861,71.51411"
         sodipodi:open="true"
         sodipodi:end="1.4700423"
         sodipodi:start="4.6695373"
         sodipodi:ry="67.044281"
         sodipodi:rx="64.268578"
         sodipodi:cy="486.54114"
         sodipodi:cx="-205.92476"
         sodipodi:type="arc"
         id="path4866"
         style="fill:none;fill-opacity:1;fill-rule:evenodd;stroke:#000000;stroke-width:7.94995737;stroke-miterlimit:4;stroke-dasharray:none;stroke-opacity:1" />
      <path
         sodipodi:nodetypes="ccacc"
         id="path4868"
         d="m 501.51602,190.71267 c -11.29703,7.7595 -19.88876,19.11733 -24.5332,32.43164 -10.20661,29.49199 -1.5218,75.3527 26.14258,79.98437 13.36719,2.23798 19.88629,-19.11393 24.53125,-32.42578 10.20999,-29.49316 -0.66408,-62.76779 -26.14063,-79.99023 z"
         style="fill:none;fill-opacity:1;fill-rule:evenodd;stroke:#000000;stroke-width:7.94886827;stroke-miterlimit:4;stroke-dasharray:none;stroke-opacity:1"
         inkscape:connector-curvature="0" />
      <rect
         ry="8.5714283"
         rx="0.36274493"
         y="234.19263"
         x="265.01266"
         height="8.5714283"
         width="17.857143"
         id="rect4876"
         style="fill:#000000;fill-opacity:1;fill-rule:evenodd;stroke:none;stroke-width:12.10000038;stroke-miterlimit:4;stroke-dasharray:none;stroke-opacity:1" />
      <path
         transform="matrix(0.0844929,-0.99642408,0.99538754,0.09593559,0,0)"
         d="m -213.31544,298.49562 a 58.493195,50.40847 0 0 1 60.84824,46.74584 58.493195,50.40847 0 0 1 -52.45902,53.76919"
         sodipodi:open="true"
         sodipodi:end="1.4700423"
         sodipodi:start="4.6695373"
         sodipodi:ry="50.40847"
         sodipodi:rx="58.493195"
         sodipodi:cy="348.85782"
         sodipodi:cx="-210.80968"
         sodipodi:type="arc"
         id="path4870"
         style="fill:none;fill-opacity:1;fill-rule:evenodd;stroke:#000000;stroke-width:6.57641172;stroke-miterlimit:4;stroke-dasharray:none;stroke-opacity:1" />
      <rect
         style="fill:#000000;fill-opacity:1;fill-rule:evenodd;stroke:none;stroke-width:12.10000038;stroke-miterlimit:4;stroke-dasharray:none;stroke-opacity:1"
         id="rect4878"
         width="19.285715"
         height="8.5714283"
         x="570.0127"
         y="236.33548"
         rx="0.39176449"
         ry="8.5714283" />
      <path
         style="fill:none;fill-opacity:1;fill-rule:evenodd;stroke:#000000;stroke-width:6.57634211;stroke-miterlimit:4;stroke-dasharray:none;stroke-opacity:1"
         id="path4872"
         sodipodi:type="arc"
         sodipodi:cx="-192.19591"
         sodipodi:cy="542.17694"
         sodipodi:rx="58.493195"
         sodipodi:ry="50.40847"
         sodipodi:start="4.6695373"
         sodipodi:end="1.4700423"
         sodipodi:open="true"
         d="m -194.70167,491.81475 a 58.493195,50.40847 0 0 1 60.84824,46.74583 58.493195,50.40847 0 0 1 -52.45902,53.76919"
         transform="matrix(0.0844929,-0.99642408,0.99538754,0.09593559,0,0)" />
      <path
         style="fill:none;stroke:#000000;stroke-width:8.54649448;stroke-linecap:butt;stroke-linejoin:miter;stroke-miterlimit:4;stroke-dasharray:none;stroke-opacity:1"
         d="M 587.98091,240.67921 H 760.65008"
         id="path862"
         inkscape:connector-curvature="0" />
      <path
         style="fill:none;stroke:#000000;stroke-width:8.54649448;stroke-linecap:butt;stroke-linejoin:miter;stroke-miterlimit:4;stroke-dasharray:none;stroke-opacity:1"
         d="M 94.326816,238.47834 H 266.99601"
         id="path862-3"
         inkscape:connector-curvature="0" />
      <ellipse
         style="opacity:1;fill:#000000;fill-opacity:1;stroke:#000000;stroke-width:6.57612514;stroke-miterlimit:4;stroke-dasharray:none;stroke-dashoffset:0;stroke-opacity:1"
         id="path879"
         transform="rotate(-90)"
         cx="-238.47833"
         cy="52.761208"
         rx="56.524456"
         ry="62.5905" />
    </g>
    <circle
       style="opacity:1;fill:#000000;fill-opacity:1;stroke:#000000;stroke-width:0.34102109;stroke-miterlimit:4;stroke-dasharray:none;stroke-dashoffset:0;stroke-opacity:1"
       id="path911"
       cx="37.328407"
       cy="195.06837"
       r="1.1848792" />
    <g
       id="g2547"
       style="stroke-width:0.69452077"
       transform="matrix(0.38095814,0,0,0.38095814,-12.204902,127.48448)"
       ns1:text="\\( P \\)">
      <g
         id="g2545">
        <g
           id="g2543"
           style="fill:#000000;fill-opacity:1">
          <path
             inkscape:connector-curvature="0"
             id="path2541"
             transform="translate(178.585,110.99)"
             d="M 3.015625,-3.15625 H 4.71875 c 1.40625,0 2.796875,-1.03125 2.796875,-2.140625 0,-0.78125 -0.65625,-1.515625 -1.96875,-1.515625 h -3.21875 c -0.1875,0 -0.296875,0 -0.296875,0.1875 0,0.125 0.078125,0.125 0.28125,0.125 0.125,0 0.3125,0.015625 0.421875,0.015625 0.171875,0.03125 0.21875,0.046875 0.21875,0.171875 0,0.03125 0,0.0625 -0.03125,0.1875 l -1.34375,5.34375 c -0.09375,0.390625 -0.109375,0.46875 -0.90625,0.46875 -0.15625,0 -0.265625,0 -0.265625,0.1875 C 0.40625,0 0.515625,0 0.546875,0 0.828125,0 1.53125,-0.03125 1.8125,-0.03125 c 0.21875,0 0.4375,0.015625 0.640625,0.015625 0.21875,0 0.4375,0.015625 0.640625,0.015625 0.078125,0 0.203125,0 0.203125,-0.203125 0,-0.109375 -0.09375,-0.109375 -0.28125,-0.109375 -0.359375,0 -0.640625,0 -0.640625,-0.171875 0,-0.0625 0.015625,-0.109375 0.03125,-0.171875 z M 3.734375,-6.125 C 3.828125,-6.46875 3.84375,-6.5 4.28125,-6.5 h 0.953125 c 0.828125,0 1.359375,0.265625 1.359375,0.953125 0,0.390625 -0.203125,1.25 -0.59375,1.609375 -0.5,0.453125 -1.09375,0.53125 -1.53125,0.53125 H 3.0625 Z m 0,0"
             style="stroke:none" />
        </g>
      </g>
    </g>
    <g
       id="g883"
       style="stroke-width:0.69452077"
       transform="matrix(0.38095814,0,0,0.38095814,-24.900205,135.90347)"
       ns1:text="\\( K \\)">
      <g
         id="surface1">
        <g
           id="g880"
           style="fill:rgb(0%,0%,0%);fill-opacity:1;">
          <path
             id="path878"
             transform="translate(178.585,110.99)"
             d="M 5.078125 -4.03125 C 5.0625 -4.0625 5.03125 -4.140625 5.03125 -4.171875 C 5.03125 -4.171875 5.203125 -4.3125 5.3125 -4.390625 L 7.0625 -5.734375 C 8 -6.4375 8.390625 -6.46875 8.6875 -6.5 C 8.765625 -6.515625 8.859375 -6.515625 8.859375 -6.703125 C 8.859375 -6.734375 8.828125 -6.8125 8.75 -6.8125 C 8.53125 -6.8125 8.28125 -6.78125 8.046875 -6.78125 C 7.6875 -6.78125 7.296875 -6.8125 6.9375 -6.8125 C 6.875 -6.8125 6.75 -6.8125 6.75 -6.609375 C 6.75 -6.546875 6.796875 -6.515625 6.875 -6.5 C 7.09375 -6.484375 7.171875 -6.4375 7.171875 -6.296875 C 7.171875 -6.109375 6.875 -5.875 6.8125 -5.828125 L 2.9375 -2.84375 L 3.734375 -6.046875 C 3.8125 -6.40625 3.84375 -6.5 4.5625 -6.5 C 4.8125 -6.5 4.90625 -6.5 4.90625 -6.703125 C 4.90625 -6.78125 4.828125 -6.8125 4.765625 -6.8125 C 4.484375 -6.8125 3.765625 -6.78125 3.484375 -6.78125 C 3.203125 -6.78125 2.5 -6.8125 2.203125 -6.8125 C 2.140625 -6.8125 2 -6.8125 2 -6.625 C 2 -6.5 2.09375 -6.5 2.296875 -6.5 C 2.421875 -6.5 2.609375 -6.484375 2.71875 -6.484375 C 2.875 -6.453125 2.9375 -6.4375 2.9375 -6.3125 C 2.9375 -6.28125 2.9375 -6.25 2.90625 -6.125 L 1.5625 -0.78125 C 1.46875 -0.390625 1.453125 -0.3125 0.65625 -0.3125 C 0.484375 -0.3125 0.375 -0.3125 0.375 -0.125 C 0.375 0 0.5 0 0.53125 0 C 0.8125 0 1.515625 -0.03125 1.796875 -0.03125 C 2 -0.03125 2.21875 -0.015625 2.4375 -0.015625 C 2.65625 -0.015625 2.875 0 3.078125 0 C 3.15625 0 3.28125 0 3.28125 -0.203125 C 3.28125 -0.3125 3.1875 -0.3125 3 -0.3125 C 2.625 -0.3125 2.359375 -0.3125 2.359375 -0.484375 C 2.359375 -0.5625 2.40625 -0.78125 2.4375 -0.921875 C 2.578125 -1.453125 2.71875 -1.96875 2.84375 -2.5 L 4.328125 -3.65625 L 5.484375 -0.96875 C 5.609375 -0.703125 5.609375 -0.671875 5.609375 -0.625 C 5.609375 -0.3125 5.171875 -0.3125 5.078125 -0.3125 C 4.96875 -0.3125 4.859375 -0.3125 4.859375 -0.109375 C 4.859375 0 4.984375 0 5 0 C 5.40625 0 5.828125 -0.03125 6.21875 -0.03125 C 6.4375 -0.03125 6.984375 0 7.203125 0 C 7.25 0 7.375 0 7.375 -0.203125 C 7.375 -0.3125 7.265625 -0.3125 7.171875 -0.3125 C 6.765625 -0.3125 6.640625 -0.40625 6.484375 -0.75 Z M 5.078125 -4.03125 "
             style="stroke:none;" />
        </g>
      </g>
    </g>
  </g>
</svg>
