<?xml version="1.0" encoding="UTF-8" standalone="no"?>
<!-- Created with Inkscape (http://www.inkscape.org/) -->

<svg
   xmlns:ns0="http://wanglongqi.github.io/WriteTeX"
   xmlns:dc="http://purl.org/dc/elements/1.1/"
   xmlns:cc="http://creativecommons.org/ns#"
   xmlns:rdf="http://www.w3.org/1999/02/22-rdf-syntax-ns#"
   xmlns:svg="http://www.w3.org/2000/svg"
   xmlns="http://www.w3.org/2000/svg"
   xmlns:sodipodi="http://sodipodi.sourceforge.net/DTD/sodipodi-0.dtd"
   xmlns:inkscape="http://www.inkscape.org/namespaces/inkscape"
   width="64.126526mm"
   height="29.999992mm"
   viewBox="0 0 64.126526 29.999992"
   version="1.1"
   id="svg8"
   inkscape:version="0.92.3 (unknown)"
   sodipodi:docname="exemplo.svg">
  <sodipodi:namedview
     id="base"
     pagecolor="#ffffff"
     bordercolor="#666666"
     borderopacity="1.0"
     inkscape:pageopacity="0.0"
     inkscape:pageshadow="2"
     inkscape:zoom="2.8"
     inkscape:cx="52.969813"
     inkscape:cy="37.012426"
     inkscape:document-units="mm"
     inkscape:current-layer="layer1"
     showgrid="false"
     inkscape:window-width="1366"
     inkscape:window-height="744"
     inkscape:window-x="0"
     inkscape:window-y="24"
     inkscape:window-maximized="1"
     fit-margin-top="0"
     fit-margin-left="0"
     fit-margin-right="0"
     fit-margin-bottom="0" />
  <defs
     id="defs2">
    <marker
       inkscape:stockid="Arrow1Lend"
       orient="auto"
       refY="0"
       refX="0"
       id="marker1679"
       style="overflow:visible"
       inkscape:isstock="true">
      <path
         id="path1677"
         d="M 0,0 5,-5 -12.5,0 5,5 Z"
         style="fill:#000000;fill-opacity:1;fill-rule:evenodd;stroke:#000000;stroke-width:1.00000003pt;stroke-opacity:1"
         transform="matrix(-0.8,0,0,-0.8,-10,0)"
         inkscape:connector-curvature="0" />
    </marker>
    <marker
       inkscape:isstock="true"
       style="overflow:visible"
       id="Arrow1Lend"
       refX="0"
       refY="0"
       orient="auto"
       inkscape:stockid="Arrow1Lend"
       inkscape:collect="always">
      <path
         transform="matrix(-0.8,0,0,-0.8,-10,0)"
         style="fill:#000000;fill-opacity:1;fill-rule:evenodd;stroke:#000000;stroke-width:1.00000003pt;stroke-opacity:1"
         d="M 0,0 5,-5 -12.5,0 5,5 Z"
         id="path830"
         inkscape:connector-curvature="0" />
    </marker>
    <marker
       inkscape:isstock="true"
       style="overflow:visible"
       id="Arrow1Lend-7"
       refX="0"
       refY="0"
       orient="auto"
       inkscape:stockid="Arrow1Lend"
       inkscape:collect="always">
      <path
         transform="matrix(-0.8,0,0,-0.8,-10,0)"
         style="fill:#000000;fill-opacity:1;fill-rule:evenodd;stroke:#000000;stroke-width:1.00000003pt;stroke-opacity:1"
         d="M 0,0 5,-5 -12.5,0 5,5 Z"
         id="path830-5"
         inkscape:connector-curvature="0" />
    </marker>
  </defs>
  <metadata
     id="metadata5">
    <rdf:RDF>
      <cc:Work
         rdf:about="">
        <dc:format>image/svg+xml</dc:format>
        <dc:type
           rdf:resource="http://purl.org/dc/dcmitype/StillImage" />
        <dc:title></dc:title>
      </cc:Work>
    </rdf:RDF>
  </metadata>
  <g
     transform="translate(-9.528642,-257.92765)"
     id="layer1"
     inkscape:groupmode="layer"
     inkscape:label="Layer 1">
    <path
       inkscape:connector-curvature="0"
       id="path815"
       d="M 11.164876,285.09626 H 73.655171"
       style="fill:none;stroke:#000000;stroke-width:0.45096087px;stroke-linecap:butt;stroke-linejoin:miter;stroke-opacity:1" />
    <circle
       r="13.528827"
       cy="271.62436"
       cx="38.867104"
       id="path823"
       style="opacity:1;fill:none;fill-opacity:1;stroke:#000000;stroke-width:0.33577055;stroke-miterlimit:4;stroke-dasharray:none;stroke-dashoffset:0;stroke-opacity:1" />
    <path
       inkscape:connector-curvature="0"
       id="path825"
       d="M 38.061813,271.62433 H 61.576205"
       style="fill:none;stroke:#000000;stroke-width:0.31567264;stroke-linecap:butt;stroke-linejoin:miter;stroke-miterlimit:4;stroke-dasharray:none;stroke-opacity:1;marker-end:url(#Arrow1Lend)" />
    <circle
       r="1.1203275"
       cy="271.62436"
       cx="38.867104"
       id="path823-3"
       style="opacity:1;fill:#000000;fill-opacity:1;stroke:#000000;stroke-width:0.0278053;stroke-miterlimit:4;stroke-dasharray:none;stroke-dashoffset:0;stroke-opacity:1" />
    <path
       inkscape:connector-curvature="0"
       id="path1352"
       d="m 14.064254,285.03022 -2.737975,2.73798"
       style="fill:none;stroke:#000000;stroke-width:0.45096087px;stroke-linecap:butt;stroke-linejoin:miter;stroke-opacity:1" />
    <path
       inkscape:connector-curvature="0"
       id="path1352-6"
       d="m 18.91611,285.03022 -2.737975,2.73798"
       style="fill:none;stroke:#000000;stroke-width:0.45096087px;stroke-linecap:butt;stroke-linejoin:miter;stroke-opacity:1" />
    <path
       inkscape:connector-curvature="0"
       id="path1352-7"
       d="m 23.767968,285.03022 -2.737976,2.73798"
       style="fill:none;stroke:#000000;stroke-width:0.45096087px;stroke-linecap:butt;stroke-linejoin:miter;stroke-opacity:1" />
    <path
       inkscape:connector-curvature="0"
       id="path1352-5"
       d="m 28.619823,285.03022 -2.737975,2.73798"
       style="fill:none;stroke:#000000;stroke-width:0.45096087px;stroke-linecap:butt;stroke-linejoin:miter;stroke-opacity:1" />
    <path
       inkscape:connector-curvature="0"
       id="path1352-3"
       d="m 33.471683,285.03022 -2.737976,2.73798"
       style="fill:none;stroke:#000000;stroke-width:0.45096087px;stroke-linecap:butt;stroke-linejoin:miter;stroke-opacity:1" />
    <path
       inkscape:connector-curvature="0"
       id="path1352-56"
       d="m 38.323539,285.03022 -2.737976,2.73798"
       style="fill:none;stroke:#000000;stroke-width:0.45096087px;stroke-linecap:butt;stroke-linejoin:miter;stroke-opacity:1" />
    <path
       inkscape:connector-curvature="0"
       id="path1352-2"
       d="m 43.175391,285.03022 -2.737976,2.73798"
       style="fill:none;stroke:#000000;stroke-width:0.45096087px;stroke-linecap:butt;stroke-linejoin:miter;stroke-opacity:1" />
    <path
       inkscape:connector-curvature="0"
       id="path1352-9"
       d="m 48.027249,285.03022 -2.737976,2.73798"
       style="fill:none;stroke:#000000;stroke-width:0.45096087px;stroke-linecap:butt;stroke-linejoin:miter;stroke-opacity:1" />
    <path
       inkscape:connector-curvature="0"
       id="path1352-1"
       d="m 52.879109,285.03022 -2.737975,2.73798"
       style="fill:none;stroke:#000000;stroke-width:0.45096087px;stroke-linecap:butt;stroke-linejoin:miter;stroke-opacity:1" />
    <path
       inkscape:connector-curvature="0"
       id="path1352-27"
       d="m 57.73096,285.03022 -2.737976,2.73798"
       style="fill:none;stroke:#000000;stroke-width:0.45096087px;stroke-linecap:butt;stroke-linejoin:miter;stroke-opacity:1" />
    <path
       inkscape:connector-curvature="0"
       id="path1352-0"
       d="M 62.582815,285.03022 59.84484,287.7682"
       style="fill:none;stroke:#000000;stroke-width:0.45096087px;stroke-linecap:butt;stroke-linejoin:miter;stroke-opacity:1" />
    <path
       inkscape:connector-curvature="0"
       id="path1352-93"
       d="M 67.434675,285.03022 64.6967,287.7682"
       style="fill:none;stroke:#000000;stroke-width:0.45096087px;stroke-linecap:butt;stroke-linejoin:miter;stroke-opacity:1" />
    <path
       inkscape:connector-curvature="0"
       id="path1352-60"
       d="m 72.286529,285.03022 -2.737975,2.73798"
       style="fill:none;stroke:#000000;stroke-width:0.45096087px;stroke-linecap:butt;stroke-linejoin:miter;stroke-opacity:1" />
    <g
       id="g1462"
       transform="matrix(363.28272,0,0,363.28272,-45.084594,295.95307)"
       ns0:text="\\(\\vec{F}\\)">
      <g
         word-spacing="normal"
         letter-spacing="normal"
         font-size-adjust="none"
         font-stretch="normal"
         font-weight="normal"
         font-variant="normal"
         font-style="normal"
         stroke-miterlimit="10.433"
         xml:space="preserve"
         transform="matrix(0.0017361,0,0,-0.0017361,-0.03125,1.1875)"
         id="content"
         style="font-style:normal;font-variant:normal;font-weight:normal;font-stretch:normal;letter-spacing:normal;word-spacing:normal;text-anchor:start;fill:none;fill-opacity:1;fill-rule:evenodd;stroke:#000000;stroke-linecap:butt;stroke-linejoin:miter;stroke-miterlimit:10.43299961;stroke-dasharray:none;stroke-dashoffset:0;stroke-opacity:1"><path
           id="path1457"
           d="m 185.4,739.34 -0.01,-0.01 -0.02,-0.01 -0.01,-0.02 -0.02,-0.01 -0.02,-0.02 -0.01,-0.01 -0.02,-0.02 -0.02,-0.02 -0.02,-0.01 -0.02,-0.02 -0.04,-0.04 -0.04,-0.04 -0.03,-0.04 -0.02,-0.02 -0.02,-0.02 -0.02,-0.02 -0.01,-0.02 -0.02,-0.02 -0.02,-0.02 -0.01,-0.02 -0.01,-0.02 -0.01,-0.02 -0.01,-0.02 -0.01,-0.02 -0.01,-0.02 -0.01,-0.02 v -0.02 l -0.01,-0.02 v -0.01 c 0,-0.1 0.1,-0.2 0.2,-0.2 0.09,0 0.14,0.07 0.19,0.13 0.12,0.15 0.35,0.43 0.79,0.65 0.07,0.04 0.17,0.08 0.17,0.2 0,0.1 -0.07,0.15 -0.14,0.2 -0.22,0.15 -0.33,0.33 -0.41,0.57 -0.02,0.09 -0.06,0.22 -0.2,0.22 -0.14,0 -0.2,-0.13 -0.2,-0.21 0,-0.05 0.08,-0.37 0.24,-0.58 h -3.36 c -0.17,0 -0.34,0 -0.34,-0.2 0,-0.2 0.17,-0.2 0.34,-0.2 z"
           inkscape:connector-curvature="0"
           style="fill:#000000;stroke-width:0" /><path
           id="path1459"
           d="m 181.6,734.14 h 0.97 c 0.75,0 0.82,-0.16 0.82,-0.45 0,-0.07 0,-0.19 -0.07,-0.49 -0.02,-0.05 -0.03,-0.09 -0.03,-0.11 0,-0.08 0.06,-0.12 0.12,-0.12 0.1,0 0.1,0.03 0.15,0.21 l 0.55,2.16 c 0.03,0.11 0.03,0.13 0.03,0.16 0,0.02 -0.02,0.11 -0.12,0.11 -0.1,0 -0.11,-0.05 -0.15,-0.21 -0.21,-0.78 -0.44,-0.96 -1.28,-0.96 h -0.91 l 0.64,2.53 c 0.09,0.35 0.1,0.39 0.54,0.39 h 1.31 c 1.23,0 1.46,-0.33 1.46,-1.09 0,-0.23 0,-0.27 -0.03,-0.54 -0.02,-0.13 -0.02,-0.15 -0.02,-0.18 0,-0.05 0.03,-0.12 0.12,-0.12 0.1,0 0.12,0.06 0.14,0.25 l 0.2,1.72 c 0.02,0.27 -0.03,0.27 -0.27,0.27 h -4.89 c -0.2,0 -0.29,0 -0.29,-0.2 0,-0.11 0.09,-0.11 0.27,-0.11 0.37,0 0.65,0 0.65,-0.18 0,-0.04 0,-0.06 -0.05,-0.23 l -1.31,-5.28 c -0.1,-0.38 -0.12,-0.46 -0.91,-0.46 -0.17,0 -0.28,0 -0.28,-0.19 0,-0.12 0.12,-0.12 0.15,-0.12 0.29,0 1.03,0.03 1.32,0.03 0.32,0 1.15,-0.03 1.48,-0.03 0.09,0 0.21,0 0.21,0.19 0,0.08 -0.06,0.1 -0.06,0.11 -0.03,0.01 -0.05,0.01 -0.28,0.01 -0.22,0 -0.27,0 -0.52,0.02 -0.29,0.03 -0.32,0.07 -0.32,0.2 0,0.02 0,0.08 0.04,0.23 z"
           inkscape:connector-curvature="0"
           style="fill:#000000;stroke-width:0" /></g>    </g>
    <g
       ns0:text="\\(Q\\)"
       transform="matrix(363.28272,0,0,363.28272,-62.193011,299.27654)"
       id="g1546">
      <g
         style="font-style:normal;font-variant:normal;font-weight:normal;font-stretch:normal;letter-spacing:normal;word-spacing:normal;text-anchor:start;fill:none;fill-opacity:1;fill-rule:evenodd;stroke:#000000;stroke-linecap:butt;stroke-linejoin:miter;stroke-miterlimit:10.43299961;stroke-dasharray:none;stroke-dashoffset:0;stroke-opacity:1"
         id="g1544"
         transform="matrix(0.0017361,0,0,-0.0017361,-0.03125,1.1875)"
         xml:space="preserve"
         stroke-miterlimit="10.433"
         font-style="normal"
         font-variant="normal"
         font-weight="normal"
         font-stretch="normal"
         font-size-adjust="none"
         letter-spacing="normal"
         word-spacing="normal"><path
           style="fill:#000000;stroke-width:0"
           inkscape:connector-curvature="0"
           d="m 182.95,730.96 0.14,0.06 0.14,0.06 0.15,0.07 0.14,0.08 0.14,0.09 0.14,0.09 0.13,0.09 0.14,0.1 0.13,0.11 0.13,0.11 0.12,0.12 0.13,0.12 0.12,0.13 0.11,0.13 0.11,0.14 0.11,0.14 0.1,0.14 0.1,0.15 0.09,0.15 0.09,0.16 0.08,0.15 0.08,0.16 0.07,0.17 0.06,0.16 0.06,0.17 0.05,0.17 0.04,0.17 0.04,0.18 0.03,0.17 0.02,0.18 0.01,0.18 0.01,0.18 c 0,1.6 -1.06,2.68 -2.55,2.68 l -0.06,-0.25 c 1,0 1.73,-0.77 1.73,-2.11 0,-1 -0.51,-3.33 -2.18,-4.26 -0.05,0.35 -0.15,1.07 -0.88,1.07 v -0.22 c 0.42,0 0.61,-0.24 0.61,-0.84 0,-0.15 -0.01,-0.16 -0.11,-0.2 -0.26,-0.11 -0.56,-0.18 -0.84,-0.18 v 0 c -0.14,0 -0.46,0 -0.46,0.43 0,0.39 0.38,0.79 0.8,0.79 v 0.22 c -0.53,0 -1.02,-0.5 -1.02,-1.01 0,-0.2 0.06,-0.31 0.06,-0.32 v 0 c -0.77,0.31 -1.11,1.08 -1.11,1.98 0,0.69 0.26,2.1 1.01,3.18 0.73,1.01 1.67,1.47 2.39,1.47 l 0.06,0.25 c -2.15,0 -4.34,-2.26 -4.34,-4.58 0,-1.66 1.12,-2.66 2.55,-2.66 0.25,0 0.59,0.04 0.98,0.15 -0.04,-0.62 -0.04,-0.64 -0.04,-0.77 0,-0.32 0,-1.09 0.82,-1.09 1.19,0 1.67,1.82 1.67,1.93 0,0.07 -0.07,0.1 -0.11,0.1 -0.08,0 -0.1,-0.05 -0.12,-0.11 -0.24,-0.71 -0.82,-0.96 -1.17,-0.96 -0.45,0 -0.6,0.27 -0.7,1.03 z"
           id="path1542" /></g>    </g>
    <g
       id="g1633"
       transform="matrix(363.28272,0,0,363.28272,-71.868969,301.6371)"
       ns0:text="\\(R\\)">
      <g
         word-spacing="normal"
         letter-spacing="normal"
         font-size-adjust="none"
         font-stretch="normal"
         font-weight="normal"
         font-variant="normal"
         font-style="normal"
         stroke-miterlimit="10.433"
         xml:space="preserve"
         transform="matrix(0.0017361,0,0,-0.0017361,-0.03125,1.1875)"
         id="g1631"
         style="font-style:normal;font-variant:normal;font-weight:normal;font-stretch:normal;letter-spacing:normal;word-spacing:normal;text-anchor:start;fill:none;fill-opacity:1;fill-rule:evenodd;stroke:#000000;stroke-linecap:butt;stroke-linejoin:miter;stroke-miterlimit:10.43299961;stroke-dasharray:none;stroke-dashoffset:0;stroke-opacity:1"><path
           id="path1629"
           d="m 183.75,734.28 0.1,0.03 0.09,0.02 0.1,0.03 0.1,0.03 0.09,0.03 0.1,0.04 0.09,0.04 0.1,0.04 0.09,0.04 0.1,0.05 0.09,0.04 0.09,0.05 0.09,0.06 0.08,0.05 0.09,0.06 0.08,0.06 0.07,0.06 0.08,0.07 0.07,0.07 0.07,0.06 0.06,0.08 0.06,0.07 0.05,0.08 0.05,0.07 0.05,0.08 0.04,0.09 0.03,0.08 0.03,0.09 0.02,0.08 0.02,0.09 0.01,0.09 0.01,0.1 c 0,0.85 -0.9,1.49 -2.21,1.49 h -2.84 c -0.19,0 -0.28,0 -0.28,-0.2 0,-0.11 0.09,-0.11 0.27,-0.11 0.02,0 0.21,0 0.38,-0.02 0.18,-0.02 0.27,-0.03 0.27,-0.16 0,-0.04 -0.01,-0.07 -0.04,-0.19 l -1.33,-5.35 c -0.1,-0.38 -0.12,-0.46 -0.91,-0.46 -0.18,0 -0.27,0 -0.27,-0.2 0,-0.11 0.12,-0.11 0.14,-0.11 0.28,0 0.98,0.03 1.26,0.03 0.27,0 0.98,-0.03 1.26,-0.03 0.08,0 0.2,0 0.2,0.2 0,0.11 -0.09,0.11 -0.28,0.11 -0.37,0 -0.65,0 -0.65,0.18 0,0.06 0.02,0.1 0.03,0.16 l 0.66,2.65 h 1.19 l -0.01,0.21 h -1.12 l 0.65,2.61 c 0.06,0.23 0.09,0.33 0.28,0.36 0.09,0.01 0.41,0.01 0.61,0.01 0.7,0 1.81,0 1.81,-0.98 0,-0.34 -0.16,-1.03 -0.55,-1.42 -0.26,-0.26 -0.79,-0.58 -1.68,-0.58 l 0.01,-0.21 c 0.9,0 1.08,-0.56 1.08,-0.91 0,-0.15 -0.08,-0.46 -0.14,-0.69 -0.07,-0.28 -0.16,-0.65 -0.16,-0.85 0,-1.07 1.2,-1.07 1.33,-1.07 0.85,0 1.19,1 1.19,1.14 0,0.12 -0.11,0.12 -0.11,0.12 -0.09,0 -0.11,-0.07 -0.14,-0.14 -0.24,-0.73 -0.67,-0.9 -0.9,-0.9 -0.33,0 -0.4,0.22 -0.4,0.61 0,0.3 0.06,0.81 0.1,1.13 0.02,0.14 0.04,0.33 0.04,0.47 0,0.77 -0.67,1.07 -0.94,1.17 z"
           inkscape:connector-curvature="0"
           style="fill:#000000;stroke-width:0" /></g>    </g>
    <path
       style="fill:none;stroke:#000000;stroke-width:0.22548047;stroke-linecap:butt;stroke-linejoin:miter;stroke-miterlimit:4;stroke-dasharray:none;stroke-opacity:1;marker-end:url(#marker1679)"
       d="m 38.963735,271.62433 -9.23701,-9.23702"
       id="path1669"
       inkscape:connector-curvature="0" />
    <circle
       r="1.1203275"
       cy="285.09628"
       cx="38.867104"
       id="path823-3-3"
       style="opacity:1;fill:#000000;fill-opacity:1;stroke:#000000;stroke-width:0.0278053;stroke-miterlimit:4;stroke-dasharray:none;stroke-dashoffset:0;stroke-opacity:1" />
    <g
       ns0:text="\\(C\\)"
       transform="matrix(363.28272,0,0,363.28272,-62.529651,313.12136)"
       id="g1857">
      <g
         style="font-style:normal;font-variant:normal;font-weight:normal;font-stretch:normal;letter-spacing:normal;word-spacing:normal;text-anchor:start;fill:none;fill-opacity:1;fill-rule:evenodd;stroke:#000000;stroke-linecap:butt;stroke-linejoin:miter;stroke-miterlimit:10.43299961;stroke-dasharray:none;stroke-dashoffset:0;stroke-opacity:1"
         id="g1855"
         transform="matrix(0.0017361,0,0,-0.0017361,-0.03125,1.1875)"
         xml:space="preserve"
         stroke-miterlimit="10.433"
         font-style="normal"
         font-variant="normal"
         font-weight="normal"
         font-stretch="normal"
         font-size-adjust="none"
         letter-spacing="normal"
         word-spacing="normal"><path
           style="fill:#000000;stroke-width:0"
           inkscape:connector-curvature="0"
           d="m 186.15,737.82 v 0 0.01 0 0 0.01 0 0.01 0 0 0.01 h -0.01 v 0.01 0 0 0.01 h -0.01 v 0.01 0 h -0.01 v 0.01 h -0.01 v 0 l -0.01,0.01 v 0 h -0.01 v 0 0 l -0.01,0.01 v 0 0 h -0.01 v 0 0 h -0.01 v 0 0 h -0.01 v 0 h -0.01 c -0.03,0 -0.03,-0.01 -0.14,-0.12 l -0.7,-0.77 c -0.09,0.14 -0.55,0.89 -1.66,0.89 -2.22,0 -4.46,-2.2 -4.46,-4.51 0,-1.65 1.18,-2.73 2.7,-2.73 0.87,0 1.62,0.4 2.15,0.85 0.93,0.82 1.1,1.73 1.1,1.76 0,0.1 -0.1,0.1 -0.12,0.1 -0.06,0 -0.11,-0.02 -0.13,-0.1 -0.09,-0.29 -0.32,-1 -1.01,-1.58 -0.68,-0.55 -1.31,-0.72 -1.83,-0.72 -0.9,0 -1.95,0.52 -1.95,2.07 0,0.57 0.21,2.18 1.2,3.35 0.61,0.7 1.55,1.2 2.43,1.2 1.02,0 1.61,-0.77 1.61,-1.92 0,-0.4 -0.03,-0.41 -0.03,-0.51 0,-0.1 0.11,-0.1 0.15,-0.1 0.13,0 0.13,0.02 0.18,0.2 z"
           id="path1853" /></g>    </g>
    <path
       inkscape:connector-curvature="0"
       id="path825-9"
       d="m 10.599155,262.65892 v 10.48614"
       style="fill:none;stroke:#000000;stroke-width:0.21080378;stroke-linecap:butt;stroke-linejoin:miter;stroke-miterlimit:4;stroke-dasharray:none;stroke-opacity:1;marker-end:url(#Arrow1Lend-7)" />
    <g
       id="g2377"
       transform="matrix(363.28272,0,0,363.28272,-88.472248,298.38136)"
       ns0:text="\\(\\vec{g}\\)">
      <g
         word-spacing="normal"
         letter-spacing="normal"
         font-size-adjust="none"
         font-stretch="normal"
         font-weight="normal"
         font-variant="normal"
         font-style="normal"
         stroke-miterlimit="10.433"
         xml:space="preserve"
         transform="matrix(0.0017361,0,0,-0.0017361,-0.03125,1.1875)"
         id="g2375"
         style="font-style:normal;font-variant:normal;font-weight:normal;font-stretch:normal;letter-spacing:normal;word-spacing:normal;text-anchor:start;fill:none;fill-opacity:1;fill-rule:evenodd;stroke:#000000;stroke-linecap:butt;stroke-linejoin:miter;stroke-miterlimit:10.43299961;stroke-dasharray:none;stroke-dashoffset:0;stroke-opacity:1"><path
           id="path2371"
           d="m 183.51,736.83 -0.01,-0.02 -0.02,-0.01 -0.01,-0.02 -0.02,-0.01 -0.02,-0.02 -0.01,-0.01 -0.02,-0.02 -0.02,-0.02 -0.02,-0.01 -0.02,-0.02 -0.04,-0.04 -0.04,-0.04 -0.03,-0.04 -0.02,-0.02 -0.02,-0.02 -0.02,-0.02 -0.01,-0.02 -0.02,-0.02 -0.02,-0.02 -0.01,-0.02 -0.01,-0.02 -0.01,-0.02 -0.01,-0.02 -0.01,-0.02 -0.01,-0.02 -0.01,-0.02 v -0.02 l -0.01,-0.02 v -0.01 c 0,-0.1 0.1,-0.2 0.2,-0.2 0.09,0 0.14,0.07 0.19,0.13 0.12,0.15 0.35,0.43 0.79,0.65 0.07,0.03 0.17,0.09 0.17,0.2 0,0.1 -0.07,0.15 -0.14,0.2 -0.22,0.15 -0.33,0.33 -0.41,0.57 -0.02,0.09 -0.06,0.22 -0.2,0.22 -0.14,0 -0.2,-0.13 -0.2,-0.21 0,-0.05 0.08,-0.37 0.24,-0.58 h -3.36 c -0.17,0 -0.34,0 -0.34,-0.2 0,-0.19 0.17,-0.19 0.34,-0.19 z"
           inkscape:connector-curvature="0"
           style="fill:#000000;stroke-width:0" /><path
           id="path2373"
           d="m 183.28,734.65 v 0.01 l 0.01,0.02 v 0.01 0.01 l 0.01,0.02 v 0.01 0.01 0.01 l 0.01,0.01 v 0.01 0.01 0.02 0.01 0 0.01 0.01 0 c 0,0.17 -0.12,0.27 -0.29,0.27 -0.1,0 -0.37,-0.07 -0.4,-0.43 -0.18,0.37 -0.53,0.63 -0.93,0.63 l 0.01,-0.22 c 0.66,0 0.79,-0.8 0.79,-0.86 0,-0.05 -0.01,-0.11 -0.03,-0.14 l -0.47,-1.91 c -0.06,-0.26 -0.29,-0.51 -0.51,-0.7 -0.21,-0.17 -0.52,-0.35 -0.81,-0.35 -0.5,0 -0.65,0.52 -0.65,0.91 0,0.48 0.29,1.66 0.56,2.17 0.27,0.48 0.7,0.88 1.12,0.88 l -0.01,0.22 c -1.14,0 -2.37,-1.39 -2.37,-2.83 0,-0.99 0.61,-1.57 1.32,-1.57 0.59,0 1.06,0.47 1.16,0.57 h 0.01 c -0.21,-0.89 -0.33,-1.3 -0.33,-1.32 -0.04,-0.09 -0.38,-1.08 -1.44,-1.08 -0.19,0 -0.51,0.01 -0.79,0.1 0.3,0.09 0.41,0.35 0.41,0.52 0,0.16 -0.11,0.35 -0.38,0.35 -0.22,0 -0.54,-0.18 -0.54,-0.58 0,-0.41 0.37,-0.61 1.32,-0.61 1.25,0 1.97,0.78 2.12,1.38 z"
           inkscape:connector-curvature="0"
           style="fill:#000000;stroke-width:0" /></g>    </g>
  </g>
</svg>
