<?xml version="1.0" encoding="UTF-8" standalone="no"?>
<!-- Created with Inkscape (http://www.inkscape.org/) -->

<svg
   xmlns:dc="http://purl.org/dc/elements/1.1/"
   xmlns:cc="http://creativecommons.org/ns#"
   xmlns:rdf="http://www.w3.org/1999/02/22-rdf-syntax-ns#"
   xmlns:svg="http://www.w3.org/2000/svg"
   xmlns="http://www.w3.org/2000/svg"
   xmlns:sodipodi="http://sodipodi.sourceforge.net/DTD/sodipodi-0.dtd"
   xmlns:inkscape="http://www.inkscape.org/namespaces/inkscape"
   width="160mm"
   height="56mm"
   viewBox="0 0 160 56"
   version="1.1"
   id="svg4204"
   inkscape:version="0.92.3 (unknown)"
   sodipodi:docname="emissionsBrasilPT.svg">
  <defs
     id="defs4198" />
  <sodipodi:namedview
     id="base"
     pagecolor="#ffffff"
     bordercolor="#666666"
     borderopacity="1.0"
     inkscape:pageopacity="0.0"
     inkscape:pageshadow="2"
     inkscape:zoom="1.4"
     inkscape:cx="141.41062"
     inkscape:cy="89.150611"
     inkscape:document-units="mm"
     inkscape:current-layer="layer4"
     showgrid="false"
     inkscape:window-width="1920"
     inkscape:window-height="1025"
     inkscape:window-x="0"
     inkscape:window-y="27"
     inkscape:window-maximized="1" />
  <metadata
     id="metadata4201">
    <rdf:RDF>
      <cc:Work
         rdf:about="">
        <dc:format>image/svg+xml</dc:format>
        <dc:type
           rdf:resource="http://purl.org/dc/dcmitype/StillImage" />
        <dc:title></dc:title>
      </cc:Work>
    </rdf:RDF>
  </metadata>
  <g
     inkscape:label="Layer 1"
     inkscape:groupmode="layer"
     id="layer1"
     transform="translate(0,-241)"
     style="display:inline">
    <path
       style="display:inline;fill:#004586;stroke:none;stroke-width:0.30103707"
       inkscape:connector-curvature="0"
       d="m 26.776253,266.39735 c -0.671576,2.35746 -0.968029,4.80243 -0.8775,7.24795 0.08626,2.43786 0.564612,4.85836 1.406836,7.15669 0.840527,2.3043 2.035524,4.45149 3.550854,6.38019 1.509364,1.92702 3.314316,3.60918 5.346606,4.96892 2.030592,1.3657 4.258686,2.40056 6.616066,3.07213 2.357374,0.67161 4.802256,0.96808 7.247698,0.87754 2.443738,-0.0846 4.86416,-0.56292 7.162405,-1.40518 2.304221,-0.84054 4.451328,-2.03561 6.379972,-3.55098 0.772649,-0.60581 1.507762,-1.26102 2.195957,-1.95543 l -8.29836,-8.19732 c -0.344102,0.3472 -0.708674,0.67566 -1.097979,0.97772 -0.964324,0.75769 -2.03618,1.34924 -3.188282,1.76952 -1.146145,0.42197 -2.355504,0.65817 -3.581206,0.70259 -1.225706,0.0444 -2.448148,-0.10382 -3.623852,-0.43876 -1.175704,-0.33495 -2.292734,-0.85322 -3.305048,-1.53523 -1.018281,-0.68371 -1.921609,-1.52179 -2.673303,-2.48445 -0.757668,-0.96435 -1.356865,-2.03198 -1.777127,-3.18413 -0.421962,-1.14618 -0.658151,-2.35558 -0.702567,-3.58133 -0.04442,-1.22574 0.103812,-2.44823 0.438751,-3.62397 z"
       id="path6" />
    <path
       style="display:inline;fill:#ff420e;stroke:none;stroke-width:0.30103707"
       inkscape:connector-curvature="0"
       d="m 65.805147,289.18918 c 1.032298,-1.0416 1.962234,-2.17689 2.771073,-3.3854 1.365674,-2.03066 2.408135,-4.2631 3.079708,-6.62056 0.671573,-2.35746 0.962062,-4.80413 0.871532,-7.24966 -0.08456,-2.44382 -0.562914,-4.86433 -1.405133,-7.16265 -0.800388,-2.19608 -1.928831,-4.25977 -3.342669,-6.1144 l -9.284769,7.06603 c 0.709052,0.93115 1.269008,1.95534 1.671333,3.05721 0.421963,1.14617 0.658154,2.35558 0.702569,3.58132 0.04442,1.22575 -0.103817,2.44823 -0.43875,3.62398 -0.334939,1.17575 -0.853183,2.29282 -1.536875,3.31113 -0.405265,0.60724 -0.869386,1.1719 -1.386379,1.69568 z"
       id="path8" />
    <path
       style="display:inline;fill:#7e0021;fill-opacity:1;stroke:none;stroke-width:0.30103707"
       inkscape:connector-curvature="0"
       d="m 67.779658,258.65651 c -0.07082,-0.0911 -0.135668,-0.18061 -0.208193,-0.2658 -1.50936,-1.92701 -3.314306,-3.60915 -5.346602,-4.9689 -2.030592,-1.36572 -4.262956,-2.40822 -6.620333,-3.07982 -2.357376,-0.6716 -4.79799,-0.96039 -7.243429,-0.86986 -2.412198,0.0871 -4.79598,0.55009 -7.067824,1.36761 l 3.964393,10.97612 c 1.136771,-0.41174 2.324825,-0.6411 3.530925,-0.68466 1.219736,-0.0461 2.442179,0.10212 3.617882,0.43708 1.175705,0.33494 2.292729,0.85321 3.311017,1.53691 1.018281,0.68371 1.921603,1.5218 2.673297,2.48446 0.03328,0.0417 0.07252,0.0852 0.104098,0.13289 z"
       id="path10" />
    <path
       style="display:inline;fill:#579d1c;stroke:none;stroke-width:0.30103707"
       inkscape:connector-curvature="0"
       d="m 41.293277,250.83974 c -0.02897,0.0111 -0.06391,0.0205 -0.09459,0.0376 -2.304211,0.84055 -4.451316,2.03559 -6.379963,3.55098 -1.112551,0.87032 -2.142349,1.8352 -3.075756,2.89207 l 8.733578,7.7341 c 0.471819,-0.52374 0.984583,-1.01002 1.540863,-1.44518 0.964322,-0.75769 2.037876,-1.35521 3.189983,-1.77549 0.01533,-0.009 0.02897,-0.0111 0.05028,-0.0179 l -3.964395,-10.97611 z"
       id="path12" />
    <path
       style="display:inline;fill:#ffd320;fill-opacity:1;stroke:none;stroke-width:0.30103707"
       inkscape:connector-curvature="0"
       d="m 31.742968,257.32037 c -1.550854,1.75206 -2.828776,3.72384 -3.789491,5.85051 l 10.631308,4.80971 c 0.483339,-1.06249 1.119316,-2.04923 1.891761,-2.92612 z"
       id="path14" />
    <path
       style="display:inline;fill:#83caff;stroke:none;stroke-width:0.30103707"
       inkscape:connector-curvature="0"
       d="m 27.953477,263.17088 c -0.472271,1.04629 -0.862689,2.12235 -1.177224,3.22647 l 11.219921,3.19647 c 0.156419,-0.54908 0.356311,-1.09222 0.588611,-1.61323 z"
       id="path16" />
    <path
       style="display:inline;fill:#004586;fill-opacity:1;stroke:none;stroke-width:0.30105922"
       inkscape:connector-curvature="0"
       d="m 134.42837,257.16821 c -1.64123,-1.82051 -3.55575,-3.3696 -5.67616,-4.59103 -0.33273,-0.19299 -0.67466,-0.37766 -1.01705,-0.55356 l -5.31816,10.38371 c 0.17119,0.0879 0.34237,0.1759 0.50851,0.27678 1.06229,0.61301 2.01954,1.38756 2.83809,2.29552 z"
       id="path6-3" />
    <path
       style="display:inline;fill:#ffd320;fill-opacity:1;stroke:none;stroke-width:0.30105922"
       inkscape:connector-curvature="0"
       d="m 127.73516,252.02362 c -1.84898,-0.94815 -3.81213,-1.64298 -5.84194,-2.06885 l -2.3972,11.41813 c 1.01721,0.21087 2.00087,0.56058 2.92098,1.03443 z"
       id="path8-6" />
    <path
       style="display:inline;fill:#ff420e;fill-opacity:1;stroke:none;stroke-width:0.30105922"
       inkscape:connector-curvature="0"
       d="m 121.89322,249.95477 c -2.38181,-0.50122 -4.82694,-0.62786 -7.24823,-0.36662 -2.43422,0.25618 -4.81783,0.89285 -7.04894,1.89329 -2.23526,0.99584 -4.29496,2.3347 -6.11549,3.97593 -1.820525,1.64122 -3.36961,3.55574 -4.591041,5.67616 -1.225592,2.1158 -2.105097,4.42089 -2.611385,6.8156 -0.510888,2.39887 -0.637978,4.85277 -0.377648,7.29159 0.256179,2.43419 0.892836,4.81782 1.893291,7.04891 0.995844,2.23525 2.334244,4.30371 3.975476,6.12423 1.641237,1.82052 3.560357,3.36547 5.680787,4.58689 2.11581,1.22558 4.4209,2.10509 6.81562,2.61137 2.39472,0.50629 4.84862,0.63338 7.28744,0.37304 2.43421,-0.25616 4.81783,-0.89284 7.04893,-1.89329 2.23526,-0.99583 4.30373,-2.33423 6.12425,-3.97546 1.82053,-1.64122 3.36085,-3.55618 4.58229,-5.67662 1.22559,-2.1158 2.10508,-4.42089 2.61137,-6.8156 0.51089,-2.39887 0.63799,-4.85277 0.38181,-7.28698 -0.25618,-2.4342 -0.89285,-4.81782 -1.89329,-7.04892 -0.99585,-2.23525 -2.33886,-4.29956 -3.98009,-6.12008 l -8.66477,7.81142 c 0.81854,0.90795 1.49004,1.94011 1.99003,3.06004 0.5,1.11993 0.82064,2.30965 0.94665,3.52445 0.13016,1.21941 0.0666,2.44636 -0.18883,3.6458 -0.25084,1.19527 -0.69266,2.34552 -1.30569,3.4078 -0.6084,1.05813 -1.38295,2.01539 -2.29091,2.83393 -0.90796,0.81854 -1.94011,1.49004 -3.06005,1.99003 -1.11992,0.5 -2.30966,0.82064 -3.52446,0.94665 -1.21941,0.13017 -2.44636,0.0666 -3.6458,-0.18882 -1.19528,-0.25084 -2.34553,-0.69267 -3.4078,-1.3057 -1.06229,-0.61301 -2.01956,-1.38755 -2.8381,-2.29551 -0.81854,-0.90796 -1.49005,-1.94011 -1.99004,-3.06005 -0.49999,-1.11993 -0.82064,-2.30965 -0.94665,-3.52445 -0.13017,-1.21941 -0.0666,-2.44636 0.18883,-3.64579 0.25084,-1.19528 0.69267,-2.34552 1.30569,-3.40781 0.61302,-1.06228 1.38757,-2.01954 2.29553,-2.83808 0.90795,-0.81854 1.9401,-1.49003 3.05543,-1.98588 1.11994,-0.5 2.30967,-0.82063 3.52447,-0.94664 1.21065,-0.13062 2.4376,-0.0671 3.62412,0.1833 z"
       id="path10-7" />
    <path
       style="fill:none;fill-rule:evenodd;stroke:#000000;stroke-width:0.26458332px;stroke-linecap:butt;stroke-linejoin:miter;stroke-opacity:1"
       d="M 7.7589979,254.13988 H 21.122473"
       id="path4245"
       inkscape:connector-curvature="0" />
    <path
       style="fill:none;fill-rule:evenodd;stroke:#000000;stroke-width:0.26458333;stroke-linecap:butt;stroke-linejoin:miter;stroke-opacity:1;stroke-miterlimit:4;stroke-dasharray:none"
       d="m 21.122473,254.13988 8.384306,6.14713"
       id="path4247"
       inkscape:connector-curvature="0" />
    <path
       style="display:inline;fill:none;fill-rule:evenodd;stroke:#000000;stroke-width:0.26458333;stroke-linecap:butt;stroke-linejoin:miter;stroke-opacity:1;stroke-miterlimit:4;stroke-dasharray:none"
       d="M 15.435576,245.39424 H 30.202217"
       id="path4245-5"
       inkscape:connector-curvature="0" />
    <path
       style="display:inline;fill:none;fill-rule:evenodd;stroke:#000000;stroke-width:0.26458333;stroke-linecap:butt;stroke-linejoin:miter;stroke-opacity:1;stroke-miterlimit:4;stroke-dasharray:none"
       d="m 30.202217,245.39424 5.982864,8.05691"
       id="path4247-3"
       inkscape:connector-curvature="0" />
    <path
       style="display:inline;fill:none;fill-rule:evenodd;stroke:#000000;stroke-width:0.26458332;stroke-linecap:butt;stroke-linejoin:miter;stroke-miterlimit:4;stroke-dasharray:none;stroke-opacity:1"
       d="M 1.9191037,289.3136 H 23.598056"
       id="path4245-56"
       inkscape:connector-curvature="0" />
    <path
       style="display:inline;fill:none;fill-rule:evenodd;stroke:#000000;stroke-width:0.26458332;stroke-linecap:butt;stroke-linejoin:miter;stroke-miterlimit:4;stroke-dasharray:none;stroke-opacity:1"
       d="m 23.598056,289.3136 6.313943,-3.54578"
       id="path4247-2"
       inkscape:connector-curvature="0" />
    <path
       style="display:inline;fill:none;fill-rule:evenodd;stroke:#000000;stroke-width:0.26458332;stroke-linecap:butt;stroke-linejoin:miter;stroke-miterlimit:4;stroke-dasharray:none;stroke-opacity:1"
       d="M 2.3392554,263.59412 H 22.695291"
       id="path4245-9"
       inkscape:connector-curvature="0" />
    <path
       style="display:inline;fill:none;fill-rule:evenodd;stroke:#000000;stroke-width:0.26458332;stroke-linecap:butt;stroke-linejoin:miter;stroke-miterlimit:4;stroke-dasharray:none;stroke-opacity:1"
       d="m 22.695291,263.59412 4.545648,1.37707"
       id="path4247-1"
       inkscape:connector-curvature="0" />
    <path
       style="display:inline;fill:none;fill-rule:evenodd;stroke:#000000;stroke-width:0.26458333;stroke-linecap:butt;stroke-linejoin:miter;stroke-opacity:1;stroke-miterlimit:4;stroke-dasharray:none"
       d="M 58.072732,246.56762 H 73.704066"
       id="path4245-2"
       inkscape:connector-curvature="0" />
    <path
       style="display:inline;fill:none;fill-rule:evenodd;stroke:#000000;stroke-width:0.26458333;stroke-linecap:butt;stroke-linejoin:miter;stroke-opacity:1;stroke-miterlimit:4;stroke-dasharray:none"
       d="m 58.072732,246.56762 -1.785853,3.9727"
       id="path4247-7"
       inkscape:connector-curvature="0" />
    <path
       style="display:inline;fill:none;fill-rule:evenodd;stroke:#000000;stroke-width:0.26458333;stroke-linecap:butt;stroke-linejoin:miter;stroke-miterlimit:4;stroke-dasharray:none;stroke-opacity:1"
       d="m 127.78949,245.40088 h 12.06348"
       id="path4245-0"
       inkscape:connector-curvature="0" />
    <path
       style="display:inline;fill:none;fill-rule:evenodd;stroke:#000000;stroke-width:0.26458333;stroke-linecap:butt;stroke-linejoin:miter;stroke-opacity:1;stroke-miterlimit:4;stroke-dasharray:none"
       d="m 127.78949,245.40088 -3.20558,5.40992"
       id="path4247-9"
       inkscape:connector-curvature="0" />
    <path
       style="display:inline;fill:none;fill-rule:evenodd;stroke:#000000;stroke-width:0.26458333;stroke-linecap:butt;stroke-linejoin:miter;stroke-miterlimit:4;stroke-dasharray:none;stroke-opacity:1"
       d="m 138.48894,254.17912 h 10.57253"
       id="path4245-3"
       inkscape:connector-curvature="0" />
    <path
       style="display:inline;fill:none;fill-rule:evenodd;stroke:#000000;stroke-width:0.26458333;stroke-linecap:butt;stroke-linejoin:miter;stroke-opacity:1;stroke-miterlimit:4;stroke-dasharray:none"
       d="m 138.48894,254.17912 -5.20733,1.85441"
       id="path4247-6"
       inkscape:connector-curvature="0" />
    <path
       style="display:inline;fill:none;fill-rule:evenodd;stroke:#000000;stroke-width:0.26458333;stroke-linecap:butt;stroke-linejoin:miter;stroke-miterlimit:4;stroke-dasharray:none;stroke-opacity:1"
       d="m 139.11072,291.95762 h 19.04294"
       id="path4245-06"
       inkscape:connector-curvature="0" />
    <path
       style="display:inline;fill:none;fill-rule:evenodd;stroke:#000000;stroke-width:0.26458333;stroke-linecap:butt;stroke-linejoin:miter;stroke-opacity:1;stroke-miterlimit:4;stroke-dasharray:none"
       d="m 134.79408,287.97611 4.31664,3.98151"
       id="path4247-26"
       inkscape:connector-curvature="0" />
    <path
       style="display:inline;fill:none;fill-rule:evenodd;stroke:#000000;stroke-width:0.26458333;stroke-linecap:butt;stroke-linejoin:miter;stroke-miterlimit:4;stroke-dasharray:none;stroke-opacity:1"
       d="m 74.677995,284.5263 h 19.07226"
       id="path4245-1"
       inkscape:connector-curvature="0" />
    <path
       style="display:inline;fill:none;fill-rule:evenodd;stroke:#000000;stroke-width:0.26458333;stroke-linecap:butt;stroke-linejoin:miter;stroke-opacity:1;stroke-miterlimit:4;stroke-dasharray:none"
       d="m 70.37249,282.61039 4.305505,1.91591"
       id="path4247-8"
       inkscape:connector-curvature="0" />
    <path
       style="display:inline;fill:none;fill-rule:evenodd;stroke:#000000;stroke-width:0.26458333;stroke-linecap:butt;stroke-linejoin:miter;stroke-miterlimit:4;stroke-dasharray:0.26458333,0.52916667;stroke-dashoffset:0;stroke-opacity:1"
       d="m 65.807987,289.20705 46.387133,6.40782"
       id="path4247-8-5"
       inkscape:connector-curvature="0" />
    <path
       style="display:inline;fill:none;fill-rule:evenodd;stroke:#000000;stroke-width:0.26458333;stroke-linecap:butt;stroke-linejoin:miter;stroke-miterlimit:4;stroke-dasharray:0.26458333,0.52916667;stroke-dashoffset:0;stroke-opacity:1"
       d="m 67.790359,258.31711 46.265851,-8.78837"
       id="path4247-8-5-4"
       inkscape:connector-curvature="0" />
  </g>
  <g
     inkscape:groupmode="layer"
     id="layer4"
     inkscape:label="text"
     style="display:inline">
    <text
       xml:space="preserve"
       style="font-style:normal;font-weight:normal;font-size:10.58333302px;line-height:125%;font-family:sans-serif;letter-spacing:0px;word-spacing:0px;fill:#000000;fill-opacity:1;stroke:none;stroke-width:0.26458332px;stroke-linecap:butt;stroke-linejoin:miter;stroke-opacity:1"
       x="18.391891"
       y="8.1997156"
       id="text4251"><tspan
         sodipodi:role="line"
         id="tspan4249"
         x="18.391891"
         y="8.1997156"
         style="font-size:3.52777767px;stroke-width:0.26458332px">8%</tspan></text>
    <text
       xml:space="preserve"
       style="font-style:normal;font-weight:normal;font-size:10.58333302px;line-height:125%;font-family:sans-serif;letter-spacing:0px;word-spacing:0px;fill:#000000;fill-opacity:1;stroke:none;stroke-width:0.26458332px;stroke-linecap:butt;stroke-linejoin:miter;stroke-opacity:1"
       x="15.089767"
       y="3.2700279"
       id="text4251-7"><tspan
         sodipodi:role="line"
         id="tspan4249-9"
         x="15.089767"
         y="3.2700279"
         style="font-size:3.52777767px;stroke-width:0.26458332px">Energia</tspan></text>
    <text
       xml:space="preserve"
       style="font-style:normal;font-weight:normal;font-size:10.58333302px;line-height:125%;font-family:sans-serif;letter-spacing:0px;word-spacing:0px;fill:#000000;fill-opacity:1;stroke:none;stroke-width:0.26458332px;stroke-linecap:butt;stroke-linejoin:miter;stroke-opacity:1"
       x="7.5609069"
       y="12.693283"
       id="text4251-2"><tspan
         sodipodi:role="line"
         id="tspan4249-0"
         x="7.5609069"
         y="12.693283"
         style="font-size:3.52777767px;stroke-width:0.26458332px">Outros</tspan></text>
    <text
       xml:space="preserve"
       style="font-style:normal;font-weight:normal;font-size:10.58333302px;line-height:125%;font-family:sans-serif;letter-spacing:0px;word-spacing:0px;fill:#000000;fill-opacity:1;stroke:none;stroke-width:0.26458332px;stroke-linecap:butt;stroke-linejoin:miter;stroke-opacity:1"
       x="10.026734"
       y="16.944715"
       id="text4251-23"><tspan
         sodipodi:role="line"
         id="tspan4249-7"
         x="10.026734"
         y="16.944715"
         style="font-size:3.52777767px;stroke-width:0.26458332px">5%</tspan></text>
    <text
       xml:space="preserve"
       style="font-style:normal;font-weight:normal;font-size:10.58333302px;line-height:125%;font-family:sans-serif;letter-spacing:0px;word-spacing:0px;fill:#000000;fill-opacity:1;stroke:none;stroke-width:0.26458332px;stroke-linecap:butt;stroke-linejoin:miter;stroke-opacity:1"
       x="1.6123865"
       y="47.902546"
       id="text4251-5"><tspan
         sodipodi:role="line"
         id="tspan4249-92"
         x="1.6123865"
         y="47.902546"
         style="font-size:3.52777767px;stroke-width:0.26458332px">Uso da terra</tspan></text>
    <text
       xml:space="preserve"
       style="font-style:normal;font-weight:normal;font-size:10.58333302px;line-height:125%;font-family:sans-serif;letter-spacing:0px;word-spacing:0px;fill:#000000;fill-opacity:1;stroke:none;stroke-width:0.26458332px;stroke-linecap:butt;stroke-linejoin:miter;stroke-opacity:1"
       x="7.9944258"
       y="52.118717"
       id="text4251-28"><tspan
         sodipodi:role="line"
         id="tspan4249-97"
         x="7.9944258"
         y="52.118717"
         style="font-size:3.52777767px;stroke-width:0.26458332px">42%</tspan></text>
    <text
       xml:space="preserve"
       style="font-style:normal;font-weight:normal;font-size:10.58333302px;line-height:125%;font-family:sans-serif;letter-spacing:0px;word-spacing:0px;fill:#000000;fill-opacity:1;stroke:none;stroke-width:0.26458332px;stroke-linecap:butt;stroke-linejoin:miter;stroke-opacity:1"
       x="2.3114393"
       y="21.494696"
       id="text4251-3"><tspan
         sodipodi:role="line"
         id="tspan4249-6"
         x="2.3114393"
         y="21.494696"
         style="font-size:3.52777767px;stroke-width:0.26458332px">Agricultura</tspan></text>
    <text
       xml:space="preserve"
       style="font-style:normal;font-weight:normal;font-size:10.58333302px;line-height:125%;font-family:sans-serif;letter-spacing:0px;word-spacing:0px;fill:#000000;fill-opacity:1;stroke:none;stroke-width:0.26458332px;stroke-linecap:butt;stroke-linejoin:miter;stroke-opacity:1"
       x="8.4798822"
       y="26.398716"
       id="text4251-1"><tspan
         sodipodi:role="line"
         id="tspan4249-2"
         x="8.4798822"
         y="26.398716"
         style="font-size:3.52777767px;stroke-width:0.26458332px">2%</tspan></text>
    <text
       xml:space="preserve"
       style="font-style:normal;font-weight:normal;font-size:10.58333302px;line-height:125%;font-family:sans-serif;letter-spacing:0px;word-spacing:0px;fill:#000000;fill-opacity:1;stroke:none;stroke-width:0.26458332px;stroke-linecap:butt;stroke-linejoin:miter;stroke-opacity:1"
       x="57.726768"
       y="5.1348796"
       id="text4251-9"><tspan
         sodipodi:role="line"
         id="tspan4249-3"
         x="57.726768"
         y="5.1348796"
         style="font-size:3.52777767px;stroke-width:0.26458332px">Indústria</tspan></text>
    <text
       xml:space="preserve"
       style="font-style:normal;font-weight:normal;font-size:10.58333302px;line-height:125%;font-family:sans-serif;letter-spacing:0px;word-spacing:0px;fill:#000000;fill-opacity:1;stroke:none;stroke-width:0.26458332px;stroke-linecap:butt;stroke-linejoin:miter;stroke-opacity:1"
       x="60.978077"
       y="9.372716"
       id="text4251-19"><tspan
         sodipodi:role="line"
         id="tspan4249-4"
         x="60.978077"
         y="9.372716"
         style="font-size:3.52777767px;stroke-width:0.26458332px">20%</tspan></text>
    <text
       xml:space="preserve"
       style="font-style:normal;font-weight:normal;font-size:10.58333302px;line-height:125%;font-family:sans-serif;letter-spacing:0px;word-spacing:0px;fill:#000000;fill-opacity:1;stroke:none;stroke-width:0.26458332px;stroke-linecap:butt;stroke-linejoin:miter;stroke-opacity:1"
       x="74.688332"
       y="42.396027"
       id="text4251-78"><tspan
         sodipodi:role="line"
         id="tspan4249-45"
         x="74.688332"
         y="42.396027"
         style="font-size:3.52777767px;stroke-width:0.26458332px">Transporte</tspan></text>
    <text
       xml:space="preserve"
       style="font-style:normal;font-weight:normal;font-size:10.58333302px;line-height:125%;font-family:sans-serif;letter-spacing:0px;word-spacing:0px;fill:#000000;fill-opacity:1;stroke:none;stroke-width:0.26458332px;stroke-linecap:butt;stroke-linejoin:miter;stroke-opacity:1"
       x="79.409836"
       y="47.331715"
       id="text4251-0"><tspan
         sodipodi:role="line"
         id="tspan4249-36"
         x="79.409836"
         y="47.331715"
         style="font-size:3.52777767px;stroke-width:0.26458332px">23%</tspan></text>
    <text
       xml:space="preserve"
       style="font-style:normal;font-weight:normal;font-size:10.58333302px;line-height:125%;font-family:sans-serif;letter-spacing:0px;word-spacing:0px;fill:#000000;fill-opacity:1;stroke:none;stroke-width:0.26458332px;stroke-linecap:butt;stroke-linejoin:miter;stroke-opacity:1"
       x="127.5909"
       y="3.9538794"
       id="text4251-10"><tspan
         sodipodi:role="line"
         id="tspan4249-63"
         x="127.5909"
         y="3.9538794"
         style="font-size:3.52777767px;stroke-width:0.26458332px">Outros</tspan></text>
    <text
       xml:space="preserve"
       style="font-style:normal;font-weight:normal;font-size:10.58333302px;line-height:125%;font-family:sans-serif;letter-spacing:0px;word-spacing:0px;fill:#000000;fill-opacity:1;stroke:none;stroke-width:0.26458332px;stroke-linecap:butt;stroke-linejoin:miter;stroke-opacity:1"
       x="130.10667"
       y="8.2057161"
       id="text4251-20"><tspan
         sodipodi:role="line"
         id="tspan4249-61"
         x="130.10667"
         y="8.2057161"
         style="font-size:3.52777767px;stroke-width:0.26458332px">4%</tspan></text>
    <text
       xml:space="preserve"
       style="font-style:normal;font-weight:normal;font-size:10.58333302px;line-height:125%;font-family:sans-serif;letter-spacing:0px;word-spacing:0px;fill:#000000;fill-opacity:1;stroke:none;stroke-width:0.26458332px;stroke-linecap:butt;stroke-linejoin:miter;stroke-opacity:1"
       x="138.46159"
       y="12.732046"
       id="text4251-55"><tspan
         sodipodi:role="line"
         id="tspan4249-47"
         x="138.46159"
         y="12.732046"
         style="font-size:3.52777767px;stroke-width:0.26458332px">Aéreo</tspan></text>
    <text
       xml:space="preserve"
       style="font-style:normal;font-weight:normal;font-size:10.58333302px;line-height:125%;font-family:sans-serif;letter-spacing:0px;word-spacing:0px;fill:#000000;fill-opacity:1;stroke:none;stroke-width:0.26458332px;stroke-linecap:butt;stroke-linejoin:miter;stroke-opacity:1"
       x="140.07132"
       y="16.983715"
       id="text4251-6"><tspan
         sodipodi:role="line"
         id="tspan4249-5"
         x="140.07132"
         y="16.983715"
         style="font-size:3.52777767px;stroke-width:0.26458332px">6%</tspan></text>
    <text
       xml:space="preserve"
       style="font-style:normal;font-weight:normal;font-size:10.58333302px;line-height:125%;font-family:sans-serif;letter-spacing:0px;word-spacing:0px;fill:#000000;fill-opacity:1;stroke:none;stroke-width:0.26458332px;stroke-linecap:butt;stroke-linejoin:miter;stroke-opacity:1"
       x="138.76477"
       y="50.51088"
       id="text4251-69"><tspan
         sodipodi:role="line"
         id="tspan4249-37"
         x="138.76477"
         y="50.51088"
         style="font-size:3.52777767px;stroke-width:0.26458332px">Rodoviário</tspan></text>
    <text
       xml:space="preserve"
       style="font-style:normal;font-weight:normal;font-size:10.58333302px;line-height:125%;font-family:sans-serif;letter-spacing:0px;word-spacing:0px;fill:#000000;fill-opacity:1;stroke:none;stroke-width:0.26458332px;stroke-linecap:butt;stroke-linejoin:miter;stroke-opacity:1"
       x="143.64302"
       y="54.762714"
       id="text4251-4"><tspan
         sodipodi:role="line"
         id="tspan4249-52"
         x="143.64302"
         y="54.762714"
         style="font-size:3.52777767px;stroke-width:0.26458332px">90%</tspan></text>
    <text
       xml:space="preserve"
       style="font-style:normal;font-weight:normal;font-size:10.58333302px;line-height:125%;font-family:sans-serif;letter-spacing:0px;word-spacing:0px;display:inline;fill:#000000;fill-opacity:1;stroke:none;stroke-width:0.26458332px;stroke-linecap:butt;stroke-linejoin:miter;stroke-opacity:1"
       x="45.757816"
       y="33.044121"
       id="text4251-9-0"><tspan
         sodipodi:role="line"
         id="tspan4249-3-7"
         x="45.757816"
         y="33.044121"
         style="font-size:3.52777767px;stroke-width:0.26458332px">CO<tspan
   style="font-size:64.99999762%;baseline-shift:sub"
   id="tspan882">2</tspan></tspan></text>
    <text
       xml:space="preserve"
       style="font-style:normal;font-weight:normal;font-size:10.58333302px;line-height:125%;font-family:sans-serif;letter-spacing:0px;word-spacing:0px;display:inline;fill:#000000;fill-opacity:1;stroke:none;stroke-width:0.26458332px;stroke-linecap:butt;stroke-linejoin:miter;stroke-opacity:1"
       x="113.56784"
       y="33.044121"
       id="text4251-9-0-8"><tspan
         sodipodi:role="line"
         id="tspan4249-3-7-6"
         x="113.56784"
         y="33.044121"
         style="font-size:3.52777767px;stroke-width:0.26458332px">CO<tspan
   style="font-size:64.99999762%;baseline-shift:sub"
   id="tspan884">2</tspan></tspan></text>
  </g>
</svg>
