<?xml version="1.0" encoding="UTF-8" standalone="no"?>
<!-- Created with Inkscape (http://www.inkscape.org/) -->

<svg
   xmlns:ns1="http://wanglongqi.github.io/WriteTeX"
   xmlns:dc="http://purl.org/dc/elements/1.1/"
   xmlns:cc="http://creativecommons.org/ns#"
   xmlns:rdf="http://www.w3.org/1999/02/22-rdf-syntax-ns#"
   xmlns:svg="http://www.w3.org/2000/svg"
   xmlns="http://www.w3.org/2000/svg"
   xmlns:sodipodi="http://sodipodi.sourceforge.net/DTD/sodipodi-0.dtd"
   xmlns:inkscape="http://www.inkscape.org/namespaces/inkscape"
   width="415.74805"
   height="245.08444"
   id="svg3209"
   version="1.1"
   inkscape:version="0.92.3 (unknown)"
   sodipodi:docname="modelVehicle.svg">
  <sodipodi:namedview
     id="base"
     pagecolor="#ffffff"
     bordercolor="#666666"
     borderopacity="1.0"
     inkscape:pageopacity="0.0"
     inkscape:pageshadow="2"
     inkscape:zoom="1.4142136"
     inkscape:cx="234.1521"
     inkscape:cy="34.30126"
     inkscape:document-units="px"
     inkscape:current-layer="layer1"
     showgrid="false"
     inkscape:window-width="1920"
     inkscape:window-height="1025"
     inkscape:window-x="0"
     inkscape:window-y="27"
     inkscape:window-maximized="1"
     fit-margin-top="0"
     fit-margin-left="0"
     fit-margin-right="0"
     fit-margin-bottom="0" />
  <defs
     id="defs3211">
    <marker
       style="overflow:visible"
       id="Arrow1Mend"
       refX="0"
       refY="0"
       orient="auto"
       inkscape:stockid="Arrow1Mend">
      <path
         inkscape:connector-curvature="0"
         transform="matrix(-0.4,0,0,-0.4,-4,0)"
         style="fill-rule:evenodd;stroke:#000000;stroke-width:1.00000003pt"
         d="M 0,0 5,-5 -12.5,0 5,5 Z"
         id="path5572" />
    </marker>
    <marker
       style="overflow:visible"
       id="Arrow1Send"
       refX="0"
       refY="0"
       orient="auto"
       inkscape:stockid="Arrow1Send">
      <path
         inkscape:connector-curvature="0"
         transform="matrix(-0.2,0,0,-0.2,-1.2,0)"
         style="fill-rule:evenodd;stroke:#000000;stroke-width:1.00000003pt"
         d="M 0,0 5,-5 -12.5,0 5,5 Z"
         id="path5578" />
    </marker>
    <marker
       style="overflow:visible"
       id="Arrow1Lend"
       refX="0"
       refY="0"
       orient="auto"
       inkscape:stockid="Arrow1Lend">
      <path
         inkscape:connector-curvature="0"
         transform="matrix(-0.8,0,0,-0.8,-10,0)"
         style="fill-rule:evenodd;stroke:#000000;stroke-width:1.00000003pt"
         d="M 0,0 5,-5 -12.5,0 5,5 Z"
         id="path5566" />
    </marker>
    <marker
       style="overflow:visible"
       id="Arrow1Mend-0"
       refX="0"
       refY="0"
       orient="auto"
       inkscape:stockid="Arrow1Mend">
      <path
         transform="matrix(-0.4,0,0,-0.4,-4,0)"
         style="fill-rule:evenodd;stroke:#000000;stroke-width:1.00000003pt"
         d="M 0,0 5,-5 -12.5,0 5,5 Z"
         id="path5572-6"
         inkscape:connector-curvature="0" />
    </marker>
    <marker
       style="overflow:visible"
       id="Arrow1Mend-6"
       refX="0"
       refY="0"
       orient="auto"
       inkscape:stockid="Arrow1Mend">
      <path
         transform="matrix(-0.4,0,0,-0.4,-4,0)"
         style="fill-rule:evenodd;stroke:#000000;stroke-width:1.00000003pt"
         d="M 0,0 5,-5 -12.5,0 5,5 Z"
         id="path5572-1"
         inkscape:connector-curvature="0" />
    </marker>
    <marker
       style="overflow:visible"
       id="Arrow1Mend-7"
       refX="0"
       refY="0"
       orient="auto"
       inkscape:stockid="Arrow1Mend">
      <path
         transform="matrix(-0.4,0,0,-0.4,-4,0)"
         style="fill-rule:evenodd;stroke:#000000;stroke-width:1.00000003pt"
         d="M 0,0 5,-5 -12.5,0 5,5 Z"
         id="path5572-9"
         inkscape:connector-curvature="0" />
    </marker>
    <marker
       style="overflow:visible"
       id="Arrow1Mend-3"
       refX="0"
       refY="0"
       orient="auto"
       inkscape:stockid="Arrow1Mend">
      <path
         inkscape:connector-curvature="0"
         transform="matrix(-0.4,0,0,-0.4,-4,0)"
         style="fill-rule:evenodd;stroke:#000000;stroke-width:1.00000003pt"
         d="M 0,0 5,-5 -12.5,0 5,5 Z"
         id="path5572-67" />
    </marker>
    <marker
       style="overflow:visible"
       id="Arrow1Mend-36"
       refX="0"
       refY="0"
       orient="auto"
       inkscape:stockid="Arrow1Mend">
      <path
         inkscape:connector-curvature="0"
         transform="matrix(-0.4,0,0,-0.4,-4,0)"
         style="fill-rule:evenodd;stroke:#000000;stroke-width:1.00000003pt"
         d="M 0,0 5,-5 -12.5,0 5,5 Z"
         id="path5572-7" />
    </marker>
    <marker
       style="overflow:visible"
       id="Arrow1Mend-36-3"
       refX="0"
       refY="0"
       orient="auto"
       inkscape:stockid="Arrow1Mend">
      <path
         inkscape:connector-curvature="0"
         transform="matrix(-0.4,0,0,-0.4,-4,0)"
         style="fill-rule:evenodd;stroke:#000000;stroke-width:1.00000003pt"
         d="M 0,0 5,-5 -12.5,0 5,5 Z"
         id="path5572-7-5" />
    </marker>
    <marker
       style="overflow:visible"
       id="Arrow1Mend-9"
       refX="0"
       refY="0"
       orient="auto"
       inkscape:stockid="Arrow1Mend">
      <path
         inkscape:connector-curvature="0"
         transform="matrix(-0.4,0,0,-0.4,-4,0)"
         style="fill-rule:evenodd;stroke:#000000;stroke-width:1.00000003pt"
         d="M 0,0 5,-5 -12.5,0 5,5 Z"
         id="path5572-12" />
    </marker>
    <marker
       style="overflow:visible"
       id="Arrow1Mend-09"
       refX="0"
       refY="0"
       orient="auto"
       inkscape:stockid="Arrow1Mend">
      <path
         inkscape:connector-curvature="0"
         transform="matrix(-0.4,0,0,-0.4,-4,0)"
         style="fill-rule:evenodd;stroke:#000000;stroke-width:1.00000003pt"
         d="M 0,0 5,-5 -12.5,0 5,5 Z"
         id="path5572-3" />
    </marker>
    <marker
       style="overflow:visible"
       id="Arrow1Mend-06"
       refX="0"
       refY="0"
       orient="auto"
       inkscape:stockid="Arrow1Mend">
      <path
         inkscape:connector-curvature="0"
         transform="matrix(-0.4,0,0,-0.4,-4,0)"
         style="fill-rule:evenodd;stroke:#000000;stroke-width:1.00000003pt"
         d="M 0,0 5,-5 -12.5,0 5,5 Z"
         id="path5572-2" />
    </marker>
    <marker
       style="overflow:visible"
       id="Arrow1Mend-9-8"
       refX="0"
       refY="0"
       orient="auto"
       inkscape:stockid="Arrow1Mend">
      <path
         inkscape:connector-curvature="0"
         transform="matrix(-0.4,0,0,-0.4,-4,0)"
         style="fill-rule:evenodd;stroke:#000000;stroke-width:1.00000003pt"
         d="M 0,0 5,-5 -12.5,0 5,5 Z"
         id="path5572-12-7" />
    </marker>
    <marker
       style="overflow:visible"
       id="Arrow1Mend-9-2"
       refX="0"
       refY="0"
       orient="auto"
       inkscape:stockid="Arrow1Mend">
      <path
         inkscape:connector-curvature="0"
         transform="matrix(-0.4,0,0,-0.4,-4,0)"
         style="fill-rule:evenodd;stroke:#000000;stroke-width:1.00000003pt"
         d="M 0,0 5,-5 -12.5,0 5,5 Z"
         id="path5572-12-0" />
    </marker>
    <marker
       style="overflow:visible"
       id="Arrow1Mend-37"
       refX="0"
       refY="0"
       orient="auto"
       inkscape:stockid="Arrow1Mend">
      <path
         inkscape:connector-curvature="0"
         transform="matrix(-0.4,0,0,-0.4,-4,0)"
         style="fill-rule:evenodd;stroke:#000000;stroke-width:1.00000003pt"
         d="M 0,0 5,-5 -12.5,0 5,5 Z"
         id="path5572-5" />
    </marker>
    <marker
       style="overflow:visible"
       id="Arrow1Mend-37-2"
       refX="0"
       refY="0"
       orient="auto"
       inkscape:stockid="Arrow1Mend">
      <path
         inkscape:connector-curvature="0"
         transform="matrix(-0.4,0,0,-0.4,-4,0)"
         style="fill-rule:evenodd;stroke:#000000;stroke-width:1.00000003pt"
         d="M 0,0 5,-5 -12.5,0 5,5 Z"
         id="path5572-5-2" />
    </marker>
    <marker
       style="overflow:visible"
       id="Arrow1Mend-97"
       refX="0"
       refY="0"
       orient="auto"
       inkscape:stockid="Arrow1Mend">
      <path
         inkscape:connector-curvature="0"
         transform="matrix(-0.4,0,0,-0.4,-4,0)"
         style="fill-rule:evenodd;stroke:#000000;stroke-width:1.00000003pt"
         d="M 0,0 5,-5 -12.5,0 5,5 Z"
         id="path5572-36" />
    </marker>
    <marker
       style="overflow:visible"
       id="Arrow1Mend-2"
       refX="0"
       refY="0"
       orient="auto"
       inkscape:stockid="Arrow1Mend">
      <path
         inkscape:connector-curvature="0"
         transform="matrix(-0.4,0,0,-0.4,-4,0)"
         style="fill-rule:evenodd;stroke:#000000;stroke-width:1.00000003pt"
         d="M 0,0 5,-5 -12.5,0 5,5 Z"
         id="path5572-93" />
    </marker>
    <marker
       style="overflow:visible"
       id="Arrow1Mend-37-2-1"
       refX="0"
       refY="0"
       orient="auto"
       inkscape:stockid="Arrow1Mend">
      <path
         inkscape:connector-curvature="0"
         transform="matrix(-0.4,0,0,-0.4,-4,0)"
         style="fill-rule:evenodd;stroke:#000000;stroke-width:1.00000003pt"
         d="M 0,0 5,-5 -12.5,0 5,5 Z"
         id="path5572-5-2-5" />
    </marker>
    <marker
       style="overflow:visible"
       id="Arrow1Mend-97-6"
       refX="0"
       refY="0"
       orient="auto"
       inkscape:stockid="Arrow1Mend">
      <path
         inkscape:connector-curvature="0"
         transform="matrix(-0.4,0,0,-0.4,-4,0)"
         style="fill-rule:evenodd;stroke:#000000;stroke-width:1.00000003pt"
         d="M 0,0 5,-5 -12.5,0 5,5 Z"
         id="path5572-36-9" />
    </marker>
    <marker
       style="overflow:visible"
       id="Arrow1Mend-2-7"
       refX="0"
       refY="0"
       orient="auto"
       inkscape:stockid="Arrow1Mend">
      <path
         inkscape:connector-curvature="0"
         transform="matrix(-0.4,0,0,-0.4,-4,0)"
         style="fill-rule:evenodd;stroke:#000000;stroke-width:1.00000003pt"
         d="M 0,0 5,-5 -12.5,0 5,5 Z"
         id="path5572-93-4" />
    </marker>
    <marker
       style="overflow:visible"
       id="Arrow1Mend-97-6-3"
       refX="0"
       refY="0"
       orient="auto"
       inkscape:stockid="Arrow1Mend">
      <path
         inkscape:connector-curvature="0"
         transform="matrix(-0.4,0,0,-0.4,-4,0)"
         style="fill-rule:evenodd;stroke:#000000;stroke-width:1.00000003pt"
         d="M 0,0 5,-5 -12.5,0 5,5 Z"
         id="path5572-36-9-6" />
    </marker>
    <marker
       style="overflow:visible"
       id="Arrow1Mend-97-6-3-5"
       refX="0"
       refY="0"
       orient="auto"
       inkscape:stockid="Arrow1Mend">
      <path
         inkscape:connector-curvature="0"
         transform="matrix(-0.4,0,0,-0.4,-4,0)"
         style="fill-rule:evenodd;stroke:#000000;stroke-width:1.00000003pt"
         d="M 0,0 5,-5 -12.5,0 5,5 Z"
         id="path5572-36-9-6-3" />
    </marker>
  </defs>
  <metadata
     id="metadata3214">
    <rdf:RDF>
      <cc:Work
         rdf:about="">
        <dc:format>image/svg+xml</dc:format>
        <dc:type
           rdf:resource="http://purl.org/dc/dcmitype/StillImage" />
        <dc:title></dc:title>
      </cc:Work>
    </rdf:RDF>
  </metadata>
  <g
     transform="translate(-119.064,-270.22368)"
     id="layer1"
     inkscape:groupmode="layer"
     inkscape:label="Layer 1">
    <path
       inkscape:connector-curvature="0"
       id="path28"
       style="fill:none;stroke:#000000;stroke-width:0.7193597;stroke-linecap:round;stroke-linejoin:miter;stroke-miterlimit:10;stroke-dasharray:none;stroke-opacity:1"
       d="m 272.84271,430.84164 -110.62254,29.64948 -1.95558,-7.29565 110.62257,-29.6494 1.95559,7.29563 z" />
    <path
       inkscape:connector-curvature="0"
       id="path30"
       style="fill:#000000;fill-opacity:1;fill-rule:evenodd;stroke:none;stroke-width:0.87219119"
       d="m 470.031,381.73686 -0.65695,-3.12712 0.47635,-2.73183 1.01882,-2.70603 1.534,-2.67459 2.09361,-1.95174 2.65272,-1.75332 3.11215,-1.35241 3.21412,-0.34318 3.10012,-0.13038 3.18746,0.87812 2.74956,1.17567 2.06588,1.87928 2.03891,2.40851 1.06583,2.66671 0.6966,2.59707 -0.4448,2.90328 -1.00808,2.70428 -1.54472,2.67632 -1.94967,2.43492 -2.86909,1.6291 -2.79463,1.27078 -3.24073,0.86891 -3.21734,-0.34865 -3.11626,-0.55885 -2.83703,-1.50189 -2.46438,-1.42275 -1.86602,-2.4514 -0.90831,-2.71124 -0.0877,-0.32731" />
    <path
       inkscape:connector-curvature="0"
       id="path32"
       style="fill:none;stroke:#000000;stroke-width:0.7193597;stroke-linecap:round;stroke-linejoin:round;stroke-miterlimit:10;stroke-dasharray:none;stroke-opacity:1"
       d="m 470.031,381.73685 -0.65695,-3.12712 0.47635,-2.73183 1.01882,-2.70603 1.534,-2.67459 2.0936,-1.95173 2.65273,-1.75333 3.11215,-1.35241 3.21411,-0.34318 3.10013,-0.13038 3.18746,0.87812 2.74955,1.17567 2.06588,1.87928 2.03892,2.40851 1.06583,2.66671 0.6966,2.59708 -0.44481,2.90327 -1.00807,2.70428 -1.54472,2.67632 -1.94968,2.43492 -2.86908,1.6291 -2.79463,1.27079 -3.24074,0.8689 -3.21733,-0.34865 -3.11626,-0.55885 -2.83703,-1.50189 -2.46439,-1.42275 -1.86601,-2.45139 -0.9083,-2.71124 -0.0877,-0.32732" />
    <path
       inkscape:connector-curvature="0"
       id="path34"
       style="fill:none;stroke:#ffffff;stroke-width:0.7193597;stroke-linecap:round;stroke-linejoin:round;stroke-miterlimit:10;stroke-dasharray:none;stroke-opacity:1"
       d="m 475.99593,379.95941 -0.20462,-2.02525 0.24741,-2.33178 1.14573,-2.21972 1.84354,-1.53387 2.26469,-1.29965 2.10077,-0.56246 2.44443,0.0375 2.13155,0.81929 2.01777,1.02098 1.7081,1.8077 0.52072,1.94049 0.23931,2.20135 -0.73695,2.44857 -0.81975,2.13085 -1.72553,1.33511 -2.26297,1.30701 -2.51746,0.32508 -2.0743,0.034 -2.09038,-0.66169 -2.10252,-1.34911 -1.65083,-1.64081 -0.47873,-1.78315" />
    <path
       inkscape:connector-curvature="0"
       id="path36"
       style="fill:#000000;fill-opacity:1;fill-rule:evenodd;stroke:none;stroke-width:0.87219119"
       d="m 470.031,381.73686 -0.65695,-3.12712 0.47635,-2.73183 1.01882,-2.70603 1.534,-2.67459 2.09361,-1.95174 2.65272,-1.75332 3.11215,-1.35241 3.21412,-0.34318 3.10012,-0.13038 3.18746,0.87812 2.74956,1.17567 2.06588,1.87928 2.03891,2.40851 1.06583,2.66671 0.6966,2.59707 -0.4448,2.90328 -1.00808,2.70428 -1.54472,2.67632 -1.94967,2.43492 -2.86909,1.6291 -2.79463,1.27078 -3.24073,0.86891 -3.21734,-0.34865 -3.11626,-0.55885 -2.83703,-1.50189 -2.46438,-1.42275 -1.86602,-2.4514 -0.90831,-2.71124 -0.0877,-0.32731" />
    <path
       inkscape:connector-curvature="0"
       id="path38"
       style="fill:none;stroke:#000000;stroke-width:0.7193597;stroke-linecap:round;stroke-linejoin:round;stroke-miterlimit:10;stroke-dasharray:none;stroke-opacity:1"
       d="m 470.031,381.73685 -0.65695,-3.12712 0.47635,-2.73183 1.01882,-2.70603 1.534,-2.67459 2.0936,-1.95173 2.65273,-1.75333 3.11215,-1.35241 3.21411,-0.34318 3.10013,-0.13038 3.18746,0.87812 2.74955,1.17567 2.06588,1.87928 2.03892,2.40851 1.06583,2.66671 0.6966,2.59708 -0.44481,2.90327 -1.00807,2.70428 -1.54472,2.67632 -1.94968,2.43492 -2.86908,1.6291 -2.79463,1.27079 -3.24074,0.8689 -3.21733,-0.34865 -3.11626,-0.55885 -2.83703,-1.50189 -2.46439,-1.42275 -1.86601,-2.45139 -0.9083,-2.71124 -0.0877,-0.32732" />
    <path
       inkscape:connector-curvature="0"
       id="path40"
       style="fill:#ffffff;fill-opacity:1;fill-rule:evenodd;stroke:none;stroke-width:0.87219119"
       d="m 523.76407,371.41095 -3.56822,0.95617 -1.30463,-4.86851 3.38202,-0.38471 1.49139,4.2967" />
    <path
       inkscape:connector-curvature="0"
       id="path42"
       style="fill:none;stroke:#000000;stroke-width:0.7193597;stroke-linecap:round;stroke-linejoin:round;stroke-miterlimit:10;stroke-dasharray:none;stroke-opacity:1"
       d="m 523.76406,371.41094 -3.56822,0.95617 -1.30462,-4.86851 3.38202,-0.38471 1.49138,4.29671" />
    <path
       inkscape:connector-curvature="0"
       id="path44"
       style="fill:#ffffff;fill-opacity:1;fill-rule:evenodd;stroke:none;stroke-width:0.87219119"
       d="m 520.44623,367.43289 1.38962,5.18406 -14.38809,4.72781 -3.24571,-4.34711 1.63789,-1.64994 14.60597,-3.91518" />
    <path
       inkscape:connector-curvature="0"
       id="path46"
       style="fill:none;stroke:#000000;stroke-width:0.7193597;stroke-linecap:round;stroke-linejoin:round;stroke-miterlimit:10;stroke-dasharray:none;stroke-opacity:1"
       d="m 520.44622,367.43288 1.38963,5.18406 -14.38809,4.72781 -3.24572,-4.3471 1.63789,-1.64995 14.60598,-3.91517" />
    <path
       inkscape:connector-curvature="0"
       id="path48"
       style="fill:#ffffff;fill-opacity:1;fill-rule:evenodd;stroke:none;stroke-width:0.87219119"
       d="m 521.41662,367.17279 5.18486,-1.38964 1.76025,0.73917 -1.958,4.34859 -3.59723,1.48592 -1.38964,-5.18409" />
    <path
       sodipodi:nodetypes="cccccc"
       inkscape:connector-curvature="0"
       id="path50"
       style="fill:none;stroke:#000000;stroke-width:0.7193597;stroke-linecap:round;stroke-linejoin:round;stroke-miterlimit:10;stroke-dasharray:none;stroke-opacity:1"
       d="m 521.41662,367.17278 5.18486,-1.38964 1.76025,0.73917 -1.958,4.34859 -3.59724,1.48592 -1.38964,-5.18409" />
    <path
       inkscape:connector-curvature="0"
       id="path52"
       style="fill:#ffffff;fill-opacity:1;fill-rule:evenodd;stroke:none;stroke-width:0.87219119"
       d="m 309.87458,419.17453 -0.18499,3.87341 -3.88701,1.04202 -1.17485,-4.38151 5.24678,-0.53369" />
    <path
       inkscape:connector-curvature="0"
       id="path54"
       style="fill:none;stroke:#000000;stroke-width:0.7193597;stroke-linecap:round;stroke-linejoin:round;stroke-miterlimit:10;stroke-dasharray:none;stroke-opacity:1"
       d="m 309.87458,419.17452 -0.18499,3.8734 -3.88701,1.04202 -1.17485,-4.38152 5.24677,-0.53368" />
    <path
       inkscape:connector-curvature="0"
       id="path56"
       style="fill:#ffffff;fill-opacity:1;fill-rule:nonzero;stroke:none;stroke-width:0.87219119"
       d="m 358.79751,414.93312 -47.84543,12.82375 -2.43687,-9.09048 47.84543,-12.82374 2.43686,9.09045 z" />
    <path
       inkscape:connector-curvature="0"
       id="path58"
       style="fill:none;stroke:#000000;stroke-width:0.7193597;stroke-linecap:round;stroke-linejoin:miter;stroke-miterlimit:10;stroke-dasharray:none;stroke-opacity:1"
       d="m 358.79751,414.93311 -47.84543,12.82374 -2.43687,-9.09047 47.84543,-12.82375 2.43686,9.09047 z" />
    <path
       inkscape:connector-curvature="0"
       id="path60"
       style="fill:#ffffff;fill-opacity:1;fill-rule:nonzero;stroke:none;stroke-width:0.87219119"
       d="m 386.40485,407.00296 -27.74007,7.43511 -1.13001,-4.21359 27.74007,-7.43512 1.13001,4.21358 z" />
    <path
       inkscape:connector-curvature="0"
       id="path62"
       style="fill:none;stroke:#000000;stroke-width:0.7193597;stroke-linecap:round;stroke-linejoin:miter;stroke-miterlimit:10;stroke-dasharray:none;stroke-opacity:1"
       d="m 386.40485,407.00295 -27.74007,7.43512 -1.13001,-4.2136 27.74007,-7.43512 1.13001,4.21357 z" />
    <path
       inkscape:connector-curvature="0"
       id="path64"
       style="fill:#000000;fill-opacity:1;fill-rule:evenodd;stroke:none;stroke-width:0.87219119"
       d="m 521.9935,348.59583 -0.66268,-0.52608 -7.13643,1.91252 2.00093,7.46448 7.1364,-1.91251 0.39924,-0.4567 -1.73767,-6.48166" />
    <path
       inkscape:connector-curvature="0"
       id="path66"
       style="fill:none;stroke:#000000;stroke-width:0.7193597;stroke-linecap:round;stroke-linejoin:round;stroke-miterlimit:10;stroke-dasharray:none;stroke-opacity:1"
       d="m 521.9935,348.59582 -0.66268,-0.52608 -7.13643,1.91252 2.00093,7.46448 7.1364,-1.91251 0.39923,-0.4567 -1.73766,-6.48166" />
    <path
       inkscape:connector-curvature="0"
       id="path68"
       style="fill:#ffffff;fill-opacity:1;fill-rule:evenodd;stroke:none;stroke-width:0.87219119"
       d="m 517.50662,338.3235 -5.86085,2.78964 5.4775,20.43069 -18.47457,5.642 -9.77034,-6.59194 -21.26064,5.00682 -11.30496,-42.16746 -0.75224,-6.05629 32.43909,-8.69411 2.07398,-0.0365 2.1983,-0.23953 1.6701,-0.27685 1.78992,0.22192 1.4305,0.13836 1.47019,0.29517 0.98857,0.43669 0.21758,0.81311 15.79873,21.31727 1.86903,6.97142" />
    <path
       inkscape:connector-curvature="0"
       id="path70"
       style="fill:none;stroke:#000000;stroke-width:0.7193597;stroke-linecap:round;stroke-linejoin:round;stroke-miterlimit:10;stroke-dasharray:none;stroke-opacity:1"
       d="m 517.50662,338.32349 -5.86085,2.78964 5.47748,20.43069 -18.47455,5.64201 -9.77034,-6.59195 -21.26064,5.00683 -11.30497,-42.16745 -0.75223,-6.05631 32.4391,-8.69412 2.07398,-0.0365 2.19829,-0.23953 1.6701,-0.27686 1.78992,0.22193 1.43051,0.13836 1.47018,0.29516 0.98857,0.43671 0.21759,0.8131 15.79872,21.31726 1.86904,6.97142" />
    <path
       inkscape:connector-curvature="0"
       id="path72"
       style="fill:#ffffff;fill-opacity:1;fill-rule:evenodd;stroke:none;stroke-width:0.87219119"
       d="m 514.06453,349.49784 7.1364,-1.91251 0.18379,-1.26022 -2.87054,-10.70553 -0.87736,-1.32668 -7.13641,1.91251 3.56379,13.29252" />
    <path
       inkscape:connector-curvature="0"
       id="path74"
       style="fill:none;stroke:#000000;stroke-width:0.7193597;stroke-linecap:round;stroke-linejoin:round;stroke-miterlimit:10;stroke-dasharray:none;stroke-opacity:1"
       d="m 514.06453,349.49783 7.13639,-1.91251 0.18379,-1.26022 -2.87054,-10.70553 -0.87737,-1.32668 -7.13639,1.91251 3.56379,13.29253" />
    <path
       inkscape:connector-curvature="0"
       id="path76"
       style="fill:#ffffff;fill-opacity:1;fill-rule:evenodd;stroke:none;stroke-width:0.87219119"
       d="m 516.21002,331.54051 -6.49326,1.7406 1.59513,2.70707 6.49525,-1.74113 -1.59712,-2.70652" />
    <path
       inkscape:connector-curvature="0"
       id="path78"
       style="fill:none;stroke:#000000;stroke-width:0.7193597;stroke-linecap:round;stroke-linejoin:round;stroke-miterlimit:10;stroke-dasharray:none;stroke-opacity:1"
       d="m 516.21002,331.54051 -6.49326,1.74059 1.59513,2.70708 6.49524,-1.74113 -1.59711,-2.70653" />
    <path
       inkscape:connector-curvature="0"
       id="path80"
       style="fill:#000000;fill-opacity:1;fill-rule:evenodd;stroke:none;stroke-width:0.87219119"
       d="m 521.86932,357.83854 -5.4424,1.10785 2.39189,8.92267 -3.82156,2.58607 -8.7667,2.34976 -2.0041,-1.02466 -4.05486,1.08675 -0.52154,-1.94347 -0.89085,-1.33433 -1.15152,-1.08224 -0.91704,-1.48668 -1.11877,-0.92239 -1.69143,-1.10846 -1.35831,-0.50706 -1.59022,-0.78476 -1.60491,-0.78978 -1.79839,-0.21068 -1.95923,-0.17657 -2.40131,0.12326 -21.08774,5.65184 2.39632,-5.32735 0.30881,-1.47368 29.67147,-7.95258 2.60719,9.72275 24.49917,-6.56676 0.30562,1.14005" />
    <path
       inkscape:connector-curvature="0"
       id="path82"
       style="fill:none;stroke:#000000;stroke-width:0.7193597;stroke-linecap:round;stroke-linejoin:round;stroke-miterlimit:10;stroke-dasharray:none;stroke-opacity:1"
       d="m 521.86932,357.83853 -5.4424,1.10785 2.39189,8.92267 -3.82156,2.58607 -8.7667,2.34976 -2.0041,-1.02466 -4.05486,1.08675 -0.52154,-1.94347 -0.89085,-1.33432 -1.15153,-1.08225 -0.91703,-1.48667 -1.11878,-0.92239 -1.69142,-1.10847 -1.35832,-0.50706 -1.59021,-0.78476 -1.60491,-0.78978 -1.79839,-0.21068 -1.95923,-0.17657 -2.40132,0.12326 -21.08773,5.65184 2.39631,-5.32735 0.30881,-1.47368 29.67147,-7.95258 2.6072,9.72275 24.49915,-6.56675 0.30562,1.14003" />
    <path
       inkscape:connector-curvature="0"
       id="path84"
       style="fill:#ffffff;fill-opacity:1;fill-rule:evenodd;stroke:none;stroke-width:0.87219119"
       d="m 476.31489,359.79553 -10.47911,-39.08556 -9.56616,2.56371 5.5498,29.10244 2.8279,10.54637 11.66756,-3.1279" />
    <path
       inkscape:connector-curvature="0"
       id="path86"
       style="fill:none;stroke:#000000;stroke-width:0.7193597;stroke-linecap:round;stroke-linejoin:round;stroke-miterlimit:10;stroke-dasharray:none;stroke-opacity:1"
       d="m 476.31489,359.79553 -10.47912,-39.08557 -9.56615,2.56371 5.5498,29.10245 2.82789,10.54636 11.66757,-3.1279" />
    <path
       inkscape:connector-curvature="0"
       id="path88"
       style="fill:#ffffff;fill-opacity:1;fill-rule:evenodd;stroke:none;stroke-width:0.87219119"
       d="m 476.31489,359.79553 5.35554,-1.43581 1.70907,-0.11856 2.68496,-0.37 2.60394,-0.005 2.50456,0.9018 2.37663,1.09344 1.9519,2.09201 0.87658,1.32683 19.94801,-5.34648 -5.82522,-21.72839 -13.05223,-20.14102 -0.0885,-0.33026 -1.19372,-1.2407 -1.07375,-0.75343 -1.84312,-0.37741 -27.41343,7.34758 10.47912,39.08558" />
    <path
       inkscape:connector-curvature="0"
       id="path90"
       style="fill:none;stroke:#000000;stroke-width:0.7193597;stroke-linecap:round;stroke-linejoin:round;stroke-miterlimit:10;stroke-dasharray:none;stroke-opacity:1"
       d="m 476.31489,359.79553 5.35554,-1.43581 1.70905,-0.11856 2.68499,-0.37001 2.60393,-0.005 2.50456,0.90181 2.37663,1.09344 1.95189,2.09202 0.87659,1.32682 19.94801,-5.34648 -5.82523,-21.7284 -13.05223,-20.14101 -0.0885,-0.33027 -1.19372,-1.2407 -1.07376,-0.75343 -1.84311,-0.3774 -27.41343,7.34757 10.47912,39.08558" />
    <path
       inkscape:connector-curvature="0"
       id="path92"
       style="fill:#000000;fill-opacity:1;fill-rule:evenodd;stroke:none;stroke-width:0.87219119"
       d="m 526.23282,358.58166 -2.24919,-0.61712 -6.65258,1.78334 2.04321,7.62176 5.84162,-1.56552 2.01608,-3.49505 -1.00043,-3.72662" />
    <path
       inkscape:connector-curvature="0"
       id="path94"
       style="fill:none;stroke:#000000;stroke-width:0.7193597;stroke-linecap:round;stroke-linejoin:round;stroke-miterlimit:10;stroke-dasharray:none;stroke-opacity:1"
       d="m 526.23282,358.58165 -2.24919,-0.61712 -6.65258,1.78334 2.04321,7.62176 5.84162,-1.56552 2.01608,-3.49504 -1.00044,-3.72664" />
    <path
       inkscape:connector-curvature="0"
       id="path96"
       style="fill:#000000;fill-opacity:1;fill-rule:evenodd;stroke:none;stroke-width:0.87219119"
       d="m 477.23375,353.46314 -1.1961,-5.77017 -11.52141,3.08875 1.5236,5.6824 11.19426,-3.00019" />
    <path
       inkscape:connector-curvature="0"
       id="path98"
       style="fill:none;stroke:#000000;stroke-width:0.7193597;stroke-linecap:round;stroke-linejoin:round;stroke-miterlimit:10;stroke-dasharray:none;stroke-opacity:1"
       d="m 477.23375,353.46313 -1.1961,-5.77017 -11.52142,3.08875 1.52361,5.6824 11.19426,-3.00019" />
    <path
       inkscape:connector-curvature="0"
       id="path100"
       style="fill:#000000;fill-opacity:1;fill-rule:evenodd;stroke:none;stroke-width:0.87219119"
       d="m 474.53965,355.74586 -6.96965,1.86773 0.112,2.40412 7.46648,-2.00119 -0.60879,-2.27094" />
    <path
       inkscape:connector-curvature="0"
       id="path102"
       style="fill:none;stroke:#000000;stroke-width:0.7193597;stroke-linecap:round;stroke-linejoin:round;stroke-miterlimit:10;stroke-dasharray:none;stroke-opacity:1"
       d="m 474.53964,355.74585 -6.96964,1.86773 0.112,2.40413 7.46648,-2.00119 -0.6088,-2.27095" />
    <path
       inkscape:connector-curvature="0"
       id="path104"
       style="fill:#000000;fill-opacity:1;fill-rule:nonzero;stroke:none;stroke-width:0.87219119"
       d="m 512.8727,356.07518 -7.29673,1.9556 -0.43261,-1.61661 7.29673,-1.95559 z" />
    <path
       inkscape:connector-curvature="0"
       id="path106"
       style="fill:none;stroke:#000000;stroke-width:0.7193597;stroke-linecap:round;stroke-linejoin:miter;stroke-miterlimit:10;stroke-dasharray:none;stroke-opacity:1"
       d="m 512.8727,356.07517 -7.29673,1.9556 -0.43261,-1.61661 7.29673,-1.95559 z" />
    <path
       inkscape:connector-curvature="0"
       id="path108"
       style="fill:none;stroke:#ffffff;stroke-width:0.7193597;stroke-linecap:round;stroke-linejoin:round;stroke-miterlimit:10;stroke-dasharray:none;stroke-opacity:1"
       d="m 515.15056,360.68284 -1.42375,2.46171 -12.32427,3.30294 -1.66073,-1.635 0.73827,2.75338 1.51068,2.37918 12.65039,-3.39034 1.24767,-3.11846 -0.6085,-2.26988" />
    <path
       inkscape:connector-curvature="0"
       id="path110"
       style="fill:none;stroke:#ffffff;stroke-width:0.7193597;stroke-linecap:round;stroke-linejoin:miter;stroke-miterlimit:10;stroke-dasharray:none;stroke-opacity:1"
       d="m 522.17336,354.455 -5.18486,1.38964 -1.30461,-4.86843 5.18486,-1.38962 1.30461,4.8684 z" />
    <path
       inkscape:connector-curvature="0"
       id="path112"
       style="fill:none;stroke:#ffffff;stroke-width:0.7193597;stroke-linecap:round;stroke-linejoin:round;stroke-miterlimit:10;stroke-dasharray:none;stroke-opacity:1"
       d="m 472.88907,349.58934 0.64308,-0.17316 1.04201,3.88642" />
    <path
       inkscape:connector-curvature="0"
       id="path114"
       style="fill:#ffffff;fill-opacity:1;fill-rule:evenodd;stroke:none;stroke-width:0.87219119"
       d="m 501.89716,333.29431 0.48668,-0.13055 0.23859,-0.41482 0.39895,-0.45774 0.11223,-0.8902 0.22822,-0.41174 -0.17397,-0.64605 -8.16758,-13.62822 -0.0885,-0.33024 -1.03172,-0.59263 -0.15922,0.0431 -0.56919,-0.18931 -23.68633,6.34809 -0.40019,0.4491 -0.23959,0.41505 4.17428,15.57081 1.24206,0.71034 0.80269,-0.21478 25.70399,-5.32746 1.12774,-0.30229" />
    <path
       inkscape:connector-curvature="0"
       id="path116"
       style="fill:none;stroke:#000000;stroke-width:0.7193597;stroke-linecap:round;stroke-linejoin:round;stroke-miterlimit:10;stroke-dasharray:none;stroke-opacity:1"
       d="m 501.89716,333.2943 0.48668,-0.13054 0.23859,-0.41482 0.39895,-0.45775 0.11222,-0.8902 0.22823,-0.41173 -0.17397,-0.64606 -8.16758,-13.62822 -0.0885,-0.33024 -1.03172,-0.59263 -0.15922,0.0431 -0.56919,-0.1893 -23.68634,6.34809 -0.40019,0.44909 -0.23959,0.41505 4.17429,15.57081 1.24206,0.71034 0.80269,-0.21478 25.70398,-5.32746 1.12774,-0.30229 m -13.10916,-16.47376 4.5843,18.40778" />
    <path
       inkscape:connector-curvature="0"
       id="path118"
       style="fill:#000000;fill-opacity:1;fill-rule:evenodd;stroke:none;stroke-width:0.87219119"
       d="m 500.42791,325.86839 -13.13929,10.63966 3.49659,-0.58633 10.51905,-8.72644 -0.87635,-1.32689" />
    <path
       inkscape:connector-curvature="0"
       id="path120"
       style="fill:none;stroke:#000000;stroke-width:0.7193597;stroke-linecap:round;stroke-linejoin:round;stroke-miterlimit:10;stroke-dasharray:none;stroke-opacity:1"
       d="m 500.42791,325.86838 -13.13929,10.63966 3.49659,-0.58633 10.51905,-8.72643 -0.87635,-1.3269" />
    <path
       inkscape:connector-curvature="0"
       id="path122"
       style="fill:#ffffff;fill-opacity:1;fill-rule:evenodd;stroke:none;stroke-width:0.87219119"
       d="m 515.72309,331.67103 -6.49301,1.74054 -11.83799,-20.80832 -0.43483,-1.62488 0.23962,-0.41506 0.48691,-0.1306 0.39822,-0.44857 1.62731,-0.4354 16.01476,22.12296" />
    <path
       inkscape:connector-curvature="0"
       id="path124"
       style="fill:none;stroke:#000000;stroke-width:0.7193597;stroke-linecap:round;stroke-linejoin:round;stroke-miterlimit:10;stroke-dasharray:none;stroke-opacity:1"
       d="m 515.72309,331.67103 -6.49302,1.74053 -11.838,-20.80832 -0.43481,-1.62488 0.23961,-0.41504 0.48693,-0.13061 0.3982,-0.44857 1.62732,-0.4354 16.01476,22.12295 m -153.91465,78.28043 0.59453,3.48457" />
    <path
       inkscape:connector-curvature="0"
       id="path126"
       style="fill:#ffffff;fill-opacity:1;fill-rule:evenodd;stroke:none;stroke-width:0.87219119"
       d="m 371.8641,409.16779 -0.39098,-1.45701 -1.12005,-0.92207 -1.14043,0.30567 -0.17798,1.26998 0.39098,1.45701 2.43853,-0.65334" />
    <path
       inkscape:connector-curvature="0"
       id="path128"
       style="fill:none;stroke:#000000;stroke-width:0.7193597;stroke-linecap:round;stroke-linejoin:round;stroke-miterlimit:10;stroke-dasharray:none;stroke-opacity:1"
       d="m 371.8641,409.16778 -0.39098,-1.45701 -1.12005,-0.92207 -1.14043,0.30567 -0.17798,1.26998 0.39098,1.45701 2.43853,-0.65334 m -3.39491,-2.91392 -3.88803,1.0423 -0.73918,-2.75686" />
    <path
       inkscape:connector-curvature="0"
       id="path130"
       style="fill:#ffffff;fill-opacity:1;fill-rule:evenodd;stroke:none;stroke-width:0.87219119"
       d="m 381.44492,402.77608 -3.08212,0.82664 0.21782,0.81396 -8.9228,2.39157 0.34734,1.2966 11.19426,-3.00017 0.24505,-2.32772" />
    <path
       inkscape:connector-curvature="0"
       id="path132"
       style="fill:none;stroke:#000000;stroke-width:0.7193597;stroke-linecap:round;stroke-linejoin:round;stroke-miterlimit:10;stroke-dasharray:none;stroke-opacity:1"
       d="m 381.44492,402.77608 -3.08212,0.82663 0.21782,0.81395 -8.9228,2.39158 0.34734,1.2966 11.19426,-3.00017 0.24505,-2.32773" />
    <path
       inkscape:connector-curvature="0"
       id="path134"
       style="fill:#ffffff;fill-opacity:1;fill-rule:evenodd;stroke:none;stroke-width:0.87219119"
       d="m 371.45777,399.88505 0.69661,2.59705 -0.6707,4.00359 -2.2704,0.60854 -2.89749,-3.0472 -0.6966,-2.59708 5.83863,-1.56472" />
    <path
       inkscape:connector-curvature="0"
       id="path136"
       style="fill:none;stroke:#000000;stroke-width:0.7193597;stroke-linecap:round;stroke-linejoin:round;stroke-miterlimit:10;stroke-dasharray:none;stroke-opacity:1"
       d="m 371.45777,399.88504 0.69661,2.59706 -0.6707,4.00357 -2.27041,0.60855 -2.89749,-3.04718 -0.6966,-2.5971 5.83863,-1.56472" />
    <path
       inkscape:connector-curvature="0"
       id="path138"
       style="fill:#ffffff;fill-opacity:1;fill-rule:nonzero;stroke:none;stroke-width:0.87219119"
       d="m 358.12636,408.50744 -8.27762,2.2183 -1.82601,-6.81091 8.27762,-2.21828 1.82601,6.8109 z" />
    <path
       inkscape:connector-curvature="0"
       id="path140"
       style="fill:none;stroke:#000000;stroke-width:0.7193597;stroke-linecap:round;stroke-linejoin:miter;stroke-miterlimit:10;stroke-dasharray:none;stroke-opacity:1"
       d="m 358.12636,408.50743 -8.27762,2.2183 -1.82601,-6.8109 8.27762,-2.21829 1.82601,6.8109 z" />
    <path
       inkscape:connector-curvature="0"
       id="path142"
       style="fill:#ffffff;fill-opacity:1;fill-rule:evenodd;stroke:none;stroke-width:0.87219119"
       d="m 305.02129,421.17585 -27.97214,10.45302 1.59531,2.69486 27.11618,-10.39018 -0.73942,-2.75769" />
    <path
       inkscape:connector-curvature="0"
       id="path144"
       style="fill:none;stroke:#000000;stroke-width:0.7193597;stroke-linecap:round;stroke-linejoin:round;stroke-miterlimit:10;stroke-dasharray:none;stroke-opacity:1"
       d="m 305.02129,421.17584 -27.97215,10.45302 1.59533,2.69486 27.11616,-10.39018 -0.73941,-2.75768" />
    <path
       inkscape:connector-curvature="0"
       id="path146"
       style="fill:#ffffff;fill-opacity:1;fill-rule:evenodd;stroke:none;stroke-width:0.87219119"
       d="m 300.26499,421.57923 0.0641,-2.96958 -1.28072,-1.56822 -5.83963,1.56501 -0.66258,2.08907 1.54955,2.53706 6.16921,-1.65345" />
    <path
       inkscape:connector-curvature="0"
       id="path148"
       style="fill:none;stroke:#000000;stroke-width:0.7193597;stroke-linecap:round;stroke-linejoin:round;stroke-miterlimit:10;stroke-dasharray:none;stroke-opacity:1"
       d="m 300.26498,421.57921 0.0641,-2.96957 -1.28072,-1.56821 -5.83963,1.565 -0.66259,2.08907 1.54956,2.53706 6.16921,-1.65346" />
    <path
       inkscape:connector-curvature="0"
       id="path150"
       style="fill:#ffffff;fill-opacity:1;fill-rule:nonzero;stroke:none;stroke-width:0.87219119"
       d="m 325.8459,417.15618 -4.54156,1.21731 -1.26181,-4.70789 4.54153,-1.21732 1.26184,4.70789 z" />
    <path
       inkscape:connector-curvature="0"
       id="path152"
       style="fill:none;stroke:#000000;stroke-width:0.7193597;stroke-linecap:round;stroke-linejoin:miter;stroke-miterlimit:10;stroke-dasharray:none;stroke-opacity:1"
       d="m 325.8459,417.15617 -4.54156,1.21731 -1.26182,-4.70791 4.54154,-1.21731 1.26183,4.7079 z" />
    <path
       inkscape:connector-curvature="0"
       id="path154"
       style="fill:none;stroke:#000000;stroke-width:0.7193597;stroke-linecap:round;stroke-linejoin:round;stroke-miterlimit:10;stroke-dasharray:none;stroke-opacity:1"
       d="m 334.31769,412.4523 0.89009,4.62874" />
    <path
       inkscape:connector-curvature="0"
       id="path156"
       style="fill:#000000;fill-opacity:1;fill-rule:evenodd;stroke:none;stroke-width:0.87219119"
       d="m 463.44831,366.88914 -0.66239,2.08872 -0.32545,1.99985 -0.70403,1.93242 -0.25003,2.31802 -0.30417,3.38705 -0.27172,3.54583 0.0874,4.84388 3.40137,-0.91171 -0.12294,-2.4 0.0328,-3.13211 0.0448,-2.44526 0.4784,-2.73323 0.55663,-3.11318 0.29327,-2.16069 0.97868,-2.17496 0.65193,-2.08591 -3.88477,1.04143" />
    <path
       inkscape:connector-curvature="0"
       id="path158"
       style="fill:none;stroke:#000000;stroke-width:0.7193597;stroke-linecap:round;stroke-linejoin:round;stroke-miterlimit:10;stroke-dasharray:none;stroke-opacity:1"
       d="m 463.44832,366.88913 -0.6624,2.08872 -0.32545,1.99986 -0.70403,1.93241 -0.25003,2.31802 -0.30416,3.38706 -0.27173,3.54583 0.0874,4.84388 3.40137,-0.91172 -0.12294,-2.4 0.0328,-3.13211 0.0448,-2.44527 0.4784,-2.73322 0.55663,-3.11318 0.29327,-2.16069 0.97868,-2.17496 0.65193,-2.08591 -3.88478,1.04143" />
    <path
       inkscape:connector-curvature="0"
       id="path160"
       style="fill:#ffffff;fill-opacity:1;fill-rule:evenodd;stroke:none;stroke-width:0.87219119"
       d="m 356.30035,401.69657 1.03667,1.28394 0.63497,1.7413 0.47895,1.78396 -0.3245,1.99847 -1.8252,-6.80788" />
    <path
       inkscape:connector-curvature="0"
       id="path162"
       style="fill:none;stroke:#000000;stroke-width:0.7193597;stroke-linecap:round;stroke-linejoin:round;stroke-miterlimit:10;stroke-dasharray:none;stroke-opacity:1"
       d="m 356.30035,401.69656 1.03667,1.28394 0.63497,1.7413 0.47895,1.78397 -0.3245,1.99847 -1.8252,-6.80789" />
    <path
       inkscape:connector-curvature="0"
       id="path164"
       style="fill:#ffffff;fill-opacity:1;fill-rule:evenodd;stroke:none;stroke-width:0.87219119"
       d="m 348.1906,403.87018 -0.74977,1.76275 -0.007,1.91324 0.96304,1.65423 1.61854,1.47768 -1.8252,-6.8079" />
    <path
       inkscape:connector-curvature="0"
       id="path166"
       style="fill:none;stroke:#000000;stroke-width:0.7193597;stroke-linecap:round;stroke-linejoin:round;stroke-miterlimit:10;stroke-dasharray:none;stroke-opacity:1"
       d="m 348.1906,403.87017 -0.74977,1.76275 -0.007,1.91323 0.96304,1.65424 1.61854,1.47768 -1.8252,-6.8079 m 9.97773,4.79375 -2.50128,-8.02077 m -5.60848,10.19439 -2.50126,-8.02078" />
    <path
       inkscape:connector-curvature="0"
       id="path168"
       style="fill:#ffffff;fill-opacity:1;fill-rule:nonzero;stroke:none;stroke-width:0.87219119"
       d="m 327.95752,416.59337 -2.11099,0.56519 -1.82601,-6.81091 2.111,-0.56519 1.82601,6.81089 z" />
    <path
       inkscape:connector-curvature="0"
       id="path170"
       style="fill:none;stroke:#000000;stroke-width:0.7193597;stroke-linecap:round;stroke-linejoin:miter;stroke-miterlimit:10;stroke-dasharray:none;stroke-opacity:1"
       d="m 324.02067,410.34827 2.11101,-0.56518 1.8252,6.80788 -2.11101,0.56519 -1.8252,-6.8079 z m -5.99894,1.60772 1.45725,-0.39099 1.8252,6.8079 -1.45725,0.391 -1.82519,-6.80788 z m -0.52413,5.17524 11.3506,-3.04207 0.34763,1.29771 -11.3506,3.04208 -0.34762,-1.29771 z" />
    <path
       inkscape:connector-curvature="0"
       id="path172"
       style="fill:#000000;fill-opacity:1;fill-rule:evenodd;stroke:none;stroke-width:0.87219119"
       d="m 336.65212,413.38843 -26.91628,7.21439 -2.51805,2.94038 1.21771,4.53749 3.56314,0.9576 26.91627,-7.2144 2.28916,-2.52615 -1.30456,-4.86825 -3.24565,-1.04154" />
    <path
       inkscape:connector-curvature="0"
       id="path174"
       style="fill:none;stroke:#000000;stroke-width:0.7193597;stroke-linecap:round;stroke-linejoin:round;stroke-miterlimit:10;stroke-dasharray:none;stroke-opacity:1"
       d="m 336.65212,413.38842 -26.91628,7.21438 -2.51805,2.94038 1.21771,4.5375 3.56314,0.9576 26.91627,-7.21439 2.28917,-2.52617 -1.30457,-4.86824 -3.24565,-1.04155" />
    <path
       inkscape:connector-curvature="0"
       id="path176"
       style="fill:none;stroke:#ffffff;stroke-width:0.7193597;stroke-linecap:round;stroke-linejoin:round;stroke-miterlimit:10;stroke-dasharray:none;stroke-opacity:1"
       d="m 308.59389,428.038 32.52677,-8.36708 m -33.70146,3.98552 32.43907,-8.69411" />
    <path
       inkscape:connector-curvature="0"
       id="path178"
       style="fill:#000000;fill-opacity:1;fill-rule:evenodd;stroke:none;stroke-width:0.87219119"
       d="m 305.76064,423.93355 -1.58324,0.5919 -0.65125,-2.42701 1.49463,-0.92237 0.73941,2.75771" />
    <path
       inkscape:connector-curvature="0"
       id="path180"
       style="fill:none;stroke:#000000;stroke-width:0.7193597;stroke-linecap:round;stroke-linejoin:round;stroke-miterlimit:10;stroke-dasharray:none;stroke-opacity:1"
       d="m 305.76063,423.93354 -1.58322,0.5919 -0.65126,-2.42701 1.49465,-0.92237 0.7394,2.75771" />
    <path
       inkscape:connector-curvature="0"
       id="path182"
       style="fill:#ffffff;fill-opacity:1;fill-rule:evenodd;stroke:none;stroke-width:0.87219119"
       d="m 482.54171,371.95232 -1.53962,0.76349 -1.05342,0.63316 -0.99978,0.78857 -0.79798,0.90424 -0.55233,1.19042 -0.50786,1.35923 -0.10999,0.8986 0.69386,2.5868 0.54528,0.72498 1.07482,0.75546 1.03045,0.59293 1.14586,0.39337 1.30327,0.34339 1.27078,0.17769 2.91396,-0.78003 1.01154,-0.78945 1.12675,-0.99467 0.95476,-0.95638 0.4371,-0.98626 0.38201,-1.1459 0.26906,-0.94329 -0.69388,-2.58679 -0.70434,-0.68034 -0.94896,-0.96878 -0.91522,-0.79705 -1.30265,-0.34123 -1.43022,-0.13727 -1.22893,-0.0215 -1.37409,0.0174" />
    <path
       inkscape:connector-curvature="0"
       id="path184"
       style="fill:none;stroke:#000000;stroke-width:0.7193597;stroke-linecap:round;stroke-linejoin:round;stroke-miterlimit:10;stroke-dasharray:none;stroke-opacity:1"
       d="m 482.64712,372.34574 -1.53961,0.76349 -1.05342,0.63316 -0.99977,0.78856 -0.79799,0.90424 -0.55233,1.19042 -0.50786,1.35923 -0.10999,0.89861 0.69387,2.58679 0.54528,0.72498 1.07481,0.75546 1.03045,0.59293 1.14587,0.39337 1.30326,0.3434 1.27078,0.17768 2.91397,-0.78003 1.01154,-0.78944 1.12674,-0.99467 0.95477,-0.95639 0.4371,-0.98624 0.382,-1.14591 0.26905,-0.94327 -0.69386,-2.58682 -0.70435,-0.68032 -0.94895,-0.96878 -0.91523,-0.79706 -1.30264,-0.34122 -1.43023,-0.13728 -1.22893,-0.0215 -1.37409,0.0174 m -15.72728,-4.82672 -74.45547,19.95608 2.73962,10.22035 69.43005,-18.60873 2.28546,-11.56717" />
    <path
       inkscape:connector-curvature="0"
       id="path186"
       style="fill:#000000;fill-opacity:1;fill-rule:evenodd;stroke:none;stroke-width:0.87219119"
       d="m 394.28418,402.03203 -0.49661,-3.1701 0.6464,-2.7774 0.84854,-2.66038 1.70426,-2.72025 2.07967,-1.94798 2.66443,-1.75646 2.78705,-1.26528 3.38191,-0.38814 3.08865,-0.12736 3.18845,0.87786 2.74955,1.1757 2.23568,1.83375 1.86911,2.454 1.06486,2.66699 0.6966,2.59705 -0.4336,2.90028 -1.01829,2.70702 -1.54523,2.67648 -1.94915,2.43476 -2.70976,1.58641 -3.11327,1.3562 -2.91495,0.78029 -3.38413,-0.30398 -3.10581,-0.56162 -5.14182,-2.96743 -2.03604,-2.40582 -1.06868,-2.66825 -0.0877,-0.32733" />
    <path
       inkscape:connector-curvature="0"
       id="path188"
       style="fill:none;stroke:#000000;stroke-width:0.7193597;stroke-linecap:round;stroke-linejoin:round;stroke-miterlimit:10;stroke-dasharray:none;stroke-opacity:1"
       d="m 394.28418,402.03201 -0.49661,-3.17008 0.6464,-2.77741 0.84854,-2.66038 1.70426,-2.72025 2.07967,-1.94799 2.66443,-1.75645 2.78705,-1.26527 3.3819,-0.38816 3.08866,-0.12735 3.18844,0.87786 2.74955,1.17568 2.23569,1.83375 1.86911,2.45402 1.06486,2.66698 0.6966,2.59706 -0.4336,2.90028 -1.01829,2.70702 -1.54523,2.67648 -1.94916,2.43476 -2.70975,1.5864 -3.11328,1.3562 -2.91494,0.78029 -3.38413,-0.30396 -3.10581,-0.56163 -5.14182,-2.96743 -2.03604,-2.40582 -1.06868,-2.66827 -0.0877,-0.32732" />
    <path
       inkscape:connector-curvature="0"
       id="path190"
       style="fill:#ffffff;fill-opacity:1;fill-rule:evenodd;stroke:none;stroke-width:0.87219119"
       d="m 405.65352,392.5536 -1.05293,0.63301 -1.52566,0.75976 -1.17055,0.83432 -0.48107,0.8193 -0.86926,1.27535 -0.181,1.27164 -0.10948,0.89845 -0.0245,1.21753 0.71802,1.36938 0.54477,0.7251 0.74795,0.84306 1.34738,0.50798 0.82895,0.47832 1.47403,0.29762 1.74308,0.0511 2.5979,-0.69673 1.01055,-0.78916 1.12774,-0.99495 0.95451,-0.95633 0.43635,-0.98606 0.54259,-1.18894 0.10849,-0.90023 -0.69387,-2.5868 -0.54376,-0.72337 -1.10954,-0.92576 -0.91447,-0.79725 -1.30242,-0.34129 -1.4312,-0.13699 -1.22795,-0.0217 -1.54511,0.0632" />
    <path
       inkscape:connector-curvature="0"
       id="path192"
       style="fill:none;stroke:#000000;stroke-width:0.7193597;stroke-linecap:round;stroke-linejoin:round;stroke-miterlimit:10;stroke-dasharray:none;stroke-opacity:1"
       d="m 405.65367,392.55415 -1.05293,0.63302 -1.52566,0.75976 -1.17055,0.83431 -0.48107,0.81929 -0.86926,1.27536 -0.181,1.27163 -0.10948,0.89846 -0.0245,1.21752 0.71802,1.36939 0.54477,0.7251 0.74795,0.84306 1.34738,0.50797 0.82895,0.47833 1.47402,0.29762 1.74308,0.0511 2.59791,-0.69672 1.01055,-0.78916 1.12774,-0.99496 0.95451,-0.95633 0.43635,-0.98606 0.54258,-1.18894 0.1085,-0.90023 -0.69387,-2.5868 -0.54376,-0.72336 -1.10955,-0.92576 -0.91446,-0.79727 -1.30242,-0.34127 -1.4312,-0.137 -1.22796,-0.0217 -1.54511,0.0632" />
    <path
       inkscape:connector-curvature="0"
       id="path194"
       style="fill:none;stroke:#000000;stroke-width:0.7193597;stroke-linecap:round;stroke-linejoin:miter;stroke-miterlimit:10;stroke-dasharray:none;stroke-opacity:1"
       d="m 371.05093,402.25613 -97.47683,26.12607 -1.86818,-6.96825 97.47682,-26.1261 z" />
    <path
       inkscape:connector-curvature="0"
       id="path196"
       style="fill:#000000;fill-opacity:1;fill-rule:evenodd;stroke:none;stroke-width:0.87219119"
       d="m 186.99597,457.57062 -0.66939,-3.12378 0.48929,-2.73533 1.01884,-2.70602 1.70449,-2.7203 2.40681,-2.03566 2.65348,-1.75352 2.79524,-1.26749 3.3737,-0.38595 2.92982,-0.0847 3.51755,0.78967 2.26264,1.30616 2.70892,1.70691 1.88007,2.45109 1.22493,2.62408 0.20985,2.72752 -0.11745,2.81553 -1.33197,2.79112 -1.22106,2.58957 -2.44657,2.5681 -2.37195,1.49584 -2.95121,1.31277 -3.41133,0.91437 -2.90093,-0.43346 -3.58975,-0.43192 -2.83654,-1.50204 -1.97817,-1.55306 -2.03854,-2.40517 -1.223,-2.62688 -0.0877,-0.32733" />
    <path
       inkscape:connector-curvature="0"
       id="path198"
       style="fill:none;stroke:#000000;stroke-width:0.7193597;stroke-linecap:round;stroke-linejoin:round;stroke-miterlimit:10;stroke-dasharray:none;stroke-opacity:1"
       d="m 186.99597,457.5706 -0.66939,-3.12377 0.4893,-2.73533 1.01883,-2.70603 1.7045,-2.72029 2.4068,-2.03565 2.65349,-1.75353 2.79523,-1.26749 3.3737,-0.38595 2.92982,-0.0847 3.51756,0.78965 2.26263,1.30618 2.70893,1.70689 1.88006,2.45109 1.22492,2.62408 0.20986,2.72752 -0.11745,2.81553 -1.33197,2.7911 -1.22106,2.58958 -2.44658,2.56812 -2.37194,1.49583 -2.9512,1.31276 -3.41133,0.91438 -2.90094,-0.43346 -3.58975,-0.43193 -2.83653,-1.50202 -1.97818,-1.55307 -2.03854,-2.40516 -1.22299,-2.6269 -0.0877,-0.32732" />
    <path
       inkscape:connector-curvature="0"
       id="path200"
       style="fill:#ffffff;fill-opacity:1;fill-rule:evenodd;stroke:none;stroke-width:0.87219119"
       d="m 198.8495,447.96241 -1.53687,0.76276 -1.04222,0.63016 -0.84293,0.74651 -0.96827,0.94988 -0.55009,1.18982 -0.4969,1.35631 -0.28003,0.94415 0.69387,2.58681 0.7153,0.67943 1.06387,0.75838 1.02822,0.59353 1.31615,0.34772 1.14638,0.38541 1.25964,0.1807 2.75456,-0.73846 1.33815,-0.87697 0.95674,-0.94909 1.12505,-1.00204 0.43682,-0.98621 0.22568,-1.104 0.42538,-0.98516 -0.69386,-2.58681 -0.86068,-0.63842 -0.79264,-1.01068 -0.91495,-0.79715 -1.47294,-0.29557 -1.2602,-0.18282 -1.55557,0.0661 -1.21772,-0.0243" />
    <path
       inkscape:connector-curvature="0"
       id="path202"
       style="fill:none;stroke:#000000;stroke-width:0.7193597;stroke-linecap:round;stroke-linejoin:round;stroke-miterlimit:10;stroke-dasharray:none;stroke-opacity:1"
       d="m 198.8497,447.96311 -1.53688,0.76275 -1.04222,0.63015 -0.84293,0.74653 -0.96827,0.94987 -0.55007,1.18982 -0.49693,1.35631 -0.28001,0.94414 0.69387,2.58682 0.71532,0.67942 1.06384,0.75839 1.02822,0.59353 1.31615,0.34772 1.1464,0.38541 1.25963,0.1807 2.75456,-0.73847 1.33816,-0.87696 0.95674,-0.94909 1.12504,-1.00204 0.43684,-0.98621 0.22565,-1.104 0.4254,-0.98516 -0.69386,-2.58681 -0.86067,-0.63842 -0.79266,-1.01068 -0.91493,-0.79715 -1.47296,-0.29557 -1.26018,-0.18283 -1.55557,0.0661 -1.21773,-0.0243" />
    <path
       inkscape:connector-curvature="0"
       id="path204"
       style="fill:#000000;fill-opacity:1;fill-rule:evenodd;stroke:none;stroke-width:0.87219119"
       d="m 423.48233,394.20901 -0.49885,-3.16949 0.64837,-2.77793 1.00614,-2.70264 1.54764,-2.67826 2.56589,-2.07829 2.3368,-1.66865 2.79525,-1.2675 3.37172,-0.38542 3.25967,-0.17319 3.18694,0.87824 2.75008,1.17554 2.55136,1.74914 1.38339,2.58421 1.06585,2.66671 0.69659,2.59707 -0.27527,2.85783 -1.01829,2.70703 -1.37716,2.63141 -2.11695,2.47976 -2.85916,1.62643 -3.12074,1.3582 -2.91444,0.78017 -3.54694,-0.26032 -2.94647,-0.60432 -3.00409,-1.45714 -1.9784,-1.55299 -2.35471,-2.32042 -1.06642,-2.66888 -0.0877,-0.32733" />
    <path
       inkscape:connector-curvature="0"
       id="path206"
       style="fill:none;stroke:#000000;stroke-width:0.7193597;stroke-linecap:round;stroke-linejoin:round;stroke-miterlimit:10;stroke-dasharray:none;stroke-opacity:1"
       d="m 423.48233,394.209 -0.49885,-3.16949 0.64837,-2.77793 1.00614,-2.70264 1.54764,-2.67826 2.56589,-2.07829 2.3368,-1.66866 2.79525,-1.26749 3.37172,-0.38542 3.25967,-0.17319 3.18694,0.87824 2.75007,1.17554 2.55137,1.74914 1.38339,2.58421 1.06585,2.66671 0.69659,2.59707 -0.27527,2.85783 -1.01829,2.70704 -1.37716,2.6314 -2.11695,2.47976 -2.85916,1.62643 -3.12073,1.3582 -2.91445,0.78016 -3.54694,-0.26031 -2.94647,-0.60433 -3.00409,-1.45714 -1.97841,-1.55299 -2.3547,-2.32042 -1.06642,-2.66888 -0.0877,-0.32732" />
    <path
       inkscape:connector-curvature="0"
       id="path208"
       style="fill:#ffffff;fill-opacity:1;fill-rule:evenodd;stroke:none;stroke-width:0.87219119"
       d="m 435.0117,384.68758 -0.88561,0.5882 -1.5364,0.76262 -1.17054,0.83432 -0.47035,0.81644 -0.87997,1.2782 -0.0106,1.226 -0.26955,0.94137 -0.0235,1.21726 0.71703,1.3696 0.70486,0.68224 0.57765,0.8887 1.35808,0.50511 0.81827,0.4812 1.47399,0.29761 1.7538,0.0482 2.59742,-0.69661 1.48727,-0.91692 0.96793,-0.9521 0.46807,-0.82595 0.59569,-1.02878 0.55328,-1.19181 0.10948,-0.90049 0.0928,-1.58667 -0.78635,-1.0002 -0.54476,-0.72311 -1.12026,-0.92287 -1.07377,-0.75457 -0.81597,-0.47166 -1.27139,-0.17983 -1.70468,0.10613 -1.71191,0.108" />
    <path
       inkscape:connector-curvature="0"
       id="path210"
       style="fill:none;stroke:#000000;stroke-width:0.7193597;stroke-linecap:round;stroke-linejoin:round;stroke-miterlimit:10;stroke-dasharray:none;stroke-opacity:1"
       d="m 435.01187,384.68822 -0.88561,0.58819 -1.5364,0.76262 -1.17053,0.83434 -0.47036,0.81641 -0.87997,1.27823 -0.0106,1.22598 -0.26954,0.94138 -0.0235,1.21725 0.71702,1.36961 0.70487,0.68223 0.57765,0.8887 1.35807,0.50512 0.81827,0.48119 1.474,0.2976 1.75379,0.0482 2.59743,-0.69661 1.48727,-0.91691 0.96793,-0.95212 0.46806,-0.82594 0.59568,-1.02879 0.55329,-1.1918 0.10948,-0.90049 0.0928,-1.58668 -0.78634,-1.0002 -0.54476,-0.7231 -1.12026,-0.92287 -1.07376,-0.75458 -0.81598,-0.47165 -1.27139,-0.17983 -1.70468,0.10613 -1.71191,0.10801" />
    <path
       inkscape:connector-curvature="0"
       id="path212"
       style="fill:#000000;fill-opacity:1;fill-rule:evenodd;stroke:none;stroke-width:0.87219119"
       d="m 218.32823,449.26606 -0.42265,-2.84143 0.0722,-2.98331 1.46091,-2.99195 1.21754,-2.59181 2.40922,-2.03662 2.65405,-1.75135 2.95123,-1.3128 3.21497,-0.33989 3.34462,0.14358 3.10252,0.55934 2.59273,1.21974 2.30946,2.1616 1.99684,2.24975 1.06618,2.66894 0.41114,2.84131 -0.0745,2.9758 -1.00786,2.7031 -1.66228,2.87875 -1.87736,2.06469 -2.86622,1.6408 -2.9967,1.15402 -3.08135,0.82645 -3.13246,-0.0331 -3.31821,-0.67213 -2.58948,-1.21745 -2.5951,-1.90945 -1.95113,-2.09021 -1.05548,-2.6718 -0.1734,-0.64389" />
    <path
       inkscape:connector-curvature="0"
       id="path214"
       style="fill:none;stroke:#000000;stroke-width:0.7193597;stroke-linecap:round;stroke-linejoin:round;stroke-miterlimit:10;stroke-dasharray:none;stroke-opacity:1"
       d="m 218.32822,449.26604 -0.42264,-2.84142 0.0722,-2.9833 1.46091,-2.99197 1.21754,-2.59182 2.40921,-2.03661 2.65406,-1.75135 2.95124,-1.31279 3.21496,-0.33989 3.34461,0.14357 3.10253,0.55934 2.59272,1.21974 2.30946,2.1616 1.99684,2.24975 1.06618,2.66895 0.41114,2.8413 -0.0745,2.97581 -1.00786,2.7031 -1.66229,2.87875 -1.87735,2.06468 -2.86621,1.6408 -2.99672,1.15402 -3.08134,0.82645 -3.13246,-0.0331 -3.3182,-0.67212 -2.58948,-1.21744 -2.59511,-1.90946 -1.95114,-2.09021 -1.05547,-2.67181 -0.1734,-0.6439" />
    <path
       inkscape:connector-curvature="0"
       id="path216"
       style="fill:#ffffff;fill-opacity:1;fill-rule:evenodd;stroke:none;stroke-width:0.87219119"
       d="m 229.85327,439.73933 -1.25507,0.50712 -1.53936,0.76343 -1.04222,0.63019 -0.75269,1.07318 -0.55312,1.18944 -0.18382,1.26022 -0.10919,0.90045 -0.178,1.26994 0.87435,1.32745 0.58727,0.88263 0.74764,0.84287 0.98878,0.43546 1.27385,0.87073 1.21742,0.0233 1.7149,-0.10878 2.75456,-0.73848 1.04223,-0.63018 1.21279,-0.67471 0.83775,-1.43666 0.46807,-0.82595 0.55287,-1.19144 0.067,-1.05796 -0.69667,-2.59734 -0.54505,-0.72508 -1.11668,-0.91166 -0.90374,-0.79896 -1.35889,-0.50722 -1.388,0.0214 -1.21774,-0.0245 -1.49955,0.23116" />
    <path
       inkscape:connector-curvature="0"
       id="path218"
       style="fill:none;stroke:#000000;stroke-width:0.7193597;stroke-linecap:round;stroke-linejoin:round;stroke-miterlimit:10;stroke-dasharray:none;stroke-opacity:1"
       d="m 229.85336,439.73964 -1.25507,0.50712 -1.53936,0.76344 -1.04222,0.63017 -0.7527,1.07318 -0.55312,1.18945 -0.18382,1.26021 -0.10919,0.90046 -0.17799,1.26993 0.87435,1.32745 0.58727,0.88262 0.74764,0.84289 0.98878,0.43546 1.27385,0.87073 1.21742,0.0233 1.7149,-0.10878 2.75456,-0.73847 1.04223,-0.63018 1.2128,-0.67471 0.83775,-1.43666 0.46806,-0.82595 0.55287,-1.19145 0.067,-1.05797 -0.69667,-2.59732 -0.54504,-0.72509 -1.11668,-0.91165 -0.90374,-0.79897 -1.3589,-0.50721 -1.388,0.0214 -1.21773,-0.0244 -1.49955,0.23117" />
    <path
       sodipodi:nodetypes="ccccccccc"
       inkscape:connector-curvature="0"
       id="path246"
       style="fill:none;stroke:#000000;stroke-width:0.7193597;stroke-linecap:round;stroke-linejoin:round;stroke-miterlimit:10;stroke-dasharray:none;stroke-opacity:1"
       d="m 448.30597,364.86932 -70.71991,18.95431 2.30375,8.59433 -234.69683,62.90419 M 448.30552,364.86921 425.39174,279.40277 119.97507,361.2615 m 25.21801,94.06062 -25.21801,-94.06062" />
    <path
       inkscape:connector-curvature="0"
       id="path248"
       style="fill:#000000;fill-opacity:1;fill-rule:evenodd;stroke:none;stroke-width:0.87219119"
       d="m 426.3849,377.17266 -5.18485,1.38963 -1.13,-4.21358 5.18485,-1.38964 1.13,4.21357 z" />
    <path
       inkscape:connector-curvature="0"
       id="path250"
       style="fill:none;stroke:#000000;stroke-width:2.15798903;stroke-linecap:round;stroke-linejoin:miter;stroke-miterlimit:10;stroke-dasharray:none;stroke-opacity:1"
       d="m 426.3849,377.17265 -5.18484,1.38964 -1.13001,-4.21359 5.18485,-1.38963 1.13,4.21357 z" />
    <path
       inkscape:connector-curvature="0"
       id="path260"
       style="fill:#000000;fill-opacity:1;fill-rule:evenodd;stroke:none;stroke-width:0.87219119"
       d="m 156.34165,465.78948 -0.65915,-3.12542 0.47556,-2.74379 1.01878,-2.70624 1.70769,-2.70843 2.40673,-2.03594 2.66386,-1.75749 2.78446,-1.2759 3.37354,-0.3746 2.927,-0.0952 3.52099,0.80149 2.26226,1.30482 2.72026,1.7053 1.86902,2.45377 1.22463,2.62298 0.21021,2.72887 -0.10988,2.80082 -1.34295,2.79401 -1.21809,2.58877 -2.43853,2.56622 -2.37715,1.50828 -2.95396,1.31349 -3.4006,0.91152 -2.90354,-0.44407 -3.58969,-0.43077 -2.83398,-1.49258 -1.99168,-1.55958 -2.03607,-2.40699 -1.22552,-2.62621 -0.0849,-0.31676" />
    <path
       inkscape:connector-curvature="0"
       id="path262"
       style="fill:#ffffff;fill-opacity:1;fill-rule:evenodd;stroke:none;stroke-width:0.87219119"
       d="m 168.19522,456.18143 -1.52901,0.74821 -1.05318,0.63311 -0.83997,0.7466 -0.96548,0.95924 -0.54184,1.18877 -0.5118,1.34466 -0.26817,0.94447 0.69661,2.59707 0.70468,0.68372 1.07398,0.75219 1.02074,0.59756 1.31307,0.33726 1.14368,0.38616 1.27085,0.17882 2.75458,-0.73845 1.32716,-0.87518 0.96741,-0.95195 1.11693,-0.98857 0.43634,-0.9881 0.22652,-1.10077 0.42505,-0.98648 -0.69661,-2.59708 -0.86155,-0.64168 -0.7887,-0.99611 -0.91527,-0.79822 -1.46451,-0.30795 -1.27114,-0.18079 -1.54485,0.0632 -1.22558,-0.01" />
    <path
       inkscape:connector-curvature="0"
       id="path264"
       style="fill:none;stroke:#000000;stroke-width:0.7193597;stroke-linecap:round;stroke-linejoin:round;stroke-miterlimit:10;stroke-dasharray:none;stroke-opacity:1"
       d="m 168.1954,456.18208 -1.52901,0.74822 -1.05319,0.6331 -0.83996,0.7466 -0.96547,0.95926 -0.54184,1.18875 -0.51179,1.34466 -0.26819,0.94448 0.6966,2.59708 0.70469,0.68371 1.07399,0.75219 1.02073,0.59754 1.31307,0.33727 1.14369,0.38616 1.27085,0.17885 2.75457,-0.73848 1.32716,-0.87516 0.96743,-0.95198 1.11693,-0.98855 0.43632,-0.9881 0.22653,-1.10079 0.42505,-0.98647 -0.69662,-2.59707 -0.86155,-0.64168 -0.78871,-0.9961 -0.91524,-0.79822 -1.46453,-0.30795 -1.27115,-0.18079 -1.54484,0.0632 -1.22557,-0.01" />
    <path
       inkscape:connector-curvature="0"
       id="path3426"
       d="M 521.64654,420.1142 H 387.26153"
       style="fill:none;stroke:#969696;stroke-width:1.30828679;stroke-linecap:butt;stroke-linejoin:miter;stroke-miterlimit:4;stroke-dasharray:1.30828678, 2.61657354;stroke-dashoffset:0;stroke-opacity:1" />
    <g
       transform="matrix(-1.6965439,0.04911024,0.04909868,1.69665,618.69878,210.36137)"
       id="g3331">
      <path
         inkscape:connector-curvature="0"
         d="m 179.82,74.984 c 0,3.11 -2.519,5.629 -5.629,5.629 -3.105,0 -5.625,-2.519 -5.625,-5.629 0,-3.105 2.52,-5.625 5.625,-5.625 3.11,0 5.629,2.52 5.629,5.625 z"
         style="fill:none;stroke:#000000;stroke-width:1.10649204;stroke-linecap:butt;stroke-linejoin:miter;stroke-miterlimit:4;stroke-dasharray:none;stroke-opacity:1"
         id="path3333" />
    </g>
    <g
       transform="matrix(-1.6965439,0.04911024,0.04909868,1.69665,618.69878,210.36137)"
       id="g3335">
      <path
         inkscape:connector-curvature="0"
         d="m 168.789,74.43 c 0,-2.801 2.27,-5.067 5.07,-5.067 v 5.067 z"
         style="fill:#000000;fill-opacity:1;fill-rule:nonzero;stroke:#000000;stroke-width:1.15124631;stroke-linecap:butt;stroke-linejoin:miter;stroke-miterlimit:4;stroke-dasharray:none;stroke-opacity:1"
         id="path3337" />
    </g>
    <path
       inkscape:connector-curvature="0"
       d="m 317.33114,346.98383 c 0.13732,4.74555 4.09825,8.48551 8.84348,8.34814 l -0.24876,-8.59693 z"
       style="fill:#000000;fill-opacity:1;fill-rule:nonzero;stroke:#000000;stroke-width:1.95401919;stroke-linecap:butt;stroke-linejoin:miter;stroke-miterlimit:4;stroke-dasharray:none;stroke-opacity:1"
       id="path3341" />
    <path
       inkscape:connector-curvature="0"
       id="path4498"
       d="M 534.64226,377.96756 133.48124,485.78093"
       style="fill:none;fill-rule:evenodd;stroke:#969696;stroke-width:1.30828667;stroke-linecap:butt;stroke-linejoin:miter;stroke-miterlimit:4;stroke-dasharray:none;stroke-opacity:1" />
    <path
       inkscape:connector-curvature="0"
       id="path5104"
       d="m 327.01377,362.58083 v 33.41101"
       style="fill:none;fill-rule:evenodd;stroke:#000000;stroke-width:1.74438226;stroke-linecap:butt;stroke-linejoin:miter;stroke-miterlimit:4;stroke-dasharray:none;stroke-opacity:1;marker-end:url(#Arrow1Mend)" />
    <path
       inkscape:connector-curvature="0"
       id="path5104-9"
       d="m 310.2244,350.70352 -32.26785,8.64706"
       style="fill:none;fill-rule:evenodd;stroke:#000000;stroke-width:1.74438226;stroke-linecap:butt;stroke-linejoin:miter;stroke-miterlimit:4;stroke-dasharray:none;stroke-opacity:1;marker-end:url(#Arrow1Mend-37)" />
    <path
       inkscape:connector-curvature="0"
       id="path5104-9-8"
       d="m 273.29391,360.59902 -32.26786,8.64705"
       style="fill:none;fill-rule:evenodd;stroke:#000000;stroke-width:1.74438226;stroke-linecap:butt;stroke-linejoin:miter;stroke-miterlimit:4;stroke-dasharray:none;stroke-opacity:1;marker-end:url(#Arrow1Mend-37-2)" />
    <path
       inkscape:connector-curvature="0"
       id="path5104-1"
       d="m 365.50482,335.5928 32.26787,-8.64705"
       style="fill:none;fill-rule:evenodd;stroke:#000000;stroke-width:1.74438226;stroke-linecap:butt;stroke-linejoin:miter;stroke-miterlimit:4;stroke-dasharray:none;stroke-opacity:1;marker-end:url(#Arrow1Mend-97)" />
    <path
       inkscape:connector-curvature="0"
       id="path5104-19"
       d="m 314.86994,305.81667 -8.64648,-32.27248"
       style="fill:none;fill-rule:evenodd;stroke:#000000;stroke-width:1.74438226;stroke-linecap:butt;stroke-linejoin:miter;stroke-miterlimit:4;stroke-dasharray:none;stroke-opacity:1;marker-end:url(#Arrow1Mend-2)" />
    <path
       inkscape:connector-curvature="0"
       id="path5104-1-3"
       d="m 336.30392,343.41611 23.66518,-6.34045"
       style="fill:none;fill-rule:evenodd;stroke:#000000;stroke-width:0.87219119;stroke-linecap:butt;stroke-linejoin:miter;stroke-miterlimit:4;stroke-dasharray:none;stroke-opacity:1;marker-end:url(#Arrow1Mend-97-6)" />
    <path
       inkscape:connector-curvature="0"
       id="path5104-19-5"
       d="M 323.14141,336.68236 316.79983,313.0175"
       style="fill:none;fill-rule:evenodd;stroke:#000000;stroke-width:0.87219107;stroke-linecap:butt;stroke-linejoin:miter;stroke-miterlimit:4;stroke-dasharray:none;stroke-opacity:1;marker-end:url(#Arrow1Mend-2-7)" />
    <path
       inkscape:connector-curvature="0"
       id="path4498-3"
       d="M 140.19205,509.73004 354.11068,452.88202"
       style="fill:none;fill-rule:evenodd;stroke:#000000;stroke-width:1.30828679;stroke-linecap:butt;stroke-linejoin:miter;stroke-miterlimit:4;stroke-dasharray:none;stroke-opacity:1;marker-end:url(#Arrow1Mend)" />
    <path
       inkscape:connector-curvature="0"
       id="path3426-9"
       d="m 138.34728,504.88508 2.74748,10.25373"
       style="fill:none;stroke:#000000;stroke-width:1.30828655;stroke-linecap:butt;stroke-linejoin:miter;stroke-miterlimit:4;stroke-dasharray:none;stroke-opacity:1" />
    <path
       inkscape:connector-curvature="0"
       id="path3426-9-2"
       d="m 355.25943,447.01662 2.74748,10.25373"
       style="fill:none;stroke:#000000;stroke-width:1.30828655;stroke-linecap:butt;stroke-linejoin:miter;stroke-miterlimit:4;stroke-dasharray:none;stroke-opacity:1" />
    <circle
       cy="485.76404"
       cx="133.48477"
       id="path11492"
       style="opacity:1;fill:#000000;fill-opacity:1;stroke:#000000;stroke-width:1.30828679;stroke-linecap:butt;stroke-linejoin:miter;stroke-miterlimit:4;stroke-dasharray:none;stroke-dashoffset:0;stroke-opacity:1"
       r="2.6983414" />
    <path
       inkscape:connector-curvature="0"
       id="path5104-1-3-7"
       d="m 133.48124,485.78093 24.49984,6e-4"
       style="fill:none;fill-rule:evenodd;stroke:#000000;stroke-width:0.87219119;stroke-linecap:butt;stroke-linejoin:miter;stroke-miterlimit:4;stroke-dasharray:none;stroke-opacity:1;marker-end:url(#Arrow1Mend-97-6-3)" />
    <path
       inkscape:connector-curvature="0"
       id="path5104-1-3-7-5"
       d="m 133.48124,485.78093 6e-4,-24.49984"
       style="fill:none;fill-rule:evenodd;stroke:#000000;stroke-width:0.87219119;stroke-linecap:butt;stroke-linejoin:miter;stroke-miterlimit:4;stroke-dasharray:none;stroke-opacity:1;marker-end:url(#Arrow1Mend-97-6-3-5)" />
    <g
       ns1:text="\\(\\textbf{N}\\)"
       transform="translate(141.74773,169.51917)"
       id="g1346">
      <g
         id="surface1">
        <g
           style="fill:#000000;fill-opacity:1"
           id="g1343">
          <path
             inkscape:connector-curvature="0"
             style="stroke:none"
             d="M 8.578125,-6.375 V -6.84375 C 8.1875,-6.8125 7.625,-6.8125 7.234375,-6.8125 c -0.421875,0 -0.9375,0 -1.34375,-0.03125 V -6.375 h 0.25 c 0.171875,0 0.34375,0.015625 0.53125,0.03125 0.28125,0.03125 0.296875,0.046875 0.296875,0.265625 v 4.03125 L 3,-6.703125 C 2.890625,-6.828125 2.875,-6.84375 2.671875,-6.84375 H 0.390625 V -6.375 H 1.46875 v 5.625 c 0,0.21875 -0.015625,0.21875 -0.296875,0.25 -0.234375,0.03125 -0.25,0.03125 -0.53125,0.03125 h -0.25 V 0 c 0.375,-0.03125 0.9375,-0.03125 1.328125,-0.03125 0.421875,0 0.9375,0 1.359375,0.03125 v -0.46875 h -0.25 C 2.640625,-0.46875 2.46875,-0.484375 2.296875,-0.5 2,-0.53125 2,-0.53125 2,-0.75 V -5.96875 L 6.953125,-0.125 C 7.0625,-0.015625 7.0625,0 7.234375,0 7.5,0 7.5,-0.09375 7.5,-0.3125 V -6.078125 C 7.5,-6.296875 7.5,-6.3125 7.78125,-6.34375 8.03125,-6.375 8.046875,-6.375 8.328125,-6.375 Z m 0,0"
             transform="translate(178.585,110.99)"
             id="path1341" />
        </g>
      </g>
    </g>
    <g
       id="g1942"
       transform="translate(148.27615,207.35796)"
       ns1:text="\\(\\textbf{j}\\)">
      <g
         id="g1940">
        <g
           id="g1938"
           style="fill:#000000;fill-opacity:1">
          <path
             inkscape:connector-curvature="0"
             id="path1936"
             transform="translate(178.585,110.99)"
             d="m 2.65625,0.421875 v -4.90625 L 0.828125,-4.40625 v 0.46875 c 0.171875,0 0.390625,0 0.53125,0.015625 0.21875,0.046875 0.21875,0.171875 0.21875,0.390625 v 3.953125 c 0,0.5 -0.140625,1.21875 -0.734375,1.21875 -0.171875,0 -0.25,-0.03125 -0.390625,-0.0625 0.1875,-0.140625 0.234375,-0.359375 0.234375,-0.5 0,-0.34375 -0.265625,-0.625 -0.625,-0.625 -0.375,0 -0.625,0.28125 -0.625,0.640625 C -0.5625,1.65625 0.046875,2 0.859375,2 1.71875,2 2.65625,1.46875 2.65625,0.421875 Z m 0,-6.46875 c 0,-0.4375 -0.34375,-0.78125 -0.765625,-0.78125 -0.4375,0 -0.78125,0.34375 -0.78125,0.78125 0,0.421875 0.34375,0.765625 0.78125,0.765625 0.421875,0 0.765625,-0.34375 0.765625,-0.765625 z m 0,0"
             style="stroke:none" />
        </g>
      </g>
    </g>
    <g
       ns1:text="\\(\\textbf{i}\\)"
       transform="translate(172.45992,222.2501)"
       id="g2438">
      <g
         id="g2436">
        <g
           style="fill:#000000;fill-opacity:1"
           id="g2434">
          <path
             inkscape:connector-curvature="0"
             style="stroke:none"
             d="M 2.84375,0 V -0.46875 H 2.234375 V -4.484375 L 0.5,-4.40625 v 0.46875 c 0.59375,0 0.65625,0 0.65625,0.390625 V -0.46875 H 0.46875 V 0 L 1.6875,-0.03125 Z M 2.375,-6.046875 c 0,-0.4375 -0.34375,-0.78125 -0.78125,-0.78125 -0.421875,0 -0.78125,0.34375 -0.78125,0.78125 0,0.421875 0.359375,0.765625 0.78125,0.765625 0.4375,0 0.78125,-0.34375 0.78125,-0.765625 z m 0,0"
             transform="translate(178.585,110.99)"
             id="path2432" />
        </g>
      </g>
    </g>
    <g
       id="g2934"
       transform="translate(214.77237,210.51482)"
       ns1:text="\\(\\textbf{T}\\)">
      <g
         id="g2932">
        <g
           id="g2930"
           style="fill:#000000;fill-opacity:1">
          <path
             inkscape:connector-curvature="0"
             id="path2928"
             transform="translate(178.585,110.99)"
             d="M 7.546875,-4.328125 7.34375,-6.734375 H 0.625 l -0.203125,2.40625 h 0.46875 c 0.09375,-1.125 0.1875,-1.9375 1.625,-1.9375 H 3.28125 V -0.46875 H 1.75 V 0 c 0.546875,-0.03125 1.65625,-0.03125 2.234375,-0.03125 0.59375,0 1.703125,0 2.234375,0.03125 V -0.46875 H 4.6875 v -5.796875 h 0.765625 c 1.421875,0 1.53125,0.796875 1.625,1.9375 z m 0,0"
             style="stroke:none" />
        </g>
      </g>
    </g>
    <g
       ns1:text="\\(\\textbf{G}\\)"
       transform="translate(155.67565,279.77575)"
       id="g3430">
      <g
         id="g3428">
        <g
           style="fill:#000000;fill-opacity:1"
           id="g3426">
          <path
             style="stroke:none"
             d="M 8.421875,-2.28125 V -2.75 c -0.34375,0.03125 -1.21875,0.03125 -1.609375,0.03125 -0.578125,0 -1.5,0 -2.03125,-0.03125 v 0.46875 h 1.421875 v 1 c 0,0.1875 0,0.484375 -0.375,0.71875 C 5.5625,-0.421875 5.25,-0.359375 4.921875,-0.359375 c -0.859375,0 -1.71875,-0.28125 -2.203125,-0.90625 -0.421875,-0.546875 -0.5625,-1.25 -0.5625,-2.15625 0,-1.125 0.203125,-1.703125 0.578125,-2.1875 0.390625,-0.5 1.15625,-0.875 2.125,-0.875 1.0625,0 2.015625,0.765625 2.234375,2.03125 C 7.125,-4.265625 7.125,-4.25 7.359375,-4.25 c 0.25,0 0.265625,-0.015625 0.265625,-0.28125 v -2.140625 c 0,-0.1875 0,-0.28125 -0.171875,-0.28125 -0.09375,0 -0.109375,0.03125 -0.203125,0.09375 l -0.65625,0.59375 c -0.71875,-0.578125 -1.4375,-0.6875 -1.953125,-0.6875 -2.453125,0 -4,1.46875 -4,3.53125 0,1.984375 1.4375,3.53125 4.015625,3.53125 0.328125,0 1.359375,-0.015625 1.859375,-0.640625 C 6.8125,-0.265625 7.421875,0 7.484375,0 7.625,0 7.625,-0.125 7.625,-0.28125 v -2 z m 0,0"
             transform="translate(178.585,110.99)"
             id="path3424"
             inkscape:connector-curvature="0" />
        </g>
      </g>
    </g>
    <g
       id="g3926"
       transform="translate(112.69289,235.34934)"
       ns1:text="\\(\\textbf{D}\\)">
      <g
         id="g3924">
        <g
           id="g3922"
           style="fill:#000000;fill-opacity:1">
          <path
             inkscape:connector-curvature="0"
             id="path3920"
             transform="translate(178.585,110.99)"
             d="m 8.140625,-3.359375 c 0,-2.1875 -1.484375,-3.484375 -3.46875,-3.484375 H 0.390625 V -6.375 H 1.46875 v 5.90625 H 0.390625 V 0 H 4.6875 C 6.65625,0 8.140625,-1.21875 8.140625,-3.359375 Z M 6.671875,-3.375 c 0,1.09375 -0.109375,1.625 -0.4375,2.0625 -0.46875,0.6875 -1.34375,0.84375 -1.953125,0.84375 H 2.828125 V -6.375 H 4.28125 c 0.65625,0 1.484375,0.1875 1.96875,0.890625 0.34375,0.515625 0.421875,1.1875 0.421875,2.109375 z m 0,0"
             style="stroke:none" />
        </g>
      </g>
    </g>
    <g
       ns1:text="\\(\\textbf{R}\\)"
       transform="translate(69.094913,245.91305)"
       id="g4422">
      <g
         id="g4420">
        <g
           style="fill:#000000;fill-opacity:1"
           id="g4418">
          <path
             inkscape:connector-curvature="0"
             style="stroke:none"
             d="m 8.546875,-0.953125 c 0,-0.21875 -0.140625,-0.21875 -0.234375,-0.21875 -0.203125,0 -0.21875,0.109375 -0.234375,0.234375 C 8.03125,-0.46875 7.75,-0.25 7.453125,-0.25 c -0.609375,0 -0.6875,-0.703125 -0.75,-1.125 C 6.6875,-1.484375 6.609375,-2.171875 6.59375,-2.21875 6.453125,-2.921875 5.90625,-3.234375 5.484375,-3.390625 6.640625,-3.6875 7.140625,-4.34375 7.140625,-5 c 0,-1 -1.09375,-1.84375 -2.96875,-1.84375 H 0.390625 V -6.375 H 1.46875 v 5.90625 H 0.390625 V 0 c 0.359375,-0.03125 1.328125,-0.03125 1.75,-0.03125 0.421875,0 1.390625,0 1.75,0.03125 v -0.46875 h -1.0625 v -2.765625 h 1.15625 c 0.140625,0 0.578125,0 0.890625,0.328125 0.3125,0.359375 0.3125,0.546875 0.3125,1.265625 0,0.65625 0,1.15625 0.703125,1.484375 0.4375,0.21875 1.0625,0.265625 1.46875,0.265625 1.0625,0 1.1875,-0.890625 1.1875,-1.0625 z M 5.625,-4.984375 c 0,0.5625 0,1.390625 -1.640625,1.390625 H 2.828125 V -6.375 H 4 c 1.609375,0 1.625,0.78125 1.625,1.390625 z m 0,0"
             transform="translate(178.585,110.99)"
             id="path4416" />
        </g>
      </g>
    </g>
    <g
       id="g4922"
       transform="matrix(1.000000,0,0,1.000000,-5.553480,20.390340)"
       ns1:text="\\(\\textbf{I}\\)">
      <g
         id="g4920">
        <g
           id="g4918"
           style="fill:rgb(0%,0%,0%);fill-opacity:1;">
          <path
             id="path4916"
             transform="translate(178.585,110.99)"
             d="M 4.015625 0 L 4.015625 -0.46875 L 2.875 -0.46875 L 2.875 -6.375 L 4.015625 -6.375 L 4.015625 -6.84375 C 3.609375 -6.8125 2.625 -6.8125 2.171875 -6.8125 C 1.71875 -6.8125 0.734375 -6.8125 0.328125 -6.84375 L 0.328125 -6.375 L 1.46875 -6.375 L 1.46875 -0.46875 L 0.328125 -0.46875 L 0.328125 0 C 0.734375 -0.03125 1.71875 -0.03125 2.171875 -0.03125 C 2.625 -0.03125 3.609375 -0.03125 4.015625 0 Z M 4.015625 0 "
             style="stroke:none;" />
        </g>
      </g>
    </g>
    <g
       ns1:text="\\(\\textbf{J}\\)"
       transform="translate(-55.60588,347.28668)"
       id="g5426">
      <g
         id="g5424">
        <g
           style="fill:#000000;fill-opacity:1"
           id="g5422">
          <path
             inkscape:connector-curvature="0"
             style="stroke:none"
             d="M 5.25,-6.375 V -6.84375 C 4.90625,-6.8125 4.0625,-6.8125 3.671875,-6.8125 c -0.53125,0 -1.515625,0 -1.984375,-0.03125 V -6.375 h 1.40625 v 4.890625 c 0,0.1875 0,1.234375 -0.984375,1.234375 -0.171875,0 -0.5,-0.03125 -0.8125,-0.171875 0,0 0.453125,-0.1875 0.453125,-0.71875 0,-0.53125 -0.421875,-0.765625 -0.75,-0.765625 -0.375,0 -0.765625,0.25 -0.765625,0.765625 0,0.765625 0.78125,1.25 1.921875,1.25 1.328125,0 2.296875,-0.5625 2.296875,-1.609375 v -4.875 z m 0,0"
             transform="translate(178.585,110.99)"
             id="path5420" />
        </g>
      </g>
    </g>
    <g
       id="g5930"
       transform="translate(62.701515,364.29278)"
       ns1:text="\\(s\\)">
      <g
         id="g5928">
        <g
           id="g5926"
           style="fill:#000000;fill-opacity:1">
          <path
             id="path5924"
             transform="translate(178.585,110.99)"
             d="M 3.890625,-3.734375 C 3.625,-3.71875 3.421875,-3.5 3.421875,-3.28125 c 0,0.140625 0.09375,0.296875 0.3125,0.296875 0.21875,0 0.453125,-0.171875 0.453125,-0.5625 C 4.1875,-4 3.765625,-4.40625 3,-4.40625 c -1.3125,0 -1.6875,1.015625 -1.6875,1.453125 0,0.78125 0.734375,0.921875 1.03125,0.984375 0.515625,0.109375 1.03125,0.21875 1.03125,0.765625 0,0.25 -0.21875,1.09375 -1.421875,1.09375 -0.140625,0 -0.90625,0 -1.140625,-0.53125 0.390625,0.046875 0.640625,-0.25 0.640625,-0.53125 0,-0.21875 -0.171875,-0.34375 -0.375,-0.34375 -0.265625,0 -0.5625,0.203125 -0.5625,0.65625 0,0.5625 0.578125,0.96875 1.421875,0.96875 1.625,0 2.015625,-1.203125 2.015625,-1.65625 0,-0.359375 -0.1875,-0.609375 -0.3125,-0.71875 -0.265625,-0.28125 -0.5625,-0.34375 -1,-0.421875 -0.359375,-0.078125 -0.75,-0.15625 -0.75,-0.609375 C 1.890625,-3.578125 2.125,-4.1875 3,-4.1875 c 0.25,0 0.75,0.078125 0.890625,0.453125 z m 0,0"
             style="stroke:none"
             inkscape:connector-curvature="0" />
        </g>
      </g>
    </g>
    <g
       ns1:text="\\(O\\)"
       transform="translate(-55.372562,387.96656)"
       id="g6462">
      <g
         id="g6460">
        <g
           style="fill:#000000;fill-opacity:1"
           id="g6458">
          <path
             style="stroke:none"
             d="m 7.375,-4.34375 c 0,-1.609375 -1.0625,-2.6875 -2.546875,-2.6875 -2.140625,0 -4.34375,2.265625 -4.34375,4.59375 0,1.65625 1.125,2.65625 2.5625,2.65625 2.109375,0 4.328125,-2.1875 4.328125,-4.5625 z m -4.28125,4.296875 c -0.984375,0 -1.671875,-0.796875 -1.671875,-2.109375 0,-0.453125 0.140625,-1.90625 0.90625,-3.0625 0.6875,-1.046875 1.65625,-1.5625 2.453125,-1.5625 0.8125,0 1.703125,0.5625 1.703125,2.046875 0,0.71875 -0.265625,2.265625 -1.25,3.5 C 4.75,-0.625 3.9375,-0.046875 3.09375,-0.046875 Z m 0,0"
             transform="translate(178.585,110.99)"
             id="path6456"
             inkscape:connector-curvature="0" />
        </g>
      </g>
    </g>
    <g
       id="g6974"
       transform="translate(299.77467,301.76713)"
       ns1:text="\\(\\theta\\)">
      <g
         id="g6972">
        <g
           id="g6970"
           style="fill:#000000;fill-opacity:1">
          <path
             id="path6968"
             transform="translate(178.585,110.99)"
             d="m 4.53125,-4.984375 c 0,-0.65625 -0.171875,-2.046875 -1.1875,-2.046875 -1.390625,0 -2.921875,2.8125 -2.921875,5.09375 0,0.9375 0.28125,2.046875 1.1875,2.046875 1.40625,0 2.921875,-2.859375 2.921875,-5.09375 z M 1.46875,-3.625 C 1.640625,-4.25 1.84375,-5.046875 2.25,-5.765625 2.515625,-6.25 2.875,-6.8125 3.328125,-6.8125 c 0.484375,0 0.546875,0.640625 0.546875,1.203125 0,0.5 -0.078125,1 -0.3125,1.984375 z m 2,0.328125 C 3.359375,-2.84375 3.15625,-2 2.765625,-1.28125 c -0.34375,0.6875 -0.71875,1.171875 -1.15625,1.171875 -0.328125,0 -0.53125,-0.296875 -0.53125,-1.21875 0,-0.421875 0.0625,-1 0.3125,-1.96875 z m 0,0"
             style="stroke:none"
             inkscape:connector-curvature="0" />
        </g>
      </g>
    </g>
    <g
       ns1:text="\\(T\\)"
       transform="translate(162.53225,248.17651)"
       id="g7482">
      <g
         id="g7480">
        <g
           style="fill:#000000;fill-opacity:1"
           id="g7478">
          <path
             inkscape:connector-curvature="0"
             style="stroke:none"
             d="m 4.25,-6.046875 c 0.078125,-0.28125 0.109375,-0.34375 0.234375,-0.375 0.09375,-0.015625 0.421875,-0.015625 0.625,-0.015625 1.015625,0 1.453125,0.03125 1.453125,0.8125 0,0.15625 -0.03125,0.546875 -0.078125,0.796875 0,0.046875 -0.03125,0.15625 -0.03125,0.1875 0,0.0625 0.03125,0.140625 0.125,0.140625 0.109375,0 0.125,-0.078125 0.15625,-0.234375 L 7,-6.46875 C 7.015625,-6.515625 7.015625,-6.609375 7.015625,-6.640625 7.015625,-6.75 6.921875,-6.75 6.75,-6.75 H 1.21875 c -0.234375,0 -0.25,0.015625 -0.328125,0.203125 l -0.59375,1.75 c 0,0.015625 -0.0625,0.15625 -0.0625,0.1875 0,0.046875 0.0625,0.109375 0.125,0.109375 0.09375,0 0.109375,-0.0625 0.171875,-0.21875 C 1.0625,-6.265625 1.328125,-6.4375 2.796875,-6.4375 H 3.1875 c 0.28125,0 0.28125,0.03125 0.28125,0.125 0,0.046875 -0.03125,0.171875 -0.046875,0.203125 L 2.09375,-0.78125 C 2,-0.421875 1.96875,-0.3125 0.90625,-0.3125 c -0.359375,0 -0.421875,0 -0.421875,0.1875 C 0.484375,0 0.59375,0 0.65625,0 c 0.265625,0 0.546875,-0.015625 0.8125,-0.015625 0.28125,0 0.578125,-0.015625 0.859375,-0.015625 0.28125,0 0.546875,0.015625 0.828125,0.015625 C 3.4375,-0.015625 3.734375,0 4.015625,0 c 0.09375,0 0.21875,0 0.21875,-0.203125 0,-0.109375 -0.078125,-0.109375 -0.34375,-0.109375 -0.234375,0 -0.375,0 -0.625,-0.015625 -0.296875,-0.03125 -0.375,-0.0625 -0.375,-0.21875 0,-0.015625 0,-0.0625 0.046875,-0.203125 z m 0,0"
             transform="translate(178.585,110.99)"
             id="path7476" />
        </g>
      </g>
    </g>
    <g
       id="g7968"
       transform="translate(-16.994545,383.16653)"
       ns1:text="\\(\\textbf{I}\\)">
      <g
         id="g7966">
        <g
           id="g7964"
           style="fill:rgb(0%,0%,0%);fill-opacity:1;">
          <path
             id="path7962"
             transform="translate(178.585,110.99)"
             d="M 4.015625 0 L 4.015625 -0.46875 L 2.875 -0.46875 L 2.875 -6.375 L 4.015625 -6.375 L 4.015625 -6.84375 C 3.609375 -6.8125 2.625 -6.8125 2.171875 -6.8125 C 1.71875 -6.8125 0.734375 -6.8125 0.328125 -6.84375 L 0.328125 -6.375 L 1.46875 -6.375 L 1.46875 -0.46875 L 0.328125 -0.46875 L 0.328125 0 C 0.734375 -0.03125 1.71875 -0.03125 2.171875 -0.03125 C 2.625 -0.03125 3.609375 -0.03125 4.015625 0 Z M 4.015625 0 "
             style="stroke:none;" />
        </g>
      </g>
    </g>
  </g>
</svg>
